<svg width="244" height="99" viewBox="0 0 244 99" fill="none" xmlns="http://www.w3.org/2000/svg">
<path d="M35.3411 8.01272C35.5582 8.01272 35.7752 8.01272 35.9988 8.01272C37.1041 11.416 38.2032 14.8213 39.2775 18.2345C39.3751 18.5441 39.473 18.8537 39.5712 19.1631C39.7086 19.5963 39.8448 20.0299 39.9807 20.4637C40.0975 20.8345 40.0975 20.8345 40.2167 21.2127C40.3832 21.8235 40.3832 21.8235 40.3832 22.4812C40.5084 22.4817 40.6337 22.4822 40.7627 22.4828C43.8206 22.4958 46.8785 22.5124 49.9364 22.5328C51.4152 22.5427 52.894 22.5513 54.3728 22.5571C55.8014 22.5628 57.2298 22.5717 58.6583 22.5827C59.2019 22.5864 59.7455 22.5889 60.2892 22.5903C61.0536 22.5924 61.8179 22.5985 62.5823 22.6056C62.8045 22.6053 63.0267 22.605 63.2556 22.6047C67.3816 22.6581 70.8635 24.4521 73.8457 27.2124C76.4016 29.836 77.922 33.5189 78.0888 37.1688C78.1058 37.388 78.1058 37.388 78.1231 37.6116C78.3002 41.5884 76.5286 45.6963 73.8903 48.623C72.5435 49.8986 70.2067 52.0757 68.224 52.0757C68.2308 52.3402 68.2308 52.3402 68.2377 52.6101C68.224 53.1718 68.224 53.1718 68.0048 53.391C68.2274 53.4897 68.4501 53.5883 68.6795 53.6899C70.8508 54.6892 72.5039 55.8192 74.1429 57.5562C74.3071 57.7272 74.4713 57.8981 74.6404 58.0743C77.0175 60.7786 78.3225 64.8321 78.1496 68.4281C77.7249 72.1133 76.728 75.3992 74.1429 78.1628C73.9869 78.336 73.8309 78.5092 73.6702 78.6877C72.5606 79.8657 71.4119 80.708 69.9777 81.4511C69.7907 81.5503 69.6036 81.6495 69.4108 81.7516C66.0284 83.423 62.563 83.2968 58.8823 83.2768C58.3417 83.2761 57.801 83.2757 57.2604 83.2755C56.1341 83.2745 55.0078 83.2714 53.8815 83.2665C52.4346 83.2602 50.9878 83.2579 49.5409 83.2569C48.4279 83.256 47.3148 83.2539 46.2017 83.2512C45.6677 83.25 45.1337 83.2489 44.5998 83.2481C43.8578 83.2466 43.1158 83.2436 42.3739 83.2402C42.1519 83.2399 41.93 83.2397 41.7014 83.2394C41.5007 83.2382 41.3001 83.2369 41.0934 83.2356C40.9182 83.235 40.7429 83.2343 40.5624 83.2336C40.164 83.2048 40.1639 83.2048 39.9447 82.9856C39.9236 82.6028 39.918 82.2191 39.9184 81.8357C39.9179 81.4617 39.9179 81.4617 39.9175 81.0802C39.9186 80.6663 39.9186 80.6663 39.9198 80.244C39.9198 79.9554 39.9198 79.6667 39.9197 79.3692C39.9197 78.5753 39.921 77.7813 39.9225 76.9874C39.9239 76.1585 39.924 75.3296 39.9243 74.5008C39.9249 72.9302 39.9267 71.3595 39.9289 69.7889C39.9318 67.6673 39.933 65.5456 39.9343 63.424C39.9364 60.0797 39.9407 56.7354 39.9447 53.391C34.0127 53.391 28.0806 53.391 21.9688 53.391C21.8241 54.0421 21.6794 54.6932 21.5303 55.364C21.4015 55.826 21.2668 56.2865 21.1253 56.7447C21.0477 56.997 20.9702 57.2493 20.8903 57.5092C20.8076 57.7751 20.7249 58.041 20.6398 58.3149C20.5529 58.5956 20.4661 58.8762 20.3794 59.1569C20.1986 59.7411 20.0172 60.3251 19.8355 60.909C19.6027 61.6568 19.3717 62.4051 19.1411 63.1536C18.9629 63.7315 18.7836 64.3092 18.604 64.8867C18.4769 65.2964 18.3507 65.7063 18.2244 66.1163C18.1081 66.4885 18.1081 66.4885 17.9894 66.8682C17.9216 67.0867 17.8538 67.3051 17.784 67.5302C17.5844 68.0787 17.5844 68.0787 17.146 68.7364C17.0013 68.7364 16.8566 68.7364 16.7075 68.7364C16.8352 67.6968 17.039 66.7392 17.3518 65.7403C17.3948 65.6019 17.4378 65.4636 17.482 65.3211C17.6244 64.8639 17.7684 64.4071 17.9124 63.9504C18.0143 63.624 18.1162 63.2976 18.2179 62.9711C18.4353 62.2743 18.6534 61.5778 18.8721 60.8814C19.219 59.7768 19.5643 58.6718 19.9093 57.5666C20.3187 56.2554 20.7285 54.9443 21.1388 53.6334C22.0044 50.8678 22.8645 48.1006 23.7225 45.3327C23.958 44.573 24.1937 43.8133 24.4295 43.0536C25.2608 40.3753 26.0908 37.6966 26.9197 35.0176C27.3747 33.547 27.8298 32.0765 28.285 30.606C28.36 30.3638 28.36 30.3638 28.4365 30.1167C30.7193 22.7428 33.0269 15.3768 35.3411 8.01272ZM31.8336 21.6043C29.8379 27.8966 27.8508 34.1915 25.901 40.4982C25.8273 40.7364 25.7536 40.9745 25.6776 41.2199C24.4922 45.0513 23.3405 48.8917 22.188 52.7334C28.0477 52.7334 33.9074 52.7334 39.9447 52.7334C40.0328 47.3023 40.0328 47.3023 38.8786 42.3402C38.7656 41.99 38.6534 41.6395 38.5421 41.2888C38.2515 40.3813 37.9504 39.4777 37.6464 38.5747C37.3465 37.6784 37.0563 36.779 36.7656 35.8796C36.4201 34.8127 36.0738 33.746 35.7226 32.6809C34.512 29.0071 33.3865 25.3082 32.2721 21.6043C32.1274 21.6043 31.9827 21.6043 31.8336 21.6043ZM44.5483 23.1388C44.7214 23.3105 44.8944 23.4822 45.0727 23.6591C45.5346 24.1243 45.9466 24.5782 46.3432 25.0981C46.4503 25.2357 46.5574 25.3733 46.6677 25.5151C47.3679 26.6506 47.4582 27.7586 47.4368 29.0629C47.4358 29.2347 47.4348 29.4064 47.4338 29.5833C47.4317 29.9554 47.4286 30.3275 47.4248 30.6996C47.4176 31.5014 47.4183 32.3031 47.4183 33.1049C47.4183 34.5931 47.4152 36.0811 47.399 37.5691C47.3108 45.1374 47.3108 45.1374 49.5904 52.295C49.7351 52.3673 49.8797 52.4396 50.0288 52.5142C50.0288 52.2971 50.0288 52.0801 50.0288 51.8565C50.1856 51.8718 50.3423 51.8871 50.5039 51.9029C52.1772 52.0557 53.8355 52.1139 55.5153 52.1203C55.7766 52.1215 56.0379 52.1228 56.3071 52.1241C56.8544 52.1261 57.4017 52.1275 57.949 52.1284C58.7869 52.1305 59.6248 52.1374 60.4627 52.1442C60.9966 52.1457 61.5305 52.1468 62.0644 52.1477C62.3143 52.1504 62.5641 52.1531 62.8215 52.1559C63.0543 52.1552 63.2871 52.1546 63.527 52.1539C63.7308 52.1547 63.9346 52.1555 64.1446 52.1563C64.8358 52.0589 65.2547 51.8319 65.8126 51.4181C65.8126 51.2734 65.8126 51.1287 65.8126 50.9796C65.9573 50.9796 66.1019 50.9796 66.251 50.9796C66.251 50.835 66.251 50.6903 66.251 50.5412C66.3957 50.5412 66.5404 50.5412 66.6894 50.5412C70.1095 46.0874 70.9228 40.2166 70.3074 34.7574C69.7699 30.7379 68.5899 26.7159 65.3741 24.0157C64.1354 23.143 63.0549 23.1072 61.571 23.1139C61.387 23.1139 61.203 23.1139 61.0134 23.1138C60.4061 23.114 59.7988 23.1157 59.1915 23.1174C58.77 23.1178 58.3486 23.1181 57.9272 23.1184C56.8186 23.1192 55.7101 23.1213 54.6015 23.1238C53.47 23.126 52.3386 23.127 51.2071 23.1281C48.9875 23.1305 46.7679 23.1342 44.5483 23.1388ZM50.0288 53.1718C50.4711 55.0265 50.9888 56.8467 51.5582 58.666C51.6395 58.9278 51.7207 59.1896 51.8045 59.4594C52.0614 60.2867 52.3192 61.1136 52.5772 61.9406C52.8367 62.7738 53.0958 63.6072 53.3547 64.4406C53.5152 64.9569 53.6759 65.4732 53.837 65.9893C53.9095 66.2222 53.982 66.455 54.0566 66.6949C54.1204 66.8992 54.1841 67.1035 54.2498 67.314C54.3907 67.7843 54.5133 68.2601 54.6324 68.7364C52.3175 68.7364 50.0025 68.7364 47.6174 68.7364C47.6174 73.2939 47.6174 77.8515 47.6174 82.5472C50.4081 82.5791 50.4081 82.5791 53.1989 82.6007C54.3386 82.6072 55.4782 82.6149 56.6178 82.6299C57.5374 82.6418 58.457 82.6483 59.3767 82.6512C59.7261 82.6532 60.0755 82.6571 60.4249 82.6631C62.7377 82.7009 64.4737 82.4927 66.3563 81.0281C69.7734 77.134 70.6999 71.4299 70.4531 66.411C70.1472 62.0659 69.0728 57.3895 65.7364 54.333C64.422 53.3014 63.0519 53.1434 61.427 53.1469C61.0453 53.147 61.0453 53.147 60.6559 53.147C60.3846 53.1481 60.1133 53.1493 59.8337 53.1504C59.5534 53.1507 59.273 53.151 58.9842 53.1514C58.2425 53.1524 57.5008 53.1543 56.7591 53.1568C56.0008 53.159 55.2426 53.16 54.4843 53.1611C52.9991 53.1635 51.514 53.1672 50.0288 53.1718Z" fill="#F9F9F9"/>
<path d="M49.9604 0.066092C50.2614 0.0658701 50.2614 0.0658701 50.5685 0.0656437C53.6453 0.0692455 56.6492 0.167408 59.6745 0.778554C59.8532 0.813842 60.0318 0.84913 60.2158 0.885487C64.6888 1.80517 69.0375 3.42662 73.0469 5.60137C73.2956 5.72967 73.5443 5.85796 73.8005 5.99014C77.303 7.81577 80.424 10.176 83.3211 12.8484C83.7312 13.2218 84.15 13.5723 84.5833 13.918C84.841 14.1418 84.841 14.1418 85.1039 14.3701C85.1039 14.5148 85.1039 14.6595 85.1039 14.8086C85.2486 14.8086 85.3933 14.8086 85.5424 14.8086C85.8438 15.0997 85.8438 15.0997 86.2 15.521C86.3371 15.683 86.4741 15.8449 86.6154 16.0117C86.7677 16.1934 86.92 16.3751 87.0769 16.5623C87.2405 16.7508 87.4042 16.9393 87.5727 17.1335C93.5712 24.1365 97.47 32.6668 98.9147 41.7725C98.9404 41.9336 98.9661 42.0948 98.9926 42.2608C100.542 52.5689 98.58 63.3165 93.6535 72.4632C93.5378 72.6813 93.5378 72.6813 93.4198 72.9038C92.2651 75.0727 90.9695 77.0801 89.4883 79.0397C89.2726 79.3258 89.2726 79.3258 89.0525 79.6177C85.0731 84.734 80.1816 88.9463 74.5814 92.1929C74.4509 92.2693 74.3205 92.3458 74.186 92.4246C68.6193 95.6513 62.3159 97.5511 55.9478 98.331C55.7889 98.3517 55.63 98.3723 55.4664 98.3936C43.4173 99.7998 30.3474 96.5376 20.681 89.1238C20.2303 88.7623 19.7827 88.3969 19.3382 88.0277C19.217 87.9284 19.0957 87.829 18.9708 87.7267C16.1266 85.3911 13.4546 82.8555 11.2271 79.9166C11.1201 79.7765 11.0131 79.6365 10.9028 79.4922C9.09912 77.1178 7.53888 74.6815 6.18511 72.0247C6.10634 71.8702 6.02757 71.7157 5.94641 71.5565C0.0639848 59.8622 -0.906826 46.1811 3.15133 33.7491C3.97509 31.2679 4.91456 28.9297 6.18511 26.6464C6.31662 26.3853 6.44676 26.1236 6.57559 25.8611C9.88501 19.2085 15.2803 13.3769 21.3112 9.10887C21.4434 9.01304 21.5756 8.91721 21.7119 8.81847C28.0153 4.2651 35.734 1.2406 43.4523 0.340116C43.6018 0.319769 43.7513 0.299423 43.9054 0.27846C45.9128 0.0336227 47.9413 0.0674265 49.9604 0.066092ZM22.8458 9.98575C22.7157 10.0777 22.5857 10.1696 22.4517 10.2644C11.8411 17.7911 5.09434 29.0398 2.81312 41.8024C0.767346 54.1407 3.98571 66.9024 11.1352 77.0734C12.2886 78.6739 13.5984 80.1394 14.9273 81.595C15.3525 82.0648 15.7635 82.5436 16.1733 83.0268C16.9437 83.9055 17.7791 84.6551 18.6806 85.3971C18.7948 85.4921 18.909 85.587 19.0267 85.6849C21.0166 87.3349 23.0565 88.8617 25.2572 90.2199C25.4024 90.3097 25.5477 90.3995 25.6974 90.492C36.5826 97.1083 49.661 98.4764 61.9235 95.6278C64.4683 95.0068 66.9177 94.1091 69.3202 93.0697C69.4685 93.0056 69.6169 92.9415 69.7697 92.8755C76.4803 89.9357 82.5223 85.2001 87.0769 79.4782C87.221 79.3049 87.3652 79.1317 87.5136 78.9532C93.2488 72.0089 96.5482 63.3767 97.5994 54.4872C97.6427 54.1392 97.6427 54.1392 97.6868 53.7842C98.228 48.5549 97.7366 43.1412 96.5033 38.0458C96.4593 37.8634 96.4153 37.6811 96.37 37.4932C94.2756 29.0675 89.9222 21.9536 84.0079 15.6854C83.8321 15.4978 83.6563 15.3102 83.4752 15.1168C82.1256 13.7185 80.658 12.5248 79.1103 11.3566C78.7869 11.1123 78.466 10.8648 78.1455 10.6169C72.1952 6.1225 64.8573 3.10565 57.4823 2.09387C57.2084 2.05579 56.9345 2.01771 56.6523 1.97848C54.4136 1.68262 52.2038 1.56689 49.9467 1.57322C49.7769 1.57341 49.607 1.57361 49.4321 1.5738C40.0222 1.60856 30.5169 4.44933 22.8458 9.98575Z" fill="#F9F9F9"/>
<path d="M141.224 41.1147C142.92 41.1012 144.615 41.0876 146.362 41.0736C146.893 41.0676 147.425 41.0617 147.972 41.0555C148.399 41.0536 148.826 41.0519 149.252 41.0505C149.469 41.0471 149.686 41.0438 149.91 41.0403C151.839 41.0396 153.508 41.3681 154.938 42.7255C155.903 43.8311 156.03 45.026 155.99 46.4368C155.84 47.5857 155.406 48.4575 154.542 49.2258C154.352 49.3344 154.352 49.3344 154.158 49.4451C154.261 49.5247 154.364 49.6044 154.471 49.6865C155.742 50.7131 156.32 51.5824 156.542 53.2266C156.648 54.9199 156.292 56.2934 155.24 57.6384C154.044 58.8458 152.617 59.3452 150.93 59.4095C150.478 59.4092 150.025 59.4045 149.573 59.3955C149.36 59.3947 149.147 59.3938 148.927 59.3929C148.141 59.3883 147.354 59.3761 146.568 59.3647C143.923 59.3376 143.923 59.3376 141.224 59.3099C141.224 53.3055 141.224 47.3011 141.224 41.1147ZM145.17 44.403C145.17 45.6328 145.17 46.8627 145.17 48.1297C146.061 48.1475 146.951 48.1605 147.842 48.1708C148.094 48.1764 148.346 48.1819 148.606 48.1875C148.85 48.1897 149.094 48.1918 149.345 48.194C149.68 48.1991 149.68 48.1991 150.023 48.2044C150.752 48.1177 151.159 47.9035 151.747 47.4721C152.086 46.7943 152.03 46.2457 151.966 45.4991C151.479 44.8618 151.194 44.6574 150.431 44.403C150.027 44.385 149.621 44.3795 149.216 44.3816C148.863 44.3827 148.863 44.3827 148.503 44.3838C148.258 44.3856 148.012 44.3874 147.76 44.3893C147.388 44.3908 147.388 44.3908 147.008 44.3923C146.395 44.3949 145.783 44.3988 145.17 44.403ZM145.17 51.418C145.17 52.9372 145.17 54.4564 145.17 56.0216C146.093 56.0453 147.015 56.0627 147.938 56.0764C148.199 56.0838 148.459 56.0911 148.728 56.0987C150.638 56.1328 150.638 56.1328 152.185 55.1448C152.566 54.3829 152.535 53.5644 152.404 52.7333C151.85 52.0139 151.51 51.7047 150.651 51.418C150.23 51.3999 149.809 51.3945 149.387 51.3966C149.02 51.3977 149.02 51.3977 148.645 51.3988C148.389 51.4006 148.133 51.4024 147.869 51.4043C147.611 51.4053 147.352 51.4063 147.086 51.4073C146.447 51.4099 145.809 51.4138 145.17 51.418Z" fill="#F9F9F9"/>
<path d="M122.81 41.1149C124.256 41.1149 125.703 41.1149 127.194 41.1149C127.465 41.6015 127.465 41.6015 127.742 42.098C129.729 45.6565 131.745 49.1971 133.771 52.7335C133.843 48.8994 133.915 45.0652 133.99 41.1149C135.22 41.1149 136.449 41.1149 137.716 41.1149C137.716 47.1193 137.716 53.1237 137.716 59.3101C136.414 59.3101 135.112 59.3101 133.771 59.3101C133.048 58.4708 132.687 57.9518 132.261 56.9831C131.745 55.8789 131.112 54.8337 130.51 53.7748C130.263 53.3308 130.017 52.8866 129.771 52.4424C128.79 50.6992 127.77 48.9775 126.756 47.253C126.683 51.2319 126.611 55.2107 126.536 59.3101C125.306 59.3101 124.077 59.3101 122.81 59.3101C122.81 53.3057 122.81 47.3013 122.81 41.1149Z" fill="#F9F9F9"/>
<path d="M172.531 42.1563C174.319 43.4331 175.309 45.2807 175.77 47.4081C176.187 50.7271 176.073 54.1308 174.022 56.915C172.519 58.7092 170.51 59.6663 168.188 59.9678C165.634 60.1884 163.212 59.5638 161.173 57.9949C159.408 56.4283 158.447 54.4053 158.292 52.0428C158.163 48.7739 158.246 45.6817 160.515 43.088C163.757 39.8456 168.779 39.8829 172.531 42.1563ZM163.488 45.6364C162.138 47.7178 161.995 50.0642 162.364 52.4784C162.782 54.1652 163.705 55.3463 165.187 56.2411C166.556 56.6124 167.816 56.6979 169.133 56.1041C170.493 55.3226 171.168 54.1822 171.695 52.7336C172.238 50.489 172.073 48.1506 170.997 46.1014C170.178 44.8415 169.182 44.3419 167.749 43.9648C166.18 43.7033 164.483 44.4107 163.488 45.6364Z" fill="#F9F9F9"/>
<path d="M208.638 41.8839C210.575 43.2654 211.855 45.3465 212.251 47.6915C212.481 50.912 212.606 54.3554 210.416 56.9629C208.492 58.9788 206.398 59.9434 203.592 60.0226C201.038 59.9421 198.583 59.169 196.796 57.2686C194.635 54.5878 194.429 51.2389 194.782 47.9253C195.207 45.4934 196.313 43.8337 198.084 42.1562C201.159 40.1059 205.462 39.9832 208.638 41.8839ZM200.44 45.1568C200.287 45.3421 200.133 45.5275 199.975 45.7185C199.864 45.8491 199.754 45.9796 199.64 46.1141C198.551 47.7368 198.463 49.9705 198.762 51.8438C199.132 53.6046 199.74 54.9245 201.208 56.0081C202.423 56.552 203.762 56.706 205.05 56.3181C206.481 55.6755 207.463 54.6363 208.058 53.1857C208.658 51.0995 208.612 48.3353 207.647 46.3762C206.871 45.1716 205.983 44.4182 204.564 44.0744C202.985 43.8111 201.667 44.1164 200.44 45.1568Z" fill="#F9F9F9"/>
<path d="M189.671 41.5531C191.057 42.5779 191.886 43.823 192.302 45.499C192.302 45.8608 192.302 46.2225 192.302 46.5951C191 46.5951 189.698 46.5951 188.356 46.5951C188.139 46.0887 187.922 45.5823 187.698 45.0606C186.722 44.1156 185.593 44.1215 184.295 44.1349C183.556 44.2014 183.049 44.4281 182.437 44.8414C181.93 45.4737 181.93 45.4737 181.985 46.2663C182.134 47.0781 182.134 47.0781 182.817 47.365C184.305 47.9384 185.9 48.2398 187.45 48.5968C189.284 49.0464 191.381 49.6078 192.425 51.322C193.143 53.039 193.107 54.6066 192.527 56.3666C191.89 57.8709 190.834 58.645 189.373 59.3098C186.642 60.3444 183.473 60.2509 180.794 59.0684C179.391 58.2461 178.518 57.1401 177.939 55.6319C177.833 55.1447 177.833 55.1447 177.833 53.6101C179.063 53.6101 180.293 53.6101 181.56 53.6101C181.746 54.1025 181.931 54.5949 182.117 55.0873C182.564 55.7795 182.984 55.956 183.752 56.2408C184.559 56.3441 184.559 56.3441 185.397 56.323C185.675 56.3247 185.953 56.3264 186.239 56.3281C187.098 56.2345 187.627 56.0399 188.356 55.5831C188.868 54.9508 188.868 54.9508 188.781 54.1582C188.656 53.3739 188.656 53.3739 188.097 53.0367C187.449 52.7185 186.857 52.5376 186.154 52.3719C185.901 52.3097 185.647 52.2476 185.386 52.1835C184.859 52.0578 184.331 51.9328 183.803 51.8084C182.003 51.3655 180.194 50.8878 178.82 49.582C177.945 48.0516 177.785 46.2764 178.162 44.5622C178.681 43.0239 179.487 42.1108 180.916 41.375C183.401 40.1919 187.291 40.0979 189.671 41.5531Z" fill="#F9F9F9"/>
<path d="M109.876 41.1149C111.395 41.1149 112.914 41.1149 114.48 41.1149C114.996 42.2774 115.476 43.3633 115.888 44.5518C115.983 44.8225 116.077 45.0932 116.174 45.3721C116.274 45.6614 116.374 45.9507 116.474 46.24C116.579 46.5427 116.684 46.8453 116.79 47.1479C117.065 47.9394 117.34 48.7313 117.614 49.5233C118.053 50.7913 118.494 52.0588 118.935 53.3263C119.087 53.7657 119.24 54.2053 119.392 54.6449C119.964 56.2947 119.964 56.2947 120.576 57.9296C120.837 58.6524 120.837 58.6524 120.837 59.3101C119.39 59.3101 117.943 59.3101 116.452 59.3101C115.91 57.5739 115.91 57.5739 115.356 55.8026C113.258 55.8026 111.161 55.8026 108.999 55.8026C108.647 56.8747 108.647 56.8747 108.297 57.9472C107.927 59.0665 107.927 59.0665 107.684 59.3101C107.373 59.3291 107.062 59.3336 106.751 59.3315C106.564 59.3308 106.377 59.3301 106.184 59.3294C105.987 59.3275 105.79 59.3257 105.587 59.3238C105.39 59.3228 105.192 59.3218 104.988 59.3208C104.498 59.3182 104.009 59.3144 103.519 59.3101C104.006 57.617 104.568 55.9554 105.153 54.2937C105.247 54.0278 105.34 53.7619 105.436 53.4879C105.633 52.9273 105.83 52.3669 106.027 51.8066C106.276 51.0993 106.524 50.3918 106.772 49.6842C107.777 46.8162 108.793 43.9545 109.876 41.1149ZM112.068 45.7185C111.786 46.5844 111.505 47.4505 111.225 48.3169C111.13 48.6117 111.034 48.9064 110.938 49.2011C110.8 49.6242 110.663 50.0476 110.527 50.4711C110.403 50.8534 110.403 50.8534 110.276 51.2434C110.074 51.8202 110.074 51.8202 110.095 52.2951C111.47 52.2951 112.844 52.2951 114.26 52.2951C113.742 50.0501 113.035 47.896 112.287 45.7185C112.215 45.7185 112.143 45.7185 112.068 45.7185Z" fill="#F9F9F9"/>
<path d="M214.881 41.1149C219.222 41.1149 223.562 41.1149 228.034 41.1149C228.034 42.2 228.034 43.2852 228.034 44.4032C225.068 44.4032 222.102 44.4032 219.047 44.4032C219.047 45.7054 219.047 47.0075 219.047 48.3491C221.651 48.3491 224.255 48.3491 226.938 48.3491C226.938 49.5066 226.938 50.6641 226.938 51.8566C224.334 51.8566 221.73 51.8566 219.047 51.8566C219.047 54.3163 219.047 56.7759 219.047 59.3101C217.672 59.3101 216.298 59.3101 214.881 59.3101C214.881 53.3057 214.881 47.3013 214.881 41.1149Z" fill="#F9F9F9"/>
<path d="M228.692 41.1149C233.684 41.1149 238.676 41.1149 243.818 41.1149C243.818 42.2 243.818 43.2852 243.818 44.4032C242.01 44.4032 240.201 44.4032 238.338 44.4032C238.338 49.3225 238.338 54.2417 238.338 59.3101C236.964 59.3101 235.589 59.3101 234.173 59.3101C234.173 54.3908 234.173 49.4715 234.173 44.4032C232.364 44.4032 230.556 44.4032 228.692 44.4032C228.692 43.3181 228.692 42.2329 228.692 41.1149Z" fill="#F9F9F9"/>
</svg>
