<svg width="99" height="97" viewBox="0 0 99 97" fill="none" xmlns="http://www.w3.org/2000/svg">
<path d="M56.9756 37.9845V30.2689C71.181 25.0824 76.3725 11.4683 77.3453 0.882123V-6.10352e-05C85.1279 12.3506 84.9357 35.1957 72.7036 57.2736L65.8782 53.7125L56.9756 37.9845Z" fill="white"/>
<path d="M45.4826 53.7586L38.7316 57.7351C28.0202 49.2781 13.4834 50.7057 4.02263 55.1201L3.27012 55.5507C10.3608 43.5025 30.3312 32.0971 54.5779 30.7833L54.5779 38.1527L45.4826 53.7586Z" fill="white"/>
<path fill-rule="evenodd" clip-rule="evenodd" d="M2.61042 56.1998L3.06325 55.4304C6.63858 49.3554 13.4449 43.4649 22.3807 38.9302C31.32 34.3936 42.4065 31.2052 54.5625 30.5466L54.8124 30.5331L54.8124 38.2168L45.6538 53.9314L38.7096 58.0218L38.5822 57.9212C27.9691 49.5419 13.5422 50.9421 4.12928 55.3308L2.61042 56.1998ZM3.94931 54.8915C13.4214 50.4829 27.9655 49.0372 38.7482 57.4487L45.3064 53.5857L54.3383 38.0887L54.3382 31.034C42.3457 31.719 31.4143 34.8775 22.5953 39.353C14.0983 43.6651 7.57695 49.1921 3.94931 54.8915Z" fill="white"/>
<path d="M65.0497 55.9793L71.6787 59.668C69.977 73.2091 78.7141 84.9146 87.3837 90.731L88.1413 91.1525C74.1624 91.3114 53.7801 80.291 40.1208 60.2149L46.9025 56.0512L65.0497 55.9793Z" fill="white"/>
<path fill-rule="evenodd" clip-rule="evenodd" d="M89.0383 91.3785L88.1455 91.3886C81.0981 91.4687 72.464 88.733 63.8888 83.473C55.3101 78.2109 46.7751 70.4134 39.9263 60.3473L39.7866 60.1419L46.8367 55.8134L65.1124 55.741L71.9355 59.5377L71.9155 59.6966C70.2294 73.1132 78.8863 84.7389 87.5091 90.5276L89.0383 91.3785ZM87.2266 90.909C78.5554 85.0798 69.7983 73.3763 71.4255 59.7966L64.9902 56.2157L46.9715 56.287L40.4585 60.2858C47.2451 70.1965 55.673 77.8771 64.1367 83.0688C72.2913 88.0708 80.4651 90.754 87.2266 90.909Z" fill="white"/>
<path d="M60.5234 48.8036C60.5234 51.2889 58.5087 53.3036 56.0234 53.3036C53.5382 53.3036 51.5234 51.2889 51.5234 48.8036C51.5234 46.3184 53.5382 44.3036 56.0234 44.3036C58.5087 44.3036 60.5234 46.3184 60.5234 48.8036Z" fill="white"/>
</svg>
