<svg width="150" height="72" viewBox="0 0 150 72" fill="none" xmlns="http://www.w3.org/2000/svg">
<path fill-rule="evenodd" clip-rule="evenodd" d="M131.613 52.7124H84.4131V18.385H131.613V52.7124Z" fill="#003651"/>
<mask id="mask0_4_556" style="mask-type:luminance" maskUnits="userSpaceOnUse" x="0" y="0" width="150" height="72">
<path d="M0 0.000106812H150V71.0969H0V0.000106812Z" fill="white"/>
</mask>
<g mask="url(#mask0_4_556)">
<path fill-rule="evenodd" clip-rule="evenodd" d="M18.2802 18.3849H83.0978V52.7123H26.8621C22.142 52.7123 18.2802 48.8506 18.2802 44.1307V18.3849Z" fill="#F39313"/>
<path fill-rule="evenodd" clip-rule="evenodd" d="M116.957 36.833L117.016 37.9465L117.024 38.0881L117.052 38.2039L117.071 38.3207L117.107 38.4209L117.136 38.5129L117.192 38.5955L117.232 38.6714L117.289 38.7386L117.336 38.8047L117.393 38.8719L117.46 38.9313L117.518 38.9975L117.594 39.056L117.641 39.1231L117.718 39.1822L117.775 39.2488L117.899 39.3831L118.032 39.4926L118.196 39.5927L118.358 39.6778L118.542 39.7544L118.715 39.7967L118.887 39.8313L119.06 39.8415L119.118 39.8505L119.185 39.867L119.243 39.8764L119.291 39.9017L119.329 39.9262L119.377 39.9604L119.397 39.9856L119.415 40.0273V40.0598L119.395 40.0931L119.366 40.1263L119.317 40.1512L119.269 40.1757L119.211 40.1994L119.144 40.2323L119.075 40.2564L114.462 41.4541L114.394 41.4702L114.328 41.4863L114.259 41.4853H114.201H114.154L114.125 41.4681L114.096 41.4433L114.077 41.4184L114.068 41.3757L114.078 41.3267L114.098 41.2854L114.127 41.2435L114.166 41.2026L114.204 41.1613L114.272 41.1287L114.331 41.0961L114.408 41.0465L114.495 40.9979L114.582 40.9401L114.66 40.8751L114.738 40.8089L114.815 40.726L114.892 40.6437L114.961 40.5538L115.039 40.4457L115.107 40.3386L115.176 40.2232L115.245 40.0989L115.302 39.9748L115.372 39.8426L115.431 39.7025L115.499 39.5535L115.578 39.3712L115.637 39.172L115.716 38.9898L115.775 38.8001L115.844 38.6088L115.904 38.4272L115.953 38.2364L116.004 38.0542L116.053 37.8718L116.103 37.69L116.142 37.4996L116.183 37.3253L116.214 37.142L116.243 36.96L116.275 36.7778L116.295 36.6031L116.316 36.4292L116.327 36.2386L116.348 36.0479L116.378 35.8316L116.39 35.6077L116.411 35.367L116.433 35.1181L116.465 34.8446L116.476 34.5619L116.508 34.2799L116.521 33.9729L116.551 33.6573L116.583 33.3256L116.606 32.9856L116.638 32.6287L116.659 32.263L116.612 32.1968L116.545 32.1378L116.488 32.0793L116.411 32.0366L116.354 31.9866L116.286 31.961L116.23 31.9446L116.171 31.9438L116.113 31.918L116.046 31.9008L115.969 31.8834L115.893 31.8747L115.806 31.8575L115.72 31.8481L115.653 31.839L115.566 31.8386L115.48 31.813L115.393 31.7869L115.325 31.7616L115.258 31.7445L115.211 31.7192L115.182 31.7024L115.153 31.6773L115.143 31.652L115.134 31.6109L115.153 31.5604L115.193 31.5202L115.232 31.4789L115.301 31.4376L115.376 31.3973L115.483 31.356L115.599 31.3245L115.705 31.2913L115.811 31.2599L115.908 31.227L116.024 31.1944L116.121 31.1541L116.236 31.1136L116.333 31.0642L116.439 31.0157L116.545 30.9582L116.642 30.9096L116.749 30.8522L116.855 30.7952L116.952 30.7291L117.049 30.6639L117.146 30.6066L117.244 30.5408L117.35 30.4673L117.456 30.3935L117.562 30.3194L117.67 30.2455L117.766 30.1716L117.853 30.089L117.951 30.0153L118.048 29.9414L118.135 29.8672L118.222 29.7931L118.31 29.7192L118.387 29.6378L118.456 29.5629L118.524 29.4975L118.592 29.4228L118.66 29.3568L118.796 29.2171L118.921 29.0852L119.029 28.9774L119.127 28.8711L119.204 28.7973L119.261 28.7399L119.291 28.707L119.31 28.6987H119.329L119.349 28.707L119.377 28.7242L119.406 28.7406L119.444 28.7825L119.483 28.8242L119.53 28.883L119.577 28.9582L119.635 29.0247L119.711 29.1167L119.787 29.1999L119.864 29.3004L119.93 29.4093L120.006 29.5181L120.083 29.6268L120.139 29.7518L120.235 29.8771L120.33 30.011L120.434 30.1538L120.539 30.2784L120.635 30.4121L120.74 30.5377L120.815 30.6801L120.891 30.805L120.996 30.9474L121.08 31.0804L121.176 31.1975L121.263 31.3064L121.328 31.4233L121.396 31.515L121.453 31.5982L121.519 31.6819L124.575 35.7613L124.661 35.8778L124.747 35.9956L124.823 36.1122L124.899 36.2291L124.985 36.3383L125.061 36.4387L125.137 36.5468L125.204 36.6385L125.28 36.7388L125.357 36.8306L125.424 36.9229L125.489 36.9978L125.557 37.0734L125.624 37.1493L125.68 37.2158L125.738 37.2746L125.853 37.3828L125.968 37.4835L126.062 37.5762L126.159 37.6511L126.244 37.7116L126.312 37.7613L126.378 37.795L126.427 37.8037L126.474 37.812L126.533 37.8128L126.61 37.8138L126.686 37.8141L126.764 37.8058L126.85 37.8075L126.936 37.7994L127.024 37.7844L127.083 37.8008L127.149 37.818L127.197 37.8435L127.264 37.8687L127.302 37.8936L127.331 37.9191L127.36 37.9363L127.369 37.9527V37.9859L127.359 38.0108L127.33 38.0356L127.311 38.0685L127.272 38.0934L127.223 38.1094L127.165 38.1333L127.107 38.1503L120.427 39.903L120.399 39.9107L120.35 39.9192L120.311 39.9264L120.282 39.9341L120.244 39.9513L120.216 39.9594L120.186 39.9674L120.167 39.9754L120.138 39.9674L120.1 39.9412L120.061 39.9083L120.052 39.8739L120.033 39.8079L120.034 39.7581L120.045 39.7008L120.073 39.6585L120.102 39.6172L120.151 39.5846L120.209 39.552L120.286 39.5276L120.489 39.4304L120.674 39.3156L120.818 39.1998L120.936 39.0685L121.014 38.9191L121.063 38.7704L121.065 38.6046L121.029 38.4377L121.008 38.3719L120.989 38.3047L120.952 38.2211L120.924 38.1466L120.886 38.0461L120.849 37.9544L120.801 37.8547L120.754 37.746L120.679 37.6294L120.593 37.5129L120.507 37.3957L120.431 37.2788L120.355 37.1699L120.269 37.0534L120.184 36.9447L120.117 36.8278L120.04 36.7355L119.954 36.6353L119.869 36.5429L119.803 36.459L119.726 36.3754L119.659 36.3009L119.602 36.2333L119.564 36.1658L116.957 36.833ZM119.297 35.7739L117.195 32.8246L117.222 32.8497L117.009 36.4439L119.297 35.7739ZM107.153 39.0826L107.208 39.3075L107.265 39.5321L107.321 39.7403L107.367 39.9472L107.403 40.1476L107.441 40.3309L107.487 40.5144L107.515 40.6802L107.551 40.8464L107.571 40.9961L107.607 41.1382L107.636 41.2715L107.643 41.3873L107.671 41.5035L107.69 41.6042L107.708 41.6868L107.736 41.8447L107.754 41.995L107.772 42.1525L107.771 42.2764L107.76 42.4016L107.74 42.5007L107.711 42.5917L107.681 42.6502L107.642 42.6911L107.594 42.7324L107.536 42.7824L107.458 42.8226L107.371 42.8719L107.274 42.9121L107.168 42.9447L107.052 42.9769L106.985 43.0003L106.917 43.0339L106.859 43.0665L106.82 43.1078L106.781 43.1574L106.771 43.206L106.77 43.2652L106.779 43.3313V43.3642L106.798 43.3733L106.836 43.3894L106.865 43.3982L106.904 43.3988L106.962 43.3911L107.03 43.3758L107.106 43.3681L113.41 41.72L113.467 41.7032L113.526 41.6868L113.574 41.6623L113.623 41.6385L113.661 41.6056L113.69 41.5805L113.7 41.5486V41.5143L113.682 41.4562L113.643 41.4135L113.596 41.3807L113.539 41.3551L113.471 41.3464L113.395 41.3454L113.317 41.3527L113.23 41.3691L113.104 41.3925L112.998 41.4089L112.882 41.4079L112.777 41.4066L112.671 41.3971L112.585 41.3887L112.498 41.3705L112.431 41.3537L112.382 41.2949L112.325 41.2456L112.268 41.17L112.22 41.078L112.145 40.9695L112.078 40.8531L112.021 40.7194L111.956 40.5689L111.937 40.4944L111.909 40.394L111.881 40.2942L111.844 40.1773L111.806 40.0447L111.768 39.9117L111.721 39.7617L111.684 39.6029L111.628 39.437L111.582 39.2544L111.535 39.0786L111.479 38.8792L111.423 38.6798L111.367 38.4632L111.312 38.2459L111.256 38.0135L110.742 36.0738L110.686 35.8495L110.63 35.6241L110.584 35.4166L110.528 35.2165L110.482 35.0171L110.445 34.8257L110.408 34.6507L110.361 34.4758L110.334 34.3099L110.296 34.1605L110.269 34.0105L110.241 33.8858L110.213 33.7606L110.204 33.6444L110.186 33.5443L110.168 33.453L110.14 33.304L110.113 33.1535L110.104 33.0041L110.115 32.8715L110.125 32.7557L110.146 32.6556L110.166 32.5639L110.196 32.5066L110.234 32.4492L110.292 32.3911L110.35 32.3421L110.428 32.2931L110.515 32.2435L110.612 32.2028L110.719 32.1626L110.824 32.1388L110.901 32.1132L110.969 32.0733L111.037 32.0233L111.086 31.9743L111.124 31.9249L111.144 31.884L111.164 31.8344L111.155 31.8004L111.136 31.7678L111.116 31.7336L111.069 31.7084L111.011 31.6835L110.953 31.6744L110.896 31.6657H110.828L110.78 31.6727L104.477 33.3211L104.399 33.3372L104.351 33.3775L104.294 33.4113L104.263 33.452L104.244 33.4935L104.224 33.5348V33.5759V33.6101L104.243 33.6514L104.272 33.6766L104.319 33.7102L104.366 33.7274L104.425 33.7442L104.493 33.7532L104.569 33.7455L104.647 33.7295L104.753 33.7141L104.868 33.6902L104.984 33.6826L105.09 33.684L105.186 33.6846L105.282 33.7014L105.36 33.7274L105.418 33.7606L105.475 33.7945L105.532 33.8453L105.589 33.9289L105.645 34.0286L105.711 34.1458L105.768 34.2791L105.835 34.4205L105.891 34.5713L105.919 34.6549L105.938 34.7543L105.975 34.8624L106.013 34.9782L106.06 35.1123L106.097 35.2449L106.144 35.403L106.19 35.5622L106.247 35.7277L106.295 35.903L106.35 36.0871L106.407 36.2854L106.462 36.486L106.518 36.6934L106.584 36.91L106.64 37.1357L107.153 39.0826ZM96.2437 40.9247L96.5052 41.8478L96.5613 42.0728L96.6182 42.289L96.6727 42.4972L96.7296 42.6969L96.7858 42.8884L96.8321 43.0717L96.8883 43.246L96.9347 43.4048L96.982 43.5713L97.0195 43.7128L97.0571 43.8464L97.094 43.971L97.1212 44.0872L97.1496 44.1953L97.1684 44.2956L97.1964 44.3786L97.2532 44.5294L97.3095 44.67L97.3758 44.796L97.4418 44.9041L97.5189 45.0041L97.5851 45.0798L97.6424 45.1467L97.69 45.1963L97.7388 45.2214L97.8148 45.239L97.9011 45.2484L97.9985 45.2569L98.1042 45.2666L98.2095 45.259L98.3157 45.2436L98.4319 45.2194L98.509 45.2033L98.5667 45.1963L98.6143 45.2046L98.6725 45.2295L98.7009 45.2554L98.7385 45.2974L98.7682 45.3559L98.7852 45.4132V45.4387L98.7759 45.4643L98.7561 45.4964L98.7269 45.5298L98.6794 45.5458L98.6305 45.5784L98.5632 45.5941L98.4862 45.619L92.4328 47.1781L92.3751 47.1935H92.3275L92.279 47.1928H92.2311H92.2022L92.1634 47.1677L92.1453 47.142L92.1357 47.1173L92.1162 47.0581L92.1165 47.0011L92.1374 46.9514L92.157 46.9091L92.1959 46.8685L92.2348 46.8433L92.2832 46.8195L92.3407 46.8033L92.457 46.7628L92.5531 46.7222L92.6402 46.6732L92.708 46.6319L92.776 46.5822L92.8245 46.5262L92.8728 46.4843L92.9213 46.4349L92.9416 46.3597L92.9523 46.2859L92.9718 46.1858L92.9824 46.0619L92.9842 45.9206L92.986 45.7708L92.9581 45.6126L92.93 45.4468L92.8926 45.338L92.8743 45.2299L92.837 45.1046L92.8079 44.9797L92.7722 44.8555L92.7432 44.7142L92.7066 44.5731L92.6791 44.4147L92.6325 44.2557L92.6046 44.0903L92.5682 43.9241L92.5121 43.7404L92.4744 43.5577L92.4285 43.3583L92.382 43.1581L92.3159 42.9499L91.8124 41.0017L91.7572 40.7946L91.701 40.5856L91.6446 40.394L91.589 40.2025L91.5414 40.0275L91.4956 39.853L91.4486 39.6857L91.4013 39.5371L91.3542 39.3873L91.3166 39.2455L91.2801 39.1129L91.2429 38.9871L91.2138 38.8705L91.1768 38.7627L91.1488 38.6629L91.1302 38.5706L91.0743 38.3883L91.0178 38.2217L90.9711 38.0723L90.9038 37.9544L90.8485 37.8386L90.7907 37.7539L90.7334 37.6879L90.6758 37.6371L90.6183 37.5951L90.5509 37.5615L90.4652 37.5366L90.388 37.5181L90.2816 37.5175L90.1763 37.5328L90.06 37.5573L89.9351 37.581L89.8672 37.5891L89.8189 37.5881L89.7708 37.5797L89.7326 37.5713L89.6856 37.5542L89.6556 37.537L89.627 37.4951L89.609 37.4625V37.4117L89.6097 37.3544L89.6192 37.304L89.6401 37.2634L89.6782 37.2137L89.7173 37.1805L89.7653 37.1641L89.8133 37.1479L96.9952 35.2661L97.2658 35.2026L97.5266 35.1381L97.7774 35.0822L98.0276 35.0339L98.2693 34.987L98.5107 34.9558L98.7321 34.9085L98.9543 34.8848L99.1659 34.8616L99.3779 34.8299L99.5807 34.8074L99.7733 34.8004L99.9572 34.7854L100.149 34.7792L100.313 34.7725L100.477 34.7647L100.631 34.7746L100.775 34.8004L100.909 34.8351L101.043 34.8859L101.179 34.9541L101.303 35.0297L101.418 35.1221L101.533 35.2231L101.638 35.34L101.742 35.474L101.828 35.6067L101.922 35.7578L101.998 35.9327L102.065 36.1077L102.13 36.291L102.196 36.4912L102.214 36.5985L102.242 36.7235L102.25 36.8316L102.269 36.9397L102.288 37.0475L102.286 37.1641L102.295 37.2711L102.294 37.3718L102.283 37.4797L102.272 37.579L102.253 37.67L102.232 37.7693L102.213 37.8529L102.183 37.9359L102.144 38.0266L102.105 38.1011L102.007 38.2495L101.901 38.3977L101.774 38.5465L101.638 38.6864L101.491 38.8184L101.336 38.9331L101.162 39.0392L100.979 39.1378L100.892 39.1868L100.804 39.2442L100.708 39.2928L100.62 39.3424L100.524 39.3995L100.427 39.4485L100.34 39.4968L100.234 39.5462L100.136 39.5958L100.031 39.6361L99.9431 39.6931L99.8276 39.726L99.7307 39.7662L99.634 39.8071L99.5278 39.8306L99.4217 39.8544L99.306 39.9044L99.1897 39.9356L99.0744 39.9773L98.9579 40.0171L98.852 40.0576L98.7351 40.0898L98.6298 40.1305L98.5334 40.163L98.4168 40.1956L98.32 40.228L98.2146 40.2599L98.1075 40.2925L98.0121 40.3156L97.9054 40.3488L97.7991 40.3722L97.6925 40.4048L97.8186 40.4475L97.9624 40.5073L98.086 40.5409L98.2214 40.5833L98.3555 40.6182L98.4901 40.6445L98.6347 40.6623L98.7796 40.6798L98.9229 40.698L99.0586 40.6983L99.2125 40.7004L99.3567 40.6844L99.5108 40.6696L99.6461 40.6459L99.8001 40.6221L99.9551 40.5822L100.041 40.5665L100.138 40.5339L100.235 40.4853L100.351 40.4359L100.457 40.3873L100.573 40.3303L100.69 40.2813L100.815 40.2323L100.95 40.1588L101.087 40.1014L101.213 40.0367L101.328 39.9964L101.443 39.9472L101.53 39.9152L101.627 39.8739L101.703 39.8498L101.762 39.8426L101.801 39.8515L101.84 39.8673L101.896 39.9096L101.926 39.952L101.963 40.002L101.992 40.0686L102.019 40.1431L102.039 40.2186L102.067 40.2851L102.095 40.3681L102.132 40.4432L102.171 40.5349L102.208 40.6182L102.266 40.7099L102.313 40.7939L102.369 40.8855L102.427 40.9845L102.493 41.0777L102.56 41.1694L102.627 41.2701L102.702 41.361L102.779 41.4622L102.855 41.5619L102.921 41.671L102.997 41.7711L103.084 41.8713L103.159 41.9716L103.246 42.0717L103.341 42.1641L103.427 42.248L103.512 42.3314L103.609 42.4237L103.686 42.508L103.781 42.5836L103.867 42.6589L103.943 42.7257L104.029 42.7925L104.105 42.8517L104.183 42.9107L104.374 43.0619L104.556 43.1794L104.719 43.2726L104.881 43.3485L105.026 43.3911L105.16 43.4177L105.285 43.4181L105.411 43.4034L105.488 43.3874L105.556 43.3789L105.604 43.388L105.652 43.4048L105.69 43.43L105.718 43.472L105.737 43.5217L105.756 43.5802L105.766 43.614L105.755 43.6466L105.746 43.6715L105.725 43.6879L105.688 43.7211L105.639 43.7449L105.572 43.7618L105.495 43.7859L100.716 45.0319L100.649 45.0469L100.591 45.0637L100.532 45.071L100.484 45.0798L100.436 45.0875L100.398 45.0867H100.378H100.369V45.0791L100.359 45.0616L100.331 45.0444L100.312 45.0031L100.274 44.9612L100.236 44.9024L100.197 44.8362L100.159 44.7607L97.2288 40.6665L96.2437 40.9247ZM95.6197 38.4768L96.1318 40.4828L97.1936 40.218L97.3199 40.1773L97.4449 40.1448L97.5511 40.0968L97.6475 40.0472L97.7448 39.9986L97.8231 39.9408L97.8995 39.8841L97.9577 39.8338L98.0074 39.7847L98.046 39.7189L98.0942 39.6441L98.1147 39.5696L98.1347 39.4702L98.1448 39.3702L98.1356 39.2546L98.1283 39.1297V39.0713L98.1197 38.9968L98.1105 38.9135L98.1111 38.8306L98.1019 38.7393L98.0838 38.6392L98.0653 38.5395L98.0372 38.4311L98.0297 38.3225L98.0003 38.2071L97.9831 38.0822L97.9453 37.9573L97.9168 37.8417L97.8897 37.7074L97.8615 37.5744L97.8245 37.4411L97.7779 37.2581L97.7214 37.0748L97.675 36.9086L97.6185 36.75L97.5718 36.6164L97.515 36.4835L97.4685 36.3754L97.421 36.2837L97.3634 36.2081L97.3063 36.1245L97.2482 36.0493L97.1916 35.9902L97.1251 35.94L97.0678 35.8904L97.0092 35.8565L96.9615 35.8389L96.885 35.8298H96.7975L96.7109 35.8365L96.6149 35.8526L96.5187 35.8771L96.4019 35.8929L96.2967 35.9247L96.1811 35.9489L96.0551 35.9807L95.939 36.0132L95.8334 36.0538L95.7359 36.0948L95.6398 36.127L95.5525 36.1598L95.4939 36.2L95.4463 36.2333L95.4179 36.291L95.3962 36.3575L95.3575 36.424L95.3375 36.5143L95.3184 36.5972L95.2979 36.705L95.2873 36.8138L95.2957 36.9215L95.3047 36.9877L95.3138 37.0622L95.3322 37.1375L95.3417 37.2123L95.3494 37.304L95.3683 37.3876L95.3876 37.487L95.4065 37.5779L95.4234 37.67L95.4526 37.7693L95.4798 37.8778L95.4975 37.9944L95.5268 38.1109L95.5546 38.2277L95.5918 38.3435L95.6197 38.4768Z" fill="white"/>
<path fill-rule="evenodd" clip-rule="evenodd" d="M103.084 29.0093L98.4512 28.3717L103.501 27.0922L104.491 23.5197L107.554 26.1982L116.836 24.1377L109.59 28.1293L112.145 30.378L106.739 29.608L101.866 32.6276L103.084 29.0093Z" fill="white"/>
<path d="M115.065 49.2828L115.199 48.6265H115.843L115.708 49.2828H115.065Z" fill="white"/>
<path d="M119.419 46.6237C119.312 46.5741 119.194 46.5336 119.064 46.5026C118.936 46.4711 118.815 46.4554 118.703 46.4554C118.552 46.4554 118.415 46.4824 118.291 46.5362C118.166 46.59 118.057 46.6609 117.964 46.75C117.871 46.8387 117.791 46.9398 117.726 47.0539C117.659 47.1695 117.605 47.2877 117.563 47.4094C117.522 47.5321 117.491 47.6522 117.473 47.7708C117.454 47.8906 117.444 47.9994 117.444 48.0979C117.444 48.2547 117.463 48.3867 117.501 48.4921C117.539 48.5974 117.592 48.6807 117.661 48.7422C117.729 48.8042 117.812 48.8479 117.907 48.8741C118.002 48.9001 118.106 48.9127 118.218 48.9127C118.377 48.9127 118.532 48.8914 118.683 48.8497C118.834 48.8088 118.96 48.7599 119.062 48.7039L118.969 49.1818C118.924 49.2064 118.87 49.2302 118.807 49.2518C118.744 49.275 118.675 49.2947 118.602 49.311C118.527 49.3284 118.451 49.3416 118.371 49.3515C118.292 49.3618 118.211 49.3671 118.13 49.3671C117.97 49.3671 117.815 49.3451 117.669 49.3C117.524 49.2554 117.395 49.1824 117.284 49.0824C117.173 48.9828 117.085 48.8544 117.02 48.699C116.955 48.5428 116.923 48.3534 116.923 48.1312C116.923 47.9808 116.937 47.8247 116.966 47.6636C116.995 47.5018 117.041 47.3419 117.103 47.1827C117.164 47.0232 117.242 46.8727 117.336 46.7299C117.431 46.587 117.543 46.4623 117.675 46.3543C117.807 46.2467 117.957 46.1608 118.127 46.0975C118.298 46.033 118.487 46.0012 118.693 46.0012C118.774 46.0012 118.853 46.0069 118.932 46.0182C119.011 46.0292 119.084 46.0429 119.156 46.0603C119.226 46.0766 119.292 46.0955 119.354 46.1175C119.416 46.1384 119.468 46.1592 119.511 46.1793L119.419 46.6237Z" fill="white"/>
<path d="M121.483 46.4448C121.353 46.4448 121.235 46.4706 121.127 46.5198C121.02 46.5691 120.922 46.6354 120.834 46.7194C120.747 46.8035 120.669 46.9018 120.604 47.0135C120.538 47.1265 120.482 47.2455 120.437 47.3714C120.393 47.4963 120.359 47.6252 120.337 47.7575C120.314 47.8904 120.303 48.0182 120.303 48.1421C120.303 48.2584 120.315 48.3644 120.341 48.4607C120.367 48.5583 120.407 48.6408 120.46 48.7086C120.514 48.7773 120.583 48.8295 120.666 48.8666C120.749 48.9038 120.846 48.922 120.959 48.922C121.087 48.922 121.205 48.8974 121.314 48.8481C121.423 48.7988 121.521 48.7321 121.608 48.648C121.696 48.5643 121.772 48.4662 121.839 48.3558C121.904 48.2441 121.961 48.1262 122.006 48.0003C122.05 47.8749 122.084 47.7457 122.106 47.613C122.129 47.4812 122.14 47.3516 122.14 47.2257C122.14 47.1072 122.128 47.0002 122.101 46.9044C122.076 46.8093 122.035 46.7271 121.981 46.6588C121.928 46.5907 121.859 46.5375 121.777 46.5008C121.694 46.4638 121.596 46.4448 121.483 46.4448ZM122.662 47.2599C122.662 47.399 122.647 47.5483 122.618 47.7074C122.588 47.8666 122.544 48.0242 122.483 48.18C122.423 48.336 122.346 48.4855 122.253 48.6298C122.159 48.7739 122.049 48.9 121.92 49.0084C121.79 49.1172 121.643 49.2039 121.479 49.2688C121.314 49.3339 121.128 49.3669 120.922 49.3669C120.751 49.3669 120.595 49.34 120.453 49.2877C120.312 49.235 120.192 49.157 120.094 49.0535C119.994 48.9504 119.918 48.8246 119.863 48.6745C119.808 48.526 119.781 48.3547 119.781 48.1623C119.781 48.0208 119.794 47.8689 119.823 47.7074C119.85 47.546 119.896 47.3845 119.956 47.2242C120.016 47.0637 120.094 46.9105 120.186 46.763C120.279 46.6157 120.39 46.4857 120.518 46.3727C120.646 46.2594 120.792 46.1689 120.959 46.1018C121.125 46.0343 121.31 46.0009 121.514 46.0009C121.687 46.0009 121.843 46.0271 121.984 46.0801C122.124 46.1329 122.244 46.2116 122.346 46.3152C122.447 46.4202 122.524 46.5509 122.579 46.7082C122.634 46.865 122.662 47.0488 122.662 47.2599Z" fill="white"/>
<path d="M126.004 46.6574C126.084 46.5402 126.172 46.441 126.266 46.3572C126.36 46.2742 126.457 46.2071 126.558 46.1541C126.657 46.1018 126.758 46.0628 126.859 46.0382C126.96 46.0136 127.059 46.0009 127.155 46.0009C127.271 46.0009 127.379 46.0181 127.479 46.053C127.579 46.0882 127.666 46.1373 127.737 46.2022C127.809 46.2675 127.866 46.3481 127.907 46.4448C127.949 46.5418 127.97 46.6518 127.97 46.7747C127.97 46.8628 127.962 46.9552 127.947 47.0538C127.933 47.1534 127.915 47.2546 127.892 47.3573L127.491 49.2828H126.969L127.391 47.25C127.408 47.1625 127.42 47.0893 127.425 47.0306C127.432 46.9726 127.435 46.9264 127.435 46.8926C127.435 46.7399 127.395 46.6271 127.316 46.5531C127.238 46.4793 127.134 46.4432 127.006 46.4448C126.881 46.4448 126.758 46.4725 126.64 46.5277C126.521 46.5823 126.412 46.6589 126.313 46.7551C126.214 46.8513 126.13 46.9643 126.059 47.0944C125.988 47.2253 125.938 47.3664 125.906 47.5191L125.539 49.2828H125.018L125.438 47.25C125.457 47.1625 125.468 47.0893 125.474 47.0306C125.479 46.9726 125.482 46.9264 125.482 46.8926C125.479 46.7312 125.439 46.6157 125.36 46.5479C125.279 46.4793 125.178 46.4448 125.055 46.4448C124.929 46.4448 124.807 46.4725 124.688 46.5277C124.569 46.5823 124.461 46.6589 124.363 46.7551C124.265 46.8513 124.18 46.9643 124.109 47.0944C124.037 47.2253 123.985 47.3664 123.954 47.5191L123.587 49.2828H123.065L123.731 46.0851H124.16V46.5198H124.173C124.31 46.3527 124.468 46.225 124.648 46.1355C124.827 46.0457 125.016 46.0009 125.216 46.0009C125.322 46.0009 125.419 46.015 125.507 46.0427C125.596 46.0707 125.675 46.1128 125.743 46.1688C125.812 46.225 125.866 46.2939 125.909 46.3743C125.952 46.4553 125.979 46.5494 125.99 46.6574H126.004Z" fill="white"/>
<path d="M36.6756 39.8526C36.955 39.8526 37.2205 39.8167 37.472 39.7443C37.7235 39.6727 37.9609 39.5769 38.1844 39.4571C38.4078 39.3372 38.6055 39.2056 38.7772 39.0616C38.9489 38.9183 39.0944 38.7782 39.2144 38.6427V33.1346C38.8792 32.8629 38.5035 32.6371 38.0886 32.4581C37.6737 32.279 37.2345 32.1887 36.7717 32.1887C36.4762 32.1887 36.1668 32.2487 35.8436 32.3677C35.5202 32.4877 35.2247 32.6916 34.9573 32.979C34.69 33.2662 34.4664 33.6656 34.287 34.1763C34.1071 34.6878 34.0172 35.3379 34.0172 36.1281C34.0172 37.2943 34.243 38.2036 34.6937 38.8583C35.145 39.5131 35.8056 39.8448 36.6756 39.8526ZM31.0838 36.248C31.0838 35.2343 31.2231 34.3296 31.503 33.5356C31.7821 32.7415 32.1632 32.075 32.6463 31.5363C33.1293 30.9975 33.6821 30.5942 34.3049 30.3265C34.9273 30.0595 35.574 29.9255 36.2446 29.9255C36.5561 29.9255 36.8512 29.9535 37.1306 30.0088C37.4102 30.0649 37.6737 30.1411 37.9212 30.2369C38.1683 30.3326 38.4 30.4401 38.6157 30.56C38.8313 30.6799 39.0306 30.8037 39.2144 30.9314H39.2381C39.2303 30.7718 39.224 30.546 39.2201 30.2549C39.2164 29.9637 39.2144 29.646 39.2144 29.3027V24.4766H42.0521V38.3671C42.0521 39.1332 42.0603 39.7919 42.0762 40.343C42.0922 40.8942 42.1081 41.3847 42.1241 41.816H39.5616L39.4417 40.5829H39.3938C39.2264 40.7822 39.0247 40.9784 38.7893 41.1699C38.5538 41.3614 38.2942 41.5264 38.0107 41.6666C37.7274 41.8066 37.4159 41.9157 37.0769 41.9951C36.7374 42.0753 36.3684 42.115 35.9695 42.115C35.3385 42.115 34.7339 42.0036 34.1551 41.7802C33.5763 41.5568 33.0573 41.212 32.5983 40.7448C32.1394 40.2776 31.7724 39.6665 31.4968 38.9121C31.2215 38.1577 31.0838 37.2694 31.0838 36.248Z" fill="white"/>
<path d="M45.8368 30.2126H48.6745V41.8159H45.8368V30.2126Z" fill="white"/>
<path d="M67.3062 34.7515C67.3062 34.504 67.2984 34.272 67.2825 34.057C67.2661 33.8407 67.2385 33.6537 67.1983 33.4934C67.1104 33.1431 66.9391 32.8589 66.6838 32.6432C66.4281 32.4284 66.0688 32.3162 65.6059 32.3084C65.3583 32.3084 65.1029 32.3442 64.8394 32.4159C64.5763 32.4875 64.3147 32.5895 64.0554 32.7211C63.7958 32.8535 63.5483 33.013 63.3128 33.2006C63.0772 33.3876 62.8638 33.5977 62.6723 33.8289V41.816H59.8343V34.7515C59.8343 34.504 59.826 34.272 59.8105 34.057C59.7941 33.8407 59.7665 33.6537 59.7264 33.4934C59.6385 33.1431 59.4691 32.8589 59.2177 32.6432C58.9661 32.4284 58.6049 32.3162 58.134 32.3084C57.8863 32.3084 57.631 32.3442 57.3674 32.4159C57.1043 32.4875 56.8427 32.5895 56.5831 32.7211C56.3238 32.8535 56.0763 33.013 55.8408 33.2006C55.6053 33.3876 55.3919 33.5977 55.2 33.8289V41.816H52.3623V30.2126H54.7091L54.9727 31.8289H55.0206C55.1884 31.5898 55.3997 31.354 55.655 31.1228C55.9105 30.8916 56.2001 30.6876 56.5235 30.5116C56.8466 30.3365 57.2016 30.1948 57.5889 30.0865C57.9763 29.9792 58.3854 29.9254 58.8163 29.9254C59.5828 29.9254 60.2714 30.0951 60.8822 30.4338C61.4929 30.7732 61.9577 31.3026 62.2768 32.0204H62.3248C62.5482 31.709 62.7981 31.4263 63.0733 31.1702C63.349 30.9149 63.6541 30.6954 63.9892 30.5116C64.3248 30.3287 64.6857 30.1846 65.073 30.081C65.4603 29.9776 65.8734 29.9254 66.3124 29.9254C67.1427 29.934 67.8391 30.1068 68.402 30.4462C68.9648 30.7857 69.3977 31.2505 69.7014 31.8414C69.7808 31.9932 69.8488 32.159 69.9046 32.3381C69.9606 32.5179 70.0066 32.7195 70.0424 32.943C70.0781 33.1664 70.1043 33.414 70.1202 33.685C70.1362 33.9566 70.1443 34.2681 70.1443 34.6192V41.816H67.3062V34.7515Z" fill="white"/>
<path d="M48.9748 25.8623C48.9748 26.8133 48.2038 27.5841 47.253 27.5841C46.302 27.5841 45.5312 26.8133 45.5312 25.8623C45.5312 24.9113 46.302 24.1405 47.253 24.1405C48.2038 24.1405 48.9748 24.9113 48.9748 25.8623Z" fill="white"/>
</g>
</svg>
