<svg width="160" height="49" viewBox="0 0 160 49" fill="none" xmlns="http://www.w3.org/2000/svg">
<g clip-path="url(#clip0_601_413)">
<path fill-rule="evenodd" clip-rule="evenodd" d="M93.3517 0H160V48.2759H93.3517V0ZM91.5421 0H0V37.2401H0.0441379L0.052791 37.3209C0.328955 39.8388 1.27804 42.3223 3.04552 44.1869C3.09169 44.2407 3.13767 44.2948 3.18345 44.349C3.58267 44.804 4.02173 45.225 4.50207 45.5938L4.63621 45.7C5.23094 46.168 5.86125 46.5628 6.53241 46.9128L6.6433 46.9714C8.03178 47.6965 9.52693 48.067 11.0786 48.2318V48.2758L0 48.2759H91.5421V0ZM29.5724 8.57382H33.5448L33.5475 10.4949C33.5494 11.8557 33.5514 13.2165 33.5537 14.5773L33.5538 14.6675L33.5572 16.6101L33.5588 17.5631L33.559 17.6589C33.5607 18.6775 33.5622 19.696 33.5636 20.7146C33.5649 21.7642 33.5666 22.8137 33.5686 23.8632L33.5694 24.3113L33.5696 24.4003C33.5704 24.8385 33.571 25.2767 33.5714 25.7149C33.5654 28.9454 33.5654 28.9454 33.6642 32.174C33.6772 32.4413 33.6792 32.7079 33.6772 32.9756C33.2061 32.9766 32.7349 32.9774 32.2638 32.9778C32.0451 32.9781 31.8263 32.9784 31.6076 32.9789C31.3967 32.9794 31.1857 32.9796 30.9748 32.9797C30.8942 32.9798 30.8135 32.98 30.7329 32.9802C30.6203 32.9805 30.5077 32.9806 30.3952 32.9805L30.2931 32.981C30.0629 32.9806 30.0629 32.9806 30.0138 32.9316C30.0005 32.8314 29.9899 32.7309 29.9805 32.6303L29.9718 32.5381C29.9657 32.4734 29.9597 32.4088 29.9539 32.3441C29.9449 32.2459 29.9356 32.1478 29.9263 32.0497C29.9004 31.7713 29.8777 31.4968 29.8814 31.2169C29.7518 31.3118 29.6448 31.4084 29.5448 31.5329C29.3711 31.74 29.1615 31.902 28.9487 32.0665L28.9103 32.0962L28.8005 32.1842C27.9982 32.8006 26.964 33.2338 25.9531 33.3273L25.8319 33.3389C23.8798 33.514 22.1139 33.0796 20.5903 31.8214C19.1127 30.5689 18.352 28.6179 18.1407 26.7322L18.1281 26.62C18.087 26.183 18.0865 25.7445 18.0861 25.3059L18.0859 25.1963C18.0855 25.0469 18.0841 24.8975 18.0827 24.748C18.0787 23.9186 18.1459 23.1056 18.3531 22.2998L18.3879 22.1612C18.9058 20.1419 20.0149 18.2833 21.827 17.1739C23.3805 16.2574 25.2286 15.985 26.9869 16.3998C27.9207 16.6423 28.7748 17.1014 29.5724 17.631V8.57382ZM42.9021 16.6195H38.8855V32.9753H42.9021V16.6195ZM60.756 17.3327C61.3402 17.8087 61.7849 18.3993 62.1021 19.0814V19.1693C62.2613 19.0153 62.4053 18.8538 62.5462 18.683C63.6824 17.3314 65.2865 16.4023 67.0666 16.2375C68.6144 16.1186 70.1389 16.3873 71.371 17.3667L71.4904 17.461C72.6988 18.4811 73.084 19.9544 73.2128 21.4639C73.2443 21.903 73.2422 22.3423 73.24 22.7822L73.2399 22.8175C73.2398 22.9295 73.2399 23.0414 73.2399 23.1534C73.24 23.3913 73.2396 23.6292 73.2388 23.8671C73.2377 24.211 73.2374 24.5549 73.2373 24.8989C73.237 25.4573 73.2361 26.0157 73.2348 26.5742C73.2336 27.1156 73.2327 27.6571 73.2321 28.1986L73.232 28.3002L73.2315 28.8053C73.2301 30.1952 73.2277 31.5851 73.2248 32.975H69.2083L69.2063 31.9738C69.2042 30.9144 69.2014 29.8549 69.1982 28.7955L69.1967 28.3011L69.1964 28.2017C69.1949 27.6718 69.1937 27.1419 69.1928 26.612C69.1919 26.0675 69.1904 25.5231 69.1885 24.9786C69.1873 24.6431 69.1865 24.3077 69.1862 23.9722C69.186 23.7141 69.185 23.4561 69.1838 23.198C69.1834 23.0928 69.1833 22.9875 69.1833 22.8823C69.1838 21.8973 69.1403 20.9601 68.4579 20.1806C67.9048 19.6568 67.2077 19.6272 66.4848 19.6398C65.3999 19.6789 64.2719 20.2305 63.4691 20.9456C63.3748 21.0278 63.2822 21.1017 63.1822 21.176C62.9249 21.3809 62.7209 21.5785 62.6632 21.9119C62.6352 22.1942 62.6403 22.4761 62.6454 22.7592L62.6458 22.7826C62.6455 22.894 62.645 23.0054 62.6442 23.1169C62.6432 23.3557 62.644 23.5944 62.6465 23.8332C62.6502 24.1784 62.6504 24.5236 62.6498 24.8688C62.649 25.4291 62.6509 25.9893 62.6545 26.5496C62.6581 27.0934 62.6603 27.6373 62.6608 28.1811L62.6609 28.2829L62.6613 28.7885C62.6622 30.184 62.6681 31.5795 62.6759 32.975H58.6593L58.6574 31.9738C58.6552 30.9144 58.6524 29.8549 58.6492 28.7955L58.6477 28.3011L58.6474 28.2017C58.6459 27.6718 58.6448 27.1419 58.6439 26.612C58.6429 26.0675 58.6414 25.5231 58.6395 24.9786C58.6384 24.6431 58.6376 24.3077 58.6373 23.9722C58.637 23.7141 58.6361 23.4561 58.6349 23.198C58.6345 23.0928 58.6343 22.9875 58.6344 22.8823C58.6349 21.8884 58.5894 20.9211 57.8817 20.1464C57.3449 19.6436 56.6387 19.6283 55.9473 19.6398C54.8149 19.6789 53.6771 20.2605 52.851 21.0153C52.7565 21.1008 52.6643 21.174 52.5602 21.2489C52.3232 21.4379 52.1694 21.5967 52.1226 21.9037C52.098 22.1828 52.1022 22.4618 52.1064 22.7416L52.1069 22.7726C52.1066 22.884 52.1061 22.9954 52.1053 23.1068C52.1043 23.3459 52.1048 23.5848 52.1069 23.8239C52.1098 24.1695 52.1098 24.515 52.1091 24.8606C52.1081 25.4214 52.1094 25.9822 52.1122 26.543C52.115 27.0874 52.1166 27.6318 52.1167 28.1763L52.1167 28.2782L52.1167 28.7841C52.1167 30.1811 52.121 31.578 52.1269 32.975H48.1104V16.6193H51.4207C51.4959 16.6941 51.5106 16.832 51.5236 16.9532C51.5276 16.9903 51.5314 17.0258 51.5367 17.0575L51.5573 17.1787L51.5786 17.3048L51.6002 17.4338C51.6218 17.5628 51.6439 17.6918 51.6661 17.8208L51.7078 18.0688L51.7278 18.1846C51.7678 18.4281 51.7798 18.6587 51.7738 18.9055C51.9242 18.7583 52.0686 18.6068 52.2111 18.452C53.1294 17.4577 54.2318 16.7677 55.5476 16.4132L55.6475 16.3861C57.3507 15.9486 59.357 16.2294 60.756 17.3327ZM41.6928 8.21023L41.5779 8.1776C40.7189 7.90883 39.6933 8.16457 39.1017 8.85789L39.0179 8.96901C38.9046 9.11024 38.8028 9.25372 38.709 9.40868C38.4245 9.96339 38.3908 10.6364 38.5645 11.2337C38.8024 11.9239 39.2419 12.4255 39.9007 12.7502C40.4822 13.0265 41.196 13.0027 41.7973 12.7923C42.4932 12.4788 42.9727 11.9605 43.2552 11.2553C43.4448 10.6331 43.3646 9.98694 43.0952 9.40318C42.7964 8.84309 42.3022 8.40346 41.6928 8.21023ZM115.806 23.0285C116.402 23.006 116.902 23.118 117.363 23.5223L117.491 23.6238C118.148 24.1708 118.503 25.1829 118.589 26.0076C118.662 26.8666 118.568 27.5485 118.001 28.2299C117.583 28.7041 117.112 29.0318 116.557 29.3287L116.455 29.3844L116.394 29.4177C115.114 30.1136 115.114 30.1136 114.547 30.228C114.357 30.2696 114.175 30.3361 113.993 30.4025L113.924 30.4277C113.594 30.5472 113.262 30.6588 112.927 30.7659L112.801 30.8066C112.601 30.87 112.408 30.9263 112.199 30.9527C113.11 31.4319 114.295 31.4744 115.283 31.2159C115.673 31.0928 116.046 30.9139 116.416 30.7369L116.479 30.7068L116.557 30.6694C116.864 30.5233 117.174 30.3812 117.49 30.2548L117.63 30.1974C117.776 30.1568 117.84 30.1473 117.981 30.2053C118.161 30.382 118.244 30.5514 118.32 30.7906C118.524 31.3738 118.858 31.8806 119.244 32.3602C119.343 32.4847 119.436 32.6119 119.528 32.7416C119.703 32.982 119.894 33.2002 120.099 33.4149L120.172 33.4905C121.252 34.6248 121.252 34.6248 122.662 35.1758L122.757 35.1717L122.862 35.1688C122.935 35.1665 123.008 35.1636 123.08 35.1603C123.344 35.1544 123.344 35.1544 123.455 35.255C123.508 35.3724 123.521 35.4421 123.498 35.5693C123.358 35.7066 123.191 35.7454 123.007 35.7882L122.98 35.7944L122.878 35.8192C122.802 35.838 122.725 35.8564 122.648 35.8748L122.557 35.8963C122.452 35.9216 122.347 35.9471 122.242 35.9725L122.121 36.002L122.034 36.0229C121.712 36.1011 121.391 36.1865 121.07 36.2727C120.909 36.3152 120.747 36.3572 120.585 36.3992L120.321 36.4675L120.188 36.5022C119.974 36.5575 119.761 36.613 119.548 36.6684L119.294 36.7344L119.167 36.7674L118.659 36.8993L118.406 36.9651L118.146 37.0326L117.907 37.0945L117.763 37.1317L117.503 37.1988L117.376 37.2315C117.177 37.2831 116.979 37.3361 116.782 37.3934L116.674 37.4246C116.608 37.4436 116.542 37.4631 116.477 37.4831C116.39 37.5083 116.304 37.5294 116.215 37.5478L116.124 37.5674C116.092 37.5712 116.072 37.5737 116.051 37.574C116.012 37.5746 115.973 37.5677 115.862 37.5478C115.758 37.4391 115.688 37.314 115.615 37.184L115.597 37.1521L115.572 37.1135L115.556 37.0902L115.543 37.0713C115.517 37.0325 115.491 36.9939 115.464 36.9554L115.397 36.8561C115.169 36.5224 114.935 36.1947 114.69 35.8733C114.51 35.6364 114.337 35.3948 114.166 35.1514C114.005 34.9228 113.842 34.6961 113.677 34.4701C113.469 34.1843 113.264 33.8968 113.06 33.6081C112.876 33.348 112.689 33.09 112.502 32.8324C112.312 32.5714 112.125 32.3086 111.94 32.0445C111.811 31.8626 111.679 31.6849 111.542 31.5097C111.492 31.4364 111.492 31.4364 111.492 31.3484L110.124 31.7002L110.139 31.7576L110.176 31.9062L110.221 32.0868C110.269 32.2774 110.317 32.4682 110.364 32.659C110.475 33.1089 110.59 33.5561 110.724 33.9997C110.803 34.26 110.878 34.5213 110.953 34.7826L110.953 34.7839L110.957 34.7971L111.003 34.9559C111.093 35.2697 111.178 35.5842 111.261 35.9001C111.516 36.9436 111.516 36.9436 112.207 37.7292C112.507 37.7978 112.827 37.8051 113.126 37.7237C113.247 37.7072 113.358 37.7018 113.479 37.7237C113.604 37.8307 113.649 37.8926 113.669 38.0562C113.585 38.2115 113.441 38.261 113.282 38.3154C113.26 38.3232 113.237 38.331 113.214 38.3392C113.007 38.3975 112.798 38.4457 112.588 38.4931C112.208 38.5802 111.833 38.6737 111.459 38.7822C111.259 38.8389 111.058 38.8865 110.855 38.9328C110.534 39.0075 110.216 39.0872 109.898 39.1732C109.673 39.2336 109.446 39.2891 109.22 39.3446L109.219 39.3447L109.219 39.3448L109.219 39.3448L109.218 39.3449L109.218 39.345L109.182 39.3537C108.935 39.4147 108.688 39.4794 108.442 39.5451C108.132 39.6277 107.822 39.7077 107.512 39.7874L107.422 39.8104C107.023 39.913 106.623 40.0141 106.223 40.113C106.007 40.1664 105.792 40.2219 105.578 40.2792L105.419 40.3215C105.321 40.3477 105.223 40.3745 105.126 40.4019C104.848 40.4771 104.587 40.5249 104.298 40.4936C104.29 40.486 104.284 40.4797 104.279 40.4738C104.274 40.4688 104.271 40.4641 104.267 40.4591C104.252 40.4351 104.249 40.4036 104.237 40.304C104.254 40.1418 104.254 40.1418 104.349 40.0503C104.475 39.9653 104.591 39.9137 104.734 39.8616C104.901 39.7943 104.984 39.7609 105.057 39.7128C105.128 39.6656 105.19 39.6041 105.313 39.4823C105.4 39.2151 105.418 38.9651 105.418 38.6854L105.421 38.5724C105.423 38.2802 105.358 38.0292 105.272 37.7507C105.202 37.5157 105.15 37.277 105.097 37.0376L105.081 36.9652L105.061 36.8735C105.041 36.7846 105.021 36.6958 105.001 36.607L104.98 36.5141L104.98 36.5126L104.98 36.5116C104.849 35.9203 104.783 35.6243 104.71 35.3303C104.637 35.0367 104.556 34.7451 104.394 34.1634L104.393 34.1601L104.393 34.1591C104.323 33.93 104.27 33.6967 104.216 33.4635L104.204 33.4112C104.133 33.1039 104.052 32.7995 103.97 32.4951L103.929 32.3455L103.894 32.2134C103.691 31.4615 103.488 30.7098 103.27 29.9623C103.17 29.6177 103.072 29.2728 102.975 28.9272L102.932 28.7721C102.903 28.6684 102.874 28.5647 102.845 28.4609C102.688 27.9046 102.528 27.3524 102.047 26.9957C101.911 26.9505 101.814 26.9458 101.672 26.9462L101.543 26.9459C101.424 26.9469 101.424 26.9469 101.297 26.9957C101.216 27.002 101.135 27.0054 101.054 27.0067L100.926 27.0101C100.864 27.0024 100.836 26.9988 100.81 26.9881C100.788 26.9789 100.768 26.9642 100.731 26.937C100.647 26.8194 100.656 26.7402 100.679 26.6C100.836 26.4076 100.966 26.3437 101.207 26.2879L101.296 26.2665C101.39 26.2441 101.484 26.2228 101.578 26.2015L101.689 26.1756L101.762 26.1582C101.854 26.1364 101.946 26.1148 102.038 26.0934C102.352 26.0201 102.663 25.9367 102.974 25.8525C103.045 25.8338 103.115 25.8151 103.186 25.7966L103.279 25.7723L103.371 25.7481L103.475 25.7208C103.8 25.6358 104.125 25.5514 104.45 25.467C104.716 25.398 104.981 25.3287 105.247 25.259C105.556 25.1779 105.865 25.0974 106.174 25.0172L106.559 24.9171L106.795 24.8557C107.13 24.7687 107.465 24.6814 107.798 24.5875C108.229 24.4663 108.662 24.3575 109.097 24.2515C109.402 24.1767 109.704 24.0949 110.006 24.008C110.306 23.9229 110.608 23.8446 110.91 23.7669L111.012 23.7407C111.573 23.597 112.135 23.472 112.705 23.3673C112.803 23.3489 112.901 23.3292 112.999 23.3086C113.817 23.1418 114.661 23.065 115.495 23.0418C115.599 23.0386 115.703 23.0336 115.806 23.0285ZM131.134 18.8758C131.09 18.7741 131.09 18.7741 131.011 18.7248C130.737 18.6163 130.45 18.6847 130.177 18.7631C129.68 18.917 129.176 19.0431 128.672 19.1673L128.608 19.1831C128.182 19.2876 127.757 19.3922 127.335 19.5106C126.827 19.6554 126.316 19.7884 125.803 19.9147L125.719 19.9354C125.307 20.0365 124.896 20.1375 124.488 20.2525C124.193 20.3361 123.897 20.4148 123.6 20.4916L123.503 20.5166C123.307 20.5672 123.111 20.6177 122.915 20.6704L122.83 20.6935C122.668 20.7374 122.507 20.7813 122.343 20.8182L122.242 20.8403C122.175 20.8551 122.108 20.8699 122.041 20.8846C121.888 20.9157 121.743 20.9485 121.599 21.0116C121.438 21.0967 121.386 21.1263 121.33 21.305C121.335 21.4561 121.335 21.4561 121.387 21.5308C121.468 21.588 121.468 21.588 121.577 21.6025L121.702 21.599C121.786 21.5968 121.87 21.5933 121.953 21.588C122.249 21.5379 122.578 21.4844 122.867 21.586L122.968 21.632C123.031 21.652 123.061 21.6615 123.09 21.6732C123.116 21.6838 123.141 21.6963 123.189 21.7199C123.233 21.8518 123.233 21.8518 123.31 22.0031C123.325 22.0318 123.34 22.0604 123.355 22.0889C123.474 22.3158 123.592 22.5416 123.663 22.7889C123.691 22.8957 123.72 22.999 123.757 23.1027C123.853 23.3526 123.934 23.6028 124.005 23.8605C124.104 24.2279 124.207 24.594 124.32 24.9577C124.49 25.5018 124.641 26.0496 124.787 26.6004L124.811 26.6916L124.853 26.8504C124.891 26.9903 124.928 27.1302 124.964 27.2702C124.999 27.4032 125.034 27.5363 125.07 27.6692C125.178 28.071 125.281 28.4733 125.377 28.8783L125.384 28.9098C125.43 29.1068 125.476 29.3036 125.533 29.4982C125.61 29.7568 125.678 30.0121 125.73 30.277C125.759 30.432 125.789 30.5855 125.828 30.7385C125.888 30.9636 125.936 31.1836 125.967 31.4147C125.996 31.6366 126.034 31.8549 126.078 32.0743L126.099 32.176L126.125 32.305C126.147 32.4113 126.169 32.5175 126.19 32.6238C126.248 32.8981 126.284 33.1629 126.289 33.4431L126.29 33.5443C126.292 33.7098 126.289 33.8624 126.242 34.0226C125.933 34.358 125.933 34.358 125.487 34.5174C125.313 34.5773 125.151 34.6348 124.99 34.7259C124.91 34.8221 124.91 34.8221 124.894 34.9843C124.91 35.1299 124.91 35.1299 124.954 35.1739C125.305 35.1902 125.305 35.1902 126.24 34.9369C126.432 34.8843 126.625 34.8327 126.818 34.7824C126.885 34.7648 126.953 34.7472 127.02 34.7295L127.022 34.7291L127.023 34.7289L127.023 34.7287L127.024 34.7286C127.556 34.5893 127.558 34.5889 128.092 34.4502L128.093 34.45L128.466 34.3531L128.861 34.2506L129.07 34.1963L129.498 34.085C129.933 33.972 130.368 33.8591 130.803 33.7449C131.194 33.6422 131.586 33.5404 131.977 33.4387L132.365 33.338L132.492 33.3051L132.745 33.2393C132.959 33.1833 133.174 33.1271 133.389 33.073L133.528 33.0384L133.799 32.97C133.956 32.9314 134.113 32.8917 134.268 32.8436C134.294 32.8336 134.321 32.8244 134.347 32.8152C134.502 32.761 134.643 32.7117 134.72 32.5551C134.709 32.4479 134.709 32.4479 134.664 32.376C134.622 32.3475 134.597 32.3299 134.568 32.319C134.522 32.3012 134.469 32.3015 134.329 32.3022L134.23 32.3047C134.125 32.3056 134.019 32.3066 133.914 32.3085C133.805 32.3105 133.695 32.3121 133.586 32.3134L133.378 32.3157L133.346 32.3163C133.19 32.3196 133.051 32.3225 132.899 32.272L132.855 32.1841H132.767C132.767 32.0962 132.767 32.0962 132.708 32.0149L132.708 32.0142L132.708 32.0136C132.426 31.4902 132.284 31.2269 132.178 30.9497C132.072 30.6693 132.002 30.3748 131.861 29.7825C131.799 29.5473 131.736 29.3131 131.665 29.0805C131.566 28.7583 131.484 28.4341 131.407 28.1062C131.283 27.5778 131.139 27.0556 130.993 26.533C130.914 26.2513 130.836 25.9693 130.762 25.6864L130.737 25.589C130.658 25.2885 130.579 24.9878 130.501 24.687C130.467 24.5549 130.433 24.4229 130.399 24.2909C130.319 23.9869 130.246 23.6835 130.19 23.3742C130.142 23.1036 130.083 22.8367 130.019 22.5693L130.003 22.5025C129.924 22.1681 129.845 21.8357 129.799 21.4946L129.795 21.4651C129.782 21.3569 129.77 21.2521 129.741 21.1463C129.686 20.9715 129.67 20.8084 129.667 20.6246L129.666 20.5301C129.663 20.2979 129.688 20.0942 129.766 19.8733C129.946 19.649 130.182 19.5259 130.45 19.4309L130.476 19.4217C130.698 19.3446 130.892 19.2769 131.065 19.1094C131.134 18.994 131.134 18.994 131.134 18.8758ZM142.668 14.5151C142.818 14.5637 142.871 14.6318 142.963 14.7512L142.974 14.765L143.078 14.8981L143.183 15.0371L143.285 15.1664C143.491 15.4325 143.67 15.7069 143.844 15.9946C144 16.2417 144.18 16.4716 144.36 16.7017C144.383 16.7309 144.406 16.7601 144.429 16.7894C144.641 17.0651 144.829 17.3473 145.011 17.6433C145.131 17.8379 145.259 18.0201 145.404 18.1979C145.487 18.3007 145.564 18.4063 145.641 18.5132C145.785 18.7118 145.932 18.9083 146.08 19.104C146.275 19.362 146.468 19.6214 146.659 19.8817C146.91 20.2215 147.165 20.5571 147.422 20.8918C147.642 21.1777 147.857 21.4666 148.07 21.7568C148.263 22.018 148.459 22.2761 148.657 22.5335C148.907 22.8592 149.153 23.1872 149.397 23.518C149.587 23.7758 149.779 24.0314 149.972 24.2866C150.187 24.5708 150.395 24.8578 150.597 25.1517C151.225 26.0561 151.225 26.0561 152.003 26.8288C152.099 26.9082 152.099 26.9082 152.192 27.004C152.519 27.3023 152.832 27.2974 153.261 27.2907C153.559 27.2879 153.741 27.3245 153.997 27.4798C153.964 27.6468 153.964 27.6468 153.864 27.726C153.697 27.8042 153.53 27.8483 153.352 27.8919L153.125 27.9493L153.009 27.9785C152.837 28.0215 152.667 28.0665 152.496 28.1115L152.474 28.1173L152.264 28.1724L151.852 28.2806C151.428 28.3919 151.003 28.5025 150.579 28.6127C150.173 28.718 149.768 28.8242 149.363 28.9307C148.871 29.0598 148.379 29.1883 147.887 29.3161C147.515 29.4126 147.144 29.5099 146.772 29.6074C146.563 29.6622 146.355 29.7169 146.146 29.7716C145.939 29.8258 145.733 29.88 145.526 29.9342C145.458 29.9521 145.39 29.97 145.321 29.9878C145.122 30.04 144.922 30.0928 144.722 30.1463L144.447 30.2194L144.316 30.255L144.192 30.2876L144.083 30.3169C143.97 30.3392 143.872 30.3473 143.757 30.3376C143.717 30.2972 143.695 30.2754 143.681 30.2492C143.665 30.2184 143.661 30.1815 143.652 30.1013C143.672 29.9096 143.699 29.8854 143.846 29.766C143.957 29.7034 144.072 29.6503 144.188 29.5968L144.188 29.5966L144.19 29.5957C144.56 29.4167 144.852 29.2636 145.008 28.864C145.104 28.5048 145.034 28.1716 144.905 27.8315L144.856 27.6934C144.689 27.265 144.444 26.9175 144.171 26.5506C144.094 26.4462 144.021 26.3394 143.948 26.2322C143.687 25.8618 143.39 25.523 143.08 25.1933C143.039 25.1443 143.021 25.1227 143.013 25.0978C143.007 25.0781 143.007 25.0564 143.007 25.0176L142.903 25.0457C142.253 25.2207 141.604 25.3912 140.949 25.5445C140.664 25.6115 140.385 25.6873 140.104 25.7704C139.846 25.8403 139.583 25.8887 139.32 25.9371L139.299 25.9409L139.307 26.0354L139.328 26.3139C139.337 26.4193 139.345 26.5247 139.353 26.6302L139.354 26.6332L139.354 26.6373L139.354 26.6391C139.378 26.9408 139.385 27.0366 139.39 27.1325C139.393 27.1766 139.394 27.2208 139.397 27.2852C139.424 27.9009 139.552 28.4562 140.016 28.891C140.077 28.944 140.14 28.9958 140.204 29.0461L140.27 29.1065V29.1945L140.345 29.2219L140.345 29.2221C140.39 29.2489 140.415 29.2638 140.437 29.2825C140.465 29.3058 140.487 29.335 140.538 29.4006C140.918 29.8736 141.567 30.0686 142.143 30.1425L142.259 30.1546C142.485 30.1809 142.619 30.2144 142.786 30.3816L142.786 30.3826L142.786 30.3832C142.782 30.4184 142.779 30.4382 142.775 30.4575C142.769 30.4815 142.761 30.505 142.742 30.5571L142.742 30.5574C142.476 30.7534 142.139 30.8334 141.82 30.9093L141.752 30.9257L141.433 31.005L141.27 31.0452C141.03 31.1046 140.791 31.1667 140.552 31.2288L140.513 31.2389L140.215 31.3159L140.066 31.3543L139.47 31.5082L139.173 31.5851L138.421 31.7791C138.173 31.8432 137.925 31.9074 137.676 31.9716L137.508 32.0149L137.262 32.0785L137.261 32.0786L137.001 32.1458L136.876 32.178C136.681 32.2286 136.486 32.2808 136.293 32.3374L136.185 32.3687L136.147 32.3798C136.123 32.3869 136.099 32.3941 136.075 32.4014C136.046 32.4099 136.018 32.4185 135.99 32.4273C135.772 32.4908 135.553 32.5244 135.327 32.492L135.239 32.4041C135.242 32.2466 135.257 32.1667 135.368 32.0523C135.482 31.9786 135.596 31.911 135.713 31.8435C137.033 31.0557 137.552 29.1404 137.907 27.7468C137.931 27.6544 137.958 27.5629 137.985 27.4713C138.308 26.3653 138.442 25.173 138.49 24.0247C138.499 23.8671 138.522 23.7134 138.546 23.5574C138.603 23.1717 138.628 22.7843 138.653 22.3956L138.659 22.2999C138.671 22.1311 138.682 21.9623 138.693 21.7936L138.702 21.6693C138.72 21.3924 138.742 21.116 138.766 20.8396C138.797 20.4841 138.824 20.1286 138.833 19.7718L138.838 19.6745C138.839 19.5158 138.828 19.4488 138.716 19.333L138.593 19.2579L138.493 19.1866C138.331 19.1053 138.171 19.0714 137.994 19.0353L137.888 19.0125C137.686 18.9699 137.484 18.934 137.28 18.9034C137.094 18.8737 136.939 18.8431 136.783 18.7303C136.762 18.6654 136.753 18.6362 136.747 18.6062C136.743 18.5815 136.742 18.5563 136.739 18.5105C137.003 18.2655 137.326 18.1766 137.669 18.0928C138.449 17.876 139.176 17.4567 139.83 16.9894C139.913 16.9303 139.997 16.8726 140.082 16.8153C140.689 16.399 141.212 15.9092 141.732 15.3915L141.807 15.3174C141.878 15.2466 141.949 15.1756 142.02 15.1046L142.084 15.0402C142.234 14.8886 142.367 14.7277 142.497 14.5589C142.565 14.5095 142.566 14.5095 142.668 14.5151ZM122.066 7.52143C121.945 7.40895 121.84 7.32084 121.688 7.25488C121.547 7.67955 121.427 8.10731 121.316 8.54092C121.224 8.90151 121.128 9.25969 121.018 9.61537L121.013 9.63236C120.955 9.82011 120.897 10.0075 120.849 10.1981C120.74 10.6477 120.614 11.0908 120.483 11.5345C120.457 11.6173 120.433 11.7004 120.408 11.7835C120.4 11.8168 120.393 11.8503 120.386 11.8835C120.353 12.0427 120.32 12.1948 120.175 12.2872C119.944 12.3167 119.721 12.3588 119.496 12.4233L119.495 12.4236C119.108 12.5294 118.913 12.5823 118.719 12.6323C118.524 12.6823 118.328 12.7293 117.938 12.8232L117.937 12.8235L117.936 12.8236C117.825 12.8504 117.714 12.8768 117.603 12.9033C117.172 13.0058 116.741 13.1084 116.315 13.2285C115.998 13.3186 115.68 13.4013 115.36 13.479L115.193 13.5193C114.938 13.5809 114.683 13.6424 114.428 13.7033C114.284 13.7376 114.14 13.7721 113.996 13.8069L113.833 13.8463L113.675 13.8837L113.53 13.9188L113.505 13.925C113.377 13.9553 113.314 13.9702 113.214 14.0698C113.93 14.1643 114.647 14.2599 115.363 14.3588L115.43 14.3681C115.599 14.3915 115.769 14.415 115.939 14.4378C116.326 14.4893 116.713 14.5419 117.099 14.5988L117.213 14.6156L117.328 14.6327C118.094 14.7456 118.86 14.8559 119.63 14.9412L119.702 14.9491C119.334 15.978 118.979 17.0113 118.632 18.0473C118.599 18.1456 118.566 18.2438 118.532 18.3421C118.479 18.5009 118.426 18.6598 118.372 18.8187L118.312 18.998C118.2 19.3314 118.093 19.6599 118.025 20.0053C118.155 19.9421 118.283 19.8773 118.408 19.8043L118.529 19.7299L118.667 19.6453L118.673 19.6418C118.745 19.597 118.818 19.5523 118.89 19.5077C119.25 19.2865 119.609 19.0637 119.967 18.8402C120.286 18.6413 120.605 18.4436 120.925 18.2475C121.342 17.9923 121.759 17.7362 122.174 17.4772C122.397 17.3376 122.621 17.1981 122.846 17.0602L122.991 16.9714C123.088 16.9119 123.185 16.8524 123.283 16.793L123.33 16.7645C123.551 16.6303 123.773 16.4963 123.988 16.3525L124.122 16.2613C124.208 16.2041 124.293 16.1469 124.378 16.0895C124.396 16.0769 124.413 16.0641 124.431 16.0512L124.431 16.0508C124.581 15.9424 124.732 15.8328 124.921 15.8237L125.028 15.8367L125.157 15.8518L125.308 15.8724C125.503 15.8987 125.698 15.926 125.893 15.9545L126.05 15.9775C126.111 15.9866 126.173 15.9956 126.235 16.0045C126.523 16.0464 126.812 16.0885 127.101 16.1307C127.387 16.1726 127.673 16.2144 127.959 16.2559L128.079 16.2733C128.579 16.3457 129.078 16.4162 129.579 16.4742C130.067 16.53 130.552 16.5979 131.037 16.6693L131.106 16.6795C131.556 16.7458 132.004 16.8119 132.458 16.8397C132.068 16.4471 131.651 16.0852 131.23 15.7273C131.015 15.5449 130.801 15.3616 130.595 15.1691C130.358 14.9481 130.123 14.7287 129.87 14.5259C129.689 14.3818 129.518 14.2303 129.349 14.0725L129.34 14.0641C129.233 13.962 129.131 13.8651 129 13.7921L128.927 13.762V13.6741C129.042 13.6305 129.152 13.5839 129.262 13.5287L129.384 13.463L129.523 13.3886L129.672 13.3086C130.051 13.1046 130.428 12.8973 130.803 12.6848C131.113 12.509 131.424 12.3369 131.738 12.1691C132.15 11.9497 132.56 11.7281 132.966 11.4977C133.275 11.3218 133.587 11.1498 133.901 10.982C134.313 10.7626 134.723 10.541 135.128 10.3106C135.438 10.1347 135.749 9.96269 136.064 9.79484C136.475 9.57546 136.885 9.35388 137.291 9.12349C137.666 8.91043 138.044 8.70486 138.425 8.50245L138.574 8.42353L138.714 8.3496C138.86 8.27243 138.993 8.19252 139.123 8.09026C138.753 8.14433 138.392 8.22133 138.029 8.30649C137.374 8.46074 136.719 8.60848 136.061 8.74724C135.486 8.86844 134.912 8.99192 134.34 9.12501C133.239 9.38115 132.135 9.62433 131.032 9.86732C130.549 9.97351 130.067 10.0802 129.584 10.1881C129.213 10.2711 128.842 10.3538 128.471 10.4362L128.417 10.4482L128.415 10.4485C128.206 10.495 127.996 10.5415 127.786 10.5886C127.567 10.6378 127.349 10.6869 127.13 10.7353C127.048 10.7532 126.967 10.7711 126.886 10.7891C126.772 10.815 126.658 10.8409 126.544 10.866L126.44 10.8885C126.326 10.9152 126.219 10.9342 126.102 10.9481C125.586 10.6408 125.586 10.6408 125.153 10.2007C124.981 10.0403 124.807 9.88601 124.623 9.73902C124.466 9.61309 124.315 9.48294 124.167 9.34589C123.97 9.16172 123.772 8.98196 123.561 8.81297C123.411 8.69258 123.265 8.56892 123.124 8.43829C122.935 8.26301 122.744 8.09277 122.543 7.93088C122.379 7.7994 122.221 7.66343 122.066 7.52143ZM136.828 42.5158H137.71C137.686 42.8364 137.642 43.1192 137.578 43.4391H136.651L136.69 43.1259L136.701 43.0288C136.725 42.8427 136.767 42.6977 136.828 42.5158ZM142.855 39.4712C142.905 39.3047 142.923 39.2082 142.874 39.0425C141.784 38.7183 140.853 38.7284 140.022 39.6003C139.374 40.3444 139.21 41.2969 139.255 42.2521C139.414 42.7273 139.585 43.1145 140.029 43.3841C140.592 43.6699 141.277 43.6263 141.87 43.4557L141.904 43.4442C142.06 43.3913 142.112 43.3734 142.199 43.2111C142.2 43.1895 142.202 43.1679 142.204 43.1463C142.206 43.1263 142.208 43.1062 142.21 43.0862C142.212 43.0607 142.215 43.0352 142.217 43.0098C142.22 42.985 142.223 42.9603 142.226 42.9356C142.238 42.8397 142.248 42.7441 142.257 42.6478C141.886 42.7709 141.537 42.8769 141.145 42.8863L141.04 42.8869C140.732 42.8908 140.532 42.8376 140.284 42.6423C140.026 42.1325 140.026 42.1325 140.041 41.5481C140.071 40.9596 140.299 40.2908 140.745 39.8806L140.888 39.7899L141.001 39.7188C141.548 39.4056 142.063 39.5127 142.644 39.6635L142.786 39.702L142.817 39.6024L142.855 39.4712ZM146.797 39.1363C147.13 39.4186 147.312 39.8034 147.377 40.23C147.446 41.1528 147.186 42.132 146.578 42.8443C146.196 43.2473 145.709 43.5356 145.147 43.5852C144.629 43.5942 144.162 43.5373 143.76 43.1897C143.431 42.8498 143.29 42.4286 143.287 41.9628L143.291 41.8183L143.293 41.6661C143.315 40.9105 143.599 40.1417 144.11 39.5705L144.185 39.4824C144.846 38.7581 145.976 38.5593 146.797 39.1363ZM152.099 39.7021C152.011 39.4118 151.892 39.1976 151.658 38.9986C151.018 38.6058 150.236 38.855 149.71 39.3201L149.539 39.4823L149.495 38.9547H148.877C148.791 39.1267 148.791 39.1267 148.642 39.924C148.577 40.2705 148.508 40.6152 148.431 40.959C148.333 41.3913 148.237 41.824 148.149 42.2585L148.113 42.4336C148.045 42.7684 147.982 43.0989 147.95 43.4393H148.701L148.706 43.4013C148.725 43.2679 148.744 43.1343 148.771 43.0023L148.801 42.8743L148.834 42.7292C148.933 42.2995 149.027 41.8698 149.106 41.4361C149.167 41.0905 149.239 40.7542 149.387 40.4339C149.635 40.008 149.939 39.681 150.422 39.5262C150.681 39.4949 150.985 39.4806 151.217 39.6142C151.289 39.9766 151.325 40.1614 151.319 40.3447C151.312 40.5354 151.258 40.7243 151.147 41.1099C151.094 41.328 151.045 41.5466 150.999 41.766L150.971 41.8977C150.864 42.4095 150.773 42.9237 150.687 43.4393H151.437C151.464 43.3209 151.491 43.2026 151.518 43.0841L151.553 42.9282C151.624 42.6145 151.693 42.3009 151.755 41.9854L151.772 41.8967C151.795 41.7807 151.818 41.6647 151.84 41.5487C151.954 40.94 152.094 40.2756 152.577 39.8395C152.961 39.5844 153.261 39.4658 153.732 39.5262C153.859 39.5674 153.901 39.6028 153.979 39.7118C154.035 40.0328 154.064 40.1968 154.059 40.3597C154.053 40.5297 154.01 40.6986 153.922 41.0437C153.908 41.1101 153.893 41.1766 153.88 41.2431C153.851 41.3795 153.823 41.5159 153.794 41.6522C153.74 41.9096 153.686 42.1673 153.634 42.4252L153.606 42.5655C153.545 42.8567 153.496 43.1432 153.468 43.4393C153.551 43.4402 153.634 43.4409 153.716 43.4415L153.818 43.4421C153.937 43.4434 154.055 43.4425 154.174 43.4393C154.223 43.3907 154.223 43.3907 154.261 43.1764C154.32 42.8411 154.389 42.5089 154.463 42.1767C154.511 41.9648 154.557 41.7528 154.603 41.5407L154.659 41.2849C154.751 40.8699 154.842 40.4601 154.856 40.0339L154.858 39.9302L154.86 39.8354C154.857 39.539 154.748 39.3108 154.543 39.0976C154.244 38.8778 153.926 38.7918 153.556 38.8059C152.986 38.8781 152.535 39.1893 152.171 39.6152L152.099 39.7021Z" fill="#F9F9F9"/>
<path d="M27.4978 19.6089C27.5549 19.6272 27.6119 19.6456 27.669 19.6638C28.3384 19.8877 29.0677 20.2493 29.5723 20.752C29.5778 20.8503 29.5802 20.9488 29.5815 21.0472C29.5819 21.0785 29.5824 21.1097 29.5828 21.1419C29.5842 21.2474 29.5853 21.3528 29.5864 21.4583C29.5873 21.5336 29.5883 21.6089 29.5892 21.6842C29.5975 22.3737 29.6021 23.0633 29.6057 23.7528C29.6084 24.2624 29.6129 24.7718 29.6199 25.2814C29.6246 25.6397 29.6272 25.998 29.6281 26.3564C29.6287 26.5703 29.6303 26.7842 29.6343 26.9981C29.6381 27.1998 29.6391 27.4013 29.638 27.603C29.6381 27.6767 29.6391 27.7503 29.6413 27.8239C29.6514 28.1907 29.637 28.4579 29.3771 28.7356C29.2564 28.8519 29.1307 28.9587 28.9985 29.0618C28.972 29.0828 28.9454 29.1039 28.9181 29.1256C28.3046 29.6081 27.6243 29.8947 26.8799 30.117C26.8533 30.1251 26.8268 30.1331 26.7995 30.1414C25.8926 30.3258 24.8229 30.1763 24.0437 29.6857C23.033 28.9989 22.5558 27.8258 22.3278 26.6706C22.2356 26.123 22.2359 25.5706 22.2348 25.0169C22.2344 24.8893 22.233 24.7617 22.2316 24.6341C22.2232 23.1362 22.5347 21.506 23.6302 20.4003C24.0797 19.9681 24.5666 19.7051 25.1585 19.5209C25.2111 19.5044 25.2637 19.4879 25.3178 19.4708C26.0012 19.3083 26.8384 19.3766 27.4978 19.6089Z" fill="#F9F9F9"/>
<path d="M111.235 24.5998C111.937 25.2209 112.156 26.1342 112.38 27.0098C112.388 27.0393 112.395 27.0688 112.403 27.0992C112.522 27.5598 112.622 28.019 112.684 28.4909C112.692 28.5475 112.692 28.5475 112.701 28.6051C112.715 28.714 112.723 28.8209 112.728 28.9306C112.729 28.9629 112.731 28.9953 112.733 29.0286C112.738 29.1443 112.741 29.2599 112.744 29.3758C112.747 29.4317 112.747 29.4317 112.749 29.4887C112.753 29.7687 112.684 29.9445 112.507 30.1617C112.064 30.6105 111.419 30.7344 110.83 30.8789C110.75 30.899 110.67 30.9192 110.589 30.9394C110.008 31.085 110.008 31.085 109.903 31.085C109.895 31.0532 109.887 31.0213 109.878 30.9886C109.686 30.2409 109.686 30.2409 109.481 29.4967C109.365 29.0913 109.269 28.6815 109.172 28.2714C109.119 28.0479 109.063 27.8251 109.007 27.6023C108.792 26.7481 108.792 26.7481 108.755 26.3365C108.741 26.3075 108.726 26.2785 108.711 26.2486C108.676 25.8668 108.704 25.4926 108.888 25.1494C109.23 24.826 109.73 24.7343 110.176 24.6301C110.237 24.6156 110.237 24.6156 110.298 24.6009C110.607 24.5322 110.94 24.4615 111.235 24.5998Z" fill="#F9F9F9"/>
<path d="M139.652 20.4004C139.681 20.4004 139.71 20.4004 139.74 20.4004C139.795 20.4659 139.795 20.4659 139.856 20.5584C139.879 20.5925 139.902 20.6265 139.925 20.6616C139.95 20.6988 139.974 20.7359 140 20.7741C140.188 21.0536 140.379 21.3282 140.584 21.5957C140.779 21.8499 140.963 22.1087 141.143 22.3729C141.319 22.6302 141.502 22.8826 141.686 23.1346C141.88 23.4016 142.072 23.6706 142.262 23.9406C142.282 23.9697 142.303 23.9987 142.324 24.0287C142.343 24.0556 142.362 24.0825 142.381 24.1102C142.424 24.1694 142.47 24.2261 142.516 24.2822C142.533 24.307 142.549 24.3319 142.565 24.3574C142.543 24.4227 142.543 24.4227 142.521 24.4893C142.428 24.5299 142.428 24.5299 142.298 24.5663C142.245 24.5812 142.193 24.5961 142.14 24.6114C142.109 24.6198 142.079 24.6282 142.048 24.6368C141.892 24.6806 141.737 24.7263 141.582 24.7718C141.445 24.8116 141.309 24.8511 141.172 24.8905C140.981 24.9458 140.79 25.0017 140.599 25.0582C140.553 25.072 140.506 25.0858 140.457 25.1C140.368 25.1263 140.279 25.1526 140.19 25.1792C139.925 25.2572 139.659 25.3186 139.387 25.3687C139.38 24.9149 139.404 24.4663 139.434 24.0139C139.439 23.9391 139.444 23.8642 139.448 23.7894C139.461 23.5934 139.474 23.3975 139.487 23.2015C139.51 22.8522 139.533 22.5029 139.555 22.1536C139.558 22.1166 139.56 22.0796 139.563 22.0414C139.598 21.4947 139.63 20.9479 139.652 20.4004Z" fill="#F9F9F9"/>
<path d="M146.169 39.5571C146.405 39.7015 146.524 39.8922 146.603 40.1524C146.743 40.8696 146.534 41.6357 146.147 42.2446C145.88 42.6151 145.618 42.8275 145.17 42.9563C144.87 43.0053 144.624 42.9576 144.376 42.7804C144.089 42.5076 144.016 42.2115 144.006 41.8269C144.024 41.1001 144.251 40.3773 144.761 39.8429C144.835 39.7752 144.911 39.7163 144.993 39.6588C145.019 39.6406 145.044 39.6225 145.07 39.6038C145.385 39.4112 145.835 39.4044 146.169 39.5571Z" fill="#F9F9F9"/>
</g>
<defs>
<clipPath id="clip0_601_413">
<rect width="160" height="48.2759" fill="white"/>
</clipPath>
</defs>
</svg>
