<svg width="150" height="43" viewBox="0 0 150 43" fill="none" xmlns="http://www.w3.org/2000/svg">
<path d="M58.2929 29.6554C58.3813 29.6554 58.4661 29.6905 58.5286 29.753C58.5911 29.8155 58.6262 29.9003 58.6262 29.9887C58.6344 30.3261 58.572 30.6614 58.443 30.9731C58.3139 31.2849 58.1211 31.5663 57.877 31.7991C57.3805 32.2762 56.7225 32.5147 55.903 32.5147C55.514 32.5267 55.1266 32.4589 54.7648 32.3156C54.403 32.1723 54.0743 31.9564 53.799 31.6814C53.5304 31.4131 53.3188 31.0934 53.1769 30.7413C53.035 30.3892 52.9657 30.012 52.9733 29.6325C52.9652 29.2542 53.0343 28.8783 53.1762 28.5276C53.3182 28.1769 53.5301 27.8588 53.799 27.5927C54.0704 27.3156 54.3962 27.0976 54.7559 26.9523C55.1156 26.8071 55.5014 26.7378 55.8892 26.7487C56.3856 26.7439 56.8741 26.8727 57.3036 27.1218C57.6085 27.2922 57.8771 27.5208 58.0941 27.7945C58.1215 27.832 58.1407 27.8749 58.1502 27.9204C58.1597 27.9658 58.1594 28.0128 58.1492 28.0581C58.1391 28.1035 58.1194 28.1461 58.0914 28.1832C58.0634 28.2203 58.0279 28.2509 57.9871 28.2731C57.8972 28.3185 57.7945 28.3312 57.6963 28.3092C57.5981 28.2871 57.5107 28.2317 57.4488 28.1523C57.3047 27.9857 57.1317 27.8464 56.9381 27.741C56.6172 27.5554 56.2522 27.4598 55.8816 27.4643C55.4532 27.4665 55.0349 27.5944 54.6786 27.8321C54.3222 28.0698 54.0435 28.4069 53.8769 28.8015C53.7104 29.1962 53.6633 29.6311 53.7416 30.0522C53.8199 30.4734 54.0201 30.8623 54.3173 31.1707C54.5278 31.3759 54.7779 31.5359 55.0524 31.6411C55.3269 31.7463 55.62 31.7943 55.9137 31.7823C56.3965 31.8047 56.8725 31.6624 57.2638 31.3786C57.5548 31.1511 57.7627 30.834 57.8556 30.4765C57.8603 30.4569 57.8604 30.4364 57.8559 30.4168C57.8514 30.3971 57.8425 30.3787 57.8298 30.363C57.8171 30.3474 57.8009 30.3348 57.7826 30.3264C57.7643 30.318 57.7442 30.3139 57.7241 30.3144H56.1797C56.0913 30.3144 56.0065 30.2793 55.944 30.2168C55.8815 30.1543 55.8464 30.0695 55.8464 29.9811C55.8464 29.8927 55.8815 29.8079 55.944 29.7454C56.0065 29.6829 56.0913 29.6478 56.1797 29.6478L58.2929 29.6554Z" fill="white"/>
<path d="M67.0733 32.4091C67.0168 32.4091 66.9611 32.3951 66.9112 32.3684C66.8613 32.3418 66.8188 32.3032 66.7874 32.2562L65.532 30.3449C65.5195 30.3255 65.5023 30.3096 65.482 30.2987C65.4616 30.2877 65.4389 30.2821 65.4158 30.2822H64.321C64.284 30.2826 64.2486 30.2976 64.2226 30.3239C64.1965 30.3503 64.1819 30.3858 64.1819 30.4229V32.0406C64.1759 32.1344 64.1343 32.2224 64.0657 32.2867C63.9971 32.3511 63.9066 32.3868 63.8126 32.3868C63.7186 32.3868 63.6281 32.3511 63.5595 32.2867C63.4909 32.2224 63.4494 32.1344 63.4434 32.0406V27.0849C63.4434 27.0544 63.4494 27.0242 63.4611 26.996C63.4727 26.9678 63.4898 26.9422 63.5114 26.9206C63.533 26.899 63.5586 26.8819 63.5868 26.8702C63.615 26.8585 63.6453 26.8525 63.6758 26.8525H65.6635C65.8913 26.8488 66.1175 26.8919 66.3279 26.9792C66.5383 27.0666 66.7286 27.1962 66.8868 27.3602C67.1772 27.643 67.3557 28.0213 67.3894 28.4253C67.4232 28.8293 67.3098 29.2319 67.0703 29.5589C66.8808 29.8333 66.615 30.046 66.3057 30.1706C66.2991 30.1731 66.2931 30.177 66.2882 30.1822C66.2833 30.1873 66.2796 30.1935 66.2774 30.2002C66.2752 30.207 66.2745 30.2141 66.2755 30.2212C66.2764 30.2282 66.2789 30.235 66.2828 30.2409L67.3577 31.88C67.3917 31.9314 67.4111 31.9911 67.4139 32.0526C67.4167 32.1142 67.4028 32.1753 67.3736 32.2296C67.3445 32.2838 67.3012 32.3292 67.2483 32.3608C67.1954 32.3924 67.1349 32.4091 67.0733 32.4091ZM64.321 27.5421C64.284 27.5425 64.2486 27.5575 64.2226 27.5839C64.1965 27.6102 64.1819 27.6457 64.1819 27.6828V29.4748C64.1819 29.5119 64.1965 29.5474 64.2226 29.5738C64.2486 29.6001 64.284 29.6151 64.321 29.6155H65.6666C65.7979 29.6174 65.9282 29.5911 66.0484 29.5384C66.1687 29.4856 66.2763 29.4076 66.3638 29.3097C66.4593 29.2125 66.5346 29.0973 66.5852 28.9708C66.6359 28.8443 66.6609 28.709 66.659 28.5727C66.6617 28.4373 66.6369 28.3027 66.5862 28.1771C66.5355 28.0514 66.4598 27.9374 66.3638 27.8418C66.2763 27.7439 66.1687 27.6659 66.0484 27.6132C65.9282 27.5604 65.7979 27.5341 65.6666 27.536L64.321 27.5421Z" fill="white"/>
<path d="M76.812 31.6721C76.2695 32.2108 75.536 32.5131 74.7715 32.5131C74.007 32.5131 73.2735 32.2108 72.731 31.6721C72.1967 31.1273 71.8975 30.3946 71.8975 29.6316C71.8975 28.8685 72.1967 28.1359 72.731 27.5911C73.2722 27.0499 74.0062 26.7458 74.7715 26.7458C75.5369 26.7458 76.2709 27.0499 76.812 27.5911C77.3532 28.1322 77.6573 28.8662 77.6573 29.6316C77.6573 30.3969 77.3532 31.1309 76.812 31.6721ZM73.2402 31.1706C73.44 31.3712 73.6787 31.5289 73.9416 31.6341C74.2045 31.7392 74.4862 31.7896 74.7692 31.7822C75.0525 31.7911 75.3345 31.7414 75.5976 31.6361C75.8608 31.5309 76.0993 31.3724 76.2983 31.1706C76.6958 30.7565 76.9178 30.2048 76.9178 29.6308C76.9178 29.0568 76.6958 28.5051 76.2983 28.0911C76.1013 27.8857 75.8634 27.7238 75.6001 27.6158C75.3367 27.5078 75.0537 27.4562 74.7692 27.4641C74.4849 27.4577 74.2024 27.51 73.9392 27.6179C73.6761 27.7258 73.4381 27.8869 73.2402 28.0911C72.8475 28.5076 72.6288 29.0584 72.6288 29.6308C72.6288 30.2032 72.8475 30.7541 73.2402 31.1706Z" fill="white"/>
<path d="M85.9382 31.981C85.5252 32.3445 84.988 32.5351 84.4382 32.5131C83.8856 32.5354 83.3454 32.345 82.929 31.981C82.7352 31.7968 82.5832 31.5732 82.4832 31.3252C82.3832 31.0773 82.3376 30.8108 82.3495 30.5437V27.221C82.3555 27.1272 82.3971 27.0392 82.4657 26.9749C82.5342 26.9106 82.6247 26.8748 82.7188 26.8748C82.8128 26.8748 82.9033 26.9106 82.9719 26.9749C83.0405 27.0392 83.082 27.1272 83.088 27.221V30.5116C83.0794 30.6833 83.1059 30.8549 83.1659 31.0161C83.2258 31.1772 83.3179 31.3245 83.4366 31.4489C83.7234 31.6699 84.0753 31.7898 84.4374 31.7898C84.7995 31.7898 85.1514 31.6699 85.4382 31.4489C85.5569 31.3245 85.649 31.1772 85.709 31.0161C85.7689 30.8549 85.7954 30.6833 85.7868 30.5116V27.218C85.7868 27.1211 85.8253 27.0281 85.8938 26.9596C85.9624 26.891 86.0553 26.8525 86.1522 26.8525C86.2492 26.8525 86.3421 26.891 86.4107 26.9596C86.4792 27.0281 86.5177 27.1211 86.5177 27.218V30.5437C86.5295 30.8108 86.4839 31.0773 86.384 31.3252C86.284 31.5732 86.132 31.7968 85.9382 31.981Z" fill="white"/>
<path d="M93.5822 26.8571C94.0559 26.8571 94.5102 27.0453 94.8451 27.3802C95.18 27.7151 95.3682 28.1694 95.3682 28.6431C95.3682 29.1167 95.18 29.571 94.8451 29.9059C94.5102 30.2408 94.0559 30.429 93.5822 30.429H92.4446C92.4073 30.429 92.3715 30.4438 92.3452 30.4702C92.3188 30.4966 92.304 30.5324 92.304 30.5697V32.0452C92.2979 32.139 92.2564 32.227 92.1878 32.2913C92.1192 32.3557 92.0287 32.3915 91.9347 32.3915C91.8407 32.3915 91.7502 32.3557 91.6816 32.2913C91.613 32.227 91.5715 32.139 91.5654 32.0452V27.085C91.5658 27.0232 91.5907 26.9641 91.6345 26.9205C91.6783 26.877 91.7376 26.8525 91.7994 26.8525L93.5822 26.8571ZM93.5822 29.7394C93.7239 29.7442 93.865 29.7194 93.9966 29.6668C94.1283 29.6142 94.2475 29.5347 94.3468 29.4336C94.447 29.3292 94.5256 29.206 94.578 29.0711C94.6305 28.9362 94.6558 28.7923 94.6526 28.6476C94.6568 28.5028 94.6319 28.3587 94.5794 28.2237C94.5268 28.0887 94.4477 27.9656 94.3468 27.8617C94.2475 27.7606 94.1283 27.6811 93.9966 27.6285C93.865 27.5758 93.7239 27.5511 93.5822 27.5559H92.4446C92.4073 27.5559 92.3715 27.5707 92.3452 27.5971C92.3188 27.6235 92.304 27.6593 92.304 27.6966V29.6079C92.304 29.6452 92.3188 29.681 92.3452 29.7074C92.3715 29.7337 92.4073 29.7486 92.4446 29.7486L93.5822 29.7394Z" fill="white"/>
<path d="M59.4493 10.7319C59.4489 11.0031 59.341 11.263 59.1492 11.4548C58.9575 11.6465 58.6975 11.7545 58.4264 11.7549H55.5946C55.5311 11.7549 55.4683 11.7674 55.4097 11.7916C55.351 11.8159 55.2978 11.8515 55.2529 11.8964C55.208 11.9412 55.1724 11.9945 55.1482 12.0531C55.1239 12.1118 55.1114 12.1746 55.1114 12.238V13.842C55.1112 13.9056 55.1235 13.9686 55.1477 14.0274C55.1719 14.0862 55.2075 14.1396 55.2524 14.1847C55.2972 14.2297 55.3506 14.2654 55.4093 14.2898C55.468 14.3142 55.531 14.3267 55.5946 14.3267H58.3025C58.4401 14.3214 58.5773 14.3439 58.7059 14.3929C58.8346 14.4418 58.9521 14.5163 59.0513 14.6117C59.1505 14.7072 59.2294 14.8216 59.2833 14.9483C59.3372 15.075 59.365 15.2112 59.365 15.3489C59.365 15.4866 59.3372 15.6228 59.2833 15.7495C59.2294 15.8761 59.1505 15.9906 59.0513 16.0861C58.9521 16.1815 58.8346 16.2559 58.7059 16.3049C58.5773 16.3539 58.4401 16.3764 58.3025 16.3711H55.5946C55.531 16.3711 55.468 16.3836 55.4093 16.408C55.3506 16.4324 55.2972 16.4681 55.2524 16.5131C55.2075 16.5582 55.1719 16.6116 55.1477 16.6704C55.1235 16.7292 55.1112 16.7922 55.1114 16.8558V19.4842C55.1114 19.7681 54.9986 20.0403 54.7979 20.2411C54.5972 20.4418 54.3249 20.5546 54.041 20.5546C53.7572 20.5546 53.4849 20.4418 53.2842 20.2411C53.0835 20.0403 52.9707 19.7681 52.9707 19.4842V11.6463C52.9705 11.392 53.0204 11.1401 53.1176 10.905C53.2148 10.67 53.3574 10.4564 53.5371 10.2765C53.7169 10.0966 53.9304 9.95386 54.1653 9.85648C54.4003 9.75911 54.6521 9.70899 54.9065 9.70899H58.4233C58.5578 9.70878 58.6911 9.73508 58.8155 9.78638C58.9398 9.83768 59.0529 9.91297 59.1482 10.008C59.2434 10.103 59.3191 10.2158 59.3707 10.34C59.4224 10.4642 59.4491 10.5974 59.4493 10.7319Z" fill="white"/>
<path d="M70.3744 20.77C69.1664 20.77 68.1751 20.4295 67.4004 19.7486C66.6256 19.0676 66.2383 18.1532 66.2383 17.0054V10.77C66.2487 10.4953 66.3651 10.2354 66.5632 10.0447C66.7612 9.85408 67.0253 9.74758 67.3002 9.74758C67.5751 9.74758 67.8392 9.85408 68.0373 10.0447C68.2353 10.2354 68.3517 10.4953 68.3621 10.77V16.8357C68.3621 17.4035 68.5217 17.8525 68.8407 18.1828C69.1598 18.5131 69.6695 18.6787 70.3698 18.6798C71.0619 18.6798 71.5686 18.5141 71.8897 18.1828C72.2108 17.8515 72.3759 17.4025 72.3851 16.8357V10.7776C72.3851 10.4937 72.4978 10.2215 72.6986 10.0208C72.8993 9.82004 73.1715 9.70728 73.4554 9.70728C73.7393 9.70728 74.0115 9.82004 74.2122 10.0208C74.413 10.2215 74.5257 10.4937 74.5257 10.7776V17.0054C74.5257 18.1522 74.1384 19.0666 73.3637 19.7486C72.5889 20.4305 71.5925 20.771 70.3744 20.77Z" fill="white"/>
<path d="M87.9275 9.70898C88.1988 9.70898 88.459 9.81676 88.6508 10.0086C88.8426 10.2004 88.9504 10.4606 88.9504 10.7319C88.9504 11.0032 88.8426 11.2634 88.6508 11.4552C88.459 11.6471 88.1988 11.7549 87.9275 11.7549H86.507C86.3787 11.7549 86.2556 11.8057 86.1648 11.8963C86.0739 11.9869 86.0227 12.1097 86.0223 12.238V19.4842C86.0223 19.7681 85.9095 20.0403 85.7088 20.2411C85.508 20.4418 85.2358 20.5546 84.9519 20.5546C84.6681 20.5546 84.3958 20.4418 84.1951 20.2411C83.9944 20.0403 83.8816 19.7681 83.8816 19.4842V12.238C83.8812 12.1097 83.8299 11.9869 83.7391 11.8963C83.6482 11.8057 83.5252 11.7549 83.3969 11.7549H81.9917C81.7204 11.7549 81.4602 11.6471 81.2684 11.4552C81.0765 11.2634 80.9688 11.0032 80.9688 10.7319C80.9688 10.4606 81.0765 10.2004 81.2684 10.0086C81.4602 9.81676 81.7204 9.70898 81.9917 9.70898H87.9275Z" fill="white"/>
<path d="M99.5138 20.7701C98.3038 20.7701 97.312 20.4297 96.5383 19.7487C95.7646 19.0678 95.3777 18.1534 95.3777 17.0056V10.7701C95.3723 10.6275 95.3957 10.4852 95.4466 10.3518C95.4974 10.2185 95.5747 10.0967 95.6737 9.99388C95.7727 9.89105 95.8914 9.80925 96.0227 9.75338C96.1541 9.6975 96.2954 9.6687 96.4381 9.6687C96.5809 9.6687 96.7221 9.6975 96.8535 9.75338C96.9848 9.80925 97.1036 9.89105 97.2026 9.99388C97.3016 10.0967 97.3788 10.2185 97.4297 10.3518C97.4805 10.4852 97.5039 10.6275 97.4985 10.7701V16.8359C97.4985 17.4037 97.6591 17.8527 97.9802 18.183C98.3013 18.5133 98.811 18.6789 99.5092 18.6799C100.2 18.6799 100.706 18.5143 101.026 18.183C101.196 18.0038 101.327 17.792 101.413 17.5604C101.498 17.3289 101.536 17.0824 101.523 16.8359V10.7778C101.523 10.4939 101.636 10.2217 101.836 10.0209C102.037 9.82021 102.309 9.70745 102.593 9.70745C102.877 9.70745 103.149 9.82021 103.35 10.0209C103.551 10.2217 103.664 10.4939 103.664 10.7778V17.0056C103.664 18.1524 103.276 19.0668 102.502 19.7487C101.727 20.4307 100.731 20.7712 99.5138 20.7701Z" fill="white"/>
<path d="M117.836 20.5528C117.686 20.5525 117.538 20.5163 117.405 20.4471C117.272 20.3779 117.158 20.2778 117.071 20.1552L114.828 16.9932C114.784 16.93 114.724 16.8786 114.656 16.8432C114.587 16.8078 114.511 16.7895 114.434 16.7898H113.535C113.471 16.7896 113.408 16.8019 113.349 16.8261C113.29 16.8503 113.237 16.8859 113.192 16.9308C113.147 16.9757 113.111 17.029 113.087 17.0877C113.062 17.1464 113.05 17.2094 113.05 17.273V19.484C113.05 19.7679 112.937 20.0401 112.736 20.2408C112.536 20.4416 112.263 20.5543 111.98 20.5543C111.696 20.5543 111.423 20.4416 111.223 20.2408C111.022 20.0401 110.909 19.7679 110.909 19.484V10.6782C110.909 10.5509 110.934 10.4249 110.982 10.3073C111.031 10.1897 111.102 10.0828 111.192 9.99279C111.282 9.90275 111.389 9.83132 111.506 9.78258C111.624 9.73385 111.75 9.70876 111.877 9.70876H115.241C115.714 9.70715 116.183 9.79893 116.621 9.97885C117.058 10.1588 117.456 10.4233 117.791 10.7572C118.127 11.0912 118.393 11.488 118.574 11.9249C118.756 12.3619 118.849 12.8304 118.85 13.3036C118.851 13.9716 118.652 14.6247 118.278 15.1782C117.957 15.6584 117.525 16.0543 117.019 16.3326C116.987 16.3492 116.96 16.3724 116.937 16.4006C116.915 16.4288 116.899 16.4614 116.891 16.4962C116.882 16.5311 116.881 16.5673 116.887 16.6026C116.893 16.638 116.907 16.6715 116.928 16.7011L118.594 19.0666C118.694 19.2068 118.753 19.3716 118.765 19.543C118.777 19.7144 118.743 19.886 118.665 20.0391C118.586 20.1922 118.468 20.321 118.322 20.4115C118.176 20.5021 118.008 20.5509 117.836 20.5528ZM113.535 11.7072C113.406 11.7072 113.283 11.7583 113.192 11.8492C113.101 11.9401 113.05 12.0634 113.05 12.1919V14.4305C113.05 14.559 113.101 14.6823 113.192 14.7732C113.283 14.8641 113.406 14.9152 113.535 14.9152H115.25C115.446 14.917 115.64 14.877 115.819 14.7979C115.998 14.7187 116.158 14.6024 116.288 14.4565C116.574 14.1436 116.729 13.7332 116.721 13.3097C116.731 12.8901 116.575 12.4837 116.287 12.1782C116.156 12.0323 115.996 11.9159 115.817 11.8368C115.638 11.7577 115.444 11.7177 115.249 11.7195L113.535 11.7072Z" fill="white"/>
<path d="M132.677 20.5528C132.528 20.5525 132.38 20.5163 132.247 20.4471C132.114 20.3779 131.999 20.2778 131.913 20.1552L129.667 16.9932C129.622 16.9301 129.562 16.8787 129.493 16.8433C129.425 16.808 129.348 16.7896 129.271 16.7898H128.379C128.316 16.7896 128.253 16.802 128.194 16.8261C128.135 16.8503 128.082 16.8859 128.037 16.9308C127.992 16.9757 127.956 17.029 127.932 17.0877C127.907 17.1464 127.895 17.2094 127.895 17.273V19.484C127.895 19.7679 127.782 20.0401 127.581 20.2408C127.38 20.4416 127.108 20.5543 126.824 20.5543C126.54 20.5543 126.268 20.4416 126.067 20.2408C125.867 20.0401 125.754 19.7679 125.754 19.484V10.6782C125.754 10.551 125.779 10.4249 125.827 10.3073C125.876 10.1897 125.947 10.0828 126.037 9.9928C126.127 9.90276 126.234 9.83133 126.351 9.78259C126.469 9.73385 126.595 9.70877 126.722 9.70877H130.086C130.559 9.70696 131.028 9.79859 131.466 9.97842C131.904 10.1582 132.302 10.4227 132.637 10.7567C132.972 11.0907 133.239 11.4875 133.42 11.9246C133.602 12.3616 133.696 12.8303 133.696 13.3036C133.696 13.9716 133.496 14.6245 133.122 15.1782C132.802 15.6584 132.37 16.0543 131.864 16.3326C131.832 16.3495 131.805 16.3727 131.783 16.4009C131.761 16.4291 131.745 16.4615 131.736 16.4962C131.727 16.5309 131.726 16.5671 131.732 16.6024C131.738 16.6376 131.751 16.6713 131.771 16.7011L133.439 19.0666C133.538 19.207 133.597 19.3721 133.61 19.5438C133.622 19.7155 133.587 19.8872 133.509 20.0404C133.43 20.1936 133.311 20.3224 133.165 20.4127C133.018 20.503 132.85 20.5515 132.677 20.5528ZM128.379 11.7072C128.251 11.7072 128.127 11.7583 128.037 11.8492C127.946 11.9401 127.895 12.0634 127.895 12.1919V14.4305C127.895 14.559 127.946 14.6823 128.037 14.7732C128.127 14.8641 128.251 14.9152 128.379 14.9152H130.095C130.291 14.917 130.484 14.877 130.663 14.7979C130.843 14.7188 131.003 14.6024 131.133 14.4565C131.419 14.1436 131.574 13.7332 131.566 13.3097C131.576 12.8903 131.42 12.4839 131.133 12.1782C131.003 12.0323 130.843 11.9159 130.663 11.8368C130.484 11.7577 130.291 11.7177 130.095 11.7195L128.379 11.7072Z" fill="white"/>
<path d="M148.354 20.5529C148.127 20.5518 147.905 20.4794 147.721 20.3458C147.536 20.2122 147.399 20.0243 147.327 19.8083L147.035 18.9321C147.003 18.8359 146.941 18.7522 146.859 18.6929C146.776 18.6337 146.677 18.6018 146.576 18.6019H142.944C142.843 18.6018 142.744 18.6337 142.662 18.6929C142.579 18.7522 142.518 18.8359 142.486 18.9321L142.192 19.8129C142.099 20.085 141.902 20.3091 141.644 20.4358C141.386 20.5626 141.088 20.5816 140.816 20.4887C140.544 20.3959 140.32 20.1987 140.193 19.9406C140.066 19.6825 140.047 19.3847 140.14 19.1126L142.995 10.9551C143.123 10.5898 143.362 10.2735 143.677 10.0496C143.993 9.82579 144.371 9.70557 144.758 9.70557C145.145 9.70557 145.523 9.82579 145.838 10.0496C146.154 10.2735 146.393 10.5898 146.521 10.9551L149.382 19.0988C149.44 19.2633 149.459 19.4394 149.435 19.6123C149.411 19.7853 149.346 19.95 149.245 20.0925C149.145 20.2351 149.011 20.3513 148.856 20.4315C148.701 20.5116 148.529 20.5533 148.354 20.5529ZM143.492 15.9658C143.467 16.0385 143.46 16.1161 143.472 16.192C143.483 16.268 143.513 16.3401 143.557 16.4024C143.602 16.4647 143.661 16.5155 143.73 16.5504C143.798 16.5854 143.874 16.6035 143.951 16.6034H145.579C145.656 16.6035 145.731 16.5854 145.8 16.5504C145.868 16.5155 145.927 16.4647 145.972 16.4024C146.017 16.3401 146.046 16.268 146.058 16.192C146.069 16.1161 146.062 16.0385 146.038 15.9658L145.224 13.5407C145.192 13.445 145.13 13.3619 145.048 13.3031C144.965 13.2442 144.867 13.2126 144.766 13.2126C144.664 13.2126 144.566 13.2442 144.484 13.3031C144.401 13.3619 144.339 13.445 144.307 13.5407L143.492 15.9658Z" fill="white"/>
<path d="M25.382 40.0958L23.7459 41.7319C23.4237 42.0541 23.0413 42.3097 22.6203 42.484C22.1994 42.6584 21.7482 42.7482 21.2925 42.7482C20.8369 42.7482 20.3857 42.6584 19.9648 42.484C19.5438 42.3097 19.1613 42.0541 18.8392 41.7319L17.2046 40.0958C16.5547 39.4447 16.1896 38.5624 16.1896 37.6424C16.1896 36.7225 16.5547 35.8401 17.2046 35.1891L18.8407 33.553C19.4918 32.903 20.3741 32.538 21.2941 32.538C22.214 32.538 23.0964 32.903 23.7474 33.553L25.3835 35.1891C25.7056 35.5113 25.9611 35.8939 26.1353 36.3149C26.3096 36.7359 26.3992 37.1871 26.399 37.6427C26.3989 38.0984 26.309 38.5495 26.1345 38.9704C25.96 39.3913 25.7043 39.7737 25.382 40.0958ZM9.10982 27.0989L18.9233 17.2839C19.5596 16.6483 20.4176 16.2843 21.3168 16.2686C22.2161 16.2529 23.0863 16.5867 23.7444 17.1998L25.3805 18.8343C25.4095 18.8618 25.4386 18.8894 25.4661 18.9184C25.7883 19.2406 26.0439 19.6231 26.2182 20.044C26.3926 20.465 26.4824 20.9162 26.4824 21.3718C26.4824 21.8274 26.3926 22.2786 26.2182 22.6996C26.0439 23.1205 25.7883 23.503 25.4661 23.8252L15.6526 33.6401C15.0013 34.2902 14.1187 34.6553 13.1985 34.6553C12.2783 34.6553 11.3957 34.2902 10.7444 33.6401L10.6618 33.553L9.02419 31.9184C8.4109 31.2601 8.07707 30.3894 8.09305 29.4898C8.10902 28.5902 8.47354 27.7319 9.10982 27.0958V27.0989ZM1.01502 19.001L19.0089 1.01628C19.3311 0.694084 19.7136 0.4385 20.1345 0.264125C20.5555 0.0897499 21.0066 0 21.4623 0C21.9179 0 22.3691 0.0897499 22.79 0.264125C23.211 0.4385 23.5935 0.694084 23.9156 1.01628L25.5517 2.65084C26.2021 3.30195 26.5675 4.18464 26.5675 5.10497C26.5675 6.0253 26.2021 6.90799 25.5517 7.5591L7.55783 25.5438C7.23566 25.866 6.85318 26.1216 6.43223 26.296C6.01128 26.4703 5.56011 26.5601 5.10447 26.5601C4.64883 26.5601 4.19765 26.4703 3.7767 26.296C3.35575 26.1216 2.97327 25.866 2.6511 25.5438L1.01502 23.9077C0.365055 23.2567 0 22.3743 0 21.4544C0 20.5344 0.365055 19.652 1.01502 19.001Z" fill="url(#paint0_linear_4_653)"/>
<path d="M41.7387 18.8328L31.9237 9.01777C31.2655 8.40509 30.3953 8.07152 29.4962 8.0872C28.5971 8.10288 27.7391 8.4666 27.1026 9.10187L25.4619 10.738C24.8262 11.3742 24.4622 12.2325 24.4468 13.1318C24.4314 14.0312 24.7658 14.9014 25.3794 15.5591L28.6515 18.8312C28.9737 19.1533 29.2292 19.5356 29.4036 19.9564C29.5779 20.3773 29.6677 20.8283 29.6677 21.2838C29.6677 21.7393 29.5779 22.1904 29.4036 22.6112C29.2292 23.032 28.9737 23.4144 28.6515 23.7364L25.4053 26.9826L25.3809 27.0071C24.7305 27.6579 24.3652 28.5403 24.3652 29.4604C24.3652 30.3805 24.7305 31.2629 25.3809 31.9138L27.017 33.5499C27.6678 34.2002 28.5503 34.5655 29.4703 34.5655C30.3904 34.5655 31.2728 34.2002 31.9237 33.5499L41.7387 23.7349C42.3884 23.0846 42.7533 22.203 42.7533 21.2838C42.7533 20.3646 42.3884 19.483 41.7387 18.8328Z" fill="white"/>
<defs>
<linearGradient id="paint0_linear_4_653" x1="44.2431" y1="-2.18332" x2="9.13705" y2="33.6371" gradientUnits="userSpaceOnUse">
<stop stop-color="#6DE35D"/>
<stop offset="1" stop-color="#217662"/>
</linearGradient>
</defs>
</svg>
