<svg width="169" height="49" viewBox="0 0 169 49" fill="none" xmlns="http://www.w3.org/2000/svg">
<g clip-path="url(#clip0_562_2575)">
<path d="M65.5556 33.4528C65.6546 33.4528 65.7496 33.4921 65.8196 33.5621C65.8896 33.6322 65.929 33.7271 65.929 33.8262C65.9382 34.2041 65.8682 34.5797 65.7237 34.9289C65.5792 35.2782 65.3632 35.5934 65.0897 35.8542C64.5335 36.3887 63.7964 36.6559 62.8783 36.6559C62.4426 36.6692 62.0087 36.5933 61.6033 36.4328C61.198 36.2722 60.8298 36.0305 60.5214 35.7224C60.2205 35.4218 59.9834 35.0636 59.8245 34.6692C59.6655 34.2747 59.588 33.8522 59.5964 33.4271C59.5874 33.0034 59.6647 32.5822 59.8237 32.1894C59.9828 31.7965 60.2201 31.4402 60.5214 31.1421C60.8255 30.8316 61.1904 30.5874 61.5934 30.4247C61.9963 30.262 62.4285 30.1843 62.8629 30.1966C63.419 30.1912 63.9663 30.3355 64.4473 30.6145C64.789 30.8054 65.0898 31.0615 65.3329 31.3682C65.3636 31.4102 65.3851 31.4582 65.3957 31.5091C65.4064 31.5601 65.406 31.6127 65.3947 31.6635C65.3833 31.7142 65.3612 31.762 65.3299 31.8036C65.2985 31.8451 65.2587 31.8794 65.213 31.9043C65.1124 31.9551 64.9972 31.9694 64.8873 31.9447C64.7773 31.92 64.6793 31.8579 64.6101 31.769C64.4486 31.5823 64.2548 31.4262 64.0379 31.3082C63.6785 31.1003 63.2696 30.9932 62.8543 30.9982C62.3745 31.0007 61.9059 31.1439 61.5067 31.4102C61.1075 31.6765 60.7953 32.0541 60.6087 32.4963C60.4221 32.9384 60.3694 33.4255 60.4571 33.8973C60.5448 34.3691 60.7691 34.8047 61.102 35.1502C61.3378 35.3801 61.618 35.5594 61.9255 35.6772C62.233 35.795 62.5613 35.8488 62.8903 35.8354C63.4312 35.8605 63.9645 35.7011 64.4028 35.3832C64.7287 35.1283 64.9617 34.7731 65.0657 34.3726C65.0709 34.3506 65.0711 34.3277 65.0661 34.3057C65.0611 34.2836 65.0511 34.263 65.0368 34.2455C65.0226 34.2279 65.0045 34.2139 64.9839 34.2044C64.9634 34.195 64.941 34.1904 64.9184 34.191H63.1883C63.0893 34.191 62.9943 34.1517 62.9243 34.0817C62.8543 34.0116 62.8149 33.9166 62.8149 33.8176C62.8149 33.7186 62.8543 33.6236 62.9243 33.5536C62.9943 33.4835 63.0893 33.4442 63.1883 33.4442L65.5556 33.4528Z" fill="#F9F9F9"/>
<path d="M75.3911 36.5377C75.3278 36.5376 75.2654 36.522 75.2095 36.4921C75.1536 36.4623 75.106 36.4191 75.0708 36.3664L73.6645 34.2253C73.6504 34.2036 73.6311 34.1858 73.6084 34.1735C73.5857 34.1613 73.5602 34.1549 73.5343 34.155H72.3079C72.2664 34.1555 72.2268 34.1723 72.1976 34.2018C72.1684 34.2313 72.152 34.2711 72.152 34.3126V36.1249C72.1453 36.23 72.0987 36.3286 72.0219 36.4006C71.9451 36.4727 71.8437 36.5128 71.7384 36.5128C71.633 36.5128 71.5317 36.4727 71.4548 36.4006C71.378 36.3286 71.3315 36.23 71.3247 36.1249V30.5734C71.3247 30.5392 71.3314 30.5053 71.3445 30.4738C71.3576 30.4422 71.3768 30.4135 71.401 30.3893C71.4251 30.3651 71.4538 30.3459 71.4854 30.3328C71.517 30.3198 71.5509 30.313 71.5851 30.313H73.8118C74.067 30.3088 74.3203 30.3572 74.5561 30.455C74.7918 30.5528 75.0049 30.6981 75.1821 30.8817C75.5075 31.1986 75.7075 31.6223 75.7452 32.0749C75.783 32.5274 75.656 32.9784 75.3877 33.3448C75.1755 33.6522 74.8777 33.8904 74.5312 34.03C74.5238 34.0328 74.5171 34.0372 74.5116 34.043C74.5061 34.0488 74.5019 34.0557 74.4995 34.0632C74.497 34.0708 74.4963 34.0788 74.4973 34.0867C74.4984 34.0946 74.5012 34.1021 74.5055 34.1088L75.7097 35.945C75.7478 36.0026 75.7695 36.0694 75.7727 36.1383C75.7758 36.2073 75.7602 36.2758 75.7275 36.3366C75.6949 36.3973 75.6463 36.4481 75.5871 36.4836C75.5279 36.519 75.4601 36.5377 75.3911 36.5377ZM72.3079 31.0855C72.2664 31.086 72.2268 31.1028 72.1976 31.1323C72.1684 31.1618 72.152 31.2016 72.152 31.2431V33.2506C72.152 33.2921 72.1684 33.332 72.1976 33.3615C72.2268 33.391 72.2664 33.4078 72.3079 33.4082H73.8153C73.9624 33.4104 74.1083 33.3809 74.243 33.3218C74.3778 33.2627 74.4983 33.1753 74.5963 33.0656C74.7033 32.9567 74.7876 32.8277 74.8443 32.6859C74.9011 32.5442 74.9291 32.3927 74.9269 32.24C74.93 32.0883 74.9022 31.9375 74.8454 31.7968C74.7886 31.6561 74.7039 31.5283 74.5963 31.4213C74.4983 31.3116 74.3778 31.2242 74.243 31.1651C74.1083 31.106 73.9624 31.0765 73.8153 31.0787L72.3079 31.0855Z" fill="#F9F9F9"/>
<path d="M86.3004 35.7121C85.6927 36.3155 84.871 36.6542 84.0145 36.6542C83.1581 36.6542 82.3364 36.3155 81.7287 35.7121C81.1302 35.1018 80.7949 34.281 80.7949 33.4262C80.7949 32.5714 81.1302 31.7507 81.7287 31.1404C82.3349 30.5341 83.1572 30.1935 84.0145 30.1935C84.8719 30.1935 85.6941 30.5341 86.3004 31.1404C86.9066 31.7466 87.2472 32.5689 87.2472 33.4262C87.2472 34.2836 86.9066 35.1058 86.3004 35.7121ZM82.2991 35.1503C82.523 35.375 82.7903 35.5517 83.0849 35.6695C83.3794 35.7873 83.6949 35.8438 84.012 35.8354C84.3293 35.8454 84.6452 35.7897 84.94 35.6718C85.2347 35.5539 85.502 35.3763 85.7249 35.1503C86.1702 34.6864 86.4189 34.0684 86.4189 33.4254C86.4189 32.7824 86.1702 32.1643 85.7249 31.7005C85.5041 31.4704 85.2377 31.2891 84.9427 31.1681C84.6477 31.0472 84.3307 30.9893 84.012 30.9982C83.6935 30.991 83.3769 31.0496 83.0822 31.1705C82.7874 31.2913 82.5208 31.4718 82.2991 31.7005C81.8592 32.1671 81.6142 32.7841 81.6142 33.4254C81.6142 34.0666 81.8592 34.6837 82.2991 35.1503Z" fill="#F9F9F9"/>
<path d="M96.5247 36.0581C96.062 36.4654 95.4602 36.6788 94.8443 36.6542C94.2253 36.6792 93.6202 36.4658 93.1537 36.0581C92.9366 35.8518 92.7663 35.6013 92.6543 35.3235C92.5423 35.0457 92.4912 34.7472 92.5045 34.448V30.7259C92.5113 30.6207 92.5578 30.5222 92.6346 30.4501C92.7115 30.3781 92.8128 30.338 92.9182 30.338C93.0235 30.338 93.1249 30.3781 93.2017 30.4501C93.2785 30.5222 93.3251 30.6207 93.3318 30.7259V34.412C93.3222 34.6044 93.3519 34.7967 93.419 34.9772C93.4862 35.1577 93.5894 35.3227 93.7224 35.462C94.0436 35.7097 94.4378 35.844 94.8435 35.844C95.2491 35.844 95.6433 35.7097 95.9645 35.462C96.0975 35.3227 96.2007 35.1577 96.2679 34.9772C96.335 34.7967 96.3647 34.6044 96.3551 34.412V30.7224C96.3551 30.6139 96.3982 30.5097 96.475 30.433C96.5518 30.3562 96.6559 30.313 96.7645 30.313C96.873 30.313 96.9772 30.3562 97.0539 30.433C97.1307 30.5097 97.1738 30.6139 97.1738 30.7224V34.448C97.1871 34.7472 97.136 35.0457 97.024 35.3235C96.9121 35.6013 96.7418 35.8518 96.5247 36.0581Z" fill="#F9F9F9"/>
<path d="M105.087 30.3182C105.618 30.3182 106.127 30.529 106.502 30.9042C106.877 31.2794 107.088 31.7882 107.088 32.3188C107.088 32.8495 106.877 33.3583 106.502 33.7335C106.127 34.1087 105.618 34.3195 105.087 34.3195H103.813C103.771 34.3195 103.731 34.3361 103.702 34.3657C103.672 34.3952 103.655 34.4353 103.655 34.4771V36.13C103.649 36.2351 103.602 36.3337 103.525 36.4058C103.448 36.4778 103.347 36.5179 103.242 36.5179C103.136 36.5179 103.035 36.4778 102.958 36.4058C102.881 36.3337 102.835 36.2351 102.828 36.13V30.5734C102.829 30.5042 102.856 30.438 102.905 30.3892C102.955 30.3404 103.021 30.313 103.09 30.313L105.087 30.3182ZM105.087 33.547C105.246 33.5523 105.404 33.5247 105.552 33.4657C105.699 33.4067 105.833 33.3177 105.944 33.2044C106.056 33.0874 106.144 32.9494 106.203 32.7984C106.262 32.6473 106.29 32.4861 106.286 32.324C106.291 32.1618 106.263 32.0003 106.204 31.849C106.146 31.6978 106.057 31.5599 105.944 31.4436C105.833 31.3302 105.699 31.2413 105.552 31.1823C105.404 31.1233 105.246 31.0956 105.087 31.101H103.813C103.771 31.101 103.731 31.1176 103.702 31.1471C103.672 31.1767 103.655 31.2168 103.655 31.2586V33.3997C103.655 33.4415 103.672 33.4816 103.702 33.5111C103.731 33.5407 103.771 33.5573 103.813 33.5573L105.087 33.547Z" fill="#F9F9F9"/>
<path d="M66.8508 12.254C66.8503 12.5578 66.7295 12.849 66.5146 13.0638C66.2998 13.2786 66.0086 13.3995 65.7049 13.3999H62.5326C62.4615 13.3999 62.3911 13.4139 62.3254 13.4411C62.2598 13.4683 62.2001 13.5082 62.1498 13.5585C62.0996 13.6087 62.0597 13.6684 62.0325 13.7341C62.0053 13.7998 61.9913 13.8701 61.9913 13.9412V15.738C61.9911 15.8093 62.0049 15.8798 62.032 15.9457C62.0591 16.0116 62.099 16.0714 62.1492 16.1219C62.1995 16.1723 62.2593 16.2124 62.325 16.2397C62.3908 16.267 62.4614 16.281 62.5326 16.281H65.5661C65.7202 16.2751 65.8739 16.3003 66.0181 16.3551C66.1622 16.41 66.2938 16.4934 66.4049 16.6003C66.516 16.7072 66.6044 16.8355 66.6648 16.9774C66.7252 17.1193 66.7563 17.2719 66.7563 17.4261C66.7563 17.5803 66.7252 17.7329 66.6648 17.8748C66.6044 18.0167 66.516 18.145 66.4049 18.2519C66.2938 18.3588 66.1622 18.4422 66.0181 18.4971C65.8739 18.5519 65.7202 18.5771 65.5661 18.5712H62.5326C62.4614 18.5712 62.3908 18.5852 62.325 18.6125C62.2593 18.6398 62.1995 18.6799 62.1492 18.7303C62.099 18.7807 62.0591 18.8406 62.032 18.9065C62.0049 18.9724 61.9911 19.0429 61.9913 19.1141V22.0586C61.9913 22.3766 61.865 22.6816 61.6401 22.9064C61.4153 23.1313 61.1103 23.2576 60.7923 23.2576C60.4743 23.2576 60.1693 23.1313 59.9445 22.9064C59.7196 22.6816 59.5933 22.3766 59.5933 22.0586V13.2783C59.593 12.9934 59.649 12.7112 59.7578 12.4479C59.8667 12.1847 60.0264 11.9454 60.2278 11.7438C60.4292 11.5423 60.6683 11.3824 60.9315 11.2733C61.1947 11.1642 61.4769 11.1081 61.7618 11.1081H65.7014C65.8521 11.1079 66.0014 11.1373 66.1407 11.1948C66.2801 11.2523 66.4067 11.3366 66.5134 11.443C66.6202 11.5494 66.7049 11.6758 66.7628 11.815C66.8207 11.9541 66.8506 12.1033 66.8508 12.254Z" fill="#F9F9F9"/>
<path d="M79.0894 23.4992C77.7362 23.4992 76.6257 23.1177 75.7579 22.3549C74.89 21.5921 74.4561 20.5678 74.4561 19.282V12.2968C74.4677 11.9892 74.5982 11.698 74.82 11.4844C75.0418 11.2708 75.3377 11.1515 75.6457 11.1515C75.9536 11.1515 76.2495 11.2708 76.4713 11.4844C76.6931 11.698 76.8236 11.9892 76.8353 12.2968V19.0919C76.8353 19.7279 77.014 20.231 77.3714 20.6009C77.7288 20.9709 78.2998 21.1565 79.0843 21.1576C79.8597 21.1576 80.4272 20.9721 80.7869 20.6009C81.1466 20.2298 81.3316 19.7268 81.3419 19.0919V12.3054C81.3419 11.9874 81.4682 11.6824 81.6931 11.4576C81.9179 11.2327 82.2229 11.1064 82.5409 11.1064C82.8589 11.1064 83.1639 11.2327 83.3887 11.4576C83.6136 11.6824 83.7399 11.9874 83.7399 12.3054V19.282C83.7399 20.5667 83.306 21.591 82.4381 22.3549C81.5703 23.1189 80.454 23.5003 79.0894 23.4992Z" fill="#F9F9F9"/>
<path d="M98.7534 11.1081C99.0573 11.1081 99.3488 11.2288 99.5637 11.4437C99.7786 11.6586 99.8993 11.9501 99.8993 12.254C99.8993 12.5579 99.7786 12.8494 99.5637 13.0643C99.3488 13.2792 99.0573 13.3999 98.7534 13.3999H97.1621C97.0184 13.3999 96.8805 13.4569 96.7788 13.5584C96.677 13.6598 96.6196 13.7975 96.6191 13.9412V22.0586C96.6191 22.3766 96.4928 22.6816 96.2679 22.9064C96.0431 23.1313 95.7381 23.2576 95.4201 23.2576C95.1021 23.2576 94.7971 23.1313 94.5722 22.9064C94.3474 22.6816 94.2211 22.3766 94.2211 22.0586V13.9412C94.2206 13.7975 94.1632 13.6598 94.0614 13.5584C93.9596 13.4569 93.8218 13.3999 93.6781 13.3999H92.1039C91.8 13.3999 91.5085 13.2792 91.2936 13.0643C91.0787 12.8494 90.958 12.5579 90.958 12.254C90.958 11.9501 91.0787 11.6586 91.2936 11.4437C91.5085 11.2288 91.8 11.1081 92.1039 11.1081H98.7534Z" fill="#F9F9F9"/>
<path d="M111.732 23.4992C110.376 23.4992 109.265 23.1178 108.399 22.3549C107.532 21.5921 107.099 20.5678 107.099 19.282V12.2969C107.092 12.1371 107.119 11.9777 107.176 11.8283C107.233 11.6789 107.319 11.5425 107.43 11.4273C107.541 11.3121 107.674 11.2204 107.821 11.1578C107.968 11.0953 108.126 11.063 108.286 11.063C108.446 11.063 108.605 11.0953 108.752 11.1578C108.899 11.2204 109.032 11.3121 109.143 11.4273C109.254 11.5425 109.34 11.6789 109.397 11.8283C109.454 11.9777 109.48 12.1371 109.474 12.2969V19.0919C109.474 19.7279 109.654 20.231 110.014 20.6009C110.374 20.9709 110.945 21.1565 111.727 21.1576C112.501 21.1576 113.067 20.9721 113.426 20.6009C113.616 20.4002 113.763 20.1629 113.859 19.9035C113.955 19.6441 113.997 19.368 113.983 19.0919V12.3054C113.983 11.9874 114.109 11.6824 114.334 11.4576C114.559 11.2327 114.864 11.1064 115.182 11.1064C115.5 11.1064 115.805 11.2327 116.029 11.4576C116.254 11.6824 116.381 11.9874 116.381 12.3054V19.282C116.381 20.5667 115.947 21.591 115.079 22.3549C114.211 23.1189 113.095 23.5003 111.732 23.4992Z" fill="#F9F9F9"/>
<path d="M132.257 23.2559C132.089 23.2556 131.924 23.215 131.775 23.1375C131.626 23.06 131.498 22.9479 131.401 22.8106L128.888 19.2683C128.838 19.1976 128.772 19.1399 128.695 19.1003C128.618 19.0606 128.533 19.0401 128.446 19.0405H127.439C127.368 19.0403 127.297 19.0541 127.231 19.0812C127.166 19.1083 127.106 19.1481 127.055 19.1984C127.005 19.2487 126.965 19.3084 126.937 19.3742C126.91 19.44 126.896 19.5105 126.896 19.5818V22.0586C126.896 22.3766 126.77 22.6816 126.545 22.9064C126.32 23.1313 126.015 23.2576 125.697 23.2576C125.379 23.2576 125.074 23.1313 124.849 22.9064C124.624 22.6816 124.498 22.3766 124.498 22.0586V12.1941C124.498 12.0515 124.526 11.9104 124.58 11.7786C124.634 11.6469 124.714 11.5271 124.815 11.4263C124.916 11.3254 125.035 11.2454 125.167 11.1908C125.299 11.1362 125.44 11.1081 125.582 11.1081H129.351C129.881 11.1063 130.406 11.2091 130.896 11.4106C131.386 11.6122 131.832 11.9085 132.208 12.2826C132.583 12.6567 132.881 13.1012 133.085 13.5907C133.288 14.0802 133.393 14.605 133.393 15.1351C133.395 15.8834 133.171 16.615 132.752 17.2351C132.393 17.773 131.91 18.2166 131.343 18.5283C131.307 18.547 131.276 18.5729 131.251 18.6045C131.226 18.6361 131.208 18.6726 131.199 18.7116C131.189 18.7506 131.188 18.7913 131.195 18.8308C131.202 18.8704 131.217 18.908 131.24 18.9411L133.107 21.591C133.218 21.7481 133.284 21.9327 133.298 22.1247C133.312 22.3167 133.273 22.5089 133.186 22.6804C133.098 22.8519 132.966 22.9962 132.802 23.0976C132.638 23.1991 132.45 23.2538 132.257 23.2559ZM127.439 13.3468C127.295 13.3468 127.157 13.404 127.055 13.5059C126.953 13.6077 126.896 13.7458 126.896 13.8898V16.3975C126.896 16.5415 126.953 16.6796 127.055 16.7814C127.157 16.8833 127.295 16.9405 127.439 16.9405H129.361C129.58 16.9425 129.797 16.8977 129.998 16.809C130.198 16.7204 130.378 16.5901 130.524 16.4266C130.844 16.0762 131.017 15.6164 131.009 15.1419C131.019 14.6719 130.845 14.2166 130.522 13.8744C130.376 13.711 130.197 13.5806 129.996 13.492C129.796 13.4034 129.578 13.3586 129.359 13.3605L127.439 13.3468Z" fill="#F9F9F9"/>
<path d="M148.883 23.2559C148.715 23.2556 148.55 23.215 148.4 23.1375C148.251 23.06 148.123 22.9479 148.026 22.8106L145.51 19.2683C145.46 19.1976 145.393 19.1401 145.316 19.1005C145.239 19.0608 145.153 19.0403 145.067 19.0405H144.068C143.997 19.0403 143.926 19.0541 143.86 19.0812C143.794 19.1083 143.735 19.1481 143.684 19.1984C143.634 19.2487 143.594 19.3084 143.566 19.3742C143.539 19.44 143.525 19.5105 143.525 19.5818V22.0586C143.525 22.3766 143.399 22.6816 143.174 22.9064C142.949 23.1313 142.644 23.2576 142.326 23.2576C142.008 23.2576 141.703 23.1313 141.478 22.9064C141.253 22.6816 141.127 22.3766 141.127 22.0586V12.1941C141.127 12.0515 141.155 11.9104 141.209 11.7786C141.263 11.6469 141.343 11.5271 141.444 11.4263C141.545 11.3254 141.664 11.2454 141.796 11.1908C141.928 11.1362 142.069 11.1081 142.211 11.1081H145.98C146.51 11.1061 147.035 11.2087 147.526 11.4102C148.016 11.6116 148.462 11.9079 148.838 12.282C149.213 12.6561 149.512 13.1007 149.715 13.5903C149.919 14.0799 150.023 14.6049 150.024 15.1351C150.024 15.8835 149.8 16.6148 149.381 17.2351C149.022 17.773 148.539 18.2166 147.972 18.5283C147.936 18.5472 147.905 18.5733 147.881 18.6048C147.856 18.6364 147.838 18.6728 147.828 18.7116C147.818 18.7505 147.817 18.791 147.823 18.8305C147.83 18.87 147.845 18.9077 147.867 18.9411L149.736 21.591C149.847 21.7483 149.914 21.9332 149.927 22.1256C149.941 22.3179 149.902 22.5103 149.814 22.6819C149.726 22.8535 149.593 22.9978 149.429 23.099C149.264 23.2002 149.076 23.2544 148.883 23.2559ZM144.068 13.3468C143.924 13.3468 143.786 13.404 143.684 13.5059C143.582 13.6077 143.525 13.7458 143.525 13.8898V16.3975C143.525 16.5415 143.582 16.6796 143.684 16.7814C143.786 16.8833 143.924 16.9405 144.068 16.9405H145.99C146.209 16.9425 146.426 16.8977 146.627 16.809C146.827 16.7204 147.007 16.5901 147.153 16.4266C147.473 16.0762 147.646 15.6164 147.638 15.142C147.649 14.6722 147.475 14.2169 147.153 13.8744C147.007 13.711 146.827 13.5806 146.627 13.492C146.426 13.4034 146.209 13.3586 145.99 13.3605L144.068 13.3468Z" fill="#F9F9F9"/>
<path d="M166.445 23.2559C166.19 23.2547 165.942 23.1735 165.735 23.0239C165.529 22.8743 165.374 22.6637 165.294 22.4218L164.967 21.4403C164.931 21.3325 164.862 21.2387 164.77 21.1723C164.677 21.1059 164.567 21.0702 164.453 21.0703H160.385C160.271 21.0702 160.16 21.1059 160.068 21.1723C159.976 21.2387 159.907 21.3325 159.871 21.4403L159.542 22.4269C159.438 22.7317 159.217 22.9827 158.928 23.1247C158.639 23.2667 158.305 23.288 158 23.184C157.696 23.08 157.445 22.8591 157.303 22.57C157.161 22.2809 157.139 21.9472 157.243 21.6424L160.441 12.5041C160.585 12.095 160.852 11.7405 161.206 11.4898C161.56 11.239 161.983 11.1044 162.416 11.1044C162.85 11.1044 163.273 11.239 163.627 11.4898C163.98 11.7405 164.248 12.095 164.391 12.5041L167.596 21.627C167.662 21.8112 167.682 22.0085 167.655 22.2022C167.629 22.396 167.556 22.5805 167.443 22.7402C167.33 22.8999 167.181 23.0301 167.007 23.1199C166.833 23.2096 166.641 23.2563 166.445 23.2559ZM160.998 18.1173C160.97 18.1988 160.963 18.2856 160.976 18.3707C160.988 18.4558 161.021 18.5365 161.071 18.6064C161.122 18.6762 161.188 18.733 161.264 18.7722C161.341 18.8114 161.426 18.8317 161.512 18.8315H163.336C163.422 18.8317 163.507 18.8114 163.583 18.7722C163.66 18.733 163.726 18.6762 163.776 18.6064C163.827 18.5365 163.86 18.4558 163.872 18.3707C163.885 18.2856 163.877 18.1988 163.85 18.1173L162.939 15.4006C162.902 15.2934 162.833 15.2003 162.741 15.1344C162.649 15.0685 162.538 15.0331 162.425 15.0331C162.312 15.0331 162.201 15.0685 162.109 15.1344C162.017 15.2003 161.948 15.2934 161.911 15.4006L160.998 18.1173Z" fill="#F9F9F9"/>
<path d="M28.6876 45.1484L26.8548 46.9812C26.4939 47.3421 26.0654 47.6284 25.5939 47.8238C25.1223 48.0191 24.6169 48.1196 24.1065 48.1196C23.5961 48.1196 23.0906 48.0191 22.6191 47.8238C22.1475 47.6284 21.719 47.3421 21.3581 46.9812L19.5271 45.1484C18.7989 44.4191 18.39 43.4306 18.39 42.4001C18.39 41.3695 18.7989 40.381 19.5271 39.6517L21.3598 37.8189C22.0892 37.0908 23.0776 36.6819 24.1082 36.6819C25.1387 36.6819 26.1272 37.0908 26.8565 37.8189L28.6893 39.6517C29.0501 40.0127 29.3363 40.4413 29.5315 40.9129C29.7267 41.3845 29.8271 41.89 29.8269 42.4004C29.8268 42.9108 29.7261 43.4162 29.5306 43.8877C29.3351 44.3592 29.0486 44.7876 28.6876 45.1484ZM10.459 30.5888L21.4523 19.5938C22.1651 18.8817 23.1264 18.474 24.1337 18.4564C25.141 18.4389 26.1159 18.8128 26.8531 19.4996L28.6859 21.3306C28.7184 21.3615 28.751 21.3923 28.7818 21.4248C29.1427 21.7857 29.4291 22.2142 29.6244 22.6858C29.8197 23.1573 29.9203 23.6628 29.9203 24.1732C29.9203 24.6836 29.8197 25.189 29.6244 25.6606C29.4291 26.1321 29.1427 26.5606 28.7818 26.9215L17.7885 37.9166C17.0589 38.6448 16.0701 39.0538 15.0393 39.0538C14.0084 39.0538 13.0197 38.6448 12.2901 37.9166L12.1976 37.8189L10.3631 35.9878C9.67606 35.2504 9.30209 34.275 9.31999 33.2672C9.33788 32.2595 9.74623 31.298 10.459 30.5854V30.5888ZM1.39096 21.5173L21.5483 1.37031C21.9092 1.00938 22.3376 0.723063 22.8092 0.527723C23.2808 0.332383 23.7862 0.231842 24.2966 0.231842C24.807 0.231842 25.3124 0.332383 25.784 0.527723C26.2556 0.723063 26.684 1.00938 27.0449 1.37031L28.8777 3.20139C29.6064 3.93079 30.0156 4.9196 30.0156 5.95059C30.0156 6.98157 29.6064 7.97038 28.8777 8.69978L8.72042 28.8468C8.35952 29.2077 7.93105 29.4941 7.45949 29.6894C6.98793 29.8847 6.48251 29.9853 5.97209 29.9853C5.46167 29.9853 4.95625 29.8847 4.48469 29.6894C4.01313 29.4941 3.58466 29.2077 3.22375 28.8468L1.39096 27.014C0.662852 26.2847 0.253906 25.2962 0.253906 24.2657C0.253906 23.2351 0.662852 22.2467 1.39096 21.5173Z" fill="#F9F9F9"/>
<path d="M47.0101 21.3289L36.0151 10.3339C35.2777 9.64753 34.3029 9.27386 33.2957 9.29143C32.2885 9.30899 31.3273 9.71644 30.6143 10.4281L28.7764 12.2609C28.0642 12.9737 27.6565 13.9351 27.6393 14.9426C27.622 15.95 27.9965 16.9249 28.6839 17.6616L32.3495 21.3272C32.7104 21.688 32.9967 22.1163 33.192 22.5877C33.3873 23.0591 33.4878 23.5644 33.4878 24.0747C33.4878 24.585 33.3873 25.0903 33.192 25.5617C32.9967 26.0331 32.7104 26.4614 32.3495 26.8222L28.713 30.4586L28.6856 30.486C27.9571 31.2151 27.5479 32.2037 27.5479 33.2344C27.5479 34.2651 27.9571 35.2536 28.6856 35.9827L30.5184 37.8155C31.2475 38.544 32.236 38.9533 33.2667 38.9533C34.2974 38.9533 35.286 38.544 36.0151 37.8155L47.0101 26.8205C47.7379 26.092 48.1467 25.1044 48.1467 24.0747C48.1467 23.045 47.7379 22.0574 47.0101 21.3289Z" fill="#F9F9F9"/>
</g>
<defs>
<clipPath id="clip0_562_2575">
<rect width="168.035" height="48.4748" fill="white"/>
</clipPath>
</defs>
</svg>
