<svg width="89" height="49" viewBox="0 0 89 49" fill="none" xmlns="http://www.w3.org/2000/svg">
<path fill-rule="evenodd" clip-rule="evenodd" d="M47.9714 8.07326C47.4991 7.23874 46.8841 6.53075 45.9693 5.88873C43.5816 4.33072 41.0052 4.95333 39.0365 6.75764L38.7508 7.02848L38.5609 5.50881H35.1416V25.0746H38.7508L38.9408 18.0461C39.6231 18.7284 39.8153 18.9206 40.0281 19.0861C40.1115 19.151 40.1982 19.2118 40.3187 19.2964C41.6991 20.0322 42.9712 20.1908 44.5052 19.8485C46.2282 19.2719 47.4051 18.124 48.2488 16.5264C48.3919 16.0478 48.4613 15.7791 48.5091 15.2917V10.2578C48.3993 9.37228 48.293 8.88976 47.9714 8.07326ZM48.8187 10.0678V14.6268L49.0086 25.0746H52.8078L52.9977 18.2361C53.1095 18.3292 53.215 18.4187 53.3166 18.5049C53.8491 18.9566 54.2735 19.3166 54.9211 19.6251C56.2565 20.1759 57.7015 20.18 59.0408 19.637C60.6685 18.7938 61.8935 17.5175 62.5031 15.771C63.1136 13.426 63.313 10.3117 62.0675 8.13113C61.0857 6.57762 59.9319 5.5778 58.1266 5.12889C56.4749 4.96517 55.2287 4.99494 53.8837 6.0453L53.4964 6.39924L53.1001 6.75764L52.8078 7.02848L52.6178 5.31885H49.0086L48.8187 10.0678Z" fill="#F9F9F9"/>
<path d="M58.3169 23.3649C59.5707 23.3649 60.8244 23.3649 62.1161 23.3649C62.1788 28.0664 62.2415 32.7679 62.3061 37.6119C62.5568 37.173 62.8076 36.7342 63.0659 36.2821C64.1706 35.2025 65.5553 34.991 67.0158 34.6678C67.721 34.5075 68.4204 34.3248 69.1208 34.1451C70.4168 33.8127 70.4168 33.8127 70.8542 33.8127C70.816 33.5033 70.7712 33.1947 70.7236 32.8866C70.6994 32.7147 70.6751 32.5428 70.6502 32.3657C70.5146 31.8774 70.5146 31.8774 70.0491 31.666C68.9916 31.3982 67.8864 31.3545 66.8651 31.7587C66.4346 32.1489 66.1798 32.5377 65.9153 33.0528C64.7365 32.961 63.6359 32.7996 62.496 32.483C62.9116 31.0284 63.6878 29.8841 64.9655 29.0637C66.2354 28.4642 67.3481 28.4012 68.7409 28.4107C68.9356 28.4069 69.1303 28.4031 69.3308 28.3992C70.9265 28.4002 72.2908 28.6823 73.5137 29.7523C73.7017 29.9756 73.7017 29.9756 73.8936 30.2035C74.0189 30.3288 74.1443 30.4542 74.2735 30.5834C74.6996 31.8049 74.7092 33.074 74.712 34.3529C74.7168 34.7464 74.7216 35.1399 74.7265 35.5334C74.732 36.1461 74.7365 36.7588 74.7401 37.3715C74.7442 37.9681 74.7517 38.5646 74.7595 39.1612C74.7595 39.4329 74.7595 39.4329 74.7596 39.71C74.7634 39.9697 74.7634 39.9697 74.7673 40.2345C74.7682 40.3842 74.7692 40.5339 74.7702 40.688C74.876 41.4585 75.1673 42.1929 75.4132 42.9307C74.1595 42.9307 72.9058 42.9307 71.6141 42.9307C71.4887 42.5546 71.3633 42.1785 71.2341 41.791C71.0965 41.8688 70.9589 41.9467 70.8171 42.0269C70.6335 42.1293 70.4498 42.2316 70.2606 42.3371C70.0799 42.4385 69.8992 42.5398 69.713 42.6443C68.2241 43.3946 66.7101 43.5508 65.0709 43.2156C63.7213 42.7641 63.0286 41.8019 62.3061 40.6512C62.2434 41.4661 62.1807 42.281 62.1161 43.1207C60.9878 43.1207 59.8594 43.1207 58.6968 43.1207C58.6342 42.4938 58.5715 41.8669 58.5069 41.2211C58.4011 41.3242 58.2953 41.4273 58.1863 41.5335C56.6525 42.9714 55.5462 43.445 53.4255 43.3885C52.0022 43.2089 50.8355 42.4706 49.8697 41.4274C48.6659 39.7875 48.1758 37.8457 48.1897 35.8429C48.1908 35.6829 48.1919 35.5228 48.193 35.358C48.2332 33.2971 48.7944 31.3275 50.3238 29.851C50.6964 29.5586 51.0721 29.3065 51.4784 29.0637C51.6743 28.9462 51.8702 28.8286 52.072 28.7075C53.4062 28.1965 55.1269 28.2744 56.4292 28.8263C57.0881 29.1551 57.5279 29.5342 58.127 30.0135C58.1897 27.8195 58.2523 25.6254 58.3169 23.3649Z" fill="#F9F9F9"/>
<path d="M0.949219 23.3649C2.95519 23.3649 4.96115 23.3649 7.02791 23.3649C7.2238 24.1603 7.4197 24.9556 7.62153 25.775C8.15981 27.9426 8.74652 30.0913 9.37095 32.2355C9.56933 32.9219 9.76103 33.61 9.94853 34.2994C10.0088 34.5191 10.069 34.7387 10.1311 34.965C10.2572 35.5223 10.2572 35.5223 10.2572 36.2821C10.3826 36.2821 10.508 36.2821 10.6371 36.2821C10.6614 36.1252 10.6856 35.9682 10.7106 35.8065C10.8388 35.0759 10.9999 34.356 11.1714 33.6346C11.2217 33.4219 11.2217 33.4219 11.2731 33.2049C11.5734 31.9481 11.9036 30.7001 12.2419 29.4531C12.4818 28.5621 12.7138 27.6691 12.9474 26.7765C13.2463 25.6371 13.5564 24.5016 13.8664 23.3649C15.8724 23.3649 17.8784 23.3649 19.9451 23.3649C19.9451 29.8843 19.9451 36.4037 19.9451 43.1207C18.6914 43.1207 17.4377 43.1207 16.1459 43.1207C16.0833 38.4192 16.0206 33.7177 15.956 28.8737C15.7114 29.8726 15.4667 30.8714 15.2147 31.9005C15.0598 32.5316 14.9049 33.1627 14.7498 33.7938C14.5035 34.7963 14.2573 35.799 14.0119 36.8018C13.8142 37.6099 13.6158 38.4179 13.417 39.2257C13.3411 39.5346 13.2655 39.8435 13.19 40.1525C13.0847 40.5839 12.9785 41.0151 12.8722 41.4462C12.8252 41.6397 12.8252 41.6397 12.7773 41.8371C12.5584 42.7191 12.5584 42.7191 12.3468 42.9307C12.0501 42.9472 11.7527 42.951 11.4556 42.9493C11.2762 42.9486 11.0969 42.948 10.912 42.9474C10.7234 42.9458 10.5347 42.9442 10.3403 42.9426C10.1509 42.9417 9.9615 42.9409 9.76636 42.94C9.29677 42.9377 8.8272 42.9346 8.35762 42.9307C7.91455 41.1673 7.47197 39.4037 7.03001 37.64C6.82476 36.8209 6.61935 36.002 6.41355 35.1831C6.21486 34.3925 6.01661 33.6017 5.81866 32.8109C5.74315 32.5096 5.6675 32.2083 5.59168 31.9071C5.4853 31.4844 5.37949 31.0615 5.2738 30.6386C5.21348 30.3981 5.15316 30.1577 5.09101 29.91C4.95293 29.3163 4.8486 28.7151 4.7484 28.1139C4.68571 33.0661 4.62303 38.0184 4.55844 43.1207C3.3674 43.1207 2.17635 43.1207 0.949219 43.1207C0.949219 36.6013 0.949219 30.0819 0.949219 23.3649Z" fill="#F9F9F9"/>
<path d="M0.949219 0C2.26563 0 3.58205 0 4.93836 0C4.93836 2.50746 4.93836 5.01492 4.93836 7.59836C8.57417 7.59836 12.21 7.59836 15.956 7.59836C15.956 5.0909 15.956 2.58344 15.956 0C17.2724 0 18.5888 0 19.9451 0C19.9451 6.45671 19.9451 12.9134 19.9451 19.5658C18.6287 19.5658 17.3123 19.5658 15.956 19.5658C15.956 16.7449 15.956 13.924 15.956 11.0176C12.3202 11.0176 8.68435 11.0176 4.93836 11.0176C4.93836 13.8385 4.93836 16.6594 4.93836 19.5658C3.62194 19.5658 2.30553 19.5658 0.949219 19.5658C0.949219 13.1091 0.949219 6.65236 0.949219 0Z" fill="#F9F9F9"/>
<path d="M32.4825 30.2035C33.9503 31.6046 34.7735 33.1345 34.8273 35.1656C34.8554 37.7016 34.5129 39.5437 32.6917 41.4296C31.0785 42.8899 29.3609 43.4108 27.2037 43.353C25.1713 43.212 23.5357 42.642 22.0147 41.259C20.1951 39.1468 20.1313 36.6406 20.3251 34.0027C20.6452 32.3019 21.5505 30.878 22.9118 29.8154C25.8709 27.8276 29.6927 27.9063 32.4825 30.2035Z" fill="#F9F9F9"/>
<path d="M27.5909 5.0458C27.7939 5.04201 27.9969 5.03821 28.206 5.0343C29.7493 5.03524 31.3369 5.20975 32.5337 6.27131C33.37 7.16695 33.6422 7.83436 33.652 9.05535C33.654 9.23048 33.6559 9.40562 33.6579 9.58606C33.6593 9.77443 33.6607 9.96281 33.6621 10.1569C33.6675 10.5596 33.6729 10.9622 33.6785 11.3649C33.6863 11.9967 33.6933 12.6286 33.6983 13.2604C33.7082 16.4587 33.7082 16.4587 34.3819 19.5658C33.1909 19.5658 31.9998 19.5658 30.7727 19.5658C30.6473 19.127 30.5219 18.6882 30.3928 18.2361C30.2777 18.3117 30.1626 18.3874 30.044 18.4654C28.1956 19.6341 26.4793 20.2634 24.2903 19.8032C22.8712 19.4033 21.9309 18.4876 21.2154 17.2269C20.8817 15.9225 21.035 14.7685 21.5842 13.5428C22.381 12.2102 23.7064 11.7765 25.1392 11.3731C26.032 11.1604 26.9289 10.985 27.8343 10.835C28.5407 10.7156 29.1689 10.5521 29.8229 10.2578C29.8657 9.62997 29.8884 9.23352 29.5736 8.67877C28.973 8.0782 28.2807 8.12107 27.4721 8.09702C26.4615 8.09985 26.4615 8.09985 25.5963 8.60753C25.2414 9.10562 25.2414 9.10562 25.0739 9.68793C23.9073 9.57682 22.7931 9.39526 21.6547 9.11805C21.7904 7.69274 22.5042 6.87422 23.5401 5.96369C24.8669 5.07169 26.024 5.03556 27.5909 5.0458Z" fill="#F9F9F9"/>
<path d="M73.8936 28.6837C75.21 28.6837 76.5264 28.6837 77.8827 28.6837C78.9484 31.818 80.014 34.9523 81.112 38.1816C81.4502 37.6743 81.6108 37.3177 81.7936 36.7479C81.85 36.5737 81.9064 36.3994 81.9645 36.2198C82.0243 36.0322 82.0841 35.8446 82.1456 35.6513C82.2079 35.4586 82.2702 35.2659 82.3343 35.0674C82.5332 34.4515 82.7309 33.8353 82.9285 33.219C83.1268 32.6013 83.3254 31.9838 83.5247 31.3664C83.6487 30.9821 83.7722 30.5975 83.8951 30.2128C83.9509 30.0397 84.0067 29.8666 84.0642 29.6883C84.1132 29.5352 84.1623 29.3821 84.2128 29.2244C84.3413 28.8736 84.3413 28.8736 84.5313 28.6837C84.8141 28.6672 85.0976 28.6633 85.3809 28.6651C85.5517 28.6657 85.7225 28.6664 85.8984 28.667C86.1679 28.6694 86.1679 28.6694 86.4427 28.6718C86.7132 28.6731 86.7132 28.6731 86.9892 28.6744C87.4363 28.6767 87.8834 28.6798 88.3304 28.6837C88.2043 29.7654 87.8393 30.7239 87.4608 31.7371C87.3918 31.9243 87.3228 32.1114 87.2517 32.3043C87.0266 32.9143 86.8 33.5237 86.5733 34.1331C86.4176 34.5533 86.262 34.9735 86.1064 35.3938C85.8711 36.0292 85.6357 36.6647 85.3998 37.2999C84.9212 38.5889 84.4477 39.8796 83.9784 41.172C83.8143 41.6218 83.65 42.0716 83.4856 42.5213C83.3844 42.799 83.2838 43.0769 83.1838 43.355C81.7068 47.4574 81.7068 47.4574 79.6992 48.4869C78.3987 48.8675 76.266 49.2457 75.0333 48.6294C75.0333 47.6264 75.0333 46.6234 75.0333 45.59C75.3546 45.5979 75.6758 45.6057 76.0068 45.6138C77.1871 45.6292 77.1871 45.6292 78.2626 45.2101C78.8405 44.3574 79.0973 43.6324 78.9342 42.6021C78.6987 41.6035 78.2951 40.653 77.9265 39.6976C77.8348 39.4571 77.7431 39.2165 77.6517 38.9759C77.4112 38.3444 77.169 37.7136 76.9265 37.0828C76.682 36.4462 76.4393 35.8088 76.1964 35.1716C75.1416 32.3912 75.1416 32.3912 74.0253 29.6351C73.8936 29.2536 73.8936 29.2536 73.8936 28.6837Z" fill="#F9F9F9"/>
<path d="M61.356 5.31885C62.6724 5.31885 63.9888 5.31885 65.3451 5.31885C66.058 7.01476 66.6372 8.75103 67.2173 10.4956C67.3884 11.0095 67.561 11.5228 67.7337 12.036C67.8429 12.3631 67.9519 12.6902 68.0609 13.0174C68.1384 13.2471 68.1384 13.2471 68.2174 13.4815C68.413 14.0734 68.5744 14.569 68.5744 15.1967C68.6998 15.1967 68.8251 15.1967 68.9543 15.1967C68.9734 15.0157 68.9925 14.8347 69.0122 14.6482C69.1441 13.7316 69.4406 12.8796 69.7379 12.0053C69.7962 11.831 69.8545 11.6566 69.9146 11.4771C70.0373 11.1108 70.1606 10.7448 70.2844 10.3789C70.4744 9.81736 70.6628 9.25535 70.8509 8.69322C70.9706 8.33689 71.0903 7.98059 71.2101 7.62433C71.295 7.37175 71.295 7.37175 71.3816 7.11408C71.4342 6.95866 71.4868 6.80325 71.541 6.64313C71.5873 6.50626 71.6335 6.36938 71.6812 6.22835C71.8037 5.88872 71.8037 5.88872 71.9937 5.50881C73.2474 5.50881 74.5011 5.50881 75.7928 5.50881C75.6642 6.15204 75.5428 6.6774 75.3241 7.28049C75.2389 7.51666 75.2389 7.51666 75.1521 7.7576C75.0903 7.9269 75.0284 8.0962 74.9647 8.27063C74.9 8.4496 74.8352 8.62858 74.7685 8.81297C74.5566 9.39774 74.3437 9.98213 74.1307 10.5665C73.9841 10.9697 73.8375 11.3729 73.6909 11.7761C73.3223 12.7889 72.9526 13.8013 72.5827 14.8136C72.3861 15.3523 72.1901 15.8913 71.9944 16.4303C71.7146 17.201 71.4333 17.971 71.1508 18.7407C71.0491 19.0183 70.9478 19.2962 70.847 19.5742C69.2686 23.9223 69.2686 23.9223 67.6246 24.8846C65.9095 25.5614 64.4971 25.5233 62.6857 25.2645C62.6857 24.2616 62.6857 23.2586 62.6857 22.2252C62.9756 22.237 63.2655 22.2487 63.5642 22.2608C64.4342 22.2547 65.0125 22.1982 65.725 21.6553C66.3863 20.781 66.5322 20.1485 66.3818 19.0533C66.2229 18.2536 65.9247 17.5093 65.63 16.7513C65.5632 16.5753 65.4963 16.3992 65.4274 16.2179C65.2116 15.6513 64.9934 15.0856 64.7752 14.52C64.6272 14.1325 64.4793 13.745 64.3315 13.3574C63.5014 11.1837 62.666 9.01154 61.8001 6.85183C61.356 5.73765 61.356 5.73765 61.356 5.31885Z" fill="#F9F9F9"/>
<path d="M45.9463 29.0021C47.1139 29.7311 47.7216 30.7812 48.0588 32.103C48.1345 32.9429 48.1253 33.7774 48.1145 34.62C48.1137 34.8582 48.1129 35.0964 48.112 35.3418C48.1094 35.9701 48.1043 36.5984 48.0979 37.2267C48.0921 37.8698 48.0895 38.5129 48.0866 39.156C48.0804 40.4143 48.0705 41.6725 48.0588 42.9307C46.8051 42.9307 45.5514 42.9307 44.2596 42.9307C44.257 42.4908 44.257 42.4908 44.2543 42.042C44.2467 40.9523 44.2342 39.8627 44.2202 38.773C44.2149 38.3017 44.2108 37.8304 44.2082 37.3591C44.2041 36.681 44.1952 36.003 44.1854 35.3249C44.1852 35.1147 44.185 34.9046 44.1847 34.688C44.1626 33.5202 44.106 32.7937 43.3098 31.9131C42.5365 31.3975 41.9378 31.4141 41.0303 31.5332C40.3862 31.7392 39.866 32.0254 39.4988 32.6195C39.3181 33.0139 39.3181 33.0139 39.1307 33.6227C39.0681 33.8108 39.0054 33.9988 38.9408 34.1926C38.9191 34.481 38.9073 34.7702 38.9018 35.0594C38.898 35.2343 38.8942 35.4092 38.8903 35.5894C38.8855 35.8717 38.8855 35.8717 38.8807 36.1597C38.8767 36.3529 38.8728 36.546 38.8687 36.745C38.8563 37.3624 38.8451 37.9798 38.8339 38.5973C38.8257 39.0156 38.8174 39.434 38.8091 39.8524C38.7887 40.8785 38.7695 41.9046 38.7508 42.9307C37.5598 42.9307 36.3687 42.9307 35.1416 42.9307C35.1416 38.2919 35.1416 33.6531 35.1416 28.8737C36.27 28.8737 37.3983 28.8737 38.5609 28.8737C38.6235 29.4379 38.6862 30.0021 38.7508 30.5834C38.8762 30.4462 39.0016 30.3091 39.1307 30.1678C40.9693 28.3241 43.5655 27.8879 45.9463 29.0021Z" fill="#F9F9F9"/>
<path d="M28.7285 31.6534C29.78 32.093 30.2896 32.8028 30.7728 33.8127C31.2342 35.1969 31.1483 37.0141 30.6185 38.3769C30.0863 39.261 29.2784 39.9463 28.3034 40.2713C27.1969 40.4241 26.3306 40.3092 25.4154 39.6466C24.3961 38.676 24.0822 37.5849 24.0219 36.2121C24.0057 34.6585 24.1185 33.4862 25.2061 32.3309C26.2929 31.374 27.3562 31.2655 28.7285 31.6534Z" fill="#000816"/>
<path d="M56.0372 31.3432C57.0054 31.8364 57.6534 32.4911 58.1431 33.4617C58.6739 35.1153 58.4974 37.3298 57.8062 38.9067C57.3918 39.5962 56.9909 39.9993 56.2272 40.2713C55.3101 40.4588 54.5264 40.4774 53.6857 40.0316C52.7153 39.2649 52.2241 38.4505 52.0481 37.2319C51.7749 33.8535 51.7749 33.8535 52.8079 32.4829C53.7342 31.4814 54.6777 31.0481 56.0372 31.3432Z" fill="#000816"/>
<path d="M56.6076 7.97819C57.5536 8.3184 58.1788 8.87971 58.6972 9.73531C59.3564 11.2258 59.32 13.0433 58.9443 14.6112C58.5172 15.6869 57.8384 16.3858 56.7976 16.9063C55.6383 17.0045 54.8576 16.9032 53.9482 16.1464C52.7037 14.7894 52.7383 13.3286 52.7691 11.5674C52.8251 10.5138 52.943 9.76441 53.6989 8.97177C54.6252 8.14771 55.3344 7.79022 56.6076 7.97819Z" fill="#000816"/>
<path d="M42.7405 7.9783C43.9261 8.57326 44.5762 9.40119 45.02 10.6377C45.1191 11.2046 45.1293 11.7492 45.115 12.3236C45.1111 12.5479 45.1111 12.5479 45.1072 12.7768C45.0602 14.1019 44.9196 15.319 43.9248 16.2808C43.0277 16.9218 42.3039 17.0484 41.2208 16.9064C40.1992 16.455 39.5093 15.7305 38.9769 14.7575C38.4729 13.222 38.4756 11.2249 39.1313 9.74729C39.9007 8.46204 41.2077 7.56539 42.7405 7.9783Z" fill="#000816"/>
<path d="M62.1162 23.3649C62.1789 23.3649 62.2416 23.3649 62.3062 23.3649C62.3689 26.3739 62.4315 29.3828 62.4961 32.483C63.3737 32.6083 64.2513 32.7337 65.1556 32.8629C65.4063 32.9256 65.657 32.9883 65.9154 33.0528C65.9742 32.8413 65.9742 32.8413 66.0341 32.6254C66.396 31.9017 66.7015 31.6907 67.4351 31.3432C68.6186 31.1849 69.6527 31.2209 70.6644 31.9131C70.9697 32.5237 70.8652 33.1357 70.8543 33.8127C69.5557 34.1996 68.2639 34.5638 66.9391 34.8493C64.7235 35.2791 64.7235 35.2791 62.9992 36.625C62.8147 36.9448 62.6537 37.2779 62.4961 37.6119C62.3081 37.7999 62.3081 37.7999 62.1162 37.9918C62.1162 33.1649 62.1162 28.3381 62.1162 23.3649Z" fill="#000816"/>
<path d="M30.013 12.7272C30.0628 14.0949 30.0691 15.4027 29.1938 16.5145C28.3455 17.1655 27.6394 17.375 26.5804 17.347C25.9826 17.2478 25.6716 16.9579 25.264 16.5264C24.8789 15.9578 24.768 15.4969 24.8841 14.8167C25.863 13.4904 28.3943 12.7272 30.013 12.7272Z" fill="#000816"/>
<path d="M70.8541 36.2822C70.8696 36.6738 70.8806 37.0657 70.8897 37.4575C70.8996 37.7848 70.8996 37.7848 70.9097 38.1187C70.827 39.0593 70.4919 39.5234 69.7856 40.1288C68.9929 40.5398 68.3266 40.6927 67.4348 40.6512C66.8073 40.4344 66.4439 40.2708 66.0339 39.7489C65.8568 39.1115 65.8226 38.651 65.9151 37.9918C67.1627 36.6551 69.0721 36.2822 70.8541 36.2822Z" fill="#000816"/>
<path d="M74.2733 30.2035C74.7834 30.7136 74.8546 31.2248 75.0331 31.9131C74.9077 31.9131 74.7824 31.9131 74.6532 31.9131C74.5905 32.0385 74.5278 32.1639 74.4632 32.293C74.2399 31.5951 74.2593 30.9312 74.2733 30.2035Z" fill="#000816"/>
</svg>
