<svg width="82" height="68" viewBox="0 0 82 68" fill="none" xmlns="http://www.w3.org/2000/svg">
<path d="M39.5731 10.5517C39.8396 10.5521 39.8396 10.5521 40.1114 10.5526C42.8254 10.5603 45.4868 10.6405 48.1677 11.1005C48.4164 11.1418 48.4164 11.1418 48.6701 11.184C54.2274 12.1388 59.2989 14.1879 63.5758 17.8933C63.7131 18.0103 63.8504 18.1273 63.9919 18.2479C67.6231 21.4174 70.5865 25.7662 71.197 30.6505C71.2286 31.2995 71.2352 31.9475 71.2384 32.5972C71.2435 32.8541 71.2435 32.8541 71.2488 33.1163C71.2573 34.8111 70.9577 36.2512 69.801 37.541C68.8445 38.4747 67.7018 38.7071 66.4027 38.8309C63.4737 38.682 61.0241 36.9737 59.0714 34.9064C58.0685 33.7692 57.2264 32.6078 56.783 31.1475C57.2707 31.6096 57.6489 32.0835 58.0256 32.6386C59.3251 34.4411 60.8464 35.8003 62.7474 36.9463C62.7235 36.8521 62.6996 36.7579 62.6749 36.6609C62.4822 35.8593 62.3482 35.1259 62.416 34.2954C62.5254 34.1861 62.6347 34.0767 62.7474 33.9641C62.7875 34.0841 62.8277 34.2041 62.8691 34.3278C63.3528 35.7233 63.8604 36.7293 65.0669 37.609C65.3829 37.7605 65.3829 37.7605 65.7296 37.7747C65.9808 37.8003 65.9808 37.8003 66.237 37.8264C67.2967 37.7423 68.325 37.4601 69.126 36.7392C70.4313 34.3462 70.1143 31.707 69.4212 29.1647C68.5 26.0562 66.6282 23.5165 64.4042 21.2068C64.2626 21.0495 64.2626 21.0495 64.1181 20.8891C60.0988 16.5502 53.8574 14.5897 48.1677 13.917C48.0364 13.9013 47.9051 13.8855 47.7698 13.8693C46.3719 13.7216 44.9741 13.7184 43.5701 13.7203C43.4425 13.7203 43.3149 13.7203 43.1835 13.7204C39.9939 13.7255 36.8902 13.9924 33.7537 14.5797C37.4171 18.4414 42.3512 21.5275 47.802 21.7434C50.5202 21.7986 53.0422 21.4045 55.6232 20.5441C55.0769 21.1846 54.4531 21.4802 53.6869 21.7867C53.5637 21.8366 53.4406 21.8865 53.3138 21.9379C51.5489 22.6278 49.7226 23.0266 47.8363 23.195C47.7817 23.2497 47.727 23.3043 47.6707 23.3607C47.7944 23.3941 47.9181 23.4275 48.0456 23.4619C48.6044 23.6134 49.1627 23.7666 49.7209 23.9198C50.0131 23.9986 50.0131 23.9986 50.3112 24.079C50.5899 24.1559 50.5899 24.1559 50.8742 24.2344C51.046 24.2812 51.2178 24.3281 51.3948 24.3763C51.8126 24.5204 51.8126 24.5204 52.144 24.8518C51.174 24.6922 50.2046 24.5307 49.2375 24.3547C47.4909 24.042 45.7537 23.7917 43.9843 23.6506C43.7363 23.6307 43.7363 23.6307 43.4833 23.6105C39.2053 23.3024 35.1367 23.8742 31.1009 25.288C30.4997 25.4982 29.8944 25.6768 29.2804 25.8458C29.1836 25.6629 29.1836 25.6629 29.0849 25.4763C28.4079 24.2954 27.8047 23.5603 26.4638 23.195C25.2621 23.0061 24.2474 23.1438 23.1833 23.7418C22.4268 24.3264 21.9586 25.1133 21.6592 26.0115C21.5231 27.2889 21.6504 28.2057 22.3064 29.3154C22.4876 29.6564 22.4876 29.6564 22.4876 30.1535C22.2884 30.3939 22.2884 30.3939 22.008 30.6453C21.9052 30.7389 21.8025 30.8325 21.6966 30.929C21.5852 31.0284 21.4737 31.1279 21.3589 31.2304C21.1285 31.4414 20.8983 31.6526 20.6683 31.864C20.5544 31.9681 20.4405 32.0721 20.3231 32.1794C18.2347 34.0908 16.3797 36.2641 15.032 38.7687C14.9227 38.7141 14.8133 38.6594 14.7007 38.6031C15.6477 35.8668 16.9666 33.2999 18.954 31.1702C19.7197 30.4194 19.7197 30.4194 19.9907 29.4467C19.8619 29.0813 19.8619 29.0813 19.6814 28.7232C19.1289 27.4922 19.2953 26.0816 19.6587 24.822C20.2038 23.391 21.2748 22.0535 22.6325 21.3207C24.3097 20.5767 26.0745 20.5256 27.8203 21.124C28.8025 21.5587 29.9512 22.3828 30.4401 23.3607C30.5803 23.3364 30.7204 23.3122 30.8648 23.2872C31.3946 23.1961 31.9245 23.1057 32.4545 23.0158C32.682 22.9771 32.9095 22.938 33.1369 22.8987C35.1536 22.5501 37.1303 22.3361 39.1797 22.3562C39.3287 22.357 39.4778 22.3577 39.6314 22.3585C39.9917 22.3604 40.3519 22.3634 40.7122 22.3666C40.5516 22.3102 40.391 22.2538 40.2255 22.1957C36.7632 20.9551 33.7681 19.2261 31.0147 16.7834C30.7854 16.5802 30.5536 16.3798 30.3217 16.1795C28.9246 14.9568 27.7065 13.6066 26.6295 12.0945C27.1713 11.7333 27.5036 11.6683 28.14 11.5613C28.4505 11.509 28.4505 11.509 28.7672 11.4558C28.9302 11.4294 28.9302 11.4294 29.0965 11.4025C29.4141 11.3508 29.7314 11.2965 30.0486 11.2422C33.2182 10.7187 36.3628 10.5403 39.5731 10.5517Z" fill="#F9F9F9"/>
<path d="M43.3628 39.1001C44.3469 39.1001 45.3311 39.1001 46.345 39.1001C46.3997 40.4123 46.4543 41.7244 46.5107 43.0764C46.8934 42.9124 47.2761 42.7483 47.6704 42.5793C49.1568 42.2615 50.6885 42.3768 52.0311 43.1249C52.3706 43.3656 52.6707 43.6182 52.9721 43.9048C53.064 43.9919 53.1558 44.079 53.2504 44.1688C54.3939 45.3749 54.7369 46.7372 54.7181 48.3709C54.6497 49.8268 54.1677 51.0342 53.1689 52.1058C51.8793 53.2698 50.4022 53.7446 48.6749 53.6694C47.6644 53.5657 46.8778 53.2038 46.0136 52.6857C45.9043 52.9044 45.795 53.1231 45.6823 53.3484C44.9169 53.3484 44.1514 53.3484 43.3628 53.3484C43.3628 48.6465 43.3628 43.9445 43.3628 39.1001ZM46.9126 45.9647C46.2194 46.7612 46.12 47.4326 46.1334 48.4493C46.228 49.3259 46.6272 49.845 47.2873 50.4283C48.2104 50.8812 48.9602 50.9733 49.9485 50.6769C50.7332 50.2242 51.1922 49.8346 51.5432 48.989C51.7504 47.7664 51.532 46.9039 50.8183 45.8929C49.7262 44.9568 47.9744 44.9977 46.9126 45.9647Z" fill="#F9F9F9"/>
<path d="M69.592 43.7908C71.107 45.3058 71.197 46.6776 71.197 48.8751C68.6274 48.8751 66.0577 48.8751 63.4101 48.8751C63.8561 50.0368 63.8561 50.0368 64.7356 50.6975C65.6414 50.9203 66.2284 50.874 67.0945 50.5455C67.4154 50.3821 67.4154 50.3821 67.5728 50.0187C67.9561 49.6298 68.0877 49.6536 68.6206 49.6388C68.91 49.6432 69.1993 49.6511 69.4885 49.6621C69.7103 49.6665 69.7103 49.6665 69.9366 49.6711C70.3017 49.6789 70.6664 49.6898 71.0313 49.7035C70.6661 51.1486 69.9968 52.1165 68.7326 52.9238C67.2693 53.716 65.8738 53.835 64.2385 53.5141C62.6563 52.9764 61.4976 52.0831 60.6972 50.6095C60.0632 49.1126 60.0259 47.4718 60.5108 45.9239C61.179 44.3461 62.2313 43.4871 63.7532 42.7605C65.8161 41.9904 67.8771 42.5068 69.592 43.7908ZM63.8658 45.9757C63.5524 46.3815 63.5524 46.3815 63.4101 46.8869C64.9957 46.8869 66.5812 46.8869 68.2148 46.8869C67.896 46.09 67.6807 45.7795 67.0551 45.2302C65.7921 44.8092 64.7668 44.9746 63.8658 45.9757Z" fill="#F9F9F9"/>
<path d="M39.9198 43.4912C41.0348 44.3878 41.6492 45.5222 42.0374 46.8869C42.2154 48.7298 41.8995 50.1704 40.833 51.6793C39.7755 52.9468 38.465 53.4773 36.86 53.659C34.9928 53.7583 33.497 53.271 32.0967 52.023C30.8838 50.7409 30.5215 49.4491 30.5361 47.716C30.5908 46.2083 31.0766 45.1157 32.1129 44.029C34.2418 42.0706 37.525 41.868 39.9198 43.4912ZM33.9192 46.5556C33.476 47.4218 33.5453 48.2788 33.7535 49.2064C34.1256 49.9374 34.4854 50.377 35.2446 50.6975C36.2673 50.9503 37.1427 50.9106 38.0611 50.3662C38.7586 49.6509 38.9176 49.0684 38.9413 48.0881C38.9286 47.1336 38.8409 46.6299 38.2268 45.8929C36.708 44.8104 35.1062 45.0972 33.9192 46.5556Z" fill="#F9F9F9"/>
<path d="M27.4938 43.4912C28.6087 44.3878 29.2231 45.5222 29.6113 46.8869C29.7894 48.7298 29.4734 50.1704 28.4069 51.6793C27.3495 52.9468 26.0389 53.4773 24.4339 53.659C22.758 53.7482 21.373 53.3817 20.0337 52.3563C18.8959 51.3118 18.3042 49.985 18.1329 48.4602C18.0711 46.815 18.5819 45.3111 19.6706 44.0704C21.8269 42.0909 25.0577 41.84 27.4938 43.4912ZM21.4931 46.5556C21.0499 47.4218 21.1193 48.2788 21.3274 49.2064C21.6995 49.9374 22.0593 50.377 22.8185 50.6975C23.8413 50.9503 24.7166 50.9106 25.635 50.3662C26.3325 49.6509 26.4916 49.0684 26.5152 48.0881C26.5025 47.1336 26.4149 46.6299 25.8007 45.8929C24.282 44.8104 22.6802 45.0972 21.4931 46.5556Z" fill="#F9F9F9"/>
<path d="M13.8722 42.745C14.8564 42.745 15.8405 42.745 16.8544 42.745C16.8657 44.191 16.8748 45.637 16.8802 47.0831C16.8828 47.7546 16.8863 48.4262 16.8919 49.0977C16.8974 49.7466 16.9003 50.3954 16.9016 51.0443C16.9025 51.291 16.9043 51.5378 16.907 51.7845C16.9227 53.2876 16.8693 54.456 16.0985 55.7818C15.0833 56.745 14.0654 57.069 12.6918 57.0451C12.1279 57.0195 12.1279 57.0195 11.5527 56.9933C11.5527 56.1185 11.5527 55.2438 11.5527 54.3425C11.9195 54.3209 12.2862 54.2993 12.6529 54.2778C13.1808 54.1414 13.3674 53.9389 13.7066 53.5141C13.8085 53.0138 13.8085 53.0138 13.797 52.4503C13.8003 52.2347 13.8035 52.0192 13.8069 51.7971C13.8072 51.5626 13.8074 51.3281 13.8075 51.0936C13.81 50.8531 13.8128 50.6126 13.8158 50.3721C13.823 49.7402 13.8264 49.1084 13.8289 48.4764C13.8321 47.8312 13.8391 47.1859 13.8457 46.5407C13.8582 45.2755 13.8662 44.0103 13.8722 42.745Z" fill="#F9F9F9"/>
<path d="M55.9546 39.1001C56.9387 39.1001 57.9228 39.1001 58.9368 39.1001C58.9368 43.802 58.9368 48.504 58.9368 53.3484C57.9527 53.3484 56.9685 53.3484 55.9546 53.3484C55.9546 48.6465 55.9546 43.9445 55.9546 39.1001Z" fill="#F9F9F9"/>
<path d="M65.6879 28.2378C66.5863 28.2957 67.2534 28.6655 67.8624 29.3354C68.2951 30.0807 68.3102 30.8074 68.2145 31.6446C68.0306 32.2684 67.8028 32.8674 67.5517 33.467C67.4424 33.467 67.333 33.467 67.2204 33.467C67.2204 32.9203 67.2204 32.3735 67.2204 31.8102C66.9487 31.7949 66.9487 31.7949 66.6716 31.7792C66.0606 31.6446 66.0606 31.6446 65.7293 31.2511C65.5636 30.8162 65.5636 30.8162 65.7293 30.3191C65.948 30.3191 66.1667 30.3191 66.392 30.3191C66.6405 30.3191 66.7234 30.3191 66.8062 30.3191C66.7234 29.8221 66.5577 29.7393 66.392 29.6564C66.0047 29.4628 65.6465 29.4079 65.2322 29.3251C65.162 30.7766 65.4845 31.9718 66.0606 33.3013C65.2093 32.696 64.7736 32.185 64.5695 31.1475C64.3167 28.4435 64.3167 28.4435 65.6879 28.2378Z" fill="#F9F9F9"/>
</svg>
