<svg width="190" height="57" viewBox="0 0 190 57" fill="none" xmlns="http://www.w3.org/2000/svg">
<path fill-rule="evenodd" clip-rule="evenodd" d="M60.9373 12.3922C60.6219 12.3865 60.3064 12.3745 59.9918 12.3521C54.8565 10.6403 48.3623 11.6569 44.7219 15.9749L44.3585 16.4558C43.2679 17.7153 42.4672 19.0501 41.7662 20.5557C40.1998 24.0969 40.4684 28.5247 41.8182 32.089C43.2994 35.691 46.1436 38.3627 49.6589 39.9452C53.1331 41.4215 57.2697 41.3087 60.775 39.9682C65.0245 38.0931 67.5423 35.0709 69.2526 30.8287C70.2867 27.6356 70.2336 23.645 68.7816 20.6091L68.5656 20.1687C68.4227 19.8715 68.2797 19.5743 68.1366 19.2771L67.8084 18.6054L69.5671 18.0191V12.5475L69.3949 12.5445L69.3945 12.5445C68.327 12.526 67.2595 12.5076 66.192 12.4876C65.7334 12.479 65.2747 12.4704 64.8161 12.462C64.1391 12.4505 63.4621 12.439 62.7852 12.4262L62.1436 12.4139L61.5181 12.404L60.9373 12.3922ZM60.1872 19.9736L59.6498 19.5461C57.0262 18.083 53.8354 17.778 51.1981 19.3873C49.3254 20.7879 48.0252 22.5631 47.4852 24.859C47.2505 27.5298 47.9307 29.8124 49.6348 31.8939C50.9626 33.2085 52.6199 34.1301 54.4919 34.3122C57.0794 34.353 59.0541 33.7086 60.9475 31.9458C62.6406 30.1272 63.1937 28.0685 63.1581 25.6368C63.0226 23.6486 62.016 21.5546 60.5131 20.2308L60.1872 19.9736Z" fill="#F9F9F9"/>
<path fill-rule="evenodd" clip-rule="evenodd" d="M29.1152 12.5611L28.5313 12.3527C25.9138 11.3666 22.293 11.3326 19.6277 12.1771L19.1514 12.3527C16.9655 13.0463 14.8135 14.3453 13.2492 16.0366C10.1268 19.7699 9.03169 23.5652 9.3806 28.3767C9.99406 31.8296 11.6461 35.4863 14.4828 37.6933L14.8522 37.9521C15.3683 38.3161 15.8887 38.6623 16.4262 38.994C19.6319 40.8095 23.6922 41.5367 27.313 40.6253L27.7496 40.4925C28.2817 40.3374 28.7976 40.1665 29.3152 39.968C32.9453 38.3689 35.7959 35.8017 37.3651 32.0979C38.9063 28.1377 38.9109 24.1301 37.2807 20.1914C35.6619 16.5836 32.8008 13.98 29.1152 12.5611ZM31.5727 24.1354C30.9049 21.8148 29.3145 20.1747 27.3209 18.9225C24.2128 17.3685 20.3157 18.4932 18.0158 20.8774C16.207 23.0454 16.086 25.0801 16.1827 27.793C16.3372 29.3835 17.4148 31.1315 18.5837 32.1825C20.6807 33.8584 22.5116 34.4228 25.2095 34.239C27.5409 33.8701 29.2077 32.4733 30.575 30.6085C31.8347 28.6314 31.9405 26.4081 31.5727 24.1354Z" fill="#F9F9F9"/>
<path fill-rule="evenodd" clip-rule="evenodd" d="M124.87 23.2964C124.123 19.6451 122.325 16.4128 119.364 14.118C113.921 10.2031 106.326 10.7658 101.456 15.4195C98.8193 18.1141 97.0692 21.6695 97.0772 25.4796L97.0844 26.0322C97.0873 30.2104 98.1875 33.9683 101.106 37.0824C104.446 40.2229 108.428 41.0444 112.875 40.9086C116.997 40.6893 120.903 38.8479 123.698 35.803C122.96 34.6974 122.04 33.7431 121.113 32.7951L120.827 32.5054L120.795 32.4725C120.235 31.9032 119.758 31.4187 119.008 31.113C118.35 31.7329 117.672 32.3131 116.944 32.8489C114.596 34.4235 112.268 35.028 109.457 34.4839C106.468 33.2887 105.731 32.1143 104.156 28.9635H125.065L125.066 28.6427C125.066 26.8587 125.067 25.0687 124.87 23.2964ZM117.09 20.7447C116.549 19.8035 115.897 19.2855 115.019 18.6654C112.945 17.4556 109.872 17.2485 107.68 18.3486C105.636 19.6808 104.67 21.1295 103.961 23.4928H118.031C118.031 22.5722 117.802 22.0426 117.38 21.2386L117.09 20.7447Z" fill="#F9F9F9"/>
<path d="M155.941 0.824219C158.198 0.824219 160.455 0.824219 162.781 0.824219C162.845 5.4028 162.91 9.98138 162.976 14.6987C163.621 14.1828 164.266 13.6669 164.931 13.1354C165.622 12.74 165.622 12.74 166.225 12.4759C166.425 12.3857 166.625 12.2955 166.831 12.2026C169.82 11.0828 172.979 11.3202 175.879 12.6186C178.639 14.0306 180.383 16.2716 181.345 19.1932C181.804 20.6723 181.96 22.0155 181.954 23.553C181.954 23.7323 181.954 23.9116 181.954 24.0964C181.954 24.6864 181.952 25.2764 181.951 25.8664C181.95 26.2765 181.95 26.6867 181.95 27.0969C181.949 28.1744 181.947 29.2518 181.945 30.3293C181.943 31.4297 181.942 32.53 181.941 33.6303C181.939 35.7878 181.936 37.9452 181.932 40.1027C179.739 40.1027 177.547 40.1027 175.288 40.1027C175.285 39.6236 175.282 39.1446 175.279 38.651C175.269 37.0606 175.256 35.4703 175.241 33.8799C175.233 32.9165 175.225 31.9532 175.22 30.9898C175.215 30.0585 175.207 29.1272 175.197 28.196C175.194 27.8423 175.192 27.4886 175.19 27.1349C175.206 23.2555 175.206 23.2555 173.333 19.9749C171.981 18.6582 170.507 18.5131 168.701 18.5242C167.561 18.5612 166.681 18.765 165.712 19.3887C165.589 19.4594 165.465 19.5302 165.338 19.6032C164.037 20.4196 163.383 21.649 162.976 23.1016C162.919 23.6663 162.916 24.228 162.914 24.7953C162.911 25.0443 162.911 25.0443 162.908 25.2983C162.902 25.8439 162.899 26.3895 162.895 26.935C162.892 27.3145 162.888 27.694 162.884 28.0735C162.874 29.0701 162.866 30.0666 162.859 31.0631C162.851 32.081 162.841 33.0988 162.831 34.1166C162.812 36.1119 162.796 38.1073 162.781 40.1027C160.524 40.1027 158.267 40.1027 155.941 40.1027C155.941 27.1408 155.941 14.1789 155.941 0.824219Z" fill="#F9F9F9"/>
<path d="M150.358 14.127C151.557 15.0242 152.674 15.9115 153.401 17.2391C153.276 17.362 153.151 17.485 153.022 17.6116C152.23 18.395 151.447 19.1743 150.726 20.0238C150.113 20.7424 149.443 21.3319 148.711 21.9291C148.637 21.8462 148.563 21.7633 148.487 21.6779C146.986 20.0777 144.981 18.6512 142.727 18.5223C142.414 18.5178 142.1 18.5176 141.786 18.5215C141.622 18.5227 141.459 18.5239 141.29 18.5251C140.099 18.5554 139.168 18.7241 138.159 19.3887C137.961 19.4975 137.764 19.6063 137.56 19.7184C135.937 20.9966 134.649 22.5946 134.394 24.704C134.202 27.2983 134.481 29.6626 136.222 31.7067C137.687 33.2137 139.324 34.0719 141.444 34.1425C143.616 34.0717 145.442 33.4261 147.148 32.0907C147.267 31.9987 147.386 31.9068 147.509 31.812C148.1 31.3424 148.1 31.3424 148.516 30.7228C149.252 31.0282 149.715 31.4861 150.271 32.0494C150.361 32.14 150.451 32.2305 150.544 32.3238C150.83 32.6116 151.114 32.9007 151.398 33.1899C151.592 33.3859 151.786 33.5818 151.98 33.7776C152.455 34.2565 152.928 34.7366 153.401 35.2173C152.136 37.8631 149.095 39.3723 146.465 40.3444C143.167 41.4987 138.969 41.1301 135.814 39.7119C131.914 37.7416 129.488 34.9586 127.997 30.9182C126.997 27.829 126.955 23.9665 128.192 20.952C128.244 20.8267 128.295 20.7014 128.348 20.5722C129.208 18.5393 130.319 17.0037 131.905 15.4804C132.04 15.3461 132.175 15.2118 132.314 15.0735C137.191 10.4867 144.998 10.514 150.358 14.127Z" fill="#F9F9F9"/>
<path d="M85.7861 3.95117C88.0432 3.95117 90.3002 3.95117 92.6257 3.95117C92.6257 6.7886 92.6257 9.62603 92.6257 12.5494C93.7864 12.5494 94.9472 12.5494 96.1431 12.5494C96.1431 14.5485 96.1431 16.5476 96.1431 18.6073C94.9824 18.6073 93.8216 18.6073 92.6257 18.6073C92.6257 25.7009 92.6257 32.7945 92.6257 40.103C90.3686 40.103 88.1116 40.103 85.7861 40.103C85.7861 33.0094 85.7861 25.9158 85.7861 18.6073C84.5609 18.6073 83.3356 18.6073 82.0732 18.6073C82.0732 16.6082 82.0732 14.6091 82.0732 12.5494C83.2985 12.5494 84.5237 12.5494 85.7861 12.5494C85.7861 9.71201 85.7861 6.87458 85.7861 3.95117Z" fill="#F9F9F9"/>
<path d="M0 0.824219C2.19256 0.824219 4.38512 0.824219 6.64412 0.824219C6.64412 13.7861 6.64412 26.748 6.64412 40.1027C4.45156 40.1027 2.259 40.1027 0 40.1027C0 27.1408 0 14.1789 0 0.824219Z" fill="#F9F9F9"/>
<path d="M40.8408 42.0566C43.0979 42.0566 45.3549 42.0566 47.6804 42.0566C47.8093 42.8305 47.9383 43.6043 48.0712 44.4016C48.9469 46.8181 50.2159 48.2021 52.5268 49.2977C54.3573 50.0845 56.6823 49.8486 58.5038 49.1412C60.4839 48.1911 61.7751 46.5971 62.5663 44.5673C62.8045 43.7442 62.9501 42.8969 63.1182 42.0566C65.3107 42.0566 67.5033 42.0566 69.7623 42.0566C69.7623 45.2353 69.7623 45.2353 69.2615 46.5756C69.1823 46.798 69.1823 46.798 69.1015 47.0248C67.6472 50.9516 64.7839 53.8437 61.0113 55.5975C59.2872 56.3168 57.6445 56.3639 55.7969 56.3689C55.38 56.3708 54.9634 56.3768 54.5466 56.383C50.952 56.4115 47.934 55.3221 45.3363 52.8157C45.0732 52.5537 44.8133 52.2883 44.5537 52.0228C44.4237 51.8991 44.2937 51.7754 44.1598 51.648C41.6812 49.1191 40.8408 45.4466 40.8408 42.0566Z" fill="#F9F9F9"/>
<path d="M72.499 12.5479C74.7561 12.5479 77.0131 12.5479 79.3386 12.5479C79.3386 21.6405 79.3386 30.7332 79.3386 40.1014C77.0815 40.1014 74.8245 40.1014 72.499 40.1014C72.499 31.0087 72.499 21.9161 72.499 12.5479Z" fill="#F9F9F9"/>
<path d="M77.9699 0.432844C78.9773 1.13821 79.8944 1.90313 80.2432 3.11675C80.4697 4.51432 80.531 5.87631 79.7928 7.12658C78.9236 8.2693 77.7799 9.0794 76.3387 9.29523C75.0366 9.3717 74.1178 9.03573 73.0845 8.24945C72.0931 7.33656 71.6089 6.45275 71.4487 5.0938C71.4191 3.65672 71.5157 2.68915 72.4983 1.60533C74.019 0.0245016 75.9099 -0.434545 77.9699 0.432844Z" fill="#F9F9F9"/>
<path d="M187.59 5.27798C188.708 5.93538 189.535 7.0247 189.943 8.24814C190.127 9.83052 189.879 11.0384 188.966 12.3519C188.074 13.3752 187.166 13.8069 185.808 13.964C184.679 14.026 183.825 13.8026 182.908 13.1335C181.917 12.1993 181.234 11.3377 181.077 9.95421C181.045 8.23593 181.215 7.24579 182.404 6.00392C183.998 4.54733 185.717 4.36084 187.59 5.27798ZM182.371 6.86802C181.58 7.94471 181.34 8.87988 181.54 10.2023C182.001 11.5885 182.624 12.4094 183.885 13.1335C184.863 13.4596 185.904 13.5432 186.874 13.145C188.011 12.4641 188.727 11.6602 189.161 10.3977C189.337 9.19049 189.318 8.13502 188.673 7.07565C187.885 6.06581 187.117 5.59881 185.845 5.43981C184.278 5.37578 183.423 5.69482 182.371 6.86802Z" fill="#F9F9F9"/>
<path fill-rule="evenodd" clip-rule="evenodd" d="M184.004 6.88184L183.886 6.88185V11.7672H184.472V9.81307H185.644C185.725 9.95946 185.772 10.0455 185.812 10.1346C185.87 10.2616 185.914 10.3947 186.022 10.7177C186.342 11.8385 186.804 11.8017 187.142 11.7748C187.19 11.7709 187.236 11.7672 187.279 11.7672C187.112 11.4325 186.929 11.0532 186.747 10.6767C186.568 10.3058 186.391 9.93769 186.231 9.61766C186.622 9.61766 186.713 9.58928 186.939 9.41003C187.283 9.13733 187.271 8.77117 187.257 8.334L187.257 8.32303C187.246 7.97597 187.219 7.74728 187.012 7.46809C186.579 6.88166 186.318 6.88168 184.004 6.88184ZM185.217 7.44427L184.472 7.46869V9.22743L185.808 9.2656C186.231 9.22743 186.431 9.14077 186.622 8.8366C186.825 8.51351 186.821 8.18504 186.622 7.85952C186.404 7.50392 186.041 7.46916 185.645 7.43132L185.636 7.43053L185.217 7.44427Z" fill="#F9F9F9"/>
<path d="M184.667 5.12182C184.306 5.52317 183.967 5.78059 183.507 6.07446C182.617 6.69179 182.023 7.39128 181.736 8.44387C181.525 9.85779 181.909 10.9853 182.713 12.1568C183.116 12.5012 183.116 12.5012 183.495 12.743C183.43 12.9365 183.366 13.1299 183.299 13.3293C181.376 11.8265 181.376 11.8265 181.15 10.5934C180.996 9.13464 180.919 7.82035 181.834 6.60957C183.557 4.75183 183.557 4.75183 184.667 5.12182Z" fill="#F9F9F9"/>
<path d="M181.345 8.44434C181.41 8.44434 181.474 8.44434 181.541 8.44434C181.56 8.59774 181.579 8.75115 181.599 8.90921C181.806 10.3617 181.995 11.5384 183.153 12.5358C183.322 12.6386 183.322 12.6386 183.495 12.7435C183.431 12.9369 183.366 13.1304 183.3 13.3297C182.279 12.5318 181.501 11.888 181.15 10.5939C181.099 9.93818 181.085 9.29475 181.15 8.63975C181.215 8.57526 181.279 8.51078 181.345 8.44434Z" fill="#F9F9F9"/>
<path d="M184.667 5.12305C184.199 5.68962 183.824 5.80733 183.104 5.90471C183.299 5.31847 183.299 5.31847 183.665 5.0742C184.081 4.92764 184.081 4.92764 184.667 5.12305Z" fill="#F9F9F9"/>
<path d="M181.736 7.27148C181.931 7.85773 181.931 7.85773 181.736 8.44398C181.542 8.50846 181.349 8.57295 181.149 8.63939C181.223 8.06536 181.223 8.06536 181.345 7.4669C181.474 7.40241 181.603 7.33793 181.736 7.27148Z" fill="#F9F9F9"/>
</svg>
