<svg width="259" height="36" viewBox="0 0 259 36" fill="none" xmlns="http://www.w3.org/2000/svg">
<g clip-path="url(#clip0_562_2487)">
<path d="M171.714 23.6341H176.459C176.706 28.8159 180.47 31.0719 188.487 31.0719C195.401 31.0719 199.165 29.3456 199.165 25.6501C199.165 15.7695 172.942 24.787 173.185 10.1514C173.309 3.29013 179.201 0.364258 188.038 0.364258C197.654 0.364258 202.848 3.81984 203.216 11.0145H198.511C197.978 6.69585 194.501 5.11295 187.873 5.11295C182.349 5.11295 178.257 6.216 178.217 9.86165C178.136 19.2656 204.238 11.0364 204.238 25.5037C204.238 32.6049 198.346 35.8673 188.2 35.8673C177.114 35.8704 172.206 31.935 171.714 23.6341Z" fill="#F9F9F9"/>
<path d="M0.449463 1.32397H6.85896L23.1117 29.0559H23.4389L39.7103 1.32397H46.1229V34.9107H41.3867V7.75216H41.0595L25.0342 34.9107H21.4322L5.50664 7.75216H5.17946V34.9107H0.449463V1.32397Z" fill="#F9F9F9"/>
<path d="M51.4639 18.1189C51.4639 6.9389 57.8048 0.364258 70.3652 0.364258C82.9255 0.364258 89.2665 6.98564 89.2665 18.1189C89.2665 29.249 82.9255 35.8735 70.3652 35.8735C57.7643 35.8704 51.4639 29.2958 51.4639 18.1189ZM70.3652 31.156C79.8158 31.156 84.1532 26.4852 84.1532 18.1189C84.1532 9.75259 79.8158 5.08179 70.3652 5.08179C60.9145 5.08179 56.5366 9.74948 56.5366 18.1189C56.5366 26.4883 60.9145 31.156 70.3652 31.156Z" fill="#F9F9F9"/>
<path d="M94.6289 1.32397H111.443C123.881 1.32397 128.627 7.84875 128.627 18.1189C128.627 28.389 123.881 34.9138 111.443 34.9138H94.6289V1.32397ZM111.446 30.1122C120.529 30.1122 123.514 25.4569 123.514 18.1158C123.514 10.7279 120.485 6.1194 111.446 6.1194H99.3776V30.109H111.446V30.1122Z" fill="#F9F9F9"/>
<path d="M133.578 22.1011V1.32397H138.324V21.8611C138.324 27.3795 141.801 31.1498 150.476 31.1498C159.151 31.1498 162.503 27.3795 162.503 21.8611V1.32397H167.249V22.1011C167.249 30.4985 162.011 35.8704 150.392 35.8704C138.853 35.8704 133.578 30.4954 133.578 22.1011Z" fill="#F9F9F9"/>
<path d="M223.083 3.69208L226.396 0.364258L258.449 32.5426L255.134 35.8704L223.083 3.69208Z" fill="#F9F9F9"/>
<path d="M243.758 11.7842L255.134 0.364258L258.449 3.69208L247.073 15.112L243.758 11.7842Z" fill="#F9F9F9"/>
<path d="M223.083 32.5426L234.46 21.1227L237.772 24.4505L226.396 35.8704L223.083 32.5426Z" fill="#F9F9F9"/>
</g>
<defs>
<clipPath id="clip0_562_2487">
<rect width="258" height="35.5062" fill="white" transform="translate(0.449463 0.364258)"/>
</clipPath>
</defs>
</svg>
