<svg width="103" height="41" viewBox="0 0 103 41" fill="none" xmlns="http://www.w3.org/2000/svg">
<g clip-path="url(#clip0_562_2591)">
<path d="M46.3302 16.2839C46.0945 16.2772 45.8601 16.32 45.642 16.4094C45.4239 16.4989 45.2269 16.633 45.0638 16.8031C44.7222 17.1827 44.5446 17.6819 44.5699 18.1919C44.544 18.7033 44.7215 19.2041 45.0638 19.585C45.4 19.9201 45.8554 20.1082 46.3302 20.1082C46.8049 20.1082 47.2603 19.9201 47.5966 19.585C47.9388 19.2041 48.1163 18.7033 48.0905 18.1919C48.1157 17.6819 47.9381 17.1827 47.5966 16.8031C47.4344 16.6317 47.2376 16.4967 47.0192 16.4072C46.8009 16.3177 46.566 16.2756 46.3302 16.2839Z" fill="#F9F9F9"/>
<path d="M74.9209 16.1572C74.5071 16.1438 74.1024 16.2802 73.7812 16.5414C73.4683 16.8085 73.2679 17.1839 73.2197 17.5925H76.5968C76.5442 17.1856 76.3427 16.8126 76.0311 16.5456C75.7196 16.2873 75.3256 16.1494 74.9209 16.1572Z" fill="#F9F9F9"/>
<path d="M60.0326 16.1572C59.6173 16.1427 59.2109 16.2792 58.8886 16.5414C58.5774 16.8099 58.3773 17.1845 58.3271 17.5925H61.7042C61.6531 17.1861 61.453 16.813 61.1428 16.5456C60.8312 16.2873 60.4372 16.1495 60.0326 16.1572Z" fill="#F9F9F9"/>
<path d="M0.925372 0.204834V9.24269H0.891602V12.6704H29.1196C29.8309 12.653 30.5377 12.7883 31.1923 13.0672C31.7528 13.2989 32.2284 13.6973 32.5547 14.2086C32.8809 14.7199 33.042 15.3191 33.0159 15.9251C33.0432 16.5334 32.8801 17.1352 32.5495 17.6466C32.2189 18.1581 31.7371 18.5538 31.1712 18.7787L33.1848 21.6618H30.9559L29.2251 19.1628H27.3129V21.6618H0.891602V30.2354H0.925372V40.3074H33.0075C38.0731 40.3074 42.1213 39.6334 45.1522 38.2854C46.6113 37.657 47.9096 36.7073 48.9505 35.5071C49.9913 34.307 50.7477 32.8873 51.1634 31.354H51.4082C53.7806 37.2442 59.4245 40.1878 68.34 40.185H82.3632C89.0667 40.185 94.0352 38.5908 97.2687 35.4023C100.502 32.2137 102.118 27.1482 102.115 20.2055V0.204834H0.925372ZM41.2306 18.7787H36.0173C36.099 19.1893 36.3365 19.5524 36.68 19.7918C37.0662 20.0503 37.5242 20.1803 37.9886 20.1633C38.3137 20.1683 38.637 20.1139 38.9426 20.0029C39.2383 19.8837 39.5058 19.704 39.7278 19.4752L40.7916 20.6276C40.1359 21.3649 39.1847 21.7336 37.938 21.7336C37.2264 21.7562 36.5194 21.6116 35.8737 21.3115C35.3009 21.03 34.8205 20.5906 34.4891 20.0451C34.1724 19.4872 34.0059 18.8567 34.0059 18.2151C34.0059 17.5736 34.1724 16.9431 34.4891 16.3852C34.8035 15.85 35.2592 15.4119 35.8062 15.1188C36.3849 14.8139 37.0307 14.6586 37.6847 14.6671C38.321 14.6532 38.9507 14.7983 39.5167 15.0892C40.0608 15.376 40.5085 15.8164 40.8042 16.3556C41.1263 16.9329 41.2881 17.5859 41.2728 18.2468C41.2686 18.2468 41.2559 18.4241 41.2306 18.7787ZM49.6733 20.0788C49.3813 20.5979 48.9499 21.0248 48.428 21.3115C47.8898 21.6 47.2866 21.7453 46.6761 21.7336C46.2899 21.7528 45.9042 21.6872 45.5462 21.5413C45.1881 21.3955 44.8663 21.1729 44.6034 20.8893V24.106H42.6025V14.7473H44.5106V15.5409C44.7788 15.2358 45.1136 14.9964 45.4891 14.8412C45.8646 14.686 46.2707 14.6192 46.6761 14.646C47.2868 14.6322 47.8906 14.7776 48.428 15.0681C48.9514 15.3652 49.3802 15.8042 49.6648 16.3345C49.9591 16.9117 50.1125 17.5504 50.1125 18.1982C50.1125 18.8461 49.9591 19.4848 49.6648 20.062L49.6733 20.0788ZM55.7351 16.5118C55.5114 16.5118 55.3636 16.4865 55.2834 16.4865C55.0392 16.4726 54.7946 16.5076 54.5641 16.5895C54.3335 16.6714 54.1217 16.7986 53.941 16.9635C53.7664 17.1588 53.6331 17.3873 53.5489 17.6354C53.4648 17.8835 53.4316 18.146 53.4513 18.4072V21.6618H51.4547V14.7473H53.3627V15.6549C53.6085 15.3182 53.9433 15.0565 54.3294 14.8993C54.7766 14.7226 55.2544 14.6365 55.7351 14.646V16.5118ZM63.5699 18.7787H58.3523C58.436 19.1896 58.6749 19.5525 59.0193 19.7918C59.4053 20.0508 59.8634 20.1808 60.3279 20.1633C60.653 20.1679 60.9762 20.1136 61.2819 20.0029C61.5714 19.8888 61.8344 19.7164 62.0544 19.4963L63.1182 20.6487C62.4681 21.3917 61.5225 21.7632 60.273 21.7632C59.5603 21.7769 58.8545 21.6222 58.213 21.3115C57.6402 21.03 57.1598 20.5906 56.8284 20.0451C56.5105 19.4876 56.3432 18.8569 56.3432 18.2151C56.3432 17.5734 56.5105 16.9427 56.8284 16.3852C57.1439 15.8495 57.6011 15.4113 58.1497 15.1188C58.7282 14.8134 59.3741 14.6581 60.0282 14.6671C60.6644 14.6537 61.294 14.7988 61.8602 15.0892C62.4025 15.3784 62.8496 15.8182 63.1477 16.3556C63.4698 16.9329 63.6316 17.5859 63.6163 18.2468C63.6079 18.2468 63.5952 18.4241 63.5699 18.7787ZM70.5435 21.6407H64.4015V20.4377L67.9136 16.2839H64.4901V14.7473H70.438V15.9504L66.9258 20.1042H70.5435V21.6407ZM78.4585 18.7787H73.2451C73.3288 19.1896 73.5677 19.5525 73.9121 19.7918C74.2965 20.0507 74.7533 20.1808 75.2165 20.1633C75.5416 20.1686 75.865 20.1142 76.1705 20.0029C76.4613 19.8889 76.7257 19.7165 76.9473 19.4963L78.011 20.6487C77.3609 21.372 76.4196 21.7336 75.187 21.7336C74.4683 21.7595 73.7537 21.6148 73.1016 21.3115C72.5297 21.0286 72.0497 20.5895 71.717 20.0451C71.4003 19.4872 71.2338 18.8567 71.2338 18.2151C71.2338 17.5736 71.4003 16.9431 71.717 16.3852C72.0325 15.8495 72.4897 15.4113 73.0383 15.1188C73.6153 14.8134 74.2598 14.6581 74.9126 14.6671C75.5489 14.6532 76.1786 14.7983 76.7446 15.0892C77.2889 15.3772 77.7377 15.8172 78.0364 16.3556C78.355 16.9341 78.5152 17.5865 78.5007 18.2468C78.4965 18.2468 78.4838 18.4241 78.4585 18.7787ZM86.88 21.6618H84.896V18.0019C84.9308 17.5637 84.8031 17.1279 84.5372 16.7778C84.4058 16.6353 84.2446 16.5237 84.0651 16.4507C83.8856 16.3777 83.6922 16.3453 83.4987 16.3556C83.2766 16.3453 83.0548 16.3817 82.8476 16.4624C82.6403 16.5431 82.4523 16.6664 82.2957 16.8242C81.9702 17.2122 81.8096 17.7123 81.8482 18.2172V21.6238H79.8304V14.7473H81.7385V15.5536C82.012 15.2572 82.3499 15.0275 82.7262 14.8824C83.1385 14.7193 83.5789 14.639 84.0222 14.646C84.4009 14.6287 84.7792 14.6878 85.1346 14.8198C85.4899 14.9518 85.8151 15.1539 86.0906 15.4143C86.3704 15.7205 86.5847 16.0806 86.7205 16.4726C86.8562 16.8646 86.9105 17.2801 86.88 17.6938V21.6618ZM92.41 21.6618C92.1143 21.7338 91.8109 21.7692 91.5066 21.7674C90.8151 21.8131 90.1328 21.5891 89.6028 21.1426C89.3669 20.899 89.1849 20.6085 89.0685 20.29C88.9521 19.9714 88.9041 19.632 88.9274 19.2937V16.4654H87.8509V14.8993H88.9147V13.2107H90.9156V14.8993H92.6337V16.4401H90.9156V19.243C90.9007 19.4885 90.9809 19.7304 91.1394 19.9184C91.2229 19.9993 91.3223 20.0621 91.4313 20.1028C91.5402 20.1434 91.6564 20.1612 91.7725 20.1548C92.0643 20.165 92.3506 20.074 92.583 19.8973L93.1318 21.3115C92.9144 21.4653 92.6693 21.5756 92.41 21.6365V21.6618Z" fill="#F9F9F9"/>
<path d="M37.6932 16.1572C37.2794 16.1438 36.8747 16.2802 36.5535 16.5414C36.241 16.8094 36.0394 17.1841 35.9878 17.5925H39.3649C39.3122 17.1856 39.1107 16.8126 38.7992 16.5456C38.4887 16.2882 38.0964 16.1505 37.6932 16.1572Z" fill="#F9F9F9"/>
</g>
<defs>
<clipPath id="clip0_562_2591">
<rect width="101.227" height="40.1153" fill="white" transform="translate(0.891602 0.204834)"/>
</clipPath>
</defs>
</svg>
