<svg width="95" height="19" viewBox="0 0 95 19" fill="none" xmlns="http://www.w3.org/2000/svg">
<g clip-path="url(#clip0_562_2565)">
<path d="M0.799316 18.2149V0.462708H5.59337C9.13185 0.462708 10.8725 2.00143 10.8725 5.07887C10.8725 7.30146 9.61696 8.7262 7.07725 9.32459C7.9904 9.63803 8.64673 10.1509 9.04624 10.7778C9.53135 11.6611 9.95939 13.0859 10.3018 15.0235L10.5872 16.3059C10.7869 17.3032 10.9011 17.93 10.9867 18.2149H8.7038C8.56112 17.3601 8.33284 15.9924 8.01894 14.1402C7.56236 11.4902 6.44945 10.1224 4.73729 10.0655H2.85391V18.2149H0.799316ZM2.88244 8.1848H4.8229C7.47675 8.1848 8.78941 7.15899 8.78941 5.07887C8.78941 3.2552 7.61943 2.34336 5.27947 2.34336H2.88244V8.1848Z" fill="#F9F9F9"/>
<path d="M17.8639 0.149536C21.2598 0.149536 22.9433 3.19848 22.9433 9.26788C22.9433 15.3373 21.2312 18.3862 17.7783 18.3862C14.3255 18.3862 12.6133 15.3657 12.6133 9.32486C12.6133 3.19848 14.3539 0.149536 17.8639 0.149536ZM17.7212 2.11568C15.7237 2.11568 14.7249 4.50924 14.7249 9.29637C14.7249 14.055 15.7523 16.42 17.7783 16.42C19.8044 16.42 20.8316 14.0835 20.8316 9.38186C20.8316 4.53774 19.8044 2.11568 17.7212 2.11568Z" fill="#F9F9F9"/>
<path d="M24.6841 18.0725V0.462708H28.6221C30.7908 0.462708 32.2746 0.833139 33.0166 1.54551C33.9583 2.42885 34.4434 3.48316 34.4434 4.76543C34.4434 6.81705 33.4731 8.1848 31.5042 8.89718C33.7586 9.52405 34.8714 11.0058 34.8714 13.3424C34.8714 14.7101 34.3863 15.8784 33.4446 16.8187C32.56 17.6451 31.2188 18.0725 29.421 18.0725H24.6841ZM26.7387 7.98534H28.6791C31.1332 7.98534 32.3602 6.95952 32.3602 4.9079C32.3602 3.93908 32.0464 3.2267 31.4185 2.82778C30.9334 2.51433 30.0774 2.37186 28.8503 2.37186H26.7387V7.98534ZM26.7387 16.1633H29.0501C31.5612 16.1633 32.8169 15.166 32.8169 13.1429C32.8169 10.9773 31.4757 9.89448 28.8218 9.89448H26.7387V16.1633Z" fill="#F9F9F9"/>
<path d="M41.7485 0.149536C45.1444 0.149536 46.828 3.19848 46.828 9.26788C46.828 15.3373 45.1158 18.3862 41.663 18.3862C38.2101 18.3862 36.4979 15.3657 36.4979 9.32486C36.4693 3.19848 38.2387 0.149536 41.7485 0.149536ZM41.6058 2.11568C39.6083 2.11568 38.6096 4.50924 38.6096 9.29637C38.6096 14.055 39.6369 16.42 41.663 16.42C43.689 16.42 44.7163 14.0835 44.7163 9.38186C44.6878 4.53774 43.6605 2.11568 41.6058 2.11568Z" fill="#F9F9F9"/>
<path d="M58.4421 5.27849H56.2163C55.988 3.14138 55.2175 2.08707 53.9048 2.08707C51.6219 2.08707 50.5091 4.56612 50.5091 9.49572C50.5091 14.1118 51.5935 16.4199 53.7622 16.4199C55.189 16.4199 56.1021 15.2232 56.5301 12.8581H58.756C58.1282 16.5624 56.5301 18.3861 53.962 18.3861C50.2523 18.3861 48.3975 15.3656 48.3975 9.35324C48.3975 6.61775 48.854 4.39515 49.7386 2.68546C50.6518 0.975775 52.05 0.0924377 53.9334 0.0924377C56.5873 0.120933 58.0711 1.83062 58.4421 5.27849Z" fill="#F9F9F9"/>
<path d="M65.6046 0.149536C69.0003 0.149536 70.684 3.19848 70.684 9.26788C70.684 15.3373 68.9718 18.3862 65.5189 18.3862C62.0661 18.3862 60.3539 15.3657 60.3539 9.32486C60.3254 3.19848 62.0946 0.149536 65.6046 0.149536ZM65.4619 2.11568C63.4643 2.11568 62.4656 4.50924 62.4656 9.29637C62.4656 14.055 63.4929 16.42 65.5189 16.42C67.545 16.42 68.5723 14.0835 68.5723 9.38186C68.5723 4.53774 67.545 2.11568 65.4619 2.11568Z" fill="#F9F9F9"/>
<path d="M72.4248 18.0725V0.462708H75.9062C80.3863 0.462708 82.6408 3.39767 82.6408 9.26761C82.6408 12.1456 82.013 14.4252 80.7859 16.0779C79.8156 17.3886 78.3033 18.044 76.2201 18.044H72.4248V18.0725ZM74.4794 16.0779H76.0775C77.6184 16.0779 78.7598 15.5365 79.4447 14.4536C80.1581 13.3708 80.5005 11.6041 80.5005 9.18212C80.5005 4.67994 79.0167 2.42885 76.0204 2.42885H74.4794V16.0779Z" fill="#F9F9F9"/>
<path d="M84.353 18.0725V0.462708H94.5689V2.42885H86.4361V8.07083H93.2562V10.0655H86.4361V16.0779H94.5689V18.0725H84.353Z" fill="#F9F9F9"/>
</g>
<defs>
<clipPath id="clip0_562_2565">
<rect width="93.7694" height="18.3862" fill="white" transform="translate(0.799316 0.0924377)"/>
</clipPath>
</defs>
</svg>
