<svg width="180" height="38" viewBox="0 0 180 38" fill="none" xmlns="http://www.w3.org/2000/svg">
<path d="M159.917 8.12158C165.478 8.12158 171.04 8.12158 176.77 8.12158C176.77 13.659 176.77 19.1964 176.77 24.9016C174.942 24.9016 173.114 24.9016 171.231 24.9016C171.231 25.7571 171.231 26.6126 171.231 27.494C169.481 27.494 167.732 27.494 165.929 27.494C165.929 28.2873 165.929 29.0806 165.929 29.8979C164.335 29.8979 162.742 29.8979 161.1 29.8979C161.1 30.5512 161.1 31.2045 161.1 31.8776C158.397 31.8776 155.695 31.8776 152.91 31.8776C152.91 29.1711 152.91 26.4646 152.91 23.6761C153.551 23.6761 154.191 23.6761 154.851 23.6761C154.851 22.0895 154.851 20.503 154.851 18.8683C155.648 18.8683 156.445 18.8683 157.265 18.8683C157.265 17.1262 157.265 15.3841 157.265 13.5892C158.14 13.5892 159.015 13.5892 159.917 13.5892C159.917 11.7849 159.917 9.98058 159.917 8.12158Z" fill="#F9F9F9"/>
<path d="M114.328 8.12157C116.643 8.11865 118.958 8.11574 121.343 8.11273C122.073 8.11145 122.803 8.11016 123.555 8.10883C124.449 8.10819 124.449 8.10819 124.868 8.10807C125.159 8.10794 125.451 8.10743 125.742 8.10664C126.079 8.10574 126.416 8.10533 126.753 8.10553C126.926 8.10561 127.098 8.10549 127.27 8.10471C129.489 8.09521 131.427 8.60779 133.075 10.1484C133.116 10.1855 133.116 10.1855 133.159 10.2233C134.269 11.2503 134.898 12.9018 134.978 14.3827C134.982 14.57 134.984 14.757 134.983 14.9443C134.983 14.9938 134.983 14.9938 134.983 15.0442C134.98 15.5597 134.954 16.0574 134.826 16.5587C134.817 16.5927 134.809 16.6268 134.8 16.6618C134.496 17.8261 133.952 18.7943 133.122 19.6696C133.09 19.7044 133.058 19.7391 133.025 19.7749C131.786 21.0787 129.914 21.6699 128.151 21.7436C127.551 21.7548 126.95 21.7391 126.349 21.7282C126.13 21.7243 125.911 21.7211 125.692 21.7178C125.265 21.7113 124.838 21.7041 124.411 21.6964C124.478 21.7637 124.545 21.8309 124.612 21.898C124.65 21.9355 124.687 21.9729 124.725 22.0114C124.824 22.1077 124.925 22.1991 125.03 22.2886C125.195 22.4298 125.347 22.5805 125.5 22.7351C125.591 22.824 125.684 22.9072 125.781 22.9897C125.923 23.1108 126.055 23.2374 126.186 23.3697C126.317 23.501 126.448 23.6267 126.589 23.7468C126.768 23.9001 126.933 24.0653 127.099 24.2329C127.195 24.3264 127.292 24.4143 127.394 24.501C127.573 24.6542 127.738 24.8195 127.904 24.987C127.999 25.0806 128.097 25.1684 128.198 25.2551C128.378 25.4084 128.543 25.5736 128.709 25.7412C128.804 25.8347 128.902 25.9226 129.003 26.0093C129.183 26.1625 129.348 26.3278 129.514 26.4953C129.609 26.5889 129.706 26.6767 129.808 26.7634C129.988 26.9167 130.152 27.0819 130.318 27.2495C130.414 27.3431 130.511 27.4309 130.613 27.5176C130.792 27.6709 130.957 27.8361 131.123 28.0037C131.218 28.0972 131.316 28.1851 131.418 28.2717C131.597 28.425 131.762 28.5901 131.928 28.7576C132.053 28.8808 132.185 28.9945 132.319 29.1086C132.45 29.2251 132.572 29.3504 132.696 29.4753C132.787 29.5643 132.88 29.6475 132.977 29.73C133.118 29.8511 133.251 29.9777 133.382 30.11C133.512 30.2413 133.644 30.367 133.785 30.4871C133.964 30.6404 134.129 30.8056 134.295 30.9732C134.39 31.0667 134.488 31.1546 134.589 31.2412C134.805 31.426 135.011 31.6224 135.205 31.8304C135.205 31.846 135.205 31.8615 135.205 31.8776C134.453 31.8964 133.702 31.9105 132.95 31.9191C132.601 31.9232 132.252 31.9288 131.903 31.938C131.599 31.9461 131.294 31.9512 130.99 31.953C130.829 31.954 130.668 31.9564 130.507 31.9623C129.399 31.9984 129.399 31.9984 128.973 31.6015C128.845 31.4656 128.728 31.3241 128.614 31.1769C128.477 31.0133 128.315 30.8824 128.151 30.7463C128.08 30.6785 128.01 30.6099 127.941 30.5401C127.906 30.5044 127.87 30.4687 127.833 30.4319C127.761 30.3587 127.689 30.2855 127.617 30.2124C127.452 30.0468 127.287 29.8848 127.11 29.7329C126.854 29.5143 126.622 29.273 126.386 29.034C126.221 28.8684 126.056 28.7065 125.879 28.5546C125.623 28.3359 125.391 28.0946 125.155 27.8556C124.99 27.69 124.825 27.5281 124.648 27.3762C124.392 27.1576 124.16 26.9163 123.924 26.6773C123.759 26.5117 123.595 26.3497 123.417 26.1978C123.162 25.9792 122.929 25.7379 122.693 25.4989C122.529 25.3333 122.364 25.1713 122.186 25.0194C121.931 24.8008 121.698 24.5595 121.462 24.3205C121.298 24.1549 121.133 23.993 120.955 23.8411C120.7 23.6225 120.468 23.3811 120.232 23.1421C120.072 22.9814 119.912 22.8238 119.739 22.6774C119.437 22.4116 119.157 22.1216 118.872 21.8378C118.857 25.1509 118.841 28.4641 118.825 31.8776C117.341 31.8776 115.857 31.8776 114.328 31.8776C114.328 24.0381 114.328 16.1986 114.328 8.12157ZM118.825 12.1752C118.825 14.0417 118.825 15.9083 118.825 17.8314C120.391 17.8341 120.391 17.8341 121.956 17.836C122.595 17.8365 123.234 17.8372 123.873 17.8385C124.338 17.8394 124.803 17.84 125.268 17.8402C125.514 17.8404 125.761 17.8406 126.007 17.8413C126.239 17.842 126.471 17.8422 126.703 17.842C126.788 17.8421 126.873 17.8422 126.957 17.8426C128.002 17.8469 128.941 17.7217 129.743 16.9888C130.272 16.4378 130.512 15.7279 130.533 14.9709C130.504 14.1711 130.228 13.4399 129.64 12.8813C129.226 12.5483 128.761 12.3471 128.246 12.2223C128.212 12.214 128.178 12.2056 128.143 12.1971C127.972 12.1691 127.804 12.1688 127.632 12.1695C127.594 12.1695 127.557 12.1694 127.518 12.1694C127.391 12.1693 127.265 12.1696 127.139 12.1698C127.049 12.1698 126.958 12.1698 126.868 12.1698C126.622 12.1698 126.376 12.1701 126.131 12.1704C125.874 12.1707 125.617 12.1707 125.36 12.1708C124.874 12.1709 124.388 12.1713 123.902 12.1718C123.245 12.1724 122.588 12.1727 121.931 12.1729C120.895 12.1734 119.86 12.1743 118.825 12.1752Z" fill="#F9F9F9"/>
<path d="M48.0034 8.12158C53.8618 8.12158 59.7202 8.12158 65.7561 8.12158C65.7561 9.47483 65.7561 10.8281 65.7561 12.2223C61.3663 12.2223 56.9764 12.2223 52.4534 12.2223C52.4534 14.1511 52.4534 16.0798 52.4534 18.067C52.8591 18.0593 53.2647 18.0516 53.6826 18.0437C53.9666 18.0389 54.2506 18.0344 54.5346 18.0306C54.5722 18.0301 54.6099 18.0296 54.6488 18.0291C56.4291 18.0064 58.2098 18.0148 59.9902 18.0165C60.6478 18.0172 61.3054 18.0174 61.963 18.0177C62.9907 18.0181 64.0184 18.0191 65.046 18.0199C65.046 19.342 65.046 20.6642 65.046 22.0264C60.8905 22.0264 56.7349 22.0264 52.4534 22.0264C52.4534 23.924 52.4534 25.8217 52.4534 27.7768C56.9527 27.7768 61.4519 27.7768 66.0875 27.7768C66.0875 29.1301 66.0875 30.4833 66.0875 31.8776C60.1198 31.8776 54.152 31.8776 48.0034 31.8776C48.0034 24.0381 48.0034 16.1986 48.0034 8.12158Z" fill="#F9F9F9"/>
<path d="M9.58616 8.11592C9.63896 8.11588 9.69175 8.11584 9.74614 8.1158C9.92197 8.11572 10.0978 8.11598 10.2736 8.11624C10.4001 8.11625 10.5265 8.11624 10.653 8.11622C10.9247 8.11619 11.1965 8.11634 11.4682 8.1166C11.861 8.11699 12.2539 8.11711 12.6467 8.11717C13.2842 8.11727 13.9217 8.11759 14.5592 8.11803C15.1782 8.11847 15.7972 8.1188 16.4162 8.119C16.4544 8.11901 16.4926 8.11902 16.532 8.11904C16.7236 8.1191 16.9152 8.11916 17.1069 8.11922C18.6951 8.1197 20.2833 8.12057 21.8715 8.12159C21.8715 9.45928 21.8715 10.797 21.8715 12.1752C21.3049 12.1759 21.3049 12.1759 20.7268 12.1765C19.5162 12.1781 18.3057 12.1805 17.0951 12.1836C16.9068 12.184 16.7186 12.1845 16.5304 12.185C16.4741 12.1851 16.4741 12.1851 16.4168 12.1852C15.8111 12.1867 15.2055 12.1875 14.5998 12.1881C13.9777 12.1887 13.3556 12.19 12.7335 12.1919C12.3501 12.1931 11.9667 12.1937 11.5832 12.1936C11.2885 12.1936 10.9938 12.1946 10.6991 12.196C10.5787 12.1964 10.4583 12.1965 10.3379 12.1962C9.29702 12.1942 8.3682 12.3051 7.54208 13.0072C6.95793 13.5977 6.70835 14.3197 6.70759 15.1366C6.7201 15.8694 6.9972 16.583 7.50713 17.1183C8.30182 17.8127 9.1872 17.9794 10.2141 17.9802C10.279 17.9804 10.3438 17.9807 10.4086 17.9809C10.5476 17.9815 10.6865 17.9819 10.8254 17.9822C11.0461 17.9827 11.2667 17.9836 11.4873 17.9847C12.1144 17.9876 12.7416 17.9901 13.3687 17.9917C13.7156 17.9926 14.0626 17.9939 14.4095 17.9959C14.5924 17.9968 14.7753 17.9976 14.9583 17.9977C15.8912 17.9984 16.793 18.0216 17.6937 18.2939C17.7351 18.3061 17.7765 18.3183 17.8191 18.3309C19.6475 18.8832 21.2764 20.0546 22.201 21.7431C23.0518 23.3584 23.2384 25.2241 22.7073 26.9709C22.3415 28.137 21.6371 29.2134 20.688 29.9922C20.6531 30.0217 20.6182 30.0511 20.5822 30.0815C18.9255 31.448 16.9352 31.9028 14.8277 31.8936C14.6979 31.8935 14.5681 31.8936 14.4383 31.8937C14.1608 31.8938 13.8833 31.8933 13.6059 31.8925C13.2047 31.8914 12.8035 31.891 12.4024 31.8908C11.7513 31.8905 11.1001 31.8896 10.449 31.8883C9.81714 31.8869 9.18528 31.886 8.55343 31.8854C8.51437 31.8853 8.4753 31.8853 8.43506 31.8852C8.23906 31.8851 8.04306 31.8849 7.84706 31.8847C6.22557 31.8832 4.60408 31.8806 2.98258 31.8776C2.98258 30.571 2.98258 29.2644 2.98258 27.9183C3.36701 27.9178 3.75143 27.9174 4.1475 27.9169C5.37988 27.9154 6.61225 27.9129 7.84462 27.9099C8.0363 27.9094 8.22797 27.9089 8.41965 27.9085C8.4578 27.9084 8.49596 27.9083 8.53527 27.9082C9.15173 27.9067 9.76819 27.9059 10.3847 27.9054C11.018 27.9048 11.6513 27.9035 12.2847 27.9015C12.6749 27.9004 13.0652 27.8997 13.4555 27.8998C13.7237 27.8998 13.9919 27.8991 14.2602 27.8979C14.4146 27.8972 14.5689 27.8969 14.7233 27.8972C15.8073 27.8993 16.8389 27.8185 17.6619 27.0284C18.2678 26.3625 18.5039 25.5656 18.4761 24.6799C18.4375 23.9532 18.0953 23.3206 17.5635 22.8277C16.7846 22.1854 15.8852 22.0669 14.9066 22.0661C14.8399 22.0659 14.7732 22.0656 14.7065 22.0654C14.5636 22.0648 14.4206 22.0644 14.2776 22.0641C14.0506 22.0636 13.8236 22.0627 13.5967 22.0616C12.9514 22.0587 12.3062 22.0562 11.6609 22.0546C11.304 22.0537 10.9471 22.0524 10.5902 22.0505C10.402 22.0495 10.2138 22.0487 10.0256 22.0486C9.09482 22.0479 8.18031 22.042 7.28466 21.7554C7.24584 21.7433 7.20702 21.7312 7.16703 21.7188C5.3145 21.1284 3.80905 19.9257 2.89813 18.2047C2.45157 17.311 2.21824 16.3275 2.17779 15.3332C2.17584 15.2862 2.17389 15.2392 2.17188 15.1907C2.13591 13.4139 2.76202 11.702 3.99708 10.4155C4.03723 10.374 4.07739 10.3326 4.11876 10.2898C4.14915 10.2566 4.17954 10.2233 4.21085 10.1891C5.54046 8.77642 7.68576 8.11054 9.58616 8.11592Z" fill="#F9F9F9"/>
<path d="M97.7109 8.12158C99.5075 8.12158 101.304 8.12158 103.155 8.12158C104.099 10.277 104.099 10.277 104.445 11.0705C104.465 11.1156 104.485 11.1608 104.505 11.2074C104.766 11.8046 105.026 12.402 105.286 12.9996C105.512 13.5194 105.739 14.0389 105.966 14.5584C106.338 15.4113 106.71 16.2643 107.082 17.1175C107.428 17.9111 107.774 18.7045 108.121 19.4977C108.376 20.0811 108.63 20.6646 108.884 21.2484C109.11 21.7681 109.337 22.2876 109.564 22.8071C109.936 23.6599 110.308 24.5129 110.68 25.3661C111.006 26.1139 111.332 26.8615 111.659 27.6089C111.961 28.3008 112.263 28.9928 112.564 29.6853C112.666 29.9193 112.768 30.1532 112.87 30.3871C112.941 30.5494 113.012 30.7117 113.083 30.8741C113.117 30.9534 113.152 31.0327 113.187 31.112C113.235 31.222 113.283 31.3322 113.331 31.4423C113.346 31.4755 113.36 31.5086 113.376 31.5428C113.475 31.7726 113.475 31.7726 113.475 31.8776C111.976 31.8776 110.476 31.8776 108.931 31.8776C108.55 31.066 108.55 31.066 108.42 30.7613C108.405 30.7255 108.39 30.6897 108.374 30.6528C108.324 30.5358 108.274 30.4186 108.223 30.3015C108.187 30.2173 108.151 30.133 108.115 30.0488C108.057 29.9127 107.998 29.7765 107.94 29.6404C107.776 29.2582 107.612 28.8762 107.447 28.4944C107.421 28.4347 107.396 28.3751 107.37 28.3155C107.269 28.08 107.167 27.8446 107.066 27.6092C106.995 27.4443 106.924 27.2793 106.853 27.1144C106.832 27.0658 106.811 27.0173 106.789 26.9673C106.73 26.8287 106.67 26.6901 106.611 26.5513C106.589 26.4994 106.566 26.4474 106.543 26.3939C106.522 26.3429 106.5 26.2918 106.477 26.2392C106.458 26.1929 106.438 26.1466 106.418 26.0989C106.374 25.9857 106.374 25.9857 106.374 25.8914C102.437 25.8914 98.5005 25.8914 94.4444 25.8914C94.3741 26.1014 94.3741 26.1014 94.3024 26.3157C94.2436 26.4576 94.1837 26.5982 94.1213 26.7386C94.1036 26.779 94.0859 26.8193 94.0676 26.8609C94.0291 26.9485 93.9905 27.0361 93.9519 27.1236C93.846 27.3635 93.7408 27.6036 93.6355 27.8437C93.6132 27.8946 93.5908 27.9456 93.5678 27.9981C93.2429 28.7399 92.9241 29.4843 92.6046 30.2284C92.5698 30.3094 92.5698 30.3094 92.5343 30.392C92.4915 30.4916 92.4487 30.5912 92.406 30.6909C92.2356 31.0875 92.0617 31.4823 91.888 31.8776C90.4195 31.8776 88.951 31.8776 87.438 31.8776C87.5337 31.5918 87.6323 31.3186 87.752 31.0435C87.7768 30.986 87.7768 30.986 87.8021 30.9273C87.8561 30.8021 87.9104 30.677 87.9647 30.5519C88.0028 30.4637 88.0409 30.3754 88.0791 30.2872C88.4162 29.5075 88.757 28.7295 89.0983 27.9516C89.5111 27.0106 89.9193 26.0675 90.3286 25.1249C90.5493 24.6165 90.7704 24.1083 90.9917 23.6001C91.196 23.1306 91.4 22.661 91.604 22.1914C91.8572 21.6081 92.1107 21.025 92.3646 20.442C92.5689 19.9726 92.7729 19.503 92.9768 19.0333C93.2301 18.4501 93.4836 17.867 93.7374 17.284C93.9418 16.8145 94.1458 16.3449 94.3497 15.8753C94.603 15.292 94.8565 14.7089 95.1103 14.1259C95.3147 13.6565 95.5187 13.1869 95.7226 12.7172C95.9512 12.1908 96.1799 11.6644 96.409 11.1382C96.4974 10.9353 96.5857 10.7323 96.674 10.5294C96.7039 10.4607 96.7338 10.3919 96.7637 10.3232C96.8655 10.0895 96.9672 9.85567 97.0688 9.62187C97.1018 9.54597 97.1349 9.47008 97.1679 9.3942C97.2143 9.28756 97.2607 9.18089 97.307 9.07422C97.3204 9.04349 97.3338 9.01275 97.3476 8.98109C97.4715 8.69567 97.5907 8.4087 97.7109 8.12158ZM100.409 12.1752C100.144 12.6796 99.9164 13.197 99.6931 13.7208C99.6292 13.8708 99.5649 14.0208 99.5007 14.1707C99.4087 14.3853 99.3168 14.5999 99.225 14.8146C98.9913 15.361 98.7565 15.9068 98.5216 16.4527C98.4981 16.5073 98.4746 16.562 98.4503 16.6183C98.0926 17.4498 97.7325 18.2802 97.3706 19.1099C97.3365 19.1882 97.3365 19.1882 97.3017 19.2682C97.1023 19.7254 96.9029 20.1827 96.7017 20.6392C96.642 20.7747 96.5825 20.9103 96.523 21.0459C96.4844 21.1335 96.4456 21.221 96.4067 21.3085C96.3846 21.3589 96.3625 21.4092 96.3397 21.4611C96.3208 21.5037 96.302 21.5463 96.2826 21.5902C96.2352 21.6997 96.2352 21.6997 96.2433 21.8378C98.9929 21.8378 101.742 21.8378 104.575 21.8378C104.462 21.4954 104.462 21.4954 104.33 21.1636C104.301 21.0965 104.301 21.0965 104.272 21.0281C104.251 20.9806 104.23 20.9332 104.209 20.8843C104.187 20.8333 104.165 20.7822 104.142 20.7297C104.095 20.6195 104.047 20.5094 103.999 20.3993C103.923 20.2231 103.847 20.0469 103.771 19.8706C103.758 19.8407 103.745 19.8108 103.731 19.7801C103.705 19.7192 103.679 19.6584 103.653 19.5975C103.613 19.5051 103.573 19.4126 103.533 19.3202C103.293 18.7664 103.056 18.2119 102.819 17.6571C102.038 15.8273 101.254 13.9982 100.457 12.1752C100.441 12.1752 100.425 12.1752 100.409 12.1752Z" fill="#F9F9F9"/>
<path d="M25.1377 8.12156C26.6062 8.12156 28.0747 8.12156 29.5877 8.12156C29.6033 11.3102 29.619 14.4989 29.6351 17.7842C29.8225 17.6131 30.01 17.442 30.2031 17.2657C30.3305 17.1611 30.4578 17.0564 30.5863 16.9533C30.7428 16.8261 30.8963 16.6958 31.0494 16.5646C31.3403 16.3154 31.6327 16.068 31.9259 15.8215C32.054 15.7138 32.1819 15.606 32.3098 15.4982C32.3611 15.455 32.4124 15.4118 32.4637 15.3686C32.489 15.3472 32.5144 15.3258 32.5406 15.3037C36.4639 11.9984 36.4639 11.9984 36.5409 11.9336C36.5922 11.8904 36.6435 11.8471 36.6948 11.8039C36.8224 11.6964 36.95 11.5889 37.0777 11.4816C37.1286 11.4388 37.1794 11.396 37.2303 11.3532C37.2555 11.332 37.2807 11.3108 37.3066 11.289C37.4695 11.1517 37.6317 11.0136 37.7935 10.875C38.014 10.6861 38.2351 10.4986 38.4611 10.3163C38.7028 10.121 38.9374 9.91823 39.172 9.71458C39.3841 9.53081 39.6002 9.35268 39.8188 9.17657C40.0166 9.01383 40.2095 8.84567 40.402 8.67677C40.4574 8.62842 40.5134 8.58058 40.5697 8.53331C40.633 8.47924 40.6947 8.42341 40.7548 8.36586C41.0572 8.09643 41.3001 8.07558 41.6961 8.0841C41.7553 8.08405 41.8144 8.084 41.8754 8.08395C42.0364 8.08414 42.1973 8.08579 42.3583 8.0881C42.527 8.09018 42.6957 8.09036 42.8644 8.09075C43.1833 8.09177 43.5021 8.09448 43.821 8.0978C44.1843 8.10149 44.5475 8.1033 44.9108 8.10495C45.6576 8.1084 46.4043 8.11419 47.1511 8.12156C47.0935 8.29369 47.0328 8.33122 46.8907 8.44266C46.8437 8.48003 46.7967 8.5174 46.7483 8.5559C46.7221 8.57667 46.6958 8.59744 46.6688 8.61884C46.5067 8.748 46.3467 8.87976 46.1865 9.01123C46.1519 9.03958 46.1173 9.06793 46.0816 9.09714C45.8733 9.26798 45.6668 9.44067 45.4616 9.61515C45.2576 9.78857 45.0494 9.95529 44.8373 10.1189C44.564 10.3298 44.3022 10.5517 44.0422 10.7786C43.8441 10.9511 43.6421 11.1169 43.4352 11.279C43.2946 11.3914 43.1576 11.5077 43.0206 11.6243C42.8096 11.8036 42.5949 11.9766 42.3756 12.1457C42.1023 12.3566 41.8405 12.5786 41.5805 12.8054C41.3823 12.9779 41.1803 13.1437 40.9735 13.3058C40.8329 13.4182 40.6959 13.5345 40.5589 13.6511C40.3479 13.8304 40.1332 14.0034 39.9139 14.1725C39.6448 14.3801 39.3876 14.5988 39.1319 14.8224C38.9376 14.9914 38.7392 15.1527 38.5351 15.3096C38.2635 15.5184 38.0039 15.7384 37.7459 15.9634C37.5477 16.1359 37.3457 16.3018 37.1389 16.4639C36.9983 16.5762 36.8613 16.6925 36.7243 16.8091C36.5133 16.9885 36.2986 17.1615 36.0793 17.3305C35.806 17.5415 35.5442 17.7634 35.2842 17.9902C35.0868 18.1621 34.8857 18.3275 34.6794 18.4887C34.5834 18.5655 34.4895 18.6437 34.3961 18.7236C34.3681 18.7475 34.3401 18.7715 34.3113 18.7961C34.256 18.8435 34.201 18.8911 34.1461 18.9389C33.9534 19.104 33.9534 19.104 33.8484 19.104C34.165 19.4795 34.5062 19.8342 34.8797 20.154C35.1379 20.377 35.3742 20.621 35.6137 20.8635C35.7783 21.029 35.9432 21.191 36.1207 21.3429C36.3762 21.5615 36.6085 21.8028 36.8445 22.0418C37.0091 22.2074 37.174 22.3694 37.3516 22.5213C37.6071 22.7399 37.8393 22.9812 38.0754 23.2202C38.24 23.3858 38.4049 23.5477 38.5824 23.6996C38.8379 23.9183 39.0702 24.1596 39.3062 24.3986C39.4708 24.5642 39.6358 24.7261 39.8133 24.878C40.0688 25.0966 40.3011 25.3379 40.5371 25.5769C40.7017 25.7425 40.8666 25.9045 41.0441 26.0564C41.2996 26.275 41.5319 26.5163 41.7679 26.7553C41.9326 26.9209 42.0975 27.0829 42.275 27.2348C42.5305 27.4534 42.7628 27.6947 42.9988 27.9337C43.1634 28.0993 43.3283 28.2612 43.5059 28.4131C43.7613 28.6318 43.9936 28.8731 44.2296 29.1121C44.3943 29.2777 44.5592 29.4396 44.7367 29.5915C44.9922 29.8101 45.2245 30.0514 45.4605 30.2904C45.6242 30.4551 45.7881 30.6163 45.9646 30.7673C46.1978 30.9669 46.4135 31.1834 46.6303 31.4003C46.6715 31.4411 46.7127 31.482 46.7552 31.524C46.794 31.5628 46.8329 31.6016 46.873 31.6415C46.9082 31.6767 46.9435 31.7119 46.9798 31.7481C47.0564 31.8304 47.0564 31.8304 47.0564 31.8776C46.305 31.8964 45.5536 31.9104 44.8019 31.9191C44.4529 31.9232 44.1039 31.9288 43.7549 31.938C43.4503 31.946 43.1459 31.9512 42.8412 31.9529C42.6801 31.954 42.5194 31.9564 42.3584 31.9623C41.2506 31.9984 41.2506 31.9984 40.8246 31.6015C40.6969 31.4656 40.5799 31.3241 40.4657 31.177C40.3287 31.0134 40.1664 30.8822 40.0026 30.7463C39.9386 30.6854 39.8753 30.6237 39.8133 30.5607C39.782 30.5292 39.7508 30.4978 39.7186 30.4653C39.6555 30.4013 39.5924 30.3372 39.5292 30.2731C39.3763 30.1191 39.2222 29.9699 39.0573 29.8287C38.8124 29.6186 38.5889 29.3881 38.3626 29.1586C38.1736 28.9685 37.9804 28.7883 37.7768 28.6139C37.5782 28.4384 37.3954 28.2464 37.2096 28.0578C37.0562 27.9033 36.9015 27.7537 36.7361 27.6118C36.5025 27.4115 36.2891 27.1927 36.0734 26.9737C35.9205 26.8197 35.7664 26.6705 35.6014 26.5292C35.3565 26.3191 35.1331 26.0887 34.9067 25.8592C34.7178 25.669 34.5246 25.4889 34.3209 25.3145C34.1224 25.139 33.9395 24.947 33.7537 24.7583C33.6003 24.6038 33.4456 24.4542 33.2803 24.3124C33.0467 24.1121 32.8333 23.8932 32.6175 23.6742C32.4646 23.5202 32.3105 23.371 32.1456 23.2298C31.9006 23.0197 31.6772 22.7893 31.4508 22.5598C31.2586 22.3662 31.062 22.1823 30.8547 22.0047C30.7509 21.9144 30.6542 21.8185 30.5582 21.72C30.3688 21.5292 30.1716 21.3517 29.9664 21.1779C29.8571 21.0846 29.7477 20.9913 29.6351 20.8951C29.6194 24.5193 29.6038 28.1435 29.5877 31.8776C28.1192 31.8776 26.6507 31.8776 25.1377 31.8776C25.1377 24.0381 25.1377 16.1986 25.1377 8.12156Z" fill="#F9F9F9"/>
<path d="M69.3066 8.12158C70.7751 8.12158 72.2437 8.12158 73.7567 8.12158C73.7567 14.6078 73.7567 21.0941 73.7567 27.7768C77.9903 27.7768 82.224 27.7768 86.586 27.7768C86.586 29.1301 86.586 30.4833 86.586 31.8776C80.8838 31.8776 75.1816 31.8776 69.3066 31.8776C69.3066 24.0381 69.3066 16.1986 69.3066 8.12158Z" fill="#F9F9F9"/>
</svg>
