<svg width="87" height="20" viewBox="0 0 87 20" fill="none" xmlns="http://www.w3.org/2000/svg">
<path d="M51.6901 12.8684C51.6901 13.7506 51.9475 14.4523 52.4483 14.9908C52.9632 15.5292 53.6916 15.7977 54.6006 15.7977C55.5252 15.7977 56.2379 15.5292 56.7371 14.9908C57.252 14.4523 57.5094 13.7349 57.5094 12.8684C57.5094 11.9861 57.252 11.2844 56.7371 10.746C56.2363 10.2075 55.5252 9.93907 54.6006 9.93907C53.6759 9.93907 52.9632 10.2075 52.4483 10.746C51.9475 11.2828 51.6901 11.9861 51.6901 12.8684ZM48.0371 0.595459H51.6744V8.29389H51.7199C52.1438 7.74131 52.6744 7.35199 53.3274 7.12751C53.9946 6.88889 54.7073 6.76802 55.464 6.76802C56.2975 6.76802 57.0558 6.94698 57.7229 7.29077C58.3901 7.61886 58.9505 8.08353 59.3901 8.65181C59.8595 9.22009 60.208 9.89197 60.4513 10.6408C60.7087 11.3739 60.8453 12.151 60.8453 12.9578C60.8453 13.8401 60.7087 14.647 60.4356 15.3801C60.1624 16.1132 59.7684 16.7553 59.2535 17.2937C58.7527 17.8165 58.1468 18.2356 57.4341 18.5339C56.7214 18.818 55.9333 18.9671 55.0542 18.9671C54.6304 18.9671 54.2364 18.9075 53.8722 18.8023C53.4938 18.6971 53.1595 18.548 52.8267 18.369C52.5237 18.1901 52.2505 17.9954 52.0088 17.8008C51.7811 17.5763 51.599 17.3675 51.4483 17.1587H51.4028V18.683H48.0528L48.0371 0.595459Z" fill="#F9F9F9"/>
<path d="M27.8145 7.0521H31.301V8.63605H31.3466C31.4533 8.41157 31.6197 8.18708 31.8316 7.96259C32.0436 7.73811 32.2869 7.54345 32.5899 7.36449C32.8771 7.18553 33.2115 7.05053 33.5898 6.93122C33.9682 6.82604 34.3622 6.76639 34.8018 6.76639C35.6196 6.76639 36.348 6.93122 36.9838 7.27501C37.6353 7.60311 38.1204 8.14156 38.439 8.85897C38.8629 8.11173 39.3637 7.57328 39.9696 7.25931C40.5614 6.94535 41.304 6.78052 42.1831 6.78052C42.9711 6.78052 43.6383 6.91552 44.1689 7.18396C44.7152 7.43827 45.1548 7.79619 45.4577 8.26086C45.7764 8.70983 46.004 9.24671 46.1406 9.86052C46.2929 10.4727 46.3525 11.1164 46.3525 11.8181V18.6798H42.7152V11.9076C42.7152 11.3691 42.5944 10.906 42.351 10.5167C42.1234 10.1133 41.7137 9.9186 41.1077 9.9186C40.6839 9.9186 40.3354 9.99395 40.0465 10.1274C39.7734 10.2624 39.5458 10.4414 39.3637 10.68C39.1973 10.9186 39.0764 11.2027 38.9995 11.5167C38.9382 11.8306 38.9084 12.1744 38.9084 12.5182V18.6625H35.2711V12.5182C35.2711 12.3094 35.2554 12.0551 35.2413 11.7553C35.2256 11.457 35.166 11.1729 35.0749 10.8888C34.9839 10.6203 34.8174 10.3801 34.5898 10.2012C34.3779 10.0065 34.0592 9.91703 33.6495 9.91703C33.1801 9.91703 32.8002 10.0065 32.5129 10.1855C32.2257 10.3503 31.998 10.5748 31.8301 10.8589C31.6778 11.1274 31.5883 11.4413 31.5428 11.7851C31.4973 12.1289 31.4674 12.5025 31.4674 12.8919V18.6767H27.8302V7.04582H27.8145V7.0521Z" fill="#F9F9F9"/>
<path d="M17.4161 12.9421C17.4161 13.8243 17.6735 14.5417 18.1743 15.0943C18.6892 15.6469 19.4176 15.9169 20.3266 15.9169C21.2355 15.9169 21.9639 15.6485 22.4631 15.0943C22.978 14.5417 23.2354 13.8243 23.2354 12.9421C23.2354 12.0598 22.978 11.3424 22.4631 10.7898C21.9623 10.2373 21.2512 9.96725 20.3266 9.96725C19.4019 9.96725 18.6892 10.2357 18.1743 10.7898C17.6751 11.3283 17.4161 12.0614 17.4161 12.9421ZM13.7788 12.9421C13.7788 12.0002 13.9452 11.1635 14.2937 10.4005C14.6265 9.63759 15.0975 8.99553 15.6736 8.45708C16.2654 7.9045 16.9624 7.48535 17.7662 7.20122C18.5699 6.91708 19.4333 6.76794 20.3438 6.76794C21.2543 6.76794 22.102 6.91708 22.8901 7.20122C23.6938 7.48535 24.3908 7.91863 24.9827 8.45708C25.5745 8.99553 26.0439 9.63759 26.3924 10.4005C26.7252 11.1635 26.9073 12.0002 26.9073 12.9421C26.9073 13.884 26.7409 14.7207 26.3924 15.4836C26.0596 16.2466 25.5886 16.8886 24.9827 17.4412C24.4065 17.9796 23.7095 18.3831 22.8901 18.6814C22.102 18.9655 21.2528 19.1146 20.3438 19.1146C19.4349 19.1146 18.5856 18.9655 17.7662 18.6814C16.9781 18.3972 16.2811 17.9781 15.6736 17.4412C15.0975 16.8886 14.6281 16.245 14.2937 15.4836C13.9609 14.7223 13.7788 13.884 13.7788 12.9421Z" fill="#F9F9F9"/>
<path d="M10.3079 5.8873C10.0049 5.49799 9.58109 5.22955 9.05049 5.05059C8.53558 4.85593 8.03481 4.76645 7.56543 4.76645C7.29228 4.76645 7.005 4.79627 6.71616 4.85593C6.42888 4.91558 6.15573 5.02076 5.89828 5.16989C5.64082 5.3049 5.4289 5.46816 5.26093 5.69264C5.09453 5.91713 5.01917 6.18557 5.01917 6.49954C5.01917 7.00816 5.21697 7.39591 5.5953 7.66592C5.98933 7.93436 6.4744 8.17454 7.05053 8.3535C7.64235 8.54816 8.29383 8.74282 8.96101 8.92178C9.64388 9.11644 10.264 9.38488 10.8558 9.72867C11.4476 10.0725 11.9468 10.5513 12.3408 11.1337C12.7349 11.7161 12.917 12.5088 12.917 13.4963C12.917 14.4381 12.7349 15.2607 12.3864 15.9624C12.0379 16.6657 11.5528 17.2481 10.9311 17.7112C10.3393 18.1743 9.62818 18.5181 8.82443 18.7426C8.03638 18.9671 7.1871 19.0723 6.308 19.0723C5.18558 19.0723 4.15577 18.9074 3.20131 18.5637C2.24686 18.234 1.35206 17.6814 0.53418 16.9342L3.23271 14.019C3.62674 14.5276 4.11181 14.9311 4.68794 15.2152C5.27977 15.4837 5.89985 15.6187 6.5372 15.6187C6.84017 15.6187 7.15885 15.5888 7.46182 15.5292C7.7805 15.4538 8.06778 15.3345 8.3111 15.2011C8.56855 15.0519 8.76635 14.873 8.91705 14.6485C9.08345 14.424 9.15881 14.1556 9.15881 13.8557C9.15881 13.3471 8.96101 12.9437 8.55285 12.6595C8.15883 12.3613 7.67375 12.107 7.0678 11.8966C6.47597 11.6878 5.82449 11.4775 5.12749 11.2687C4.43049 11.0599 3.77901 10.7757 3.18719 10.432C2.59536 10.0882 2.08046 9.62506 1.68643 9.04108C1.29241 8.47281 1.11031 7.70987 1.11031 6.76955C1.11031 5.85748 1.29241 5.06471 1.64091 4.37713C2.01924 3.68955 2.50431 3.12127 3.09614 2.65817C3.71779 2.19507 4.41479 1.85128 5.20284 1.6268C5.9909 1.38818 6.81035 1.2673 7.65805 1.2673C8.62821 1.2673 9.56853 1.40231 10.4775 1.67075C11.3864 1.93919 12.2058 2.40386 12.9327 3.03179L10.3079 5.8873Z" fill="#F9F9F9"/>
<path d="M61.77 7.05208H65.4073V8.92017H65.4528C65.8469 8.20276 66.3021 7.66431 66.8327 7.32052C67.3633 6.9469 68.0305 6.76794 68.8484 6.76794C69.0603 6.76794 69.2722 6.78364 69.4857 6.79777C69.6976 6.81347 69.8954 6.8433 70.0618 6.88725V10.1603C69.8044 10.085 69.5469 10.0253 69.2895 9.99551C69.0462 9.94998 68.7887 9.92015 68.5171 9.92015C67.8201 9.92015 67.2738 10.0096 66.8641 10.2043C66.4544 10.399 66.1514 10.6674 65.9238 11.0112C65.7119 11.3393 65.5753 11.7584 65.5141 12.2372C65.4528 12.716 65.423 13.2388 65.423 13.8212V18.6798H61.7857L61.77 7.05208Z" fill="#F9F9F9"/>
<path d="M79.4747 12.8683C79.4747 13.7505 79.2172 14.4523 78.7164 14.9907C78.2015 15.5292 77.4731 15.7976 76.5642 15.7976C75.6553 15.7976 74.9269 15.5292 74.4277 14.9907C73.9128 14.4523 73.6553 13.7348 73.6553 12.8683C73.6553 11.9861 73.9128 11.2843 74.4277 10.7459C74.9284 10.2074 75.6396 9.93901 76.5642 9.93901C77.4888 9.93901 78.2015 10.2074 78.7164 10.7459C79.2313 11.2843 79.4747 11.9861 79.4747 12.8683ZM83.1277 7.02227H79.4904V8.29226H79.4448C79.021 7.73968 78.4904 7.35036 77.8373 7.12588C77.1702 6.88727 76.4575 6.76639 75.6992 6.76639C74.8657 6.76639 74.1074 6.94535 73.4403 7.28914C72.7731 7.61723 72.2126 8.0819 71.7731 8.65018C71.3037 9.21846 70.9552 9.89034 70.7119 10.6391C70.4544 11.3723 70.3179 12.1493 70.3179 12.9562C70.3179 13.8385 70.4544 14.6453 70.7276 15.3785C71.0007 16.1116 71.3948 16.7536 71.9097 17.2921C72.4104 17.8148 73.0164 18.234 73.7291 18.5322C74.4418 18.8164 75.2299 18.9655 76.109 18.9655C76.5328 18.9655 76.9268 18.9059 77.291 18.8007C77.6694 18.6955 78.0037 18.5464 78.3365 18.3674C78.6395 18.1884 78.9127 17.9938 79.1544 17.7991C79.382 17.5746 79.5642 17.3659 79.7149 17.1571H79.7604V18.6814H83.1104L83.1277 7.02227Z" fill="#F9F9F9"/>
<path d="M83.6423 2.38818C83.6423 2.56714 83.6721 2.74767 83.749 2.91094C83.8244 3.07577 83.9154 3.2249 84.0363 3.34421C84.1572 3.46351 84.2938 3.56869 84.4602 3.64247C84.6266 3.71783 84.793 3.74765 84.9751 3.74765C85.1572 3.74765 85.3236 3.71783 85.49 3.64247C85.6564 3.56712 85.7929 3.47764 85.9138 3.34421C86.0347 3.2249 86.1257 3.07577 86.2011 2.91094C86.2764 2.7461 86.3078 2.56714 86.3078 2.38818C86.3078 2.20922 86.278 2.02869 86.2011 1.86543C86.1257 1.7006 86.0347 1.55147 85.9138 1.43216C85.7929 1.31285 85.6564 1.20767 85.49 1.14802C85.3236 1.07267 85.1572 1.04284 84.9751 1.04284C84.793 1.04284 84.6266 1.07267 84.4602 1.14802C84.2938 1.22337 84.1572 1.31285 84.0363 1.43216C83.9154 1.55147 83.8244 1.7006 83.749 1.86543C83.6737 2.03026 83.6423 2.20922 83.6423 2.38818ZM83.1431 2.38818C83.1431 2.13387 83.1886 1.90938 83.2796 1.7006C83.3707 1.47611 83.5073 1.29715 83.6737 1.13232C83.8401 0.96749 84.0379 0.834055 84.2498 0.743005C84.4774 0.653525 84.705 0.593872 84.9625 0.593872C85.22 0.593872 85.4476 0.639397 85.6595 0.743005C85.8871 0.832485 86.0692 0.96749 86.2356 1.13232C86.402 1.29715 86.5386 1.47611 86.6297 1.7006C86.7207 1.90938 86.7819 2.14957 86.7819 2.38818C86.7819 2.6268 86.7364 2.86698 86.6297 3.09146C86.5386 3.30025 86.402 3.49491 86.2356 3.65974C86.0692 3.82457 85.8871 3.94388 85.6595 4.04906C85.4476 4.13854 85.2043 4.18406 84.9625 4.18406C84.7207 4.18406 84.4774 4.13854 84.2498 4.04906C84.0379 3.95958 83.8401 3.82457 83.6737 3.65974C83.5073 3.49491 83.3864 3.30025 83.2796 3.09146C83.1886 2.86698 83.1431 2.64249 83.1431 2.38818ZM84.749 2.20922H84.9468C84.9766 2.20922 85.008 2.20922 85.0378 2.20922C85.0677 2.20922 85.1132 2.19352 85.1289 2.1794C85.1587 2.1637 85.1901 2.14957 85.2042 2.11974C85.2199 2.08992 85.2341 2.04439 85.2341 2.00044C85.2341 1.95491 85.2184 1.91096 85.2042 1.89526C85.1886 1.86543 85.1587 1.84973 85.1289 1.8356C85.0991 1.8199 85.0677 1.81991 85.0378 1.80578C85.008 1.80578 84.9766 1.80578 84.9468 1.80578H84.749V2.20922ZM84.2639 1.43216H84.9468C84.9923 1.43216 85.0677 1.43216 85.1587 1.44786C85.2498 1.46355 85.3408 1.47768 85.4319 1.52321C85.5229 1.56873 85.5983 1.62839 85.6595 1.70217C85.7207 1.77752 85.7505 1.89683 85.7505 2.04596C85.7505 2.13544 85.7349 2.22492 85.705 2.28457C85.6752 2.34423 85.6438 2.40388 85.5983 2.43371C85.5528 2.47923 85.5072 2.50906 85.4617 2.52319C85.4162 2.53889 85.355 2.55302 85.2953 2.56871L85.7804 3.31595H85.2655L84.8259 2.59854H84.7506V3.31595H84.2498L84.2639 1.43216Z" fill="#F9F9F9"/>
</svg>
