<svg width="114" height="54" viewBox="0 0 114 54" fill="none" xmlns="http://www.w3.org/2000/svg">
<g clip-path="url(#clip0_601_420)">
<path d="M0 0C37.62 0 75.24 0 114 0C114 17.7328 114 35.4655 114 53.7357C76.38 53.7357 38.76 53.7357 0 53.7357C0 36.0029 0 18.2701 0 0ZM3.87241 3.85168C3.87241 19.0733 3.87241 34.295 3.87241 49.9779C19.176 49.9779 34.4796 49.9779 50.2469 49.9779C50.2469 34.7563 50.2469 19.5346 50.2469 3.85168C34.9433 3.85168 19.6397 3.85168 3.87241 3.85168ZM54.2138 3.85168C54.2138 19.0733 54.2138 34.295 54.2138 49.9779C72.6653 49.9779 91.1169 49.9779 110.128 49.9779C110.128 34.7563 110.128 19.5346 110.128 3.85168C91.676 3.85168 73.2245 3.85168 54.2138 3.85168Z" fill="#F9F9F9"/>
<path d="M29.94 11.931C30.0085 11.9511 30.0771 11.9713 30.1477 11.992C32.6003 12.7336 34.9335 14.3174 36.2681 16.5342C36.3297 16.6333 36.3913 16.7323 36.4548 16.8344C37.2336 18.1154 37.9257 19.6225 37.9966 21.1334C37.9924 21.967 37.9924 21.967 38.3663 22.6615C38.6284 22.7982 38.6284 22.7982 38.9112 22.9007C40.0415 23.3595 40.7719 24.5734 41.2492 25.6269C41.5124 26.2933 41.5869 26.8581 41.5808 27.5667C41.5816 27.6515 41.5823 27.7364 41.5831 27.8238C41.5785 29.3786 40.8775 30.6992 39.8276 31.8235C38.8834 32.7057 37.6846 33.2721 36.3852 33.2611C36.2748 33.2604 36.1644 33.2597 36.0506 33.259C35.9245 33.2576 35.9245 33.2576 35.7958 33.2562C35.7957 33.1987 35.7956 33.1413 35.7954 33.0821C35.7919 31.6766 35.7863 30.2711 35.7785 28.8656C35.7747 28.1859 35.7717 27.5062 35.7702 26.8264C35.769 26.2331 35.7664 25.6397 35.7623 25.0464C35.7602 24.733 35.7589 24.4197 35.7588 24.1063C35.7569 21.121 35.2046 18.5159 33.0443 16.3225C31.1822 14.5486 28.8301 13.836 26.2941 13.8722C24.0157 13.9543 21.8318 15.0912 20.2711 16.7159C18.7876 18.3886 18.0328 20.4382 18.0182 22.6506C18.0171 22.7637 18.016 22.8769 18.0149 22.9934C18.0116 23.3669 18.0091 23.7404 18.0069 24.1139C18.0066 24.1778 18.0062 24.2416 18.0058 24.3074C18.0024 24.9114 17.9994 25.5154 17.9974 26.1194C17.9948 26.8874 17.99 27.6554 17.9822 28.4235C17.9769 28.966 17.9742 29.5084 17.9734 30.0509C17.9728 30.3737 17.9711 30.6964 17.9666 31.0191C17.9493 32.4387 17.9465 33.6133 18.7006 34.8532C18.7622 34.9573 18.8239 35.0613 18.8874 35.1685C20.0526 37.0615 22.0033 38.5298 24.1786 39.0807C24.4246 39.1096 24.4246 39.1096 24.6508 39.0807C24.8126 38.9285 24.9693 38.771 25.1231 38.6109C25.9242 38.0556 26.61 37.9333 27.5788 38.0473C27.9319 38.1577 28.218 38.3108 28.5233 38.517C28.609 38.5693 28.6947 38.6216 28.783 38.6755C29.3844 39.2903 29.6886 39.9691 29.6773 40.8182C29.6029 41.6657 29.2611 42.3239 28.6413 42.903C27.986 43.4435 27.4051 43.5517 26.5568 43.5283C25.7837 43.4452 25.1573 43.0406 24.6508 42.4626C24.5829 42.3083 24.5193 42.1521 24.4597 41.9944C24.2642 41.5921 24.1092 41.4455 23.6864 41.2935C23.4933 41.2377 23.2991 41.1853 23.1042 41.1357C22.8986 41.0752 22.6932 41.0138 22.4881 40.9514C22.3888 40.9216 22.2895 40.8917 22.1871 40.8609C19.6069 40.0243 17.5105 37.7571 16.3039 35.4169C15.9094 34.6202 15.4893 33.6832 15.4893 32.7864C15.4372 32.7769 15.3851 32.7673 15.3314 32.7574C14.1743 32.4157 13.3186 31.3951 12.7344 30.4015C12.0114 29.0391 11.8553 27.5106 12.278 26.0225C12.6777 24.8059 13.4039 23.7718 14.4504 23.0163C14.6368 22.9445 14.8237 22.8741 15.0111 22.8049C15.2936 22.6641 15.4517 22.5619 15.5561 22.2588C15.6624 21.7529 15.7012 21.2394 15.7462 20.7253C15.9582 18.7585 17.0461 16.8844 18.3228 15.4069C18.3748 15.3427 18.4267 15.2785 18.4803 15.2124C19.868 13.5403 21.93 12.4507 23.9897 11.837C24.0954 11.805 24.2011 11.7729 24.3099 11.7398C26.1035 11.2938 28.1764 11.4042 29.94 11.931Z" fill="#F9F9F9"/>
<path fill-rule="evenodd" clip-rule="evenodd" d="M81.8698 14.9615C81.8055 14.9125 81.7228 14.8876 81.5566 14.8374C81.3504 14.8411 81.2728 14.8424 81.2048 14.8686C81.1637 14.8844 81.1262 14.9092 81.066 14.9489C81.0098 15.0292 80.9792 15.0729 80.9591 15.121C80.9352 15.1785 80.9263 15.2421 80.9067 15.3818L80.906 15.6959C80.9046 15.8781 80.9034 16.0602 80.9041 16.2424C80.9047 16.3727 80.905 16.5031 80.9048 16.6334C80.904 16.9052 80.9037 17.1769 80.9047 17.4487C80.9064 17.8022 80.9074 18.1556 80.9058 18.5091C80.9044 18.7849 80.9038 19.0607 80.9042 19.3364C80.9046 19.468 80.9049 19.5997 80.9051 19.7313C80.9044 19.8597 80.9038 19.9881 80.9033 20.1165L80.906 20.4727C80.9064 20.6448 80.9066 20.7226 80.9126 20.8C80.9175 20.8639 80.9264 20.9274 80.9427 21.0435C81.0723 21.2176 81.0723 21.2176 81.226 21.3254C81.5225 21.3783 81.6485 21.3593 81.8979 21.1892C81.9866 21.0699 82.0398 20.9984 82.0732 20.9185C82.1233 20.7989 82.1289 20.6607 82.1429 20.3155L82.1469 20.0806C82.1524 19.9255 82.1578 19.7704 82.1631 19.6153L82.1705 19.2586C82.4265 19.5196 82.6662 19.6834 82.9962 19.8421C83.6043 20.0535 84.2399 19.9295 84.8092 19.6638C85.4746 19.3175 85.7423 18.8212 85.9743 18.1317C86.1506 17.4069 86.1466 16.6259 85.7596 15.9706C85.3951 15.4489 84.9762 15.0052 84.3429 14.8433C84.3024 14.84 84.2615 14.8365 84.2201 14.8329C83.6903 14.7875 83.0931 14.7362 82.6594 15.0697L82.4834 15.2249L82.3052 15.3809L82.1705 15.5009L82.0702 15.2249C81.9792 15.0819 81.9334 15.01 81.8698 14.9615ZM84.8151 16.7219C84.6039 16.2614 84.3271 16.0051 83.8706 15.7824C83.2716 15.6887 82.8606 15.77 82.4152 16.1898C82.0355 16.6211 82.0287 17.022 82.041 17.5798C82.0976 18.0144 82.2239 18.3299 82.5483 18.6301C82.9045 18.917 83.1975 18.9498 83.6474 18.9185C84.1222 18.842 84.3564 18.6982 84.6616 18.3306C84.9168 17.8306 84.8841 17.2653 84.8151 16.7219Z" fill="#F9F9F9"/>
<path fill-rule="evenodd" clip-rule="evenodd" d="M77.537 35.6108C77.354 35.3231 77.354 35.3231 77.0234 35.2233C76.8172 35.2269 76.7396 35.2283 76.6716 35.2545C76.6305 35.2702 76.593 35.295 76.5328 35.3347C76.4766 35.4151 76.446 35.4588 76.4259 35.5069C76.402 35.5643 76.3931 35.628 76.3735 35.7676L76.3728 36.0818C76.3714 36.2639 76.3701 36.4461 76.3709 36.6282C76.3715 36.7586 76.3718 36.8889 76.3716 37.0192C76.3708 37.291 76.3705 37.5627 76.3715 37.8345C76.3732 38.188 76.3742 38.5415 76.3725 38.895C76.3712 39.1708 76.3706 39.4465 76.371 39.7223C76.3714 39.8539 76.3717 39.9855 76.3719 40.1171C76.3712 40.2455 76.3706 40.3739 76.3701 40.5023L76.3728 40.8586C76.3735 41.1727 76.3735 41.1727 76.4095 41.4294C76.4789 41.5228 76.5111 41.5662 76.5497 41.6029C76.5832 41.6346 76.6215 41.6614 76.6928 41.7112C76.9601 41.7521 77.117 41.732 77.3647 41.625C77.4454 41.5364 77.4968 41.48 77.5305 41.4146C77.5894 41.3005 77.5948 41.1589 77.6097 40.7701L77.6137 40.5193C77.6217 40.2808 77.6296 40.0424 77.6346 39.8038L77.6373 39.6445C78.0317 39.9724 78.368 40.1768 78.8652 40.3021C79.6054 40.3919 80.1689 40.1813 80.7541 39.7384C81.2041 39.2909 81.4619 38.6962 81.5433 38.0717C81.5669 37.2817 81.433 36.5692 80.9253 35.9454C80.4963 35.5072 80.1228 35.2583 79.502 35.2005C78.8285 35.187 78.4123 35.221 77.8971 35.6636L77.6373 35.8867L77.537 35.6108ZM80.2819 37.1079C80.0707 36.6474 79.7938 36.3912 79.3374 36.1684C78.7368 36.0745 78.3326 36.159 77.8819 36.5725C77.554 36.9386 77.5092 37.2501 77.5016 37.7361C77.5126 38.2871 77.6088 38.6247 78.0092 39.0102C78.386 39.3206 78.7166 39.3344 79.1939 39.3045C79.659 39.2342 79.832 39.0759 80.1225 38.7167C80.3848 38.2173 80.3512 37.6535 80.2819 37.1079Z" fill="#F9F9F9"/>
<path fill-rule="evenodd" clip-rule="evenodd" d="M75.9371 15.5011C75.8294 15.1795 75.7284 15.0546 75.4649 14.8435C75.1964 14.7979 75.0634 14.7939 74.8389 14.9513C74.7795 15.031 74.7473 15.0742 74.7264 15.1223C74.7017 15.1792 74.6928 15.2429 74.6733 15.382L74.6726 15.6961C74.6712 15.8783 74.67 16.0604 74.6707 16.2426C74.6713 16.3729 74.6716 16.5032 74.6714 16.6336C74.6706 16.9053 74.6703 17.1771 74.6713 17.4489C74.673 17.8024 74.674 18.1558 74.6724 18.5093C74.671 18.7851 74.6704 19.0608 74.6708 19.3366C74.6712 19.4682 74.6715 19.5999 74.6717 19.7315C74.671 19.8599 74.6704 19.9883 74.6699 20.1167L74.6726 20.4729C74.673 20.645 74.6732 20.7228 74.6792 20.8002C74.6841 20.8641 74.693 20.9276 74.7093 21.0437C74.8389 21.2178 74.8389 21.2178 74.9926 21.3256C75.2891 21.3785 75.4151 21.3595 75.6645 21.1894C75.8861 20.8914 75.8861 20.8914 75.9095 20.3157L75.9135 20.0808C75.919 19.9257 75.9244 19.7706 75.9298 19.6155L75.9371 19.2588C76.3025 19.6308 76.6867 19.8796 77.2155 19.9469C77.9164 19.9605 78.3761 19.8396 78.9241 19.3939C79.5383 18.8138 79.7284 18.3306 79.7536 17.4964L79.7564 17.2684C79.7602 16.9887 79.7571 16.7174 79.7151 16.4405C79.411 15.7203 78.9389 15.1495 78.2039 14.8435C77.6268 14.7773 76.9112 14.6968 76.426 15.0699L76.25 15.2251L76.0718 15.3811L75.9371 15.5011ZM78.5817 16.7225C78.3677 16.2641 78.0931 16.0055 77.6372 15.7831C77.0616 15.6823 76.667 15.7664 76.2205 16.1588C75.8498 16.5373 75.8183 16.841 75.8132 17.3507C75.825 17.8867 75.8662 18.1944 76.2618 18.572C76.6494 18.9025 76.9289 18.9468 77.4295 18.9155C77.8415 18.8514 78.0293 18.723 78.2984 18.4135C78.6634 17.8948 78.6567 17.3324 78.5817 16.7225Z" fill="#F9F9F9"/>
<path fill-rule="evenodd" clip-rule="evenodd" d="M71.1032 35.3474C71.0389 35.2985 70.9562 35.2735 70.79 35.2233C70.5838 35.227 70.5062 35.2284 70.4382 35.2545C70.3971 35.2703 70.3596 35.2951 70.2994 35.3348C70.1761 35.511 70.1761 35.511 70.1401 35.7677L70.1394 36.0818C70.138 36.264 70.1368 36.4461 70.1375 36.6283C70.1381 36.7586 70.1384 36.889 70.1382 37.0193C70.1374 37.2911 70.1371 37.5628 70.1381 37.8346C70.1398 38.1881 70.1408 38.5415 70.1391 38.895C70.1378 39.1708 70.1372 39.4466 70.1376 39.7223C70.138 39.854 70.1383 39.9856 70.1385 40.1172C70.1378 40.2456 70.1372 40.374 70.1367 40.5024L70.1394 40.8586C70.1398 41.0307 70.14 41.1085 70.146 41.1859C70.1509 41.2498 70.1598 41.3134 70.1761 41.4295C70.3057 41.6035 70.3057 41.6035 70.4594 41.7113C70.7559 41.7642 70.8819 41.7452 71.1313 41.5751C71.3529 41.2771 71.3529 41.2771 71.3763 40.7014L71.3803 40.4665C71.3858 40.3114 71.3912 40.1563 71.3965 40.0012L71.4039 39.6445C71.7693 40.0165 72.1535 40.2653 72.6823 40.3326C73.5141 40.3488 73.9761 40.1284 74.6012 39.5939C75.0407 39.0931 75.2292 38.6119 75.2335 37.9473L75.2291 37.7187C75.2384 37.2414 75.2188 36.8504 75.0096 36.4141C74.669 35.81 74.15 35.4253 73.4818 35.2292C73.4364 35.226 73.3905 35.2225 73.3443 35.219C72.8439 35.1811 72.3032 35.14 71.8928 35.4556L71.7168 35.6108L71.5386 35.7668L71.4039 35.8868L71.3036 35.6108C71.2126 35.4678 71.1668 35.3959 71.1032 35.3474ZM74.0485 37.108C73.8345 36.6495 73.5599 36.3909 73.104 36.1685C72.5284 36.0678 72.1338 36.1519 71.6873 36.5443C71.3166 36.9228 71.2851 37.2265 71.28 37.7362C71.2917 38.2683 71.3325 38.5797 71.7227 38.9575C72.1238 39.2954 72.4385 39.3565 72.9572 39.3208C73.3507 39.2358 73.4999 39.1023 73.7652 38.7989C74.1381 38.292 74.1227 37.7116 74.0485 37.108Z" fill="#F9F9F9"/>
<path fill-rule="evenodd" clip-rule="evenodd" d="M92.1459 16.7234C91.901 15.9264 91.4068 15.3936 90.6768 15.0012C89.529 14.5208 88.3131 14.8333 87.4596 15.6882C87.0303 16.2999 86.8144 16.8751 86.8619 17.6232C86.9653 18.3757 87.3536 18.9583 87.9319 19.4459C88.6322 19.9207 89.2684 19.9972 90.1042 19.9156C90.8457 19.6698 91.3581 19.3471 91.8043 18.6943C92.1564 18.0527 92.286 17.4443 92.1459 16.7234ZM90.907 16.616C90.6729 16.196 90.3667 15.9506 89.9153 15.7823C89.2111 15.6862 88.8169 15.8495 88.3097 16.3459C88.0369 16.7439 87.9803 17.0807 88.0001 17.5514C88.0681 18.0798 88.3621 18.4478 88.7657 18.7764C89.1576 18.979 89.5815 18.936 90.0098 18.8824C90.4791 18.7268 90.7062 18.4283 90.9365 18.0017C91.104 17.4934 91.1162 17.1089 90.907 16.616Z" fill="#F9F9F9"/>
<path fill-rule="evenodd" clip-rule="evenodd" d="M73.6968 27.7944C73.7065 26.9055 73.4765 26.2222 72.8501 25.5702C71.6209 24.7628 70.2194 24.7027 69.1212 25.7412C68.6108 26.2932 68.4375 26.7538 68.4405 27.5078C68.4619 28.3134 68.6165 28.894 69.2079 29.4689L69.5148 29.6861C69.7589 29.8634 69.9783 29.98 70.2704 30.0619C71.1705 30.1298 71.9676 30.1306 72.7261 29.5922C73.2555 29.1107 73.6329 28.5128 73.6968 27.7944ZM72.4752 26.8619C72.2963 26.5051 72.0511 26.2628 71.6938 26.0828C71.2269 25.9374 70.7301 25.9634 70.2704 26.1158C69.8917 26.403 69.6419 26.6937 69.5532 27.1657C69.5357 27.7951 69.5787 28.2567 69.9871 28.7463C70.4366 29.1243 70.8287 29.1697 71.4038 29.122C71.8634 28.9696 72.1591 28.6935 72.4309 28.3059C72.5953 27.8245 72.6323 27.352 72.4752 26.8619Z" fill="#F9F9F9"/>
<path fill-rule="evenodd" clip-rule="evenodd" d="M66.5502 33.9643C66.3829 33.7674 66.2827 33.6494 66.0168 33.585C65.3559 33.604 65.2153 33.7765 64.9486 34.358L64.8691 34.5365C64.7798 34.7327 64.6907 34.929 64.6024 35.1257C64.54 35.2651 64.4773 35.4044 64.4145 35.5437C64.2865 35.8267 64.1587 36.1098 64.0315 36.3933L64.0041 36.4546C63.8925 36.7036 63.7809 36.9526 63.6684 37.2013C63.5411 37.4818 63.4139 37.7624 63.2874 38.0434L63.1513 38.3464C62.9986 38.6824 62.8465 39.0174 62.7144 39.3621C62.7044 39.4035 62.6944 39.4421 62.6849 39.4787C62.6238 39.7142 62.5849 39.8641 62.7203 40.1019C63.0037 40.2656 63.1483 40.278 63.47 40.2076C63.683 39.9833 63.8162 39.7365 63.9423 39.4561L64.2256 38.6106H67.4369C67.4667 38.6995 67.4944 38.7855 67.5214 38.8692C67.638 39.2305 67.7412 39.5506 67.9387 39.8847C68.1209 40.1596 68.1497 40.1983 68.4876 40.2722C68.7766 40.2035 68.8866 40.1757 69.0425 39.9258C69.0946 39.541 68.9775 39.2613 68.8183 38.9133C68.7504 38.7695 68.6833 38.6254 68.6168 38.4809L68.51 38.2483C68.3611 37.927 68.2148 37.6048 68.0713 37.2811C67.9264 36.9535 67.781 36.6261 67.6346 36.299C67.5608 36.1341 67.487 35.9691 67.4133 35.804C67.3014 35.551 67.1895 35.298 67.0764 35.0456L66.9691 34.8066C66.8501 34.5352 66.7317 34.2662 66.5869 34.0073C66.5743 33.9927 66.562 33.9782 66.5502 33.9643ZM65.9257 35.1348H65.7368C65.3516 35.9391 65.0113 36.7427 64.6978 37.5773H66.9646C66.9646 37.5507 66.9646 37.5316 66.9624 37.5127C66.9569 37.4652 66.9376 37.4192 66.8692 37.2571L66.7374 36.9604L66.5953 36.6403L66.4451 36.3032C66.2722 35.9136 66.0991 35.5241 65.9257 35.1348Z" fill="#F9F9F9"/>
<path d="M67.1531 13.7158C67.3265 13.8545 67.3265 13.8545 67.4365 13.9976C67.466 14.2853 67.466 14.2853 67.4365 14.5613C67.2476 14.7492 67.2476 14.7492 66.9583 14.7844C66.6177 14.7521 66.4818 14.7097 66.1909 14.5613C65.6767 14.3135 65.1648 14.3038 64.603 14.3734C64.3013 14.4885 64.3013 14.4885 64.1307 14.7492C64.0835 15.0231 64.0835 15.0231 64.1307 15.3128C64.592 15.8056 65.2694 15.908 65.8989 16.0813C66.6077 16.2892 67.1883 16.5628 67.6253 17.1741C67.8322 17.8298 67.7627 18.3702 67.4538 18.9825C67.122 19.5228 66.5195 19.7582 65.9253 19.9161C64.871 20.0475 63.8286 19.7964 62.9442 19.2045C62.8084 19.0706 62.8084 19.0706 62.6963 18.73C62.714 18.413 62.714 18.413 62.8084 18.2251C63.1167 18.0718 63.3309 18.1422 63.6585 18.2251C63.8503 18.3458 64.0394 18.4711 64.2252 18.6009C64.7913 18.8568 65.4251 18.879 66.0197 18.7065C66.2219 18.6045 66.2219 18.6045 66.3975 18.413C66.4204 18.2268 66.4204 18.2268 66.4093 18.0254C66.4054 17.9053 66.4015 17.7852 66.3975 17.6614C65.8474 17.3536 65.2928 17.1662 64.688 16.997C63.9664 16.7874 63.4426 16.4887 62.9973 15.8765C62.8263 15.366 62.7984 14.8291 62.9962 14.322C63.8841 12.8394 65.7979 12.9896 67.1531 13.7158Z" fill="#F9F9F9"/>
<path d="M69.7978 14.9372C70.0698 15.2077 70.0108 15.403 70.0126 15.7812C70.0145 15.915 70.0165 16.0488 70.0185 16.1827C70.0206 16.3933 70.0222 16.604 70.0227 16.8147C70.0236 17.0182 70.0268 17.2217 70.0303 17.4252C70.0311 17.547 70.0318 17.6688 70.0326 17.7943C70.0889 18.1851 70.2116 18.3899 70.459 18.6949C70.7484 18.8389 70.9895 18.8104 71.309 18.7889C71.7081 18.6175 71.8757 18.4219 72.0646 18.0373C72.1075 17.7151 72.1075 17.7151 72.103 17.3643C72.104 17.301 72.105 17.2377 72.1061 17.1725C72.1104 16.9032 72.1115 16.634 72.1129 16.3648C72.1144 16.1675 72.1175 15.9704 72.1207 15.7731C72.1214 15.6556 72.122 15.538 72.1227 15.4169C72.1591 15.1251 72.1591 15.1251 72.2821 14.9425C72.4424 14.8432 72.4424 14.8432 72.7789 14.8608C73.1036 14.9372 73.1036 14.9372 73.2925 15.1251C73.3171 15.3134 73.3171 15.3134 73.3184 15.5472C73.3198 15.6784 73.3198 15.6784 73.3211 15.8123C73.321 15.907 73.321 16.0018 73.3209 16.0994C73.3213 16.1964 73.3217 16.2935 73.3221 16.3935C73.3226 16.5991 73.3227 16.8046 73.3223 17.0102C73.322 17.3253 73.3242 17.6402 73.3266 17.9553C73.3268 18.1547 73.3269 18.3542 73.3268 18.5536C73.3276 18.6482 73.3285 18.7427 73.3294 18.8401C73.3288 18.9279 73.3282 19.0157 73.3276 19.1061C73.3277 19.1833 73.3277 19.2606 73.3278 19.3402C73.2838 19.5896 73.2119 19.6726 73.0091 19.8222C72.7082 19.8597 72.5253 19.8791 72.2712 19.7048C72.1484 19.5248 72.1016 19.3779 72.0646 19.1646C71.9984 19.2363 71.9322 19.308 71.8639 19.3819C71.4484 19.7683 71.1208 19.932 70.5534 19.9514C69.9808 19.9309 69.6584 19.7808 69.2548 19.3701C68.8798 18.8418 68.8242 18.3561 68.8249 17.7221C68.8245 17.6485 68.8241 17.5749 68.8237 17.4991C68.8232 17.3444 68.8231 17.1897 68.8235 17.0351C68.8238 16.7982 68.8216 16.5614 68.8192 16.3245C68.819 16.1739 68.8189 16.0232 68.819 15.8726C68.8182 15.8018 68.8173 15.7311 68.8164 15.6582C68.8189 15.3784 68.8208 15.1751 68.9761 14.9363C69.254 14.7752 69.498 14.8667 69.7978 14.9372Z" fill="#F9F9F9"/>
<path d="M63.375 23.486C63.708 23.7823 63.9676 24.1027 64.2206 24.4676C64.2868 24.5627 64.3531 24.6579 64.4213 24.7559C64.489 24.8541 64.5567 24.9524 64.6264 25.0537C64.6956 25.153 64.7647 25.2524 64.836 25.3548C65.3426 26.085 65.3426 26.085 65.4529 26.3043C65.9942 25.6283 66.4914 24.9277 66.9819 24.2148C67.066 24.0938 67.066 24.0938 67.1518 23.9704C67.202 23.8975 67.2522 23.8247 67.304 23.7497C67.4363 23.5799 67.4363 23.5799 67.6252 23.486C68.1247 23.4437 68.1247 23.4437 68.369 23.5975C68.5125 23.8276 68.4994 23.9695 68.4752 24.2375C68.3703 24.4324 68.3703 24.4324 68.2225 24.6243C68.1681 24.696 68.1137 24.7677 68.0577 24.8416C67.9987 24.9174 67.9398 24.9932 67.879 25.0713C67.8195 25.1511 67.76 25.2309 67.6987 25.3131C67.4247 25.6791 67.1481 26.0345 66.8371 26.3703C66.1005 27.1964 66.006 27.8912 66.0333 28.992C66.0357 29.0898 66.0381 29.1877 66.0406 29.2885C66.0452 29.3764 66.0498 29.4644 66.0546 29.555C66.0196 29.7802 66.0196 29.7802 65.8445 29.9526C65.6418 30.062 65.6418 30.062 65.3997 30.0503C65.1464 29.9599 65.0484 29.8974 64.8862 29.6863C64.8633 29.4625 64.8633 29.4625 64.8777 29.1978C64.9145 27.8078 64.7716 27.0395 63.8217 26.0178C63.5282 25.6886 63.2763 25.3301 63.0208 24.9715C62.9712 24.905 62.9216 24.8385 62.8705 24.77C62.5344 24.3053 62.5344 24.3053 62.4873 23.9674C62.5249 23.7678 62.5249 23.7678 62.6312 23.5975C62.8989 23.4289 63.0642 23.4365 63.375 23.486Z" fill="#F9F9F9"/>
<path d="M75.3236 25.0596C75.6541 25.0831 75.6541 25.0831 75.843 25.2709C75.8687 25.5405 75.8687 25.5405 75.8722 25.8827C75.8746 26.0063 75.8769 26.1298 75.8794 26.2572C75.8821 26.4534 75.8843 26.6496 75.8861 26.8458C75.8882 27.0356 75.8919 27.2254 75.8958 27.4151C75.8971 27.5286 75.8983 27.642 75.8996 27.7589C75.9445 28.1508 76.0374 28.3978 76.2208 28.7469C76.6008 28.9988 76.9077 28.9994 77.3542 28.9347C77.6847 28.7362 77.7987 28.6419 77.9209 28.2771C77.9319 28.0591 77.9378 27.8408 77.9408 27.6225C77.9435 27.4919 77.9462 27.3614 77.949 27.2309C77.9529 27.0256 77.9563 26.8203 77.9588 26.6149C77.9614 26.4164 77.9658 26.218 77.9704 26.0196C77.9722 25.9008 77.9741 25.7821 77.976 25.6597C78.0154 25.3649 78.0154 25.3649 78.1421 25.1849C78.3856 25.0266 78.5823 25.0537 78.8654 25.0831C78.9589 25.1451 79.0524 25.2071 79.1488 25.2709C79.1847 25.4628 79.1847 25.4628 79.1854 25.7017C79.1863 25.7911 79.1872 25.8805 79.1881 25.9725C79.1876 26.0693 79.187 26.1661 79.1864 26.2658C79.1867 26.3649 79.1869 26.4641 79.1872 26.5663C79.1874 26.7762 79.1869 26.9862 79.1857 27.1962C79.1842 27.5181 79.1857 27.8399 79.1875 28.1617C79.1873 28.3655 79.1869 28.5692 79.1864 28.7729C79.1872 28.9178 79.1872 28.9178 79.1881 29.0656C79.1872 29.1553 79.1863 29.2449 79.1854 29.3373C79.1852 29.4162 79.185 29.4951 79.1847 29.5764C79.1405 29.8269 79.0665 29.9093 78.8654 30.0621C78.6411 30.1149 78.6411 30.1149 78.3932 30.0621C78.2068 29.8878 78.0729 29.7057 77.9209 29.4984C77.8157 29.5856 77.8157 29.5856 77.7084 29.6745C77.1143 30.1312 76.5817 30.1353 75.843 30.0621C75.3734 29.849 75.1534 29.5638 74.8985 29.1226C74.7771 28.7603 74.7888 28.4167 74.7882 28.039C74.7879 27.9606 74.7876 27.8822 74.7873 27.8014C74.7868 27.6358 74.7866 27.4702 74.7866 27.3047C74.7864 27.0506 74.7847 26.7967 74.7829 26.5427C74.7826 26.3819 74.7824 26.2211 74.7823 26.0603C74.7817 25.9841 74.781 25.9078 74.7803 25.8293C74.7833 25.098 74.7833 25.098 75.3236 25.0596Z" fill="#F9F9F9"/>
<path d="M98.227 13.5278C98.3853 13.6346 98.3853 13.6346 98.5104 13.8097C98.538 14.0838 98.538 14.0838 98.5281 14.3909C98.5255 14.493 98.5229 14.5951 98.5203 14.7003C98.517 14.7784 98.5137 14.8565 98.5104 14.937C98.59 14.9348 98.6696 14.9326 98.7516 14.9304C98.9069 14.9278 98.9069 14.9278 99.0652 14.9252C99.2197 14.922 99.2197 14.922 99.3774 14.9186C99.6437 14.937 99.6437 14.937 99.8326 15.1249C99.8622 15.4067 99.8622 15.4067 99.8326 15.6885C99.5095 15.9028 99.3904 15.897 99.0121 15.8882C98.8713 15.8856 98.8713 15.8856 98.7277 15.883C98.6559 15.8808 98.5842 15.8787 98.5104 15.8764C98.5192 16.261 98.5292 16.6455 98.5403 17.0301C98.5439 17.1609 98.5472 17.2918 98.5502 17.4226C98.5545 17.6106 98.5601 17.7985 98.5657 17.9865C98.5701 18.1562 98.5701 18.1562 98.5747 18.3294C98.5773 18.6126 98.5773 18.6126 98.7937 18.7887C98.9956 18.8249 98.9956 18.8249 99.2187 18.8356C99.6228 18.8617 99.6228 18.8617 99.8326 19.0705C99.8681 19.2995 99.8681 19.2995 99.8326 19.5402C99.5258 19.8349 99.2461 19.9097 98.8232 19.9454C98.3887 19.9374 97.9899 19.8303 97.6603 19.5402C97.4132 19.0588 97.3426 18.7097 97.3493 18.1608C97.3497 18.095 97.3501 18.0292 97.3505 17.9614C97.3521 17.7537 97.3556 17.5461 97.3593 17.3384C97.3607 17.1966 97.362 17.0548 97.3631 16.9129C97.3662 16.5674 97.3711 16.2219 97.377 15.8764C97.19 15.8454 97.0029 15.8144 96.8103 15.7825C96.7512 15.4654 96.7512 15.4654 96.7158 15.1249C96.9047 14.937 96.9047 14.937 97.1526 14.9252C97.2267 14.9291 97.3007 14.933 97.377 14.937C97.3737 14.8589 97.3704 14.7808 97.367 14.7003C97.3644 14.5982 97.3619 14.4961 97.3593 14.3909C97.356 14.2896 97.3527 14.1882 97.3493 14.0838C97.377 13.8097 97.377 13.8097 97.502 13.6346C97.7485 13.4684 97.9378 13.4919 98.227 13.5278Z" fill="#F9F9F9"/>
<path d="M81.4153 25.0832C81.655 25.2394 81.6922 25.34 81.7636 25.6175C81.7733 25.6892 81.7831 25.7609 81.7931 25.8347C81.8318 25.7883 81.8705 25.742 81.9104 25.6942C81.9613 25.634 82.0122 25.5738 82.0646 25.5118C82.1151 25.4518 82.1655 25.3919 82.2174 25.3301C82.3827 25.1525 82.4828 25.089 82.7258 25.0674C82.792 25.0668 82.8583 25.0662 82.9265 25.0656C83.0258 25.0636 83.0258 25.0636 83.1272 25.0615C83.3043 25.0832 83.3043 25.0832 83.4932 25.2711C83.5463 25.7678 83.5463 25.7678 83.3759 25.9826C83.1882 26.134 83.0161 26.2072 82.7907 26.2927C82.3197 26.4935 82.0917 26.718 81.8805 27.1877C81.7289 27.774 81.7591 28.3789 81.7562 28.9816C81.754 29.0799 81.7518 29.1782 81.7496 29.2794C81.7488 29.3688 81.748 29.4582 81.7472 29.5503C81.6987 29.7803 81.6987 29.7803 81.525 29.9533C81.3209 30.0622 81.3209 30.0622 81.0257 30.0504C80.7542 29.9682 80.7542 29.9682 80.5653 29.6864C80.5406 29.4904 80.5406 29.4904 80.5393 29.2622C80.5384 29.1766 80.5375 29.091 80.5366 29.0028C80.5367 28.9107 80.5368 28.8185 80.5369 28.7235C80.5365 28.6286 80.536 28.5338 80.5356 28.4361C80.5351 28.2355 80.535 28.0349 80.5355 27.8343C80.5358 27.5269 80.5335 27.2196 80.5311 26.9121C80.5309 26.7174 80.5309 26.5227 80.531 26.3279C80.5301 26.2357 80.5292 26.1436 80.5283 26.0486C80.5289 25.963 80.5295 25.8774 80.5301 25.7892C80.53 25.7139 80.53 25.6386 80.5299 25.5611C80.6192 25.0657 80.9671 25.0274 81.4153 25.0832Z" fill="#F9F9F9"/>
<path d="M93.9297 14.8316C94.2602 14.9372 94.2602 14.9372 94.3661 15.091C94.4432 15.2719 94.4432 15.2719 94.5436 15.5949C94.6157 15.5057 94.6877 15.4166 94.762 15.3248C94.936 15.1095 95.0601 15.0019 95.2992 14.8433C95.6319 14.8081 95.8044 14.8047 96.0902 14.9842C96.2437 15.1251 96.2437 15.1251 96.2673 15.4187C96.2437 15.6018 96.2437 15.6018 96.1492 15.7827C95.8763 15.9437 95.6027 16.06 95.3065 16.1728C94.9045 16.4128 94.7073 16.6606 94.5436 17.0979C94.4836 17.5155 94.4817 17.9273 94.4845 18.3486C94.4845 18.5674 94.4834 18.7863 94.4809 19.0051C94.4817 19.1492 94.4817 19.1492 94.4825 19.2962C94.4491 19.5405 94.4491 19.5405 94.3232 19.7127C94.0781 19.8834 93.8893 19.8584 93.5991 19.8223C93.3969 19.6729 93.3246 19.5896 93.2798 19.3409C93.2794 19.2254 93.2794 19.2254 93.2791 19.1076C93.2782 19.0202 93.2773 18.9327 93.2764 18.8426C93.2769 18.7483 93.2775 18.6541 93.2781 18.557C93.2778 18.4601 93.2776 18.3631 93.2773 18.2633C93.2771 18.0583 93.2776 17.8533 93.2788 17.6483C93.2803 17.334 93.2788 17.0199 93.277 16.7057C93.2772 16.5066 93.2775 16.3076 93.2781 16.1086C93.2775 16.0144 93.277 15.9201 93.2764 15.823C93.2773 15.7356 93.2782 15.6481 93.2791 15.558C93.2793 15.481 93.2795 15.404 93.2798 15.3248C93.3526 14.9204 93.5345 14.8456 93.9297 14.8316Z" fill="#F9F9F9"/>
<path d="M66.4922 18.6943C66.4922 18.7563 66.4922 18.8183 66.4922 18.8822C66.5546 18.8822 66.6169 18.8822 66.6811 18.8822C66.8191 19.1309 66.87 19.2481 66.87 19.5398C66.2322 19.9023 65.6056 19.8484 64.8866 19.8217C64.9178 19.6977 64.9489 19.5736 64.981 19.4459C64.8252 19.4149 64.6694 19.3839 64.5088 19.3519C64.54 19.2899 64.5711 19.2279 64.6032 19.1641C64.6967 19.1641 64.7902 19.1641 64.8866 19.1641C64.9178 19.071 64.9489 18.978 64.981 18.8822C65.162 18.8505 65.343 18.8193 65.5241 18.7883C65.6249 18.7708 65.7257 18.7534 65.8296 18.7354C66.1144 18.6943 66.1144 18.6943 66.4922 18.6943Z" fill="#F9F9F9"/>
<path d="M95.8654 14.8433C96.0897 14.9842 96.0897 14.9842 96.2432 15.1251C96.2763 15.5373 96.2763 15.5373 96.1487 15.7828C95.7907 16.0168 95.4068 16.176 95.0153 16.3464C94.9218 16.4084 94.8283 16.4704 94.732 16.5343C94.732 16.4723 94.732 16.4103 94.732 16.3464C94.6696 16.3154 94.6073 16.2844 94.5431 16.2525C94.5742 16.1905 94.6054 16.1285 94.6375 16.0646C94.5752 16.0646 94.5129 16.0646 94.4486 16.0646C94.309 15.7868 94.3485 15.5251 94.3542 15.2191C94.4165 15.3431 94.4789 15.4671 94.5431 15.5949C94.6152 15.5057 94.6872 15.4166 94.7615 15.3248C95.0871 14.9221 95.3392 14.7899 95.8654 14.8433Z" fill="#F9F9F9"/>
<path d="M63.6584 18.2253C63.7519 18.2873 63.8454 18.3493 63.9417 18.4132C63.9417 18.4752 63.9417 18.5372 63.9417 18.6011C63.8482 18.6011 63.7547 18.6011 63.6584 18.6011C63.6895 18.6941 63.7207 18.7871 63.7528 18.8829C63.5816 18.9827 63.5816 18.9827 63.375 19.0708C63.2815 19.0398 63.188 19.0088 63.0917 18.9769C62.9659 18.9447 62.8401 18.9132 62.7139 18.8829C62.738 18.6628 62.7698 18.4434 62.8083 18.2253C63.1029 18.0788 63.3424 18.1647 63.6584 18.2253Z" fill="#F9F9F9"/>
<path d="M77.8258 28.5586C77.8881 28.6516 77.9504 28.7446 78.0147 28.8404C77.9835 28.9334 77.9523 29.0264 77.9202 29.1223C78.0137 29.1843 78.1072 29.2463 78.2036 29.3101C78.1412 29.4341 78.0789 29.5582 78.0147 29.6859C77.9835 29.6239 77.9523 29.5619 77.9202 29.498C77.8267 29.591 77.7332 29.684 77.6369 29.7799C77.4539 29.7094 77.4539 29.7094 77.2591 29.592C77.1882 29.3923 77.1882 29.3923 77.1646 29.2162C77.0088 29.1852 76.8529 29.1542 76.6924 29.1223C76.6924 29.0913 76.6924 29.0603 76.6924 29.0283C76.7795 29.0129 76.7795 29.0129 76.8684 28.9971C76.9447 28.9822 77.021 28.9673 77.0997 28.952C77.1753 28.9378 77.2509 28.9236 77.3288 28.909C77.5646 28.8333 77.6675 28.7446 77.8258 28.5586Z" fill="#F9F9F9"/>
<path d="M77.826 38.7988C77.9819 38.9538 78.1377 39.1088 78.2983 39.2685C78.2048 39.2995 78.1113 39.3305 78.0149 39.3625C78.0149 39.4555 78.0149 39.5485 78.0149 39.6443C78.1396 39.7063 78.2643 39.7683 78.3927 39.8322C78.3927 39.9252 78.3927 40.0182 78.3927 40.114C78.0484 39.9937 77.9047 39.9105 77.6371 39.6443C77.606 40.2333 77.5748 40.8224 77.5427 41.4292C77.5115 41.4292 77.4804 41.4292 77.4482 41.4292C77.4482 40.7782 77.4482 40.1272 77.4482 39.4564C77.5417 39.4564 77.6353 39.4564 77.7316 39.4564C77.7004 39.3014 77.6693 39.1464 77.6371 38.9867C77.6995 38.9867 77.7618 38.9867 77.826 38.9867C77.826 38.9247 77.826 38.8627 77.826 38.7988Z" fill="#F9F9F9"/>
<path d="M63.3755 23.4855C63.4379 23.5475 63.5002 23.6095 63.5644 23.6733C63.4709 23.6733 63.3774 23.6733 63.2811 23.6733C63.2499 23.7663 63.2187 23.8594 63.1866 23.9552C63.0931 24.0017 63.0931 24.0017 62.9977 24.0491C62.9977 24.2971 62.9977 24.5451 62.9977 24.8007C62.7154 24.5742 62.6252 24.4449 62.5314 24.0902C62.5255 23.7673 62.5255 23.7673 62.6258 23.5853C62.8869 23.4429 63.0829 23.4545 63.3755 23.4855Z" fill="#F9F9F9"/>
<path d="M63.6586 37.2021C63.7521 37.2952 63.8456 37.3882 63.942 37.484C63.9108 37.577 63.8796 37.67 63.8475 37.7658C63.7852 37.7658 63.7229 37.7658 63.6586 37.7658C63.5026 38.136 63.3754 38.5127 63.251 38.8942C63.1864 39.081 63.1864 39.081 63.0919 39.2689C62.9984 39.2689 62.9049 39.2689 62.8086 39.2689C63.0295 38.5486 63.3326 37.8812 63.6586 37.2021Z" fill="#F9F9F9"/>
<path d="M74.3314 39.7377C74.0426 40.0691 73.8178 40.2061 73.3869 40.3014C73.0713 40.3155 72.758 40.3125 72.4424 40.3014C72.5671 40.2704 72.6917 40.2394 72.8202 40.2074C72.8202 40.1454 72.8202 40.0834 72.8202 40.0195C72.8825 40.0195 72.9449 40.0195 73.0091 40.0195C73.0091 40.0815 73.0091 40.1435 73.0091 40.2074C73.3082 40.0352 73.3082 40.0352 73.4813 39.7377C73.8111 39.5002 73.9789 39.5624 74.3314 39.7377Z" fill="#F9F9F9"/>
<path d="M81.8871 25.7402C81.9183 25.8642 81.9495 25.9882 81.9816 26.116C82.0751 26.116 82.1686 26.116 82.2649 26.116C82.2961 26.054 82.3273 25.992 82.3594 25.9281C82.5152 25.9281 82.6711 25.9281 82.8316 25.9281C82.8316 25.9901 82.8316 26.0521 82.8316 26.116C82.894 26.147 82.9563 26.178 83.0205 26.21C82.9192 26.2506 82.8179 26.2913 82.7136 26.3333C82.4385 26.4498 82.212 26.5811 81.9816 26.7736C81.9524 26.6845 81.9231 26.5954 81.893 26.5035C81.8046 26.223 81.8046 26.223 81.6982 26.0221C81.7606 25.9291 81.8229 25.8361 81.8871 25.7402Z" fill="#F9F9F9"/>
<path d="M79.9989 38.9863C80.1236 39.0173 80.2482 39.0483 80.3767 39.0803C80.3767 39.1423 80.3767 39.2043 80.3767 39.2682C80.4702 39.2992 80.5637 39.3302 80.66 39.3621C80.4449 39.5761 80.2881 39.6488 79.9989 39.7379C79.7805 39.7026 79.7805 39.7026 79.6211 39.6439C79.6834 39.4889 79.7458 39.3339 79.81 39.1742C79.8723 39.1742 79.9347 39.1742 79.9989 39.1742C79.9989 39.1122 79.9989 39.0502 79.9989 38.9863Z" fill="#F9F9F9"/>
<path d="M66.9646 24.2373C66.9958 24.3303 67.0269 24.4233 67.059 24.5191C66.9359 24.6779 66.8093 24.834 66.6812 24.9889C66.6176 25.1128 66.5567 25.2382 66.4982 25.3646C66.3292 25.7141 66.1362 25.9612 65.8312 26.2101C65.7377 26.2101 65.6442 26.2101 65.5479 26.2101C65.6185 26.1149 65.6891 26.0198 65.7618 25.9217C65.8558 25.7947 65.9498 25.6677 66.0437 25.5408C66.0901 25.4783 66.1365 25.4158 66.1843 25.3514C66.4544 24.986 66.7149 24.6169 66.9646 24.2373Z" fill="#F9F9F9"/>
<path d="M75.0869 29.4043C75.5544 29.4973 75.5544 29.4973 76.0314 29.5922C76.0626 29.7472 76.0937 29.9022 76.1259 30.0619C75.6497 30.0201 75.4259 29.8119 75.0869 29.4982C75.0869 29.4672 75.0869 29.4362 75.0869 29.4043Z" fill="#F9F9F9"/>
<path d="M97.6602 13.5277C98.1753 13.4935 98.1753 13.4935 98.3862 13.6333C98.5653 13.8878 98.5379 14.0841 98.5279 14.3908C98.5254 14.4928 98.5228 14.5949 98.5202 14.7001C98.5169 14.7782 98.5136 14.8563 98.5102 14.9368C98.479 14.9368 98.4479 14.9368 98.4157 14.9368C98.4133 14.8712 98.4109 14.8055 98.4084 14.7379C98.403 14.6524 98.3977 14.5669 98.3921 14.4788C98.3878 14.3938 98.3834 14.3088 98.3789 14.2212C98.3443 13.9813 98.3443 13.9813 98.128 13.8733C98.0671 13.8523 98.0062 13.8312 97.9435 13.8095C97.9747 13.7785 98.0058 13.7475 98.038 13.7155C97.9133 13.6535 97.7886 13.5915 97.6602 13.5277Z" fill="#F9F9F9"/>
<path d="M68.1921 23.4862C68.3692 23.5977 68.3692 23.5977 68.4755 23.768C68.4932 24.0205 68.4932 24.0205 68.4755 24.2377C68.3508 24.2067 68.2261 24.1757 68.0977 24.1438C68.0977 24.0818 68.0977 24.0198 68.0977 23.9559C68.16 23.9559 68.2223 23.9559 68.2866 23.9559C68.1931 23.8629 68.0996 23.7699 68.0032 23.6741C67.9097 23.7361 67.8162 23.7981 67.7199 23.8619C67.7199 23.7999 67.7199 23.7379 67.7199 23.6741C67.6264 23.6431 67.5329 23.6121 67.4365 23.5801C67.7009 23.4487 67.8998 23.4624 68.1921 23.4862Z" fill="#F9F9F9"/>
<path d="M94.9209 15.125C94.952 15.218 94.9832 15.311 95.0153 15.4068C94.8796 15.6593 94.8796 15.6593 94.732 15.8765C94.7943 15.9075 94.8566 15.9386 94.9209 15.9705C94.765 16.0015 94.6092 16.0325 94.4486 16.0644C94.309 15.7867 94.3485 15.525 94.3542 15.2189C94.4165 15.3429 94.4789 15.467 94.5431 15.5947C94.6678 15.4397 94.7924 15.2847 94.9209 15.125Z" fill="#F9F9F9"/>
<path d="M75.3291 25.0771C75.4362 25.0791 75.5434 25.081 75.6538 25.083C75.6849 25.145 75.7161 25.207 75.7482 25.2709C75.438 25.4766 75.162 25.5526 74.8037 25.6467C74.9051 25.0845 74.9051 25.0845 75.3291 25.0771Z" fill="#F9F9F9"/>
<path d="M63.6586 18.2248C63.8416 18.3715 63.8416 18.3715 63.942 18.5066C63.8524 18.5027 63.7628 18.4988 63.6704 18.4948C63.3656 18.4737 63.3656 18.4737 63.1864 18.6945C63.1552 18.6015 63.1241 18.5085 63.0919 18.4126C62.9984 18.3506 62.9049 18.2886 62.8086 18.2248C63.1061 18.0768 63.3409 18.1582 63.6586 18.2248Z" fill="#F9F9F9"/>
<path d="M72.0647 28.7471C72.1582 28.7781 72.2517 28.8091 72.3481 28.841C72.4425 29.1228 72.4425 29.1228 72.354 29.3283C72.3043 29.4126 72.3043 29.4126 72.2536 29.4986C72.1601 29.4986 72.0666 29.4986 71.9703 29.4986C71.8824 29.2538 71.8617 29.1565 71.9644 28.9115C71.9975 28.8572 72.0306 28.803 72.0647 28.7471Z" fill="#F9F9F9"/>
<path d="M14.923 22.7344C14.923 23.0162 14.923 23.0162 14.8286 23.2041C14.6101 23.3626 14.6101 23.3626 14.3563 23.4859C14.2316 23.4549 14.107 23.4239 13.9785 23.392C14.2902 23.175 14.6019 22.958 14.923 22.7344Z" fill="#F9F9F9"/>
<path d="M25.0292 42.0869C25.0915 42.1179 25.1538 42.1489 25.2181 42.1809C25.1869 42.2739 25.1557 42.3669 25.1236 42.4627C25.2062 42.6663 25.2062 42.6663 25.3125 42.8385C25.219 42.8385 25.1255 42.8385 25.0292 42.8385C24.8226 42.6036 24.8226 42.6036 24.6514 42.3687C24.776 42.2757 24.9007 42.1827 25.0292 42.0869Z" fill="#F9F9F9"/>
<path d="M67.4365 36.3564C67.4989 36.3564 67.5612 36.3564 67.6254 36.3564C67.7501 36.6665 67.8748 36.9765 68.0032 37.2959C67.9409 37.2959 67.8785 37.2959 67.8143 37.2959C67.6252 37.1078 67.5374 36.9758 67.4365 36.7322C67.4365 36.6082 67.4365 36.4842 67.4365 36.3564Z" fill="#F9F9F9"/>
<path d="M70.7071 35.2168C70.7811 35.2207 70.8551 35.2245 70.9314 35.2285C70.7589 35.4859 70.594 35.6794 70.3647 35.8861C70.3023 35.8861 70.24 35.8861 70.1758 35.8861C70.2788 35.2371 70.2788 35.2371 70.7071 35.2168Z" fill="#F9F9F9"/>
<path d="M76.4092 41.335C76.6429 41.428 76.6429 41.428 76.8814 41.5228C76.9126 41.4608 76.9438 41.3988 76.9759 41.335C77.1005 41.397 77.2252 41.459 77.3537 41.5228C77.1648 41.7107 77.1648 41.7107 76.9346 41.746C76.6925 41.7107 76.6925 41.7107 76.5213 41.5228C76.4658 41.4298 76.4658 41.4298 76.4092 41.335Z" fill="#F9F9F9"/>
<path d="M74.4258 35.793C74.5816 35.948 74.7375 36.103 74.898 36.2627C74.8669 36.3247 74.8357 36.3867 74.8036 36.4506C74.7101 36.4196 74.6166 36.3886 74.5202 36.3566C74.4891 36.1706 74.4579 35.9846 74.4258 35.793ZM74.4258 36.4506C74.4881 36.4506 74.5505 36.4506 74.6147 36.4506C74.6147 36.5126 74.6147 36.5746 74.6147 36.6385C74.5523 36.6385 74.49 36.6385 74.4258 36.6385C74.4258 36.5765 74.4258 36.5145 74.4258 36.4506Z" fill="#F9F9F9"/>
<path d="M63.6586 23.8613C63.8145 24.0163 63.9703 24.1713 64.1309 24.331C64.0685 24.393 64.0062 24.4551 63.942 24.5189C63.7861 24.4259 63.6303 24.3329 63.4697 24.2371C63.5321 24.1131 63.5944 23.9891 63.6586 23.8613Z" fill="#F9F9F9"/>
<path d="M71.019 38.5342C71.3968 38.9687 71.3968 38.9687 71.3968 39.2857C71.1637 39.1775 71.0145 39.0933 70.8301 38.91C70.8924 38.7859 70.9548 38.6619 71.019 38.5342Z" fill="#F9F9F9"/>
<path d="M66.5867 26.3047C66.6802 26.3357 66.7737 26.3667 66.87 26.3986C66.7936 26.5085 66.7168 26.618 66.6398 26.7274C66.5971 26.7885 66.5543 26.8495 66.5103 26.9124C66.4732 26.9599 66.436 27.0073 66.3978 27.0562C66.3666 27.0562 66.3354 27.0562 66.3033 27.0562C66.2684 26.6284 66.2684 26.6284 66.445 26.4162C66.4917 26.3794 66.5385 26.3426 66.5867 26.3047Z" fill="#F9F9F9"/>
<path d="M18.5124 18.6006C18.6371 18.6626 18.7618 18.7246 18.8902 18.7885C18.7967 19.0055 18.7032 19.2225 18.6069 19.4461C18.5445 19.4461 18.4822 19.4461 18.418 19.4461C18.4491 19.1671 18.4803 18.8881 18.5124 18.6006Z" fill="#F9F9F9"/>
<path d="M18.9841 14.6553C19.0153 14.7793 19.0464 14.9033 19.0786 15.031C18.9851 15.0775 18.9851 15.0775 18.8897 15.125C18.8585 15.218 18.8273 15.311 18.7952 15.4068C18.506 15.5184 18.506 15.5184 18.2285 15.5947C18.2672 15.5505 18.3059 15.5063 18.3458 15.4608C18.3967 15.4023 18.4476 15.3438 18.5001 15.2835C18.5505 15.2258 18.6009 15.168 18.6528 15.1085C18.8107 14.9244 18.8107 14.9244 18.9841 14.6553Z" fill="#F9F9F9"/>
<path d="M16.34 18.6006C16.4023 18.6936 16.4647 18.7866 16.5289 18.8824C16.4543 19.1163 16.3556 19.3211 16.2455 19.54C16.1832 19.54 16.1209 19.54 16.0566 19.54C16.1501 19.23 16.2436 18.92 16.34 18.6006Z" fill="#F9F9F9"/>
<path d="M23.6125 12.1187C23.2056 12.4887 23.2056 12.4887 22.8746 12.518C22.8064 12.5103 22.7382 12.5025 22.668 12.4945C22.668 12.4325 22.668 12.3705 22.668 12.3066C22.7896 12.2568 22.9117 12.2081 23.034 12.1598C23.1019 12.1326 23.1698 12.1054 23.2398 12.0773C23.4236 12.0248 23.4236 12.0248 23.6125 12.1187Z" fill="#F9F9F9"/>
<path d="M25.3128 38.4229C25.4063 38.4539 25.4998 38.4849 25.5961 38.5168C25.3342 38.8062 25.1179 38.9572 24.7461 39.0805C24.8764 38.7671 25.0152 38.5933 25.3128 38.4229Z" fill="#F9F9F9"/>
<path d="M94.3546 19.5406C94.2611 19.6801 94.2611 19.6801 94.1657 19.8224C93.8824 19.8518 93.8824 19.8518 93.5991 19.8224C93.5367 19.7604 93.4744 19.6984 93.4102 19.6345C93.7294 19.5368 94.022 19.5331 94.3546 19.5406Z" fill="#F9F9F9"/>
<path d="M81.9821 25.7402C82.1692 25.7867 82.1692 25.7867 82.3599 25.8342C82.3288 25.9582 82.2976 26.0822 82.2655 26.21C82.1408 26.179 82.0161 26.1479 81.8877 26.116C81.9189 25.992 81.95 25.868 81.9821 25.7402Z" fill="#F9F9F9"/>
<path d="M19.1734 17.8496C19.2358 17.8806 19.2981 17.9116 19.3623 17.9436C19.2376 18.1606 19.113 18.3776 18.9845 18.6012C18.891 18.5392 18.7975 18.4772 18.7012 18.4133C18.831 18.2254 18.831 18.2254 18.9845 18.0375C19.0469 18.0375 19.1092 18.0375 19.1734 18.0375C19.1734 17.9755 19.1734 17.9135 19.1734 17.8496Z" fill="#F9F9F9"/>
<path d="M21.7232 15.125C21.8167 15.187 21.9102 15.249 22.0066 15.3129C21.6326 15.5454 21.6326 15.5454 21.251 15.7826C21.251 15.6896 21.251 15.5966 21.251 15.5008C21.4871 15.2953 21.4871 15.2953 21.7232 15.125Z" fill="#F9F9F9"/>
<path d="M20.0237 13.8096C20.0861 13.9026 20.1484 13.9956 20.2126 14.0914C20.0271 14.1917 19.8378 14.2854 19.6459 14.3732C19.5836 14.3422 19.5213 14.3112 19.457 14.2793C19.644 14.1243 19.831 13.9693 20.0237 13.8096Z" fill="#F9F9F9"/>
<path d="M77.7314 39.6445C77.9496 39.6755 78.1678 39.7065 78.3926 39.7385C78.3926 39.8625 78.3926 39.9865 78.3926 40.1142C78.0476 39.9968 77.9411 39.9573 77.7314 39.6445Z" fill="#F9F9F9"/>
<path d="M80.9434 36.0742C81.3212 36.5205 81.3212 36.5205 81.3212 36.7318C81.1965 36.7008 81.0718 36.6698 80.9434 36.6379C80.9434 36.4519 80.9434 36.2659 80.9434 36.0742Z" fill="#F9F9F9"/>
<path d="M18.1344 15.5947C18.1655 15.6567 18.1967 15.7187 18.2288 15.7826C18.1405 15.9735 18.0463 16.1617 17.9455 16.3463C17.852 16.3153 17.7584 16.2843 17.6621 16.2523C17.818 16.0353 17.9738 15.8183 18.1344 15.5947Z" fill="#F9F9F9"/>
</g>
<defs>
<clipPath id="clip0_601_420">
<rect width="114" height="53.7357" fill="white"/>
</clipPath>
</defs>
</svg>
