<svg width="98" height="32" viewBox="0 0 98 32" fill="none" xmlns="http://www.w3.org/2000/svg">
<g clip-path="url(#clip0_562_2783)">
<path d="M74.8752 4.9917C76.0518 4.9917 77.2284 4.9917 78.4407 4.9917C78.4407 10.7336 78.4407 16.4754 78.4407 22.3913C77.5465 22.3913 76.6522 22.3913 75.7309 22.3913C75.4956 21.9206 75.2603 21.45 75.0178 20.9651C74.9002 21.118 74.7825 21.271 74.6613 21.4286C73.975 22.232 73.0894 22.6231 72.0445 22.7105C70.7124 22.7413 69.6829 22.5263 68.5554 21.803C67.0653 20.2089 66.7201 18.3542 66.7102 16.2497C66.7073 16.0972 66.7043 15.9447 66.7013 15.7876C66.6919 13.8449 67.1433 12.1137 68.4662 10.6625C69.5423 9.68404 70.8443 9.62523 72.23 9.648C73.3545 9.70298 74.1945 10.2407 75.0178 10.9817C74.9945 10.7953 74.9711 10.6089 74.9471 10.4168C74.8395 9.34128 74.8599 8.26392 74.8663 7.18447C74.867 6.9711 74.8676 6.75773 74.8682 6.54436C74.8697 6.02679 74.8725 5.50926 74.8752 4.9917ZM70.9977 13.2815C70.1448 14.6344 70.113 16.2631 70.3832 17.8113C70.6255 18.6268 71.0364 19.2916 71.7821 19.735C72.6801 19.9438 73.3897 19.8978 74.1961 19.4542C74.7859 18.9834 75.0025 18.2566 75.1604 17.5422C75.3446 15.2788 75.3446 15.2788 74.4969 13.2787C73.8545 12.6988 73.3438 12.5053 72.459 12.5199C71.84 12.5845 71.4351 12.8566 70.9977 13.2815Z" fill="#F9F9F9"/>
<path d="M17.9702 5.41956C22.4413 5.41956 26.9125 5.41956 31.5191 5.41956C31.5191 8.359 31.5191 8.359 30.7525 9.92098C30.6689 10.1009 30.5859 10.281 30.5033 10.4614C30.3235 10.8533 30.1414 11.244 29.9579 11.6342C29.4783 12.6603 29.031 13.7008 28.5785 14.7389C28.363 15.2328 28.146 15.726 27.9291 16.2192C27.087 18.1337 26.2517 20.0512 25.4175 21.9692C25.3438 22.1385 25.3438 22.1385 25.2686 22.3112C25.1769 22.5221 25.0852 22.7329 24.9936 22.9438C24.6894 23.6428 24.6894 23.6428 24.5307 23.9601C23.1188 23.9601 21.7068 23.9601 20.2521 23.9601C20.5442 23.0839 20.8432 22.2752 21.2343 21.4475C21.2877 21.3331 21.341 21.2186 21.396 21.1007C21.5104 20.8556 21.6251 20.6106 21.74 20.3658C21.984 19.8462 22.2264 19.3258 22.4688 18.8056C22.5932 18.5387 22.7177 18.2719 22.8422 18.0051C23.441 16.7216 24.0317 15.4345 24.6198 14.1461C24.7082 13.9529 24.7965 13.7597 24.8849 13.5665C25.5809 12.0419 26.2675 10.5134 26.9552 8.98504C23.9902 8.93798 21.0251 8.89091 17.9702 8.84242C17.9702 7.71288 17.9702 6.58333 17.9702 5.41956Z" fill="#F9F9F9"/>
<path d="M95.0515 10.4787C96.331 11.3807 97.2078 12.7054 97.51 14.2465C97.8439 16.6498 97.5957 18.9105 96.1478 20.8982C95.2057 21.9769 93.8358 22.5734 92.4272 22.7016C90.6871 22.8158 88.9203 22.6618 87.5355 21.4899C87.4522 21.4108 87.369 21.3318 87.2831 21.2503C87.1955 21.1683 87.1078 21.0863 87.0174 21.0019C85.4772 19.4121 85.3617 17.4274 85.3895 15.3389C85.4495 13.5685 86.1038 12.0838 87.399 10.8658C89.4092 9.20295 92.8665 9.17527 95.0515 10.4787ZM89.7077 13.121C88.814 14.4301 88.8095 16.1792 89.0703 17.6982C89.2803 18.4558 89.5263 19.1259 90.238 19.5383C90.9775 19.8685 91.6381 19.8897 92.4174 19.6815C93.1193 19.3504 93.4104 18.9598 93.735 18.2832C94.2253 16.8702 94.1885 15.0517 93.5584 13.6915C93.2269 13.1611 92.8612 12.7847 92.2748 12.5505C91.276 12.419 90.4961 12.4774 89.7077 13.121Z" fill="#F9F9F9"/>
<path d="M53.9103 9.84076C55.0398 9.84076 56.1694 9.84076 57.3332 9.84076C57.3402 10.3938 57.3471 10.9468 57.3543 11.5165C57.362 12.0542 57.3702 12.5918 57.3784 13.1294C57.3839 13.5021 57.3889 13.8747 57.3933 14.2474C57.3999 14.7841 57.4081 15.3208 57.4167 15.8575C57.4184 16.0232 57.42 16.1889 57.4217 16.3596C57.4448 18.0977 57.4448 18.0977 58.3315 19.5389C59.066 19.7837 59.7682 19.766 60.5064 19.5389C61.2502 18.998 61.605 18.2946 61.7544 17.3996C61.77 17.1416 61.7793 16.8832 61.7837 16.6248C61.7865 16.4735 61.7893 16.3222 61.7923 16.1663C61.7947 16.0047 61.797 15.843 61.7995 15.6765C61.8025 15.5097 61.8054 15.3429 61.8085 15.1711C61.8178 14.6393 61.8262 14.1074 61.8346 13.5756C61.8408 13.2147 61.847 12.8538 61.8533 12.4929C61.8686 11.6088 61.8828 10.7248 61.897 9.84076C63.0736 9.84076 64.2502 9.84076 65.4625 9.84076C65.4625 13.9824 65.4625 18.1241 65.4625 22.3913C64.5683 22.3913 63.674 22.3913 62.7527 22.3913C62.5644 21.9677 62.3762 21.5441 62.1822 21.1077C62.0146 21.2636 61.8469 21.4195 61.6741 21.5801C60.5053 22.6023 59.2605 22.7459 57.7421 22.7161C56.6251 22.636 55.6477 22.269 54.8279 21.4943C54.0966 20.6217 53.892 19.6977 53.8941 18.5839C53.8941 18.4892 53.8941 18.3945 53.894 18.297C53.8941 17.9852 53.8953 17.6735 53.8964 17.3617C53.8966 17.1451 53.8968 16.9285 53.897 16.7119C53.8975 16.1426 53.8989 15.5733 53.9005 15.004C53.902 14.4228 53.9026 13.8415 53.9033 13.2603C53.9049 12.1204 53.9074 10.9806 53.9103 9.84076Z" fill="#F9F9F9"/>
<path d="M38.5698 9.63575C38.7184 9.63474 38.8671 9.63373 39.0202 9.63269C40.451 9.64422 41.7794 9.93731 43.0712 10.5539C42.9762 11.1828 42.748 11.7327 42.4918 12.3099C42.4517 12.4019 42.4115 12.4939 42.3701 12.5887C42.2717 12.814 42.1724 13.0388 42.0729 13.2636C41.8964 13.2019 41.7199 13.1401 41.5381 13.0765C39.6343 12.4115 39.6343 12.4115 37.6695 12.5238C37.3191 12.6749 37.3191 12.6749 37.2238 13.121C37.5917 13.7043 37.9454 13.9531 38.5798 14.2018C38.7324 14.2645 38.885 14.3272 39.0422 14.3918C39.3595 14.5177 39.677 14.6429 39.9949 14.7673C41.2206 15.2731 42.4988 15.9758 43.089 17.2302C43.404 18.3699 43.3331 19.5707 42.8406 20.6436C42.2066 21.677 41.2144 22.2021 40.0762 22.5339C38.0733 22.9719 35.5033 22.8859 33.6583 21.9634C33.6583 20.9751 33.6583 19.9867 33.6583 18.9684C34.0819 19.1096 34.5055 19.2508 34.9419 19.3963C36.3334 19.8453 38.0705 20.1355 39.5057 19.6815C39.5783 18.9821 39.5783 18.9821 39.2657 18.3873C38.9133 18.0944 38.5968 17.9283 38.1759 17.7489C38.0291 17.6845 37.8823 17.62 37.7311 17.5536C37.4256 17.4225 37.1199 17.2918 36.8141 17.1614C35.669 16.6576 34.3267 16.0484 33.8009 14.8325C33.509 13.9164 33.4679 12.666 33.7876 11.7539C34.8422 9.98944 36.6369 9.59884 38.5698 9.63575Z" fill="#F9F9F9"/>
<path d="M9.41309 9.84076C10.6368 9.84076 11.8604 9.84076 13.1212 9.84076C13.4535 10.8316 13.7856 11.8224 14.117 12.8135C14.2714 13.2751 14.4259 13.7366 14.5808 14.198C14.7586 14.7278 14.9358 15.2578 15.1129 15.7879C15.1683 15.9527 15.2237 16.1174 15.2808 16.2872C15.3322 16.4413 15.3836 16.5955 15.4365 16.7543C15.4818 16.8895 15.5271 17.0248 15.5737 17.1641C15.6835 17.5261 15.7637 17.8833 15.831 18.2553C16.0317 17.8719 16.1898 17.496 16.3228 17.0843C16.3609 16.9671 16.399 16.8498 16.4383 16.7291C16.4989 16.5403 16.4989 16.5403 16.5608 16.3478C16.6033 16.2165 16.6459 16.0853 16.6897 15.95C16.8258 15.5301 16.9613 15.11 17.0967 14.6898C17.2312 14.2738 17.3659 13.8578 17.5006 13.4418C17.5843 13.1834 17.6678 12.925 17.7511 12.6665C18.056 11.7224 18.3696 10.782 18.6834 9.84076C19.907 9.84076 21.1307 9.84076 22.3915 9.84076C22.273 10.5517 22.1016 11.1529 21.8472 11.8174C21.806 11.9267 21.7649 12.036 21.7225 12.1486C21.5867 12.5087 21.4498 12.8683 21.3129 13.228C21.2179 13.4791 21.123 13.7303 21.0282 13.9815C20.7758 14.6491 20.5224 15.3164 20.2685 15.9835C20.1072 16.4075 19.946 16.8315 19.7849 17.2556C19.1341 18.9681 18.4814 20.6799 17.8276 22.3913C16.5569 22.3913 15.2862 22.3913 13.9769 22.3913C13.8267 21.9925 13.6765 21.5938 13.5218 21.1829C13.3687 20.7771 13.2157 20.3712 13.0626 19.9654C12.9533 19.6757 12.8441 19.3859 12.7348 19.0961C12.1349 17.5044 11.5318 15.9141 10.915 14.3288C10.8653 14.2006 10.8155 14.0724 10.7642 13.9403C10.5276 13.3311 10.2901 12.7222 10.0509 12.114C9.96586 11.8954 9.88082 11.6767 9.79582 11.458C9.75672 11.3597 9.71762 11.2613 9.67733 11.16C9.49233 10.6811 9.41309 10.3634 9.41309 9.84076Z" fill="#F9F9F9"/>
<path d="M47.435 7.25964C47.6473 7.26046 47.8595 7.26232 48.0718 7.26466C48.4454 7.2676 48.8189 7.27054 49.2038 7.27357C49.2038 8.12073 49.2038 8.96789 49.2038 9.84072C50.3804 9.84072 51.5571 9.84072 52.7693 9.84072C52.7693 10.7349 52.7693 11.6292 52.7693 12.5505C51.5927 12.5505 50.4161 12.5505 49.2038 12.5505C49.2177 13.4109 49.2323 14.2712 49.2491 15.1315C49.2545 15.424 49.2595 15.7166 49.264 16.0092C49.2705 16.4302 49.2788 16.8511 49.2874 17.272C49.289 17.4024 49.2907 17.5329 49.2924 17.6673C49.3125 18.5645 49.3125 18.5645 49.6317 19.3962C50.3009 19.861 51.1181 19.7408 51.8863 19.6168C52.2293 19.5487 52.5708 19.4731 52.9119 19.3962C52.9119 20.2905 52.9119 21.1847 52.9119 22.106C51.1613 22.7625 49.1628 23.0643 47.3838 22.2949C46.4825 21.7617 46.0436 20.9667 45.781 19.9667C45.725 19.388 45.731 18.814 45.7392 18.233C45.7398 18.07 45.7404 17.907 45.741 17.7391C45.7434 17.2218 45.7488 16.7046 45.7542 16.1873C45.7564 15.8352 45.7583 15.4831 45.7601 15.131C45.7648 14.2708 45.7721 13.4107 45.781 12.5505C45.2162 12.5505 44.6514 12.5505 44.0695 12.5505C43.9065 11.5473 43.9065 11.5473 44.0695 10.9817C44.4324 10.7228 44.8003 10.5342 45.2001 10.3396C46.0817 9.85601 46.2831 9.16157 46.5565 8.23284C46.6321 7.96098 46.7058 7.68863 46.7793 7.41619C46.9219 7.27357 46.9219 7.27357 47.435 7.25964Z" fill="#F9F9F9"/>
<path d="M3.79341 7.25964C4.00568 7.26046 4.21794 7.26232 4.43019 7.26466C4.80376 7.2676 5.17733 7.27054 5.56223 7.27357C5.56223 8.12073 5.56223 8.96789 5.56223 9.84072C6.73884 9.84072 7.91545 9.84072 9.12772 9.84072C9.12772 10.7349 9.12772 11.6292 9.12772 12.5505C7.95111 12.5505 6.77449 12.5505 5.56223 12.5505C5.57607 13.4109 5.59072 14.2712 5.60749 15.1315C5.61295 15.424 5.61792 15.7166 5.6224 16.0092C5.62892 16.4302 5.63719 16.8511 5.6458 17.272C5.64744 17.4024 5.64909 17.5329 5.65079 17.6673C5.67094 18.5645 5.67094 18.5645 5.99009 19.3962C6.65925 19.861 7.47648 19.7408 8.2447 19.6168C8.5877 19.5487 8.92919 19.4731 9.27034 19.3962C9.27034 20.2905 9.27034 21.1847 9.27034 22.106C7.51966 22.7625 5.52125 23.0643 3.74216 22.2949C2.84092 21.7617 2.40195 20.9667 2.13936 19.9667C2.08342 19.388 2.08937 18.814 2.09758 18.233C2.09818 18.07 2.09879 17.907 2.09941 17.7391C2.1018 17.2218 2.10716 16.7046 2.11262 16.1873C2.11477 15.8352 2.11672 15.4831 2.11847 15.131C2.12317 14.2708 2.13055 13.4107 2.13936 12.5505C1.57459 12.5505 1.00981 12.5505 0.427927 12.5505C0.26491 11.5473 0.26491 11.5473 0.427927 10.9817C0.790843 10.7228 1.1587 10.5342 1.55854 10.3396C2.44011 9.85601 2.64145 9.16157 2.91492 8.23284C2.99048 7.96098 3.06425 7.68863 3.1377 7.41619C3.28032 7.27357 3.28032 7.27357 3.79341 7.25964Z" fill="#F9F9F9"/>
<path d="M80.5801 9.84076C81.7567 9.84076 82.9333 9.84076 84.1456 9.84076C84.1456 13.9824 84.1456 18.1241 84.1456 22.3913C82.969 22.3913 81.7923 22.3913 80.5801 22.3913C80.5801 18.2496 80.5801 14.1079 80.5801 9.84076Z" fill="#F9F9F9"/>
<path d="M32.009 18.9862C32.4748 19.327 32.6196 19.561 32.8023 20.1094C32.9066 20.9173 32.8486 21.562 32.3745 22.2487C31.582 22.8339 30.7562 22.8075 29.8073 22.6765C29.3392 22.4463 29.0454 22.1509 28.809 21.6782C28.7878 21.4024 28.7774 21.1257 28.7733 20.8492C28.7697 20.7012 28.766 20.5532 28.7622 20.4007C28.8154 19.9075 28.944 19.6501 29.2369 19.2536C30.0833 18.6549 31.0522 18.6731 32.009 18.9862Z" fill="#F9F9F9"/>
<path d="M83.575 5.16105C83.9857 5.53321 84.2456 5.84516 84.3288 6.4073C84.3567 7.05055 84.2735 7.47016 83.8603 7.9867C83.3801 8.44053 83.023 8.47256 82.3717 8.46804C82.213 8.46914 82.0544 8.47025 81.8909 8.47138C81.3857 8.40831 81.1225 8.29841 80.7226 7.9867C80.3117 7.38462 80.3271 6.69074 80.4374 5.99003C81.0453 4.82338 82.4374 4.71072 83.575 5.16105Z" fill="#F9F9F9"/>
</g>
<defs>
<clipPath id="clip0_562_2783">
<rect width="97.5517" height="31.5189" fill="white"/>
</clipPath>
</defs>
</svg>
