<svg width="134" height="31" viewBox="0 0 134 31" fill="none" xmlns="http://www.w3.org/2000/svg">
<path d="M19.1506 0C19.5552 0.134863 19.5552 0.134863 19.7975 0.577384C19.8862 0.766653 19.9739 0.956331 20.0609 1.14634C20.7388 2.68669 20.7388 2.68669 22.008 3.6666C22.3777 3.66651 22.3777 3.66651 22.6402 3.51488C23.0892 3.29038 23.5081 3.355 24.0057 3.37159C24.1392 3.63862 24.1392 3.63862 24.2754 3.91104C24.0529 4.04455 23.8304 4.17807 23.6011 4.31563C23.7214 4.3012 23.8417 4.28677 23.9657 4.2719C24.1235 4.25574 24.2814 4.23957 24.444 4.22291C24.6005 4.2057 24.7569 4.18849 24.9181 4.17076C25.3543 4.18077 25.3543 4.18077 25.6746 4.35356C25.9787 4.67523 25.9903 4.96279 26.0286 5.39454C25.7608 5.38576 25.4931 5.37698 25.2253 5.3682C24.9074 5.37666 24.9074 5.37666 24.5451 5.66426C24.7037 5.75606 24.7037 5.75606 24.8654 5.8497C25.2195 6.06885 25.2195 6.06885 25.4892 6.33858C25.7567 6.43489 26.0264 6.52553 26.2984 6.60831C26.2984 6.69732 26.2984 6.78633 26.2984 6.87804C26.3785 6.84066 26.4587 6.80328 26.5412 6.76477C27.1791 6.48601 27.7241 6.30851 28.4225 6.27115C29.0804 6.23332 29.4035 6.0575 29.9397 5.66426C30.4922 5.45374 30.9955 5.38329 31.5833 5.41982C32.1102 5.45159 32.1102 5.45159 32.4094 5.08267C33.1067 4.38536 34.0958 4.31451 35.0476 4.25663C35.6795 4.21373 35.9358 4.06701 36.4131 3.64131C37.2001 3.38836 38.0017 3.29301 38.8207 3.19089C39.2519 3.12048 39.2519 3.12048 39.6298 2.90114C40.165 2.64418 40.649 2.58694 41.2345 2.52869C41.3379 2.51652 41.4414 2.50435 41.5479 2.49181C42.3097 2.40881 42.3097 2.40881 42.6168 2.56241C42.5792 3.02209 42.5204 3.19983 42.1822 3.52436C41.5253 3.98522 40.9417 4.36942 40.1746 4.60643C39.8494 4.75156 39.6448 4.95453 39.3886 5.20067C39.0082 5.55802 38.7675 5.71622 38.2506 5.7907C37.6802 5.8754 37.4118 6.08858 36.9863 6.47344C36.4585 6.93112 36.1218 7.07829 35.4269 7.13933C34.5765 7.21947 34.0554 7.54884 33.3932 8.04808C32.6616 8.59646 31.9859 8.81384 31.1029 8.99371C30.6063 9.1735 30.3266 9.37859 29.9144 9.70174C29.1577 10.2808 28.4433 10.4982 27.5121 10.6542C27.6769 11.1595 27.9122 11.5069 28.2576 11.9082C28.9864 12.761 29.2713 13.4691 29.5098 14.5768C29.7216 15.3938 30.2235 16.065 30.6899 16.7563C30.9218 17.1004 31.1144 17.4448 31.2931 17.8194C31.5248 18.2986 31.806 18.6798 32.1565 19.0832C32.6473 19.6644 33.0617 20.2493 33.4461 20.9038C33.5351 21.0373 33.6242 21.1709 33.7159 21.3084C33.6667 22.4016 33.5326 23.8247 32.8034 24.6942C32.1405 25.2563 31.0723 25.5798 30.2094 25.6241C30.1204 25.535 30.0314 25.446 29.9397 25.3543C29.9124 25.4409 29.8851 25.5275 29.857 25.6167C29.67 25.8938 29.67 25.8938 29.2933 25.9854C28.0312 26.0581 27.2666 26.0401 26.2731 25.2026C25.7842 24.7431 25.4924 24.3558 25.2363 23.7439C24.8659 23.066 24.2022 22.3629 23.4662 22.1176C23.1855 22.0971 22.9045 22.0808 22.6233 22.067C21.6313 21.9964 21.0201 21.7822 20.2295 21.1736C20.2653 21.2537 20.3011 21.3338 20.338 21.4164C20.6595 22.1707 20.8448 22.8729 20.9707 23.6817C21.0526 24.072 21.2369 24.3423 21.4433 24.68C21.4686 25.1942 21.4686 25.1942 21.4433 25.6241C21.3572 25.642 21.2712 25.6599 21.1825 25.6783C21.0154 25.714 21.0154 25.714 20.8448 25.7505C20.7337 25.774 20.6227 25.7974 20.5082 25.8216C20.2327 25.8678 20.2327 25.8678 20.0947 26.0286C19.831 26.0787 19.5667 26.1258 19.3023 26.1719C18.3411 26.3695 17.499 26.7143 16.604 27.1101C15.7732 27.4722 14.9647 27.7122 14.0832 27.9262C13.4885 28.0876 12.9432 28.3256 12.379 28.5705C11.7722 28.8212 11.1569 28.9777 10.5193 29.1305C10.4203 29.1555 10.3213 29.1806 10.2193 29.2064C8.31629 29.6862 6.42634 29.9747 4.4738 30.1677C4.17513 30.1944 4.17513 30.1944 3.91104 30.3443C3.15415 30.3382 2.54561 30.1926 1.88809 29.8048C1.88809 29.8938 1.88809 29.9828 1.88809 30.0745C1.22293 29.9083 0.914678 29.7078 0.539454 29.1305C0.539454 29.0415 0.539454 28.9525 0.539454 28.8608C0.361434 28.9053 0.183414 28.9498 0 28.9956C0.158793 27.8604 0.495732 26.9563 1.24749 26.0792C1.55415 25.663 1.63556 25.3226 1.61836 24.8149C1.48713 24.2553 1.29785 23.7203 1.10419 23.1797C1.05439 23.0352 1.00458 22.8907 0.953263 22.7419C0.775096 22.2282 0.595852 21.7169 0.391025 21.2131C0.0389513 20.3154 0.268728 19.495 0.606885 18.628C1.05664 17.4584 1.13442 16.4186 0.674317 15.2396C0.609118 14.6362 0.78893 14.2679 1.07048 13.7392C1.45172 13.0164 1.62897 12.5722 1.58886 11.7463C1.52591 10.2116 1.52591 10.2116 1.95552 9.65117C2.10837 9.48672 2.26609 9.32672 2.42754 9.17071C3.31158 8.23249 3.66333 7.47774 3.89998 6.23375C4.0459 5.79913 4.0459 5.79913 4.36094 5.55785C4.4795 5.50396 4.59806 5.45006 4.72022 5.39454C4.82018 5.33908 4.92014 5.28362 5.02314 5.22648C5.12066 5.17346 5.21819 5.12044 5.31868 5.06581C5.52388 4.95079 5.72899 4.8356 5.93399 4.72022C6.07863 4.63955 6.22327 4.55889 6.3723 4.47578C6.79278 4.1413 6.99603 3.81458 7.24575 3.34525C7.46382 3.0362 7.59854 2.95715 7.95694 2.83213C8.1254 2.81562 8.29386 2.7991 8.46742 2.78209C9.08646 2.7169 9.5142 2.46802 10.0389 2.14939C10.8059 1.71471 11.377 1.44289 12.2726 1.61836C12.3847 1.63957 12.4968 1.66078 12.6124 1.68263C12.8433 1.72902 13.0738 1.77691 13.3041 1.82645C13.9349 1.94906 14.3944 1.9771 14.9698 1.67736C15.6765 1.33874 16.2824 1.60412 16.9928 1.82909C17.561 2.00806 18.0185 2.0616 18.6112 2.02295C18.6526 1.8378 18.6526 1.8378 18.6949 1.64892C18.7494 1.40849 18.7494 1.40849 18.805 1.1632C18.841 1.00361 18.877 0.844013 18.9141 0.679585C19.0157 0.269727 19.0157 0.269727 19.1506 0Z" fill="#F9F9F9"/>
<path d="M55.2939 11.0588C56.7181 11.0588 58.1423 11.0588 59.6096 11.0588C62.329 17.8369 62.329 17.8369 63.116 20.9039C63.1356 20.7829 63.1552 20.662 63.1753 20.5374C63.6904 17.3678 64.2596 14.2116 64.8693 11.0588C65.9374 11.0588 67.0055 11.0588 68.106 11.0588C68.0148 11.9703 67.9059 12.8452 67.7351 13.7405C67.6999 13.9289 67.6999 13.9289 67.6639 14.1211C67.5871 14.5316 67.5094 14.942 67.4317 15.3523C67.3777 15.6394 67.3238 15.9264 67.2699 16.2135C67.1574 16.8128 67.0444 17.412 66.9312 18.0111C66.786 18.7792 66.6415 19.5474 66.4972 20.3157C66.3594 21.0495 66.2212 21.7832 66.083 22.517C66.0436 22.7268 66.0436 22.7268 66.0033 22.9408C65.9289 23.3359 65.8543 23.731 65.7796 24.126C65.7576 24.243 65.7356 24.36 65.7129 24.4806C65.6823 24.6422 65.6823 24.6422 65.651 24.807C65.6334 24.9003 65.6158 24.9935 65.5977 25.0896C65.5425 25.3594 65.4755 25.6266 65.4087 25.8938C64.1626 25.8938 62.9164 25.8938 61.6325 25.8938C60.2966 22.4566 58.9644 19.028 57.8564 15.5093C57.8118 15.5093 57.7673 15.5093 57.7215 15.5093C57.6978 15.6514 57.6742 15.7935 57.6498 15.9399C57.0943 19.2684 56.4944 22.5846 55.8334 25.8938C54.7653 25.8938 53.6972 25.8938 52.5967 25.8938C52.6878 24.9824 52.7968 24.1075 52.9676 23.2122C52.991 23.0865 53.0145 22.9609 53.0387 22.8315C53.1156 22.421 53.1933 22.0107 53.271 21.6003C53.325 21.3133 53.3789 21.0262 53.4327 20.7392C53.5453 20.1399 53.6582 19.5407 53.7715 18.9416C53.9166 18.1734 54.0612 17.4052 54.2055 16.6369C54.3433 15.9031 54.4815 15.1694 54.6196 14.4357C54.6591 14.2259 54.6591 14.2259 54.6994 14.0118C54.7738 13.6167 54.8484 13.2217 54.9231 12.8266C54.9451 12.7096 54.9671 12.5926 54.9897 12.4721C55.0102 12.3643 55.0306 12.2566 55.0516 12.1456C55.0692 12.0524 55.0868 11.9592 55.105 11.8631C55.1601 11.5933 55.2272 11.326 55.2939 11.0588Z" fill="#F9F9F9"/>
<path d="M120.703 11.0588C122.082 11.0588 123.462 11.0588 124.883 11.0588C125.219 11.7293 125.522 12.353 125.792 13.0439C125.824 13.1264 125.856 13.2089 125.889 13.294C125.993 13.5601 126.096 13.8267 126.198 14.0933C126.234 14.1848 126.269 14.2764 126.305 14.3707C127.062 16.3322 127.787 18.3104 128.336 20.3411C128.372 20.4724 128.407 20.6037 128.444 20.739C128.484 20.8874 128.484 20.8874 128.525 21.0387C128.534 20.9626 128.543 20.8865 128.552 20.808C128.787 18.8434 129.098 16.9024 129.471 14.9593C129.555 14.5226 129.637 14.0856 129.72 13.6486C129.772 13.3691 129.826 13.0895 129.879 12.81C129.915 12.6153 129.915 12.6153 129.953 12.4167C129.976 12.2971 129.999 12.1776 130.023 12.0544C130.053 11.8973 130.053 11.8973 130.084 11.737C130.143 11.4634 130.143 11.4634 130.278 11.0588C131.346 11.0588 132.414 11.0588 133.515 11.0588C133.363 12.4243 133.363 12.4243 133.266 12.9357C133.245 13.052 133.223 13.1682 133.2 13.288C133.177 13.4111 133.153 13.5341 133.129 13.6608C133.104 13.7938 133.079 13.9269 133.053 14.0639C132.971 14.4996 132.889 14.9352 132.806 15.3708C132.749 15.6744 132.692 15.9781 132.634 16.2817C132.484 17.078 132.334 17.8741 132.183 18.6702C132.029 19.4838 131.875 20.2975 131.722 21.1112C131.421 22.7055 131.119 24.2997 130.817 25.8938C129.571 25.8938 128.325 25.8938 127.041 25.8938C126.165 23.6964 125.295 21.4973 124.479 19.2771C124.392 19.041 124.392 19.041 124.302 18.8002C123.873 17.6246 123.495 16.4364 123.13 15.2396C123.088 15.4937 123.088 15.4937 123.044 15.753C122.475 19.1395 121.892 22.5218 121.242 25.8938C120.174 25.8938 119.106 25.8938 118.005 25.8938C118.093 24.9266 118.195 24.0072 118.376 23.0598C118.4 22.934 118.423 22.8081 118.447 22.6785C118.524 22.268 118.602 21.8578 118.68 21.4475C118.734 21.1604 118.788 20.8732 118.841 20.586C118.954 19.9869 119.067 19.388 119.18 18.7891C119.325 18.0209 119.47 17.2525 119.614 16.484C119.725 15.8923 119.837 15.3006 119.948 14.709C120.001 14.4256 120.055 14.1421 120.108 13.8586C120.182 13.4638 120.257 13.069 120.332 12.6743C120.354 12.557 120.376 12.4397 120.398 12.3189C120.419 12.2116 120.439 12.1042 120.46 11.9936C120.478 11.9004 120.496 11.8073 120.514 11.7113C120.568 11.4634 120.568 11.4634 120.703 11.0588Z" fill="#F9F9F9"/>
<path d="M101.176 12.2083C102.403 13.1725 103.117 14.6526 103.305 16.1836C103.476 18.6197 103.182 20.9107 101.663 22.9078C101.368 23.2439 101.063 23.5595 100.743 23.8708C100.657 23.9579 100.571 24.045 100.482 24.1347C98.8383 25.7002 96.5422 26.2497 94.3296 26.218C92.2585 26.1403 90.5591 25.3933 89.1443 23.8708C87.8943 22.3311 87.6494 20.2584 87.8341 18.3482C88.1425 16.0575 89.2465 14.0134 91.0324 12.5423C94.1026 10.436 98.0373 10.0459 101.176 12.2083ZM92.6491 15.4529C91.6184 16.9979 91.1992 18.7135 91.5212 20.5582C91.7469 21.464 92.2035 22.2618 92.9205 22.8593C93.995 23.3966 95.0872 23.5188 96.2631 23.2434C97.6519 22.7432 98.4745 21.7945 99.1242 20.4992C99.7861 19.015 99.9717 17.0877 99.4065 15.5335C98.9417 14.6072 98.3085 14.0387 97.3267 13.7054C95.5164 13.282 93.7829 13.9978 92.6491 15.4529Z" fill="#F9F9F9"/>
<path d="M106.946 11.0588C107.839 11.0484 108.731 11.0414 109.623 11.0366C109.926 11.0345 110.229 11.0318 110.532 11.0283C110.97 11.0233 111.408 11.021 111.846 11.0193C111.979 11.0172 112.112 11.0151 112.25 11.0129C113.853 11.0126 115.141 11.3429 116.336 12.4327C117.086 13.2024 117.474 14.2299 117.508 15.2985C117.483 16.7259 117.035 17.8545 116.032 18.8687C115.316 19.5006 114.561 19.8626 113.69 20.2295C113.96 20.7186 114.231 21.2075 114.502 21.6963C114.594 21.8618 114.685 22.0274 114.777 22.193C114.91 22.4342 115.044 22.6752 115.178 22.9162C115.222 22.9958 115.266 23.0754 115.311 23.1574C115.532 23.5543 115.757 23.9481 115.99 24.3378C116.076 24.482 116.163 24.6262 116.251 24.7748C116.329 24.903 116.407 25.0311 116.488 25.1632C116.657 25.4892 116.657 25.4892 116.657 25.8938C115.499 25.8938 114.342 25.8938 113.15 25.8938C112.968 25.5375 112.786 25.1813 112.598 24.8143C112.418 24.4621 112.237 24.1099 112.057 23.7577C111.933 23.5165 111.81 23.2752 111.687 23.0339C111.507 22.6832 111.328 22.3327 111.148 21.9822C111.09 21.8676 111.031 21.7529 110.97 21.6348C110.693 21.0951 110.413 20.5576 110.124 20.0246C110.073 19.9314 110.022 19.8381 109.97 19.742C109.876 19.5695 109.781 19.3973 109.685 19.2257C109.482 18.8535 109.374 18.6385 109.374 18.2065C109.513 18.1812 109.513 18.1812 109.654 18.1553C110.078 18.0764 110.501 17.994 110.925 17.9115C111.07 17.885 111.216 17.8585 111.365 17.8312C112.227 17.6604 113.027 17.4674 113.69 16.8579C113.94 16.4369 113.996 16.1335 113.993 15.6441C113.994 15.5301 113.994 15.416 113.995 15.2985C113.957 14.9471 113.875 14.7294 113.69 14.4304C112.935 13.9182 111.889 13.9904 111.009 13.9499C110.79 13.9394 110.57 13.9289 110.351 13.9183C110.189 13.9106 110.189 13.9106 110.023 13.9027C109.943 13.8988 109.862 13.8949 109.779 13.8909C109.763 13.9825 109.747 14.0741 109.73 14.1685C109.287 16.6989 108.808 19.2203 108.308 21.7399C108.214 22.2112 108.121 22.6825 108.028 23.1538C107.848 24.0672 107.667 24.9805 107.486 25.8938C106.373 25.8938 105.261 25.8938 104.114 25.8938C104.266 24.5282 104.266 24.5282 104.362 24.041C104.383 23.9301 104.405 23.8191 104.427 23.7048C104.45 23.5877 104.474 23.4705 104.498 23.3499C104.522 23.223 104.547 23.0961 104.573 22.9653C104.654 22.5497 104.736 22.1343 104.818 21.7188C104.875 21.4285 104.932 21.1383 104.989 20.848C105.108 20.2416 105.227 19.6352 105.347 19.0289C105.5 18.2516 105.653 17.4741 105.805 16.6966C105.951 15.9543 106.097 15.2121 106.243 14.4699C106.27 14.3283 106.298 14.1867 106.327 14.0409C106.405 13.6409 106.484 13.241 106.563 12.8411C106.586 12.7226 106.61 12.6041 106.634 12.4821C106.655 12.373 106.677 12.2639 106.699 12.1516C106.727 12.01 106.727 12.01 106.755 11.8655C106.812 11.5946 106.878 11.3269 106.946 11.0588Z" fill="#F9F9F9"/>
<path d="M88.6048 11.3285C88.4596 12.3276 88.2984 13.313 88.0653 14.2955C87.9829 14.2663 87.9005 14.2371 87.8156 14.207C85.9927 13.6525 83.5784 13.5192 81.8616 14.4304C80.5233 15.1997 79.7769 16.1135 79.316 17.5828C78.9951 18.9472 79.0643 20.1842 79.7038 21.4433C80.2501 22.3129 80.9597 22.7609 81.9432 23.019C83.5281 23.3431 84.9968 23.1417 86.5818 22.9268C86.4038 23.9059 86.2258 24.885 86.0424 25.8938C83.5225 26.3519 80.5157 26.5836 78.2319 25.1573C76.6519 23.9915 75.6952 22.728 75.3881 20.769C75.2 18.0821 75.663 15.853 77.4195 13.7308C80.2194 10.769 84.841 10.074 88.6048 11.3285Z" fill="#F9F9F9"/>
<path d="M39.7843 11.0588C40.897 11.0588 42.0096 11.0588 43.1559 11.0588C43.0044 12.4229 43.0044 12.4229 42.8819 13.0302C42.8415 13.2336 42.8415 13.2336 42.8002 13.4411C42.7713 13.584 42.7425 13.7269 42.7129 13.8741C42.6517 14.1854 42.5907 14.4968 42.5298 14.8081C42.4346 15.2924 42.3388 15.7765 42.2412 16.2602C41.5899 19.4878 41.133 21.241 42.077 22.5222C42.7705 23.1637 43.3293 23.2455 44.2459 23.2334C45.0739 23.1558 45.7284 22.8401 46.2999 22.2356C47.0855 21.1839 47.3337 19.9086 47.5811 18.6449C47.6144 18.4803 47.6476 18.3157 47.6818 18.1461C48.0266 16.4272 48.339 14.7018 48.6486 12.9763C48.6778 12.8148 48.6778 12.8148 48.7075 12.6501C48.7442 12.447 48.7805 12.2438 48.8165 12.0406C48.9399 11.3589 48.9399 11.3589 49.0899 11.0588C50.2025 11.0588 51.3152 11.0588 52.4615 11.0588C52.3096 12.4255 52.3096 12.4255 52.1858 13.0963C52.1583 13.2463 52.1308 13.3963 52.1025 13.5508C52.0728 13.7093 52.0432 13.8678 52.0127 14.0311C51.9659 14.2818 51.9659 14.2818 51.9183 14.5375C51.8523 14.89 51.7862 15.2425 51.7197 15.595C51.6524 15.9521 51.586 16.3094 51.5204 16.6668C50.2954 23.3275 49.6968 23.736 47.9546 25.0557C46.0461 26.2599 43.6424 26.4914 41.4533 26.0118C40.2083 25.6368 39.2037 24.8842 38.5706 23.736C38.2413 22.8495 38.0898 22.0216 38.0948 21.0782C38.0953 20.9529 38.0958 20.8275 38.0963 20.6983C38.1379 18.9567 38.5057 17.2547 38.8458 15.5517C38.9361 15.0957 39.023 14.6391 39.1103 14.1826C39.2379 13.5189 39.3665 12.8556 39.498 12.1927C39.524 12.0612 39.5501 11.9297 39.5769 11.7942C39.6495 11.4634 39.6495 11.4634 39.7843 11.0588Z" fill="#F9F9F9"/>
<path d="M71.5324 11.0435C71.7432 11.0445 71.7432 11.0445 71.9583 11.0456C72.0949 11.0459 72.2315 11.0463 72.3722 11.0466C72.547 11.0478 72.7218 11.0491 72.9018 11.0503C73.2011 11.0519 73.5003 11.0534 73.7995 11.0548C74.1893 11.0568 74.1893 11.0568 74.5792 11.0588C74.0709 13.9476 73.5374 16.8316 72.9971 19.7146C72.8808 20.3354 72.765 20.9564 72.6494 21.5774C72.5594 22.0598 72.4691 22.5423 72.3786 23.0247C72.3357 23.254 72.2929 23.4834 72.2502 23.7128C72.1913 24.0296 72.1318 24.3463 72.0722 24.6629C72.0549 24.7569 72.0375 24.8509 72.0196 24.9477C71.8973 25.5932 71.8973 25.5932 71.7471 25.8937C70.6345 25.8937 69.5218 25.8937 68.3755 25.8937C68.592 24.2583 68.89 22.6437 69.1978 21.0234C69.2516 20.7392 69.3053 20.4549 69.359 20.1707C69.4708 19.5793 69.583 18.988 69.6953 18.3967C69.8396 17.6374 69.983 16.8779 70.1261 16.1183C70.2365 15.5334 70.3473 14.9486 70.4583 14.3639C70.5114 14.0836 70.5644 13.8033 70.6172 13.5229C70.6906 13.1335 70.7646 12.7443 70.8389 12.3551C70.8716 12.1806 70.8716 12.1806 70.9049 12.0025C71.0851 11.0645 71.0851 11.0645 71.5324 11.0435Z" fill="#F9F9F9"/>
<path d="M15.3744 5.93402C15.5079 5.93402 15.6414 5.93402 15.779 5.93402C15.7513 6.01069 15.7237 6.08735 15.6952 6.16634C15.6589 6.27048 15.6225 6.37461 15.5851 6.4819C15.5491 6.5836 15.5131 6.68531 15.4761 6.79009C15.2459 7.59977 15.2212 8.3957 15.2311 9.22975C15.2317 9.3284 15.2323 9.42706 15.2329 9.52871C15.2345 9.76903 15.2369 10.0093 15.2395 10.2497C15.4175 10.3387 15.5956 10.4277 15.779 10.5194C15.7317 10.3692 15.6844 10.219 15.6357 10.0642C15.3867 9.05592 15.6127 8.10037 15.8991 7.12251C16.108 6.78123 16.3505 6.72521 16.723 6.60834C16.7655 7.06315 16.7997 7.51823 16.8326 7.97383C16.8447 8.10213 16.8568 8.23043 16.8692 8.36262C16.9323 9.3186 16.9323 9.3186 16.7078 9.68633C16.5339 9.87492 16.3588 10.0623 16.1836 10.2497C16.1357 10.6294 16.1357 10.6294 16.2173 10.9998C16.3029 11.5202 16.3009 11.8933 16.1836 12.4075C16.2257 12.588 16.271 12.7677 16.3184 12.9469C16.3237 13.2616 16.3245 13.5763 16.3184 13.891C15.8043 13.8215 15.5929 13.721 15.2395 13.3515C15.106 13.3515 14.9725 13.3515 14.8349 13.3515C15.0143 13.9434 15.3258 14.2988 15.7463 14.7344C15.9138 14.9699 15.9138 14.9699 15.9138 15.5093C15.2698 15.4462 14.8289 15.3416 14.2955 14.9699C14.317 15.2942 14.317 15.2942 14.4303 15.6442C14.698 15.8747 14.698 15.8747 15.0288 16.0488C15.5501 16.3433 15.7357 16.5515 15.9138 17.1277C15.779 17.2625 15.779 17.2625 15.4334 17.3131C14.8018 17.2442 14.4006 16.9505 13.8909 16.5882C13.8464 16.8553 13.8019 17.1223 13.756 17.3974C13.849 17.4172 13.942 17.437 14.0379 17.4575C14.9866 17.6839 15.6831 18.0171 16.4533 18.6112C16.5374 18.6748 16.6216 18.7384 16.7083 18.804C16.9003 18.9557 17.0826 19.1195 17.2625 19.2855C17.2625 19.3745 17.2625 19.4635 17.2625 19.5552C16.192 19.7012 15.2811 19.1506 14.4209 18.5517C14.1389 18.3235 13.9195 18.1291 13.756 17.802C13.6225 17.802 13.489 17.802 13.3514 17.802C13.6593 18.8097 14.5981 19.2344 15.4645 19.7343C16.0502 20.0282 16.6428 20.2098 17.2719 20.3871C18.4989 20.7355 18.4989 20.7355 18.8808 21.3085C18.8808 21.442 18.8808 21.5755 18.8808 21.713C18.2131 21.7607 17.8439 21.6288 17.2625 21.3085C17.1164 21.2478 16.9704 21.1871 16.8199 21.1246C15.7 20.6501 14.6697 19.9472 13.756 19.1506C13.4572 18.9782 13.4572 18.9782 13.2166 18.8809C13.1658 19.2635 13.1658 19.2635 13.2166 19.6901C14.6064 21.239 17.3714 22.1689 19.2854 22.792C19.2854 22.97 19.2854 23.148 19.2854 23.3314C18.3293 23.4468 17.7139 23.1993 16.8884 22.7498C16.4271 22.5007 16.0231 22.333 15.5092 22.2356C14.526 21.9865 13.8191 21.0997 13.1294 20.3994C12.9472 20.2139 12.9472 20.2139 12.6771 20.0947C12.7143 20.7153 12.8 21.1685 13.2329 21.6335C15.0079 23.1354 17.3423 24.068 19.5551 24.68C19.5106 24.8136 19.4661 24.9471 19.4203 25.0846C17.2108 25.1665 15.3179 24.2984 13.6212 22.9268C13.3092 22.6124 13.0218 22.2929 12.743 21.9491C12.5559 21.6978 12.5559 21.6978 12.2725 21.5782C12.3393 22.3125 12.3393 22.3125 12.4074 23.0617C12.6299 23.1507 12.8524 23.2397 13.0817 23.3314C13.2779 23.4852 13.4687 23.6461 13.6549 23.8119C14.5825 24.5802 15.6518 25.0872 16.723 25.6241C16.723 25.7131 16.723 25.8021 16.723 25.8938C15.0724 25.7715 13.602 25.0357 12.499 23.786C12.2725 23.4663 12.2725 23.4663 12.2725 23.1965C12.1835 23.241 12.0945 23.2856 12.0028 23.3314C11.9649 23.7384 11.9692 23.9512 12.1866 24.3039C13.0271 25.237 13.9763 25.8875 15.1047 26.4333C15.1047 26.5223 15.1047 26.6113 15.1047 26.703C13.9996 26.8547 13.1806 26.3596 12.2725 25.7589C12.1835 25.6254 12.0945 25.4919 12.0028 25.3544C11.9138 25.3544 11.8248 25.3544 11.7331 25.3544C11.7893 26.0104 12.047 26.2847 12.5422 26.703C12.9693 26.9448 12.9693 26.9448 13.3514 27.1076C13.3514 27.1966 13.3514 27.2856 13.3514 27.3773C13.1862 27.4655 13.0203 27.5523 12.8541 27.6386C12.7156 27.7114 12.7156 27.7114 12.5744 27.7856C11.7865 28.1279 11.0075 28.0477 10.1653 28.0169C9.6735 28.0544 9.4309 28.1704 9.0358 28.4562C9.00294 28.3528 8.97008 28.2493 8.93623 28.1428C8.73992 27.7264 8.59508 27.6269 8.20133 27.4026C7.0635 26.683 6.33754 25.7011 5.93394 24.4103C5.91655 23.9604 5.91655 23.9604 5.93394 23.6011C6.30917 23.9331 6.57636 24.2866 6.84427 24.7053C7.51604 25.7325 8.27266 26.5754 9.30552 27.2424C9.35003 27.1979 9.39453 27.1534 9.44039 27.1076C9.33764 26.9916 9.2349 26.8757 9.12904 26.7562C6.62249 23.899 6.62249 23.899 6.33853 22.5222C6.3891 22.1935 6.3891 22.1935 6.47339 21.9828C6.51772 22.066 6.56205 22.1493 6.60773 22.2351C7.45474 23.7432 8.91474 25.3143 10.5193 26.0287C10.5193 25.9397 10.5193 25.8507 10.5193 25.7589C10.3026 25.5783 10.0792 25.4055 9.85341 25.2364C8.13727 23.8599 6.82622 21.7092 6.33853 19.5552C6.39964 19.2576 6.39964 19.2576 6.47339 19.0158C6.51924 19.1218 6.51924 19.1218 6.56601 19.2301C6.70579 19.5523 6.84666 19.8741 6.98756 20.1958C7.05966 20.3627 7.05966 20.3627 7.13322 20.533C7.18059 20.6408 7.22797 20.7486 7.27678 20.8596C7.31986 20.9585 7.36294 21.0574 7.40733 21.1592C7.54682 21.453 7.54682 21.453 7.76391 21.7232C7.95689 21.9828 7.95689 21.9828 8.08332 22.4042C8.2566 22.8731 8.34054 22.8536 8.76607 23.0617C8.97205 23.2803 8.97205 23.2803 9.16223 23.5253C9.48596 23.9207 9.7866 24.1788 10.2496 24.4103C10.1884 24.313 10.1272 24.2156 10.0641 24.1153C9.84498 23.736 9.84498 23.736 9.71011 23.3651C9.66561 23.265 9.6211 23.1648 9.57525 23.0617C9.37498 22.9949 9.37498 22.9949 9.17066 22.9268C8.89265 22.5919 8.67886 22.2117 8.4542 21.8395C8.38823 21.7303 8.32227 21.621 8.25431 21.5085C7.14497 19.6209 6.5804 17.718 6.60825 15.5093C6.69726 15.5538 6.78627 15.5983 6.87798 15.6442C6.94228 15.9259 6.94228 15.9259 6.9923 16.2948C7.13469 17.1543 7.41807 17.9167 7.74616 18.7208C7.79945 18.8552 7.85273 18.9897 7.90763 19.1282C8.34151 20.2133 8.8343 21.1747 9.49939 22.1345C9.5638 22.2292 9.62821 22.324 9.69457 22.4216C10.2586 23.2691 10.2586 23.2691 11.0587 23.8709C10.5043 22.6899 9.86944 21.516 9.08163 20.4724C8.87413 20.1935 8.75175 19.9034 8.62383 19.5816C8.49585 19.2726 8.49585 19.2726 8.30985 18.9389C7.35006 17.0916 7.0071 14.8821 7.14771 12.8121C7.19221 12.8121 7.23672 12.8121 7.28257 12.8121C7.31682 12.9864 7.35107 13.1608 7.38635 13.3404C7.4821 13.8266 7.5801 14.3122 7.67926 14.7976C7.76302 15.2085 7.8403 15.6177 7.91 16.0314C8.11359 17.1398 8.55431 17.785 9.30552 18.6112C9.39453 18.7447 9.48354 18.8782 9.57525 19.0158C9.53051 18.5237 9.42271 18.3185 9.11482 17.9184C8.72046 17.3794 8.5918 16.8664 8.47106 16.2174C8.44945 16.1101 8.42785 16.0027 8.4056 15.8922C8.36322 15.6799 8.32181 15.4675 8.28147 15.2549C8.236 15.0186 8.18535 14.7833 8.13337 14.5484C7.92418 13.5654 7.93056 12.6002 7.95689 11.5983C8.0904 11.5315 8.0904 11.5315 8.22662 11.4634C8.35348 12.0046 8.37862 12.5186 8.39519 13.0734C8.48222 14.7231 9.19776 16.1635 9.90556 17.6297C10.08 17.9984 10.2357 18.3666 10.3844 18.746C10.4687 18.9384 10.5556 19.1296 10.6457 19.3192C10.6887 19.4117 10.7316 19.5042 10.7759 19.5995C10.9202 19.8702 10.9202 19.8702 11.3285 19.9598C11.2395 19.8263 11.1505 19.6928 11.0587 19.5552C10.991 19.3011 10.9233 19.0468 10.8649 18.7903C10.582 17.6197 10.1254 16.5411 9.66059 15.4316C9.10511 14.075 8.85328 12.8684 8.85879 11.4044C8.85661 11.2852 8.85444 11.1661 8.8522 11.0433C8.85207 10.8718 8.85207 10.8718 8.85194 10.6969C8.85154 10.5946 8.85114 10.4923 8.85072 10.3869C8.91335 10.0475 9.04468 9.92742 9.30552 9.7102C9.31056 9.8152 9.31561 9.9202 9.3208 10.0284C9.47303 12.9261 9.47303 12.9261 10.3844 15.6442C10.4427 15.773 10.5009 15.9018 10.5609 16.0346C10.9983 16.9391 11.3564 17.278 12.2725 17.6671C12.2155 17.5664 12.2155 17.5664 12.1573 17.4636C11.9816 17.1524 11.8068 16.8408 11.6319 16.5292C11.5721 16.4236 11.5123 16.318 11.4507 16.2092C10.4126 14.3543 10.0667 12.8325 10.0978 10.6964C10.0991 10.5358 10.1003 10.3753 10.1015 10.2099C10.1047 9.81852 10.1091 9.42721 10.1147 9.03588C10.3844 9.17074 10.3844 9.17074 10.4851 9.43257C10.6604 10.0974 10.8089 10.7557 10.9206 11.4345C11.0934 12.474 11.3815 13.3478 11.84 14.2971C12.0007 14.695 12.0381 14.9512 12.0028 15.3745C12.3605 15.5195 12.7154 15.6569 13.0817 15.7791C13.0015 15.5202 12.9197 15.2618 12.8373 15.0036C12.7919 14.8596 12.7465 14.7157 12.6998 14.5674C12.5516 14.1847 12.3944 13.9361 12.1377 13.6212C11.6978 12.8229 11.627 12.0991 11.7331 11.1937C11.9354 10.6964 11.9354 10.6964 12.1377 10.3845C12.4161 10.8022 12.4627 11.012 12.5338 11.4971C12.6415 12.1312 12.7741 12.6507 13.0817 13.2166C13.2152 13.2612 13.3487 13.3057 13.4863 13.3515C13.4454 13.223 13.4046 13.0946 13.3625 12.9622C12.9552 11.5295 12.6782 9.73702 13.3514 8.36156C13.4849 8.36156 13.6185 8.36156 13.756 8.36156C13.7821 8.47369 13.8082 8.58583 13.835 8.70136C13.8877 8.92119 13.8877 8.92119 13.9415 9.14546C13.9759 9.29097 14.0103 9.43648 14.0458 9.5864C14.1454 10.0009 14.1454 10.0009 14.4303 10.3845C14.5638 10.429 14.6974 10.4735 14.8349 10.5194C14.7682 10.3859 14.7014 10.2523 14.6326 10.1148C14.2815 9.16952 14.207 7.86338 14.5726 6.91283C14.8054 6.5368 15.0624 6.24604 15.3744 5.93402Z" fill="#000816"/>
<path d="M25.624 9.44038C25.624 9.52939 25.624 9.6184 25.624 9.71011C25.3475 9.74084 25.0709 9.77157 24.7943 9.8023C24.5436 9.82054 24.5436 9.82054 24.4103 9.97984C24.5744 9.99374 24.7385 10.0077 24.9076 10.022C25.4085 10.0843 25.7584 10.2028 26.1635 10.5193C26.1635 10.6083 26.1635 10.6973 26.1635 10.789C25.2956 10.8558 25.2956 10.8558 24.4103 10.9239C24.9242 11.4827 24.9242 11.4827 25.5566 11.5392C26.0513 11.5734 26.3522 11.6216 26.7029 12.0028C26.7029 12.0918 26.7029 12.1808 26.7029 12.2725C26.235 12.2107 25.8029 12.1523 25.3543 12.0028C25.531 12.5328 25.7243 12.5652 26.2141 12.812C27.0932 13.2573 27.0932 13.2573 27.3773 13.6211C27.3717 13.7268 27.3661 13.8325 27.3604 13.9415C27.3393 14.3331 27.3393 14.3331 27.7144 14.6326C28.0516 14.9698 28.0516 14.9698 28.0937 15.3491C28.0798 15.4464 28.0659 15.5438 28.0516 15.6441C27.8736 15.6441 27.6955 15.6441 27.5121 15.6441C27.6456 15.8026 27.6456 15.8026 27.7819 15.9644C28.0516 16.3184 28.0516 16.3184 28.0516 16.5881C28.1573 16.6299 28.263 16.6716 28.3719 16.7146C28.7259 16.8579 28.7259 16.8579 28.9956 16.9927C28.9956 17.1263 28.9956 17.2598 28.9956 17.3973C28.3031 17.3108 27.6478 17.1704 26.9727 16.9927C27.3398 17.3844 27.6972 17.6679 28.1612 17.9368C28.2794 18.0056 28.3976 18.0745 28.5194 18.1454C28.632 18.2101 28.7447 18.2747 28.8608 18.3414C28.9512 18.3949 29.0416 18.4485 29.1347 18.5036C29.4836 18.7087 29.8068 18.8815 30.1925 19.0073C30.2871 19.0545 30.3817 19.1018 30.4791 19.1506C30.5083 19.3091 30.5083 19.3091 30.5381 19.4709C30.5828 19.8693 30.5828 19.8693 31.0101 20.1199C31.1464 20.2005 31.2827 20.2812 31.4232 20.3643C31.7583 20.6995 31.8191 20.9949 31.9626 21.4432C32.0127 21.5295 32.0628 21.6157 32.1143 21.7045C32.2981 22.1377 32.2894 22.4622 32.2323 22.9267C31.9373 23.2892 31.9373 23.2892 31.558 23.601C31.3911 23.7596 31.3911 23.7596 31.2209 23.9213C30.8837 24.1405 30.8837 24.1405 30.555 24.1489C29.6852 23.7883 29.2887 23.1826 28.8033 22.4157C28.5343 22.0378 28.2256 21.7691 27.8646 21.4817C27.5912 21.2639 27.3495 21.0206 27.1075 20.7689C26.7712 20.9313 26.4762 21.0999 26.1635 21.3084C26.1889 21.6381 26.1889 21.6381 26.2984 21.9827C26.3827 22.0183 26.467 22.054 26.5539 22.0907C26.963 22.3237 27.0108 22.5993 27.1665 23.0363C27.4249 23.7072 27.6563 24.0756 28.1864 24.5451C28.1864 24.6786 28.1864 24.8121 28.1864 24.9497C27.7934 25.0333 27.6211 25.0595 27.2424 24.9497C26.6395 24.4918 26.1019 23.9727 25.9517 23.2112C25.9527 22.8826 25.9729 22.576 26.0286 22.2524C25.8061 22.2079 25.5836 22.1634 25.3543 22.1175C25.2631 21.8623 25.1735 21.6065 25.0846 21.3505C25.0345 21.2081 24.9844 21.0657 24.9329 20.9191C24.8231 20.5284 24.791 20.2272 24.8149 19.8249C24.6368 19.8249 24.4588 19.8249 24.2754 19.8249C24.2754 20.1809 24.2754 20.5369 24.2754 20.9038C24.1864 20.9038 24.0974 20.9038 24.0057 20.9038C23.9612 20.6367 23.9167 20.3697 23.8708 20.0946C23.6928 20.0946 23.5148 20.0946 23.3314 20.0946C23.2607 19.9217 23.2607 19.9217 23.1886 19.7453C23.1272 19.5963 23.0659 19.4473 23.0026 19.2938C22.9416 19.1452 22.8806 18.9966 22.8177 18.8434C22.6915 18.4943 22.6915 18.4943 22.5222 18.3414C22.6011 19.1696 22.73 19.9606 22.9268 20.7689C22.5222 20.634 22.5222 20.634 22.3057 20.2079C22.233 20.033 22.162 19.8576 22.0923 19.6816C22.0555 19.5921 22.0188 19.5027 21.9809 19.4105C21.8903 19.1895 21.8015 18.9678 21.713 18.746C21.6685 18.746 21.624 18.746 21.5781 18.746C21.5378 19.7197 21.5378 19.7197 21.8479 20.634C21.7588 20.634 21.6698 20.634 21.5781 20.634C20.6959 19.3422 20.3837 17.7267 20.4992 16.1836C20.1431 16.3012 20.1431 16.3012 19.8249 16.5881C19.7371 16.98 19.7615 17.3606 19.7828 17.7598C19.7858 17.8673 19.7888 17.9748 19.792 18.0856C19.7999 18.3508 19.812 18.6158 19.8249 18.8808C19.3068 18.775 19.3068 18.775 19.1148 18.5136C18.6568 17.4251 18.6943 16.3977 18.746 15.2395C18.568 15.2395 18.39 15.2395 18.2065 15.2395C18.2029 15.5177 18.2003 15.7958 18.1981 16.074C18.1966 16.2289 18.195 16.3838 18.1934 16.5434C18.205 16.9399 18.2591 17.2811 18.3414 17.6671C18.3572 18.0281 18.3475 18.3843 18.3414 18.746C17.5295 18.137 17.3465 17.2779 17.1276 16.3184C17.0673 15.8869 17.0396 15.5271 17.2646 15.1368C17.4467 14.7228 17.4232 14.3745 17.4142 13.9246C17.4118 13.7667 17.4094 13.6089 17.4068 13.4462C17.4037 13.3259 17.4006 13.2056 17.3974 13.0817C17.8525 13.1555 18.0828 13.224 18.4763 13.4863C18.6995 13.5382 18.9243 13.5845 19.1506 13.6211C19.1506 13.4876 19.1506 13.3541 19.1506 13.2166C19.2433 13.21 19.3359 13.2033 19.4314 13.1965C19.5529 13.1865 19.6744 13.1764 19.7996 13.166C19.9201 13.1566 20.0406 13.1472 20.1647 13.1375C20.5321 13.0997 20.5321 13.0997 20.9038 12.812C20.7258 12.723 20.5478 12.6339 20.3644 12.5422C20.4065 12.2809 20.4065 12.2809 20.4992 12.0028C20.6327 11.9583 20.7663 11.9138 20.9038 11.8679C20.9594 11.74 21.0151 11.612 21.0724 11.4802C21.3793 10.9322 21.6849 10.8931 22.2524 10.6542C22.3359 10.5234 22.4193 10.3927 22.5053 10.258C23.27 9.15596 24.4142 9.25205 25.624 9.44038Z" fill="#000816"/>
<path d="M19.6902 3.37158C19.8238 3.37158 19.9573 3.37158 20.0948 3.37158C20.3019 3.60865 20.3019 3.60865 20.5078 3.92789C20.5762 4.03116 20.6445 4.13442 20.7149 4.24082C21.3942 5.4783 21.3466 7.05443 21.0858 8.41632C20.8052 9.27362 20.3301 9.89204 19.6902 10.5193C19.2351 10.4455 19.0048 10.3771 18.6113 10.1148C18.6987 9.00926 18.8368 7.91586 18.9991 6.81903C19.0208 6.66561 19.0425 6.51219 19.0649 6.35412C19.2139 5.34149 19.4228 4.3595 19.6902 3.37158Z" fill="#000816"/>
<path d="M4.45065 24.2755C4.70352 24.5705 4.70352 24.5705 4.85524 24.9498C4.74567 25.3291 4.74567 25.3291 4.58552 25.6241C4.76354 25.6686 4.94156 25.7131 5.12497 25.7589C5.02205 25.8035 4.91914 25.848 4.8131 25.8938C4.19179 26.3562 4.0635 27.0395 3.95334 27.7819C3.93248 27.9822 3.93248 27.9822 3.9112 28.1865C4.00021 28.1865 4.08922 28.1865 4.18093 28.1865C4.22265 28.0585 4.26437 27.9306 4.30736 27.7988C4.45065 27.3773 4.45065 27.3773 4.58552 27.1076C4.71903 27.1521 4.85255 27.1966 4.99011 27.2424C5.10864 27.5459 5.10864 27.5459 5.20083 27.9168C5.28701 28.2788 5.28701 28.2788 5.3947 28.5911C5.48371 28.6356 5.57272 28.6801 5.66442 28.7259C5.61992 28.3699 5.57541 28.0139 5.52956 27.647C6.0976 27.8574 6.37525 28.261 6.74333 28.7259C6.83234 28.815 6.92135 28.904 7.01306 28.9957C6.31496 29.2284 5.57755 29.1611 4.84681 29.1643C4.68366 29.167 4.5205 29.1698 4.3524 29.1727C4.11914 29.1737 4.11914 29.1737 3.88117 29.1748C3.73826 29.176 3.59534 29.1773 3.4481 29.1786C3.33389 29.1627 3.21969 29.1469 3.10202 29.1305C2.83229 28.7259 2.83229 28.7259 2.84072 28.2961C2.9594 27.8134 3.0354 27.6724 3.32117 27.3015C3.77954 26.6386 3.63216 26.0073 3.52031 25.2427C3.50661 24.8149 3.50661 24.8149 3.66992 24.4883C3.9112 24.2755 3.9112 24.2755 4.45065 24.2755Z" fill="#000816"/>
<path d="M24.1405 11.4634C24.4491 11.7508 24.6975 12.0706 24.9497 12.4074C25.0359 12.5048 25.1222 12.6021 25.211 12.7024C25.3543 12.9469 25.3543 12.9469 25.3374 13.2335C25.2194 13.4863 25.2194 13.4863 24.8148 13.7561C24.2207 13.8447 23.5935 13.8991 23.0542 13.6049C22.834 13.4189 22.834 13.4189 22.5222 13.0817C22.7181 12.5653 22.9846 12.3912 23.4662 12.1377C23.0657 12.0932 22.6651 12.0487 22.2524 12.0028C22.2969 11.8693 22.3415 11.7358 22.3873 11.5982C23.0103 11.3539 23.5033 11.2329 24.1405 11.4634Z" fill="#F9F9F9"/>
<path d="M12.4077 2.96698C13.8372 2.82403 15.3123 3.4954 16.5042 4.24818C16.5765 4.31494 16.6488 4.3817 16.7233 4.45048C16.7233 4.58399 16.7233 4.71751 16.7233 4.85507C14.7872 5.1287 14.7872 5.1287 14.2895 4.81714C14.1104 4.57691 14.1104 4.57691 13.9502 4.31351C13.6268 3.867 13.152 3.66406 12.6743 3.40687C12.5863 3.35071 12.4983 3.29456 12.4077 3.23671C12.4077 3.1477 12.4077 3.05869 12.4077 2.96698Z" fill="#000816"/>
<path d="M5.39424 16.1836C5.48325 16.2281 5.57226 16.2726 5.66396 16.3185C5.69303 17.8332 5.66742 19.2738 5.39424 20.769C5.30523 20.769 5.21622 20.769 5.12451 20.769C4.47138 19.7193 4.43667 18.5919 4.58506 17.3974C4.77658 16.9117 5.02097 16.5569 5.39424 16.1836Z" fill="#000816"/>
<path d="M3.77626 19.5551C3.86527 19.5551 3.95428 19.5551 4.04598 19.5551C4.11257 19.7093 4.17915 19.8635 4.24775 20.0224C4.33501 20.2235 4.42229 20.4245 4.50958 20.6256C4.55347 20.7274 4.59737 20.8292 4.6426 20.934C4.82833 21.4257 4.82833 21.4257 5.12489 21.8478C5.26054 22.5713 5.27475 23.271 5.25976 24.0056C5.17075 24.0056 5.08174 24.0056 4.99003 24.0056C4.13766 23.0611 3.60528 21.5966 3.59082 20.3222C3.64139 19.8248 3.64139 19.8248 3.77626 19.5551Z" fill="#000816"/>
<path d="M28.7259 7.82197C29.1895 8.08327 29.1895 8.08327 29.5351 8.36143C29.5351 8.63116 29.5351 8.63116 29.3027 8.86401C28.7946 9.27624 28.4529 9.55186 27.7987 9.66792C27.3772 9.5752 27.3772 9.5752 27.1159 9.30547C27.0687 9.21646 27.0214 9.12745 26.9727 9.03575C27.0617 8.99124 27.1507 8.94674 27.2424 8.90088C27.1979 8.63385 27.1534 8.36682 27.1075 8.0917C27.685 7.6542 28.0302 7.6389 28.7259 7.82197Z" fill="#000816"/>
<path d="M33.0499 6.47342C33.1362 6.51793 33.2224 6.56243 33.3112 6.60828C33.0649 7.23543 32.627 7.55393 32.0385 7.85577C31.6222 7.97761 31.3152 8.012 30.8837 7.95692C30.5634 7.68719 30.5634 7.68719 30.3442 7.41746C30.4729 7.26247 30.6023 7.10805 30.732 6.95387C30.8039 6.86782 30.8759 6.78176 30.9501 6.6931C31.4772 6.12369 32.3686 6.25095 33.0499 6.47342Z" fill="#000816"/>
<path d="M6.65907 9.2129C6.76425 9.22751 6.86943 9.24211 6.97779 9.25716C7.07845 9.27315 7.17911 9.28914 7.28282 9.30562C7.44137 9.33066 7.59991 9.35569 7.76327 9.38148C7.87175 9.40096 7.98023 9.42043 8.092 9.44049C8.02562 9.76395 8.02562 9.76395 7.82227 10.1148C7.44084 10.2239 7.11595 10.2889 6.7265 10.334C5.91097 10.4398 5.21394 10.6107 4.45068 10.924C4.46182 10.5452 4.5259 10.3139 4.78573 10.0342C5.86336 9.09704 5.86336 9.09704 6.65907 9.2129Z" fill="#000816"/>
<path d="M10.3762 5.3692C10.5444 5.36729 10.7125 5.36537 10.8857 5.3634C11.3287 5.39449 11.3287 5.39449 11.7333 5.66421C11.6996 5.91708 11.6996 5.91708 11.5984 6.20367C11.2 6.46008 10.9132 6.50181 10.4458 6.47023C10.275 6.4598 10.275 6.4598 10.1007 6.44916C9.98302 6.44047 9.86533 6.43177 9.74407 6.42282C9.62429 6.41517 9.50451 6.40752 9.3811 6.39964C9.08614 6.38061 8.79135 6.3602 8.49658 6.33853C9.13196 5.55266 9.32781 5.37461 10.3762 5.3692Z" fill="#000816"/>
<path d="M10.6544 3.6413C11.5243 3.72976 12.186 3.79815 12.8122 4.45048C12.9916 4.55061 12.9916 4.55061 13.1747 4.65277C13.2776 4.71953 13.3805 4.78629 13.4865 4.85507C13.4865 4.98858 13.4865 5.1221 13.4865 5.25966C13.2935 5.31591 13.0994 5.36863 12.9049 5.41981C12.797 5.44954 12.689 5.47926 12.5778 5.50989C12.2728 5.52938 12.2728 5.52938 12.0309 5.3508C11.8682 5.12479 11.8682 5.12479 11.8682 4.85507C11.7597 4.805 11.7597 4.805 11.649 4.75392C11.2526 4.54529 10.8894 4.29806 10.5195 4.04589C10.564 3.91237 10.6085 3.77886 10.6544 3.6413Z" fill="#000816"/>
<path d="M5.93389 13.0817C5.86968 13.7558 5.71179 14.1898 5.25957 14.7C4.98302 14.8021 4.71759 14.8591 4.42774 14.9113C4.1153 14.9852 3.97648 15.1294 3.77607 15.3743C3.68706 15.3743 3.59805 15.3743 3.50635 15.3743C3.54528 14.5762 3.8829 14.1443 4.45039 13.6211C4.94452 13.258 5.30427 13.0817 5.93389 13.0817Z" fill="#000816"/>
<path d="M6.6085 11.0588C6.6085 11.1923 6.6085 11.3258 6.6085 11.4633C5.95977 12.1107 4.74994 13.2166 3.77637 13.2166C3.83601 12.5663 4.10121 12.2832 4.56026 11.8342C4.67796 11.7167 4.79565 11.5992 4.91691 11.4781C5.47205 11.0176 5.90261 11.0427 6.6085 11.0588Z" fill="#000816"/>
<path d="M6.20374 26.4332C7.06137 27.044 7.89486 27.7016 8.63128 28.4561C8.63128 28.5451 8.63128 28.6341 8.63128 28.7258C8.1721 28.9554 7.92858 28.9514 7.41751 28.8607C6.85057 28.3048 6.21173 27.6416 6.19531 26.8209C6.19809 26.6929 6.20088 26.565 6.20374 26.4332Z" fill="#000816"/>
<path d="M5.25977 8.76609C5.19994 8.81957 5.1401 8.87305 5.07845 8.92815C4.42295 9.54372 4.00871 10.1788 3.59927 10.9745C3.48525 11.1922 3.37061 11.4096 3.25526 11.6267C3.20618 11.7217 3.1571 11.8166 3.10653 11.9145C2.96709 12.1377 2.96709 12.1377 2.69737 12.2725C2.62948 11.209 2.86082 10.3541 3.54869 9.5247C4.04325 9.00086 4.51611 8.51821 5.25977 8.76609Z" fill="#000816"/>
<path d="M8.9936 7.20678C9.12764 7.22051 9.26167 7.23425 9.39977 7.2484C9.50217 7.2597 9.60456 7.271 9.71006 7.28264C9.65994 7.60075 9.62788 7.77534 9.38291 7.99278C8.55382 8.42535 7.79902 8.41681 6.87793 8.36155C6.95872 7.89157 6.99305 7.83712 7.40053 7.52708C7.99238 7.18381 8.32552 7.13604 8.9936 7.20678Z" fill="#000816"/>
<path d="M24.9498 7.01288C25.346 7.26575 25.346 7.26575 25.6241 7.55233C25.6241 7.64134 25.6241 7.73035 25.6241 7.82206C25.7576 7.86656 25.8912 7.91107 26.0287 7.95692C26.0287 8.04593 26.0287 8.13494 26.0287 8.22665C25.032 8.28004 24.3013 8.109 23.4663 7.55233C23.5108 7.41882 23.5553 7.2853 23.6012 7.14774C24.0875 6.98565 24.4387 6.96882 24.9498 7.01288Z" fill="#000816"/>
<path d="M16.4536 2.96695C17.3154 2.87718 17.7936 3.12312 18.4766 3.64127C18.5656 3.73028 18.6546 3.81929 18.7463 3.911C18.6957 4.19758 18.6957 4.19758 18.6114 4.45045C18.249 4.56003 18.249 4.56003 17.8022 4.58531C17.4567 4.29873 17.4567 4.29873 17.1279 3.911C17.0028 3.79139 16.8776 3.67178 16.7486 3.54855C16.4536 3.23668 16.4536 3.23668 16.4536 2.96695Z" fill="#000816"/>
<path d="M6.33858 5.93402C6.29407 6.42358 6.24957 6.91313 6.20371 7.41752C5.46938 7.61779 5.46938 7.61779 4.72021 7.82211C4.75429 7.24277 4.79531 6.94884 5.17538 6.49876C5.85307 5.93402 5.85307 5.93402 6.33858 5.93402Z" fill="#000816"/>
<path d="M2.83213 20.0946C2.92114 20.0946 3.01015 20.0946 3.10186 20.0946C3.26459 20.6031 3.29866 21.0472 3.23672 21.5781C2.92438 22.1336 2.63878 22.5866 2.02295 22.7919C2.07594 21.986 2.20643 21.3603 2.5624 20.6341C2.61525 20.5256 2.6681 20.4171 2.72255 20.3053C2.75871 20.2358 2.79487 20.1663 2.83213 20.0946Z" fill="#000816"/>
<path d="M22.6567 7.95691C23.0941 8.03231 23.3217 8.1475 23.6008 8.49636C23.6008 8.58537 23.6008 8.67438 23.6008 8.76609C23.4984 8.82137 23.396 8.87666 23.2905 8.93362C23.1565 9.00628 23.0224 9.07895 22.8843 9.15382C22.7513 9.2258 22.6183 9.29777 22.4813 9.37192C22.1044 9.57624 22.1044 9.57624 21.7127 9.845C21.5792 9.845 21.4457 9.845 21.3081 9.845C21.3825 9.32648 21.6068 9.10207 21.9824 8.74923C22.3726 8.39244 22.3726 8.39244 22.6567 7.95691Z" fill="#000816"/>
<path d="M35.2416 5.20056C35.8052 5.26743 36.1763 5.41603 36.6829 5.66415C36.548 6.06874 36.548 6.06874 36.2699 6.23732C35.748 6.37058 35.3143 6.34027 34.7948 6.20361C34.4577 5.99288 34.4577 5.99288 34.2554 5.79902C34.5718 5.39393 34.7231 5.26904 35.2416 5.20056Z" fill="#000816"/>
<path d="M9.5753 4.45045C9.04847 5.01021 8.48122 5.53267 7.82207 5.93395C7.68856 5.93395 7.55504 5.93395 7.41748 5.93395C7.476 5.27077 7.76259 4.91453 8.22666 4.45045C8.71314 4.26803 9.07784 4.32254 9.5753 4.45045Z" fill="#000816"/>
<path d="M2.96705 22.7919C3.14507 22.8364 3.32309 22.8809 3.5065 22.9268C3.60108 23.8159 3.30367 24.342 2.83219 25.0846C2.74318 25.0401 2.65417 24.9956 2.56246 24.9497C2.55149 24.6914 2.54367 24.4328 2.53717 24.1743C2.53248 24.0303 2.52779 23.8864 2.52295 23.7381C2.56639 23.2909 2.66651 23.1169 2.96705 22.7919Z" fill="#000816"/>
<path d="M17.9369 5.66431C18.0704 5.70881 18.2039 5.75332 18.3415 5.79917C18.571 7.50785 18.571 7.50785 18.0718 8.22671C17.9827 8.22671 17.8937 8.22671 17.802 8.22671C17.5619 7.39502 17.5221 6.44213 17.9369 5.66431Z" fill="#000816"/>
<path d="M38.6552 4.10482C38.8205 4.12543 38.8205 4.12543 38.9892 4.14644C39.1159 4.16339 39.1159 4.16339 39.2452 4.18069C39.1679 4.56737 39.129 4.70145 38.8406 4.98987C38.4993 5.02569 38.4993 5.02569 38.0989 5.02358C37.9668 5.02428 37.8346 5.02497 37.6985 5.02569C37.3571 4.98987 37.3571 4.98987 37.0874 4.72014C37.9524 4.01447 37.9524 4.01447 38.6552 4.10482Z" fill="#000816"/>
<path d="M19.9599 6.20361C20.0934 6.29262 20.2269 6.38163 20.3645 6.47334C20.448 7.26726 20.3535 8.05799 19.9599 8.76602C19.6754 8.93565 19.6754 8.93565 19.4204 9.03575C19.4587 8.7153 19.4982 8.39506 19.5384 8.07484C19.549 7.98514 19.5596 7.89543 19.5706 7.80301C19.6421 7.24155 19.7632 6.73407 19.9599 6.20361Z" fill="#F9F9F9"/>
<path d="M29.6699 20.4992C29.8201 20.5799 29.9703 20.6605 30.1251 20.7436C30.2518 20.8117 30.2518 20.8117 30.3811 20.8811C30.614 21.0387 30.614 21.0387 30.8837 21.4433C30.8331 21.8057 30.8331 21.8057 30.7488 22.1176C30.4285 22.2019 30.4285 22.2019 30.0745 22.2524C29.7253 21.9032 29.7543 21.7093 29.7205 21.2241C29.7104 21.0888 29.7003 20.9536 29.6899 20.8142C29.6833 20.7103 29.6767 20.6063 29.6699 20.4992Z" fill="#F9F9F9"/>
<path d="M6.33838 19.0157C6.7805 19.4578 6.95655 20.0706 7.19418 20.6419C7.40578 21.1404 7.61559 21.5572 7.95674 21.9827C8.06632 22.3367 8.06632 22.3367 8.0916 22.657C8.00259 22.746 7.91358 22.835 7.82188 22.9267C6.33838 20.2718 6.33838 20.2718 6.33838 19.0157Z" fill="#000816"/>
<path d="M2.02291 19.5551C2.15643 19.5551 2.28994 19.5551 2.4275 19.5551C2.20638 20.2608 1.97038 20.9242 1.61832 21.5781C1.52931 21.5781 1.4403 21.5781 1.34859 21.5781C1.13695 21.1548 1.16626 20.8311 1.21373 20.3643C1.54246 19.9766 1.54246 19.9766 1.88805 19.69C1.93255 19.6455 1.97706 19.601 2.02291 19.5551Z" fill="#000816"/>
<path d="M2.56246 13.4863C2.74581 14.0363 2.582 14.4542 2.43603 14.9951C2.40969 15.0961 2.38335 15.1972 2.35622 15.3014C2.2911 15.5507 2.22462 15.7997 2.15787 16.0487C2.06886 16.0487 1.97985 16.0487 1.88815 16.0487C1.65439 15.5812 1.68885 15.0763 1.75328 14.5652C1.98792 14.135 2.21815 13.8306 2.56246 13.4863Z" fill="#000816"/>
<path d="M2.02285 17.5323C2.30101 17.5913 2.30101 17.5913 2.56231 17.6672C2.56231 18.0232 2.56231 18.3792 2.56231 18.7461C2.25077 18.8351 1.93924 18.9241 1.61826 19.0158C1.52554 18.7966 1.52554 18.7966 1.4834 18.4763C1.79033 17.7648 1.79033 17.7648 2.02285 17.5323Z" fill="#000816"/>
<path d="M17.3973 10.2496C17.8741 10.3219 17.8741 10.3219 18.0716 10.5194C18.0771 10.834 18.0773 11.1488 18.0716 11.4634C17.7155 11.5079 17.3595 11.5524 16.9927 11.5983C17.0938 10.5531 17.0938 10.5531 17.3973 10.2496Z" fill="#000816"/>
<path d="M14.1606 6.06891C13.9907 6.53939 13.7931 6.88999 13.4863 7.28268C13.4168 7.40507 13.3473 7.52746 13.2756 7.65355C13.2116 7.75369 13.1477 7.85383 13.0817 7.957C12.9927 7.957 12.9037 7.957 12.812 7.957C12.8749 7.3159 12.9641 6.86013 13.3515 6.33864C13.7561 6.06891 13.7561 6.06891 14.1606 6.06891Z" fill="#000816"/>
<path d="M4.31563 15.5093C4.44914 15.5538 4.58266 15.5983 4.72022 15.6441C4.54718 15.9371 4.37285 16.2291 4.19762 16.5208C4.14842 16.6044 4.09922 16.688 4.04853 16.7741C3.92017 16.9865 3.78142 17.1925 3.64131 17.3974C3.5523 17.3974 3.46329 17.3974 3.37158 17.3974C3.40709 16.5275 3.70964 16.119 4.31563 15.5093Z" fill="#000816"/>
<path d="M21.9828 5.66431C22.0718 5.66431 22.1608 5.66431 22.2525 5.66431C22.3208 5.83537 22.388 6.00684 22.4548 6.17847C22.4923 6.27392 22.5299 6.36936 22.5686 6.46769C22.6571 6.74321 22.6571 6.74321 22.6571 7.1478C22.4346 7.23681 22.212 7.32582 21.9828 7.41753C21.8479 7.28267 21.8479 7.28267 21.8311 6.7685C21.8352 6.38054 21.859 6.03549 21.9828 5.66431Z" fill="#000816"/>
<path d="M8.09174 11.4634C8.13624 11.4634 8.18075 11.4634 8.2266 11.4634C8.35825 12.0164 8.38376 12.5394 8.38675 13.1071C8.38867 13.2731 8.39058 13.4391 8.39255 13.6102C8.36147 14.0258 8.36147 14.0258 8.09174 14.2956C7.9746 13.6903 7.93872 13.1163 7.94002 12.5002C7.93967 12.3338 7.93932 12.1675 7.93896 11.996C7.95688 11.5983 7.95688 11.5983 8.09174 11.4634Z" fill="#000816"/>
<path d="M20.0946 10.924C20.1391 11.102 20.1836 11.28 20.2295 11.4634C20.056 11.6215 19.8817 11.7787 19.7069 11.9354C19.6099 12.023 19.5129 12.1107 19.4129 12.2009C19.1506 12.4074 19.1506 12.4074 18.8809 12.4074C18.8809 12.1209 18.8809 12.1209 19.0157 11.7331C19.3526 11.429 19.7167 11.1744 20.0946 10.924Z" fill="#000816"/>
<path d="M10.9239 7.82202C11.0129 7.82202 11.1019 7.82202 11.1936 7.82202C11.3475 8.28357 11.3417 8.6429 11.3369 9.12851C11.3357 9.28758 11.3345 9.44665 11.3333 9.61054C11.3317 9.73241 11.3301 9.85428 11.3285 9.97984C11.0588 9.84497 11.0588 9.84497 10.9071 9.56682C10.7393 9.00372 10.653 8.36376 10.9239 7.82202Z" fill="#000816"/>
<path d="M2.9669 26.1635C2.89983 26.8341 2.75745 27.3284 2.42744 27.9167C2.33843 27.8722 2.24942 27.8277 2.15771 27.7818C2.29258 26.1635 2.29258 26.1635 2.9669 26.1635Z" fill="#000816"/>
<path d="M12.4074 6.7431C12.3629 7.45518 12.3184 8.16726 12.2726 8.90092C12.1836 8.90092 12.0946 8.90092 12.0028 8.90092C11.8722 8.50908 11.8416 8.23114 11.8343 7.82201C11.8308 7.70519 11.8273 7.58836 11.8237 7.46799C11.8688 7.14198 12.012 6.7431 12.4074 6.7431Z" fill="#000816"/>
<path d="M27.647 22.3873C28.299 22.822 28.5576 23.3079 28.8607 24.0057C28.4318 23.8782 28.2241 23.7857 27.9504 23.4241C27.7871 23.073 27.7015 22.7693 27.647 22.3873Z" fill="#000816"/>
<path d="M6.33838 19.0157C6.67033 19.3476 6.78387 19.6609 6.96212 20.0946C7.02227 20.2392 7.08242 20.3839 7.1444 20.5329C7.28242 20.9038 7.28242 20.9038 7.28242 21.1735C7.14891 21.218 7.01539 21.2625 6.87783 21.3084C6.78698 21.0277 6.6973 20.7467 6.60811 20.4655C6.55804 20.309 6.50797 20.1525 6.45638 19.9913C6.33838 19.5551 6.33838 19.5551 6.33838 19.0157Z" fill="#000816"/>
<path d="M7.14775 12.812C7.19225 12.812 7.23676 12.812 7.28261 12.812C7.41613 13.5685 7.54964 14.3251 7.6872 15.1046C7.48693 15.2381 7.48693 15.2381 7.28261 15.3744C7.1693 14.7873 7.13322 14.2355 7.13932 13.638C7.14054 13.4826 7.14175 13.3272 7.14301 13.167C7.14457 13.0498 7.14614 12.9327 7.14775 12.812Z" fill="#000816"/>
<path d="M9.03564 18.2066C9.55824 18.3246 9.55824 18.3246 9.70996 18.4763C9.71544 18.701 9.71572 18.9259 9.70996 19.1506C9.4795 18.9317 9.25487 18.7065 9.03564 18.4763C9.03564 18.3873 9.03564 18.2983 9.03564 18.2066Z" fill="#F9F9F9"/>
</svg>
