<svg width="151" height="44" viewBox="0 0 151 44" fill="none" xmlns="http://www.w3.org/2000/svg">
<path d="M114.234 0.0721912L112.252 0.0850315V0.941074V1.79712H113.228H114.208L114.234 3.30375C114.251 4.13411 114.264 5.21272 114.264 5.70067V6.59095H113.258H112.252V7.76801V8.94507H113.275H114.294L114.324 10.0023C114.336 10.5887 114.379 13.6619 114.418 16.8421C114.456 20.018 114.499 22.6332 114.516 22.646C114.529 22.6631 115.864 22.6845 117.487 22.7017L120.427 22.7316V22.5048C120.427 22.3807 120.466 19.6499 120.513 16.4354C120.56 13.221 120.598 10.2206 120.598 9.77115V8.94507L121.639 8.93651L122.674 8.92367L122.687 7.75517L122.696 6.59095H121.664H120.633L120.658 5.33685C120.671 4.65202 120.697 3.17534 120.71 2.06249L120.735 0.0422306L118.471 0.0507908C117.23 0.059351 115.321 0.0679111 114.234 0.0721912Z" fill="white"/>
<path d="M1.03883 0.115107C0.996029 0.153629 1.00031 1.79723 1.04311 1.80151C1.06023 1.80151 1.63806 1.94276 2.33145 2.10969L3.58984 2.41786L7.00544 8.5514C8.88446 11.9285 10.4125 14.7106 10.4039 14.7363C10.3911 14.7663 9.86462 16.5511 9.22687 18.7041C8.58912 20.857 8.05838 22.6547 8.04554 22.6932C8.02413 22.766 8.17822 22.7703 10.8619 22.7703H13.704L14.9838 18.8196C16.2293 14.976 16.3235 14.7106 18.5663 8.62845C19.8332 5.19144 20.8776 2.37078 20.8904 2.36222C20.9033 2.34938 20.9161 2.34938 20.9247 2.35794C20.9504 2.3879 24.5586 6.43698 24.6356 6.5183C24.7041 6.59107 24.7769 6.58251 26.5018 6.24865C27.4863 6.06032 28.3081 5.89767 28.3252 5.89339C28.338 5.88911 27.8843 4.58365 27.3108 2.99569L26.2707 0.106546L22.5897 0.0937061C19.1099 0.085146 18.9002 0.089426 18.8616 0.157909C18.8402 0.200712 17.9243 2.65327 16.8242 5.60662C15.7242 8.55996 14.8083 11.004 14.7911 11.0382C14.7655 11.0853 14.7526 11.0853 14.7184 11.0168C14.6927 10.974 13.5798 8.49576 12.2444 5.50817L9.81326 0.085146H5.43889C3.03341 0.085146 1.05167 0.0979862 1.03883 0.115107Z" fill="white"/>
<path d="M34.1463 0.945469L34.1591 1.81007L35.2035 2.09257C36.0381 2.31942 36.2564 2.39646 36.2864 2.46066C36.3078 2.50775 38.0241 7.09185 40.1043 12.6476L43.888 22.7489L46.9484 22.7617L50.013 22.7703L50.0772 22.5477C50.2056 22.094 55.7185 3.09413 55.7998 2.81164C55.8469 2.65327 55.9026 2.53343 55.924 2.54627C55.9454 2.55911 56.7286 3.47507 57.6617 4.58365C59.3396 6.57823 59.3567 6.59535 59.4894 6.56539C60.5808 6.35137 63.8638 5.61518 63.8552 5.58522C63.8424 5.51673 61.2314 0.196432 61.1801 0.140789C61.1458 0.0937061 60.3839 0.085146 57.4734 0.0937061L53.8138 0.106546L51.1687 9.15491C49.7134 14.1285 48.5192 18.2076 48.5106 18.2118C48.5021 18.2204 47.141 14.1756 45.4845 9.23196C43.8281 4.28403 42.4541 0.200712 42.4327 0.157909C42.3985 0.089426 42.1545 0.085146 38.2638 0.085146H34.1377L34.1463 0.945469Z" fill="white"/>
<path d="M90.4917 0.17931C90.4575 0.234953 89.1777 2.70464 87.6411 5.67082C86.1045 8.63701 84.8333 11.081 84.8076 11.1067C84.7819 11.1324 84.7776 11.0724 84.7905 10.9355C84.8205 10.6615 84.9189 6.29573 84.8975 6.27433C84.8889 6.26577 83.0228 6.62103 80.75 7.06617C78.4772 7.51131 76.6153 7.87513 76.6067 7.87513C76.6024 7.87513 76.6024 8.25607 76.6067 8.71833L76.6196 9.56581L77.5912 9.57865L78.5585 9.58721L78.5842 10.0709C78.597 10.332 78.6355 12.8402 78.6741 15.6437C78.7083 18.443 78.7511 21.1951 78.764 21.7516L78.7939 22.7703H81.7344H84.6749L84.7049 21.7302C84.7177 21.1609 84.7434 19.7228 84.7562 18.5329L84.7819 16.3713L88.4629 9.3946C90.4874 5.55526 92.1567 2.40502 92.1739 2.3879C92.1867 2.37506 92.9186 3.15834 93.8003 4.13423C94.6821 5.11011 95.4225 5.90623 95.4439 5.90623C95.521 5.90623 99.1763 5.03735 99.2062 5.00739C99.2234 4.99455 98.7697 3.88597 98.2004 2.54627L97.1646 0.106546L93.8603 0.0937061L90.5559 0.085146L90.4917 0.17931Z" fill="white"/>
<path d="M29.3657 7.01896C27.2727 7.43414 25.445 7.80223 25.3081 7.82792L25.0641 7.88356L25.0727 8.72248L25.0855 9.56568L26.4124 9.57852L27.7392 9.58708L27.8762 9.92094C27.949 10.1007 28.0388 10.319 28.0774 10.4046L28.1416 10.563L26.956 11.3034C23.489 13.465 22.282 14.3296 21.1905 15.4253C20.0691 16.551 19.5811 17.467 19.457 18.674C19.3201 20.0479 19.7866 21.2464 20.7796 22.0468C21.6613 22.7616 23.0396 23.1125 24.9785 23.1125C26.1085 23.1125 27.033 22.9884 28.0132 22.7059C28.8178 22.4748 29.1474 22.3336 31.3903 21.2763C31.844 21.0623 32.2206 20.8868 32.2249 20.8868C32.2292 20.8868 32.3961 21.3106 32.5973 21.8285L32.9611 22.7701H36.0985C37.8191 22.7701 39.2316 22.7659 39.2316 22.7573C39.223 22.6674 33.2393 6.26992 33.2136 6.26564C33.1922 6.26136 31.463 6.59949 29.3657 7.01896ZM30.1747 15.7206C30.7996 17.2915 31.3175 18.5969 31.326 18.6226C31.3346 18.6697 29.4984 19.53 28.7879 19.8082C27.4439 20.3304 26.5365 20.1592 26.1384 19.3074C26.0357 19.0806 26.0271 19.0292 26.0314 18.4471C26.0314 17.9035 26.0485 17.7794 26.147 17.4541C26.3054 16.9448 26.5451 16.4354 26.9774 15.7163C27.5081 14.8303 28.9548 12.7716 29.0062 12.8315C29.019 12.8486 29.5455 14.1455 30.1747 15.7206Z" fill="white"/>
<path d="M65.7044 6.27851C64.3047 6.35128 62.7296 6.68513 61.6895 7.12172C60.735 7.52406 60.0502 7.9906 59.3483 8.71824C58.2482 9.85249 57.649 11.205 57.3708 13.1611C57.2852 13.7518 57.298 15.772 57.3922 16.3969C57.6704 18.2588 58.3082 19.6371 59.4125 20.7413C60.7008 22.0297 62.4129 22.7316 65.0195 23.0355C65.7386 23.1211 67.9986 23.104 68.7005 23.0099C71.0204 22.706 72.634 22.0639 75.0438 20.4931L75.6987 20.0651L75.6387 19.9538C75.5275 19.7398 74.0251 17.1417 73.9951 17.1117C73.978 17.0946 73.3317 17.5098 72.5655 18.0363C70.999 19.1063 70.2585 19.5643 69.4068 19.9923C68.3624 20.5102 67.746 20.7028 66.9884 20.7413C66.1324 20.7884 65.6102 20.6087 65.1051 20.0993C64.4075 19.3931 64.0522 18.2674 63.9024 16.2514L63.8767 15.879H66.5775H69.2783L72.557 14.7063C74.359 14.0599 75.8442 13.5206 75.857 13.5121C75.8656 13.4992 75.8442 13.251 75.8057 12.9642C75.4461 10.1906 74.2562 8.34158 72.1504 7.29292C70.5624 6.50537 68.2682 6.14155 65.7044 6.27851ZM67.2281 8.64547C68.3667 8.85948 68.9616 10.0365 69.1885 12.5405C69.2141 12.8101 69.2484 13.144 69.2612 13.2767L69.2826 13.5249H66.5818H63.8853V13.4051C63.8853 13.1311 63.9794 12.2237 64.0565 11.7486C64.3475 9.94238 65.0538 8.91084 66.1709 8.66687C66.4919 8.59839 66.9199 8.58983 67.2281 8.64547Z" fill="white"/>
<path d="M100.203 6.27422C97.9903 6.41974 96.0728 6.98901 94.8101 7.88358C93.9327 8.49993 93.0895 9.51434 92.6229 10.5073C92.0622 11.7058 91.8183 12.9856 91.8183 14.702C91.8225 16.5082 92.0794 17.7751 92.6957 19.025C94.0012 21.6659 96.6549 22.9884 100.867 23.0997C103.332 23.1639 105.309 22.7701 107.266 21.8285C108.284 21.332 110.227 20.125 110.18 20.0094C110.159 19.9538 108.537 17.1203 108.503 17.0817C108.498 17.0775 107.886 17.4841 107.15 17.9892C105.173 19.346 104.201 19.9195 103.148 20.3475C102.54 20.5958 102.074 20.7114 101.53 20.7456C100.314 20.8184 99.5783 20.3732 99.0475 19.2475C98.7008 18.5199 98.5468 17.758 98.4098 16.123L98.3884 15.879H101.093H103.799L107.073 14.7062L110.347 13.5292L110.339 13.2167C110.313 12.4249 109.932 10.9824 109.534 10.1606C108.956 8.97075 107.925 7.91782 106.76 7.33571C105.785 6.84348 104.62 6.51819 103.242 6.35126C102.707 6.29134 100.755 6.23997 100.203 6.27422ZM101.83 8.66685C102.758 8.91083 103.285 9.73691 103.559 11.3891C103.649 11.9155 103.777 13.1054 103.777 13.3794V13.5249H101.081H98.3884L98.4098 13.2338C98.5639 11.2778 98.8121 10.3404 99.3942 9.51434C99.6254 9.18904 99.8651 8.98787 100.229 8.82094C100.678 8.60693 101.35 8.54273 101.83 8.66685Z" fill="white"/>
<path d="M133.375 7.01896C131.281 7.43842 129.454 7.80223 129.317 7.82792L129.073 7.88356L129.081 8.72248L129.094 9.56568L130.425 9.57852L131.752 9.58708L131.898 9.94234C131.975 10.1349 132.065 10.3532 132.095 10.4303L132.155 10.563L130.901 11.3462C127.19 13.6618 125.888 14.6206 124.848 15.7891C123.864 16.8934 123.466 17.8436 123.466 19.102C123.466 20.3647 123.864 21.2592 124.763 22.0297C125.602 22.7402 127.044 23.1125 128.987 23.1125C130.378 23.1125 131.495 22.9242 132.707 22.4834C133.233 22.295 133.64 22.111 135.365 21.2935C135.844 21.0666 136.247 20.8954 136.255 20.9168C136.259 20.9339 136.426 21.3534 136.619 21.8499L136.974 22.7487L140.112 22.7616C143.086 22.7701 143.245 22.7659 143.223 22.6974C142.962 21.9098 137.252 6.2742 137.227 6.26564C137.201 6.26136 135.472 6.59949 133.375 7.01896ZM134.192 15.742C134.834 17.3343 135.348 18.6526 135.331 18.6697C135.262 18.7339 132.878 19.7911 132.544 19.9024C131.568 20.2277 130.883 20.1635 130.425 19.7055C130.16 19.4401 130.049 19.1448 130.023 18.6568C129.972 17.574 130.37 16.5895 131.585 14.7875C132.193 13.8887 132.981 12.7972 133.006 12.8229C133.019 12.8315 133.55 14.1455 134.192 15.742Z" fill="white"/>
<path d="M3.94127 34.438C2.10506 39.6513 0.598422 43.9358 0.589861 43.9615C0.581301 43.9829 3.73582 44 9.00048 44H17.4239L20.6983 40.7256C22.5003 38.9237 23.9641 37.4513 23.9513 37.447C23.9384 37.447 22.389 36.9847 20.5057 36.424C18.5411 35.8376 17.1457 35.4011 17.2313 35.3968C17.3126 35.3968 19.0847 35.3197 21.1691 35.2256C23.2536 35.1314 25.0641 35.0544 25.1925 35.0544C25.3295 35.0544 25.4065 35.0372 25.3851 35.0158C25.338 34.973 7.44248 25.013 7.34403 24.9745C7.29267 24.9573 6.6164 26.8449 3.94127 34.438Z" fill="white"/>
<path d="M12.8701 24.9703C12.8787 24.9789 16.1787 26.8664 20.2021 29.1692L27.5127 33.3552L31.7159 29.1521L35.9148 24.9532H24.3839C18.0406 24.9532 12.8616 24.9617 12.8701 24.9703Z" fill="white"/>
<path d="M41.4145 28.313L44.7745 31.673L48.1216 28.3258C49.9664 26.4811 51.473 24.9702 51.473 24.9659C51.473 24.9573 48.4555 24.953 44.7659 24.953H38.0546L41.4145 28.313Z" fill="white"/>
<path d="M50.7878 28.7838L46.957 32.6146H50.8948H54.8326L52.4143 35.033L49.996 37.4513L53.2703 40.7256L56.5447 44H65.1265H73.7084L64.1849 34.4765C58.9459 29.2376 54.6529 24.9531 54.64 24.9531C54.6272 24.9531 52.8937 26.678 50.7878 28.7838Z" fill="white"/>
<path d="M66.916 33.5648L75.5278 42.1809L84.1396 33.5648L92.7557 24.9531H86.635H80.5143L78.0232 27.4441L75.5278 29.9395L73.0324 27.4441L70.5414 24.9531H64.4207H58.3L66.916 33.5648Z" fill="white"/>
<path d="M86.9131 34.4765L77.3897 44H85.9715H94.5533L97.8277 40.7256L101.102 37.4513L98.6837 35.033L96.2654 32.6146H100.203H104.141L100.31 28.7838C98.2043 26.678 96.4709 24.9531 96.458 24.9531C96.4452 24.9531 92.1521 29.2376 86.9131 34.4765Z" fill="white"/>
<path d="M102.998 28.2574L106.303 31.566L109.607 28.2574L112.915 24.9531H106.303H99.6896L102.998 28.2574Z" fill="white"/>
<path d="M119.468 29.1519L123.667 33.3508L130.918 29.2033C134.907 26.9177 138.207 25.0301 138.254 25.0044C138.318 24.9659 135.412 24.9573 126.805 24.9531H115.27L119.468 29.1519Z" fill="white"/>
<path d="M134.89 29.9309C129.981 32.666 125.919 34.9388 125.859 34.9773C125.756 35.0501 125.756 35.0501 125.974 35.0501C126.248 35.0544 133.859 35.3925 133.974 35.4096C134.021 35.4139 132.536 35.8676 130.678 36.4197C128.816 36.9719 127.284 37.4342 127.267 37.447C127.25 37.4641 128.705 38.9451 130.499 40.7385L133.76 44L142.175 43.9914L150.59 43.9786L147.247 34.4808C145.407 29.2547 143.883 24.9787 143.861 24.9702C143.836 24.9659 139.799 27.2002 134.89 29.9309Z" fill="white"/>
<path d="M28.4455 35.5038L19.9492 44H24.5077H29.0661L33.0039 40.0622L36.9417 36.1244L40.8795 40.0622L44.8173 44L49.3671 43.9914L53.9127 43.9786L45.4293 35.4909L36.9417 27.0076L28.4455 35.5038Z" fill="white"/>
<path d="M105.66 35.5038L97.1642 44H101.723H106.281L110.219 40.0622L114.157 36.1244L118.094 40.0622L122.032 44L126.582 43.9914L131.128 43.9786L122.644 35.4909L114.157 27.0076L105.66 35.5038Z" fill="white"/>
<path d="M34.4592 41.5175L31.9767 44H36.9417H41.9067L39.4242 41.5175C38.0588 40.1521 36.9417 39.035 36.9417 39.035C36.9417 39.035 35.8246 40.1521 34.4592 41.5175Z" fill="white"/>
<path d="M111.674 41.5175L109.191 44H114.156H119.121L116.639 41.5175C115.274 40.1521 114.156 39.035 114.156 39.035C114.156 39.035 113.039 40.1521 111.674 41.5175Z" fill="white"/>
</svg>
